<svg width="441" height="94" viewBox="0 0 441 94" fill="none" xmlns="http://www.w3.org/2000/svg">
<path d="M220.82 94C219.815 94 218.903 94 217.898 94V90.3742C219.724 90.3742 221.55 90.3742 223.375 90.3742V94C222.554 94 221.732 94 220.82 94ZM228.944 93.9094L228.853 90.2835C230.678 90.1929 232.504 90.1929 234.238 90.1022L234.421 93.7281C232.595 93.7281 230.77 93.8187 228.944 93.9094ZM212.421 93.9094C210.596 93.8187 208.77 93.8187 206.944 93.7281L207.127 90.1022C208.952 90.1929 210.778 90.2835 212.604 90.2835L212.421 93.9094ZM239.898 93.3655L239.716 89.7396C241.541 89.649 243.367 89.4677 245.193 89.3771L245.467 93.0029C243.641 93.1842 241.724 93.2748 239.898 93.3655ZM201.376 93.3655C199.55 93.2748 197.724 93.0935 195.899 93.0029L196.172 89.3771C197.998 89.5583 199.824 89.649 201.65 89.7396L201.376 93.3655ZM250.944 92.5497L250.579 88.9238C252.404 88.7425 254.139 88.5612 255.964 88.3799L256.421 92.0058C254.595 92.1871 252.769 92.3684 250.944 92.5497ZM190.421 92.5497C188.596 92.3684 186.77 92.1871 184.944 92.0058L185.401 88.3799C187.226 88.5612 189.052 88.7425 190.878 88.9238L190.421 92.5497ZM261.807 91.2806L261.35 87.6548C263.176 87.3828 264.91 87.2016 266.736 86.9296L267.284 90.5555C265.458 90.8274 263.632 91.0993 261.807 91.2806ZM179.376 91.2806C177.55 91.0087 175.724 90.8274 173.899 90.4648L174.447 86.839C176.272 87.1109 178.007 87.3828 179.832 87.5641L179.376 91.2806ZM272.67 89.7396L272.031 86.2044C273.856 85.9325 275.591 85.5699 277.416 85.298L278.055 88.8332C276.321 89.1051 274.495 89.3771 272.67 89.7396ZM168.513 89.649C166.687 89.3771 164.862 89.0145 163.036 88.6519L163.675 85.1167C165.501 85.4793 167.235 85.7512 169.061 86.1138L168.513 89.649ZM283.533 87.7454L282.802 84.2102C284.537 83.8476 286.362 83.4851 288.097 83.1225L288.918 86.6577C287.093 86.9296 285.267 87.3828 283.533 87.7454ZM157.65 87.5641C155.824 87.2015 154.09 86.839 152.264 86.3857L153.086 82.8505C154.82 83.2131 156.646 83.6664 158.38 84.0289L157.65 87.5641ZM294.213 85.298L293.391 81.7628C295.126 81.3095 296.952 80.8563 298.686 80.4031L299.599 83.9383C297.773 84.4822 296.039 84.9354 294.213 85.298ZM146.878 85.2073C145.053 84.7541 143.318 84.3009 141.492 83.8476L142.405 80.3124C144.14 80.7657 145.965 81.2189 147.7 81.6721L146.878 85.2073ZM304.893 82.5786L303.889 79.0434C305.624 78.5902 307.358 78.0463 309.093 77.5024L310.097 80.947C308.362 81.5815 306.628 82.0347 304.893 82.5786ZM136.198 82.3973C134.463 81.9441 132.638 81.4002 130.903 80.8563L131.999 77.4118C133.733 77.9557 135.468 78.4089 137.202 78.9528L136.198 82.3973ZM315.391 79.406L314.296 75.9614C316.03 75.4176 317.765 74.8737 319.499 74.2392L320.686 77.6837C318.86 78.3182 317.126 78.8621 315.391 79.406ZM125.609 79.2247C123.874 78.6808 122.14 78.0463 120.406 77.5024L121.592 74.0579C123.327 74.6017 125.061 75.2363 126.795 75.7801L125.609 79.2247ZM325.798 75.9614L324.52 72.5169C326.254 71.8824 327.897 71.2478 329.632 70.6133L330.91 73.9672C329.267 74.6924 327.532 75.3269 325.798 75.9614ZM115.202 75.6895C113.468 75.055 111.733 74.4204 109.999 73.7859L111.277 70.432C113.011 71.0665 114.655 71.7011 116.389 72.3356L115.202 75.6895ZM336.113 72.0637L334.744 68.7097C336.387 68.0752 338.121 67.3501 339.764 66.6249L341.225 69.9788C339.491 70.704 337.847 71.4291 336.113 72.0637ZM104.887 71.7917C103.153 71.0665 101.509 70.432 99.775 69.7069L101.236 66.3529C102.879 67.0781 104.613 67.7126 106.256 68.4378L104.887 71.7917ZM346.246 67.8033L344.785 64.4494C346.428 63.7242 348.071 62.999 349.715 62.1832L351.266 65.4465C349.623 66.3529 347.889 67.0781 346.246 67.8033ZM94.663 67.5313C93.0199 66.8062 91.2854 65.9904 89.6423 65.2652L91.1942 62.0019C92.8373 62.7271 94.4804 63.5429 96.1236 64.2681L94.663 67.5313ZM356.196 63.271L354.644 60.0077C356.287 59.1919 357.93 58.4667 359.482 57.6509L361.125 60.9142C359.573 61.6393 357.93 62.4552 356.196 63.271ZM84.7129 62.9084C83.0698 62.0926 81.4266 61.2768 79.7835 60.4609L81.4266 57.1977C83.0698 58.0135 84.7129 58.8293 86.2647 59.6451L84.7129 62.9084ZM366.055 58.2854L364.32 55.1128C365.963 54.297 367.515 53.3906 369.067 52.5747L370.802 55.7474C369.25 56.5632 367.698 57.4696 366.055 58.2854ZM74.8541 57.9229C73.2109 57.107 71.6591 56.2006 70.0159 55.2941L71.7504 52.1215C73.3022 53.028 74.9454 53.8438 76.4972 54.7502L74.8541 57.9229ZM375.731 53.028L373.905 49.8554C375.457 48.9489 377.009 48.0424 378.561 47.136L380.478 50.2179C378.835 51.215 377.283 52.1215 375.731 53.028ZM65.2691 52.5747C63.7172 51.6683 62.0741 50.7618 60.5223 49.7647L62.4392 46.6827C63.9911 47.5892 65.543 48.4957 67.0948 49.4021L65.2691 52.5747ZM385.133 47.4079L383.216 44.3259C384.768 43.3288 386.32 42.4224 387.781 41.4253L389.789 44.4166C388.237 45.4137 386.685 46.4108 385.133 47.4079ZM55.7754 46.9547C54.2236 45.9576 52.6717 44.9605 51.1199 43.9634L53.1281 40.972C54.68 41.9691 56.1406 42.9663 57.6924 43.8727L55.7754 46.9547ZM394.353 41.4253L392.345 38.4339C393.805 37.4368 395.357 36.4397 396.818 35.352L398.917 38.3433C397.366 39.4311 395.905 40.4282 394.353 41.4253ZM46.5556 40.972C45.0037 39.9749 43.5432 38.8872 41.9913 37.8901L44.0909 34.8988C45.5514 35.8959 47.1033 36.9836 48.5639 37.9807L46.5556 40.972ZM403.39 35.1707L401.2 32.27C402.66 31.1823 404.121 30.0945 405.581 29.0974L407.772 31.9981C406.312 32.9952 404.851 34.0829 403.39 35.1707ZM37.5183 34.6268C36.0578 33.5391 34.5972 32.4513 33.1366 31.3635L35.3275 28.4629C36.788 29.5506 38.2486 30.6384 39.7092 31.7261L37.5183 34.6268ZM412.154 28.5535L409.872 25.6528C411.332 24.5651 412.702 23.3867 414.162 22.2989L416.444 25.109C415.075 26.2874 413.614 27.4658 412.154 28.5535ZM28.7549 28.0096C27.2943 26.9219 25.8338 25.7435 24.4645 24.5651L26.7466 21.7551C28.1159 22.9335 29.5765 24.0212 31.0371 25.109L28.7549 28.0096ZM420.735 21.6644L418.361 18.8544C419.73 17.676 421.1 16.4976 422.469 15.3192L424.842 18.0386C423.564 19.3076 422.104 20.486 420.735 21.6644ZM20.2654 21.1205C18.8961 19.9421 17.4355 18.7637 16.0662 17.5853L18.4397 14.866C19.8089 16.0444 21.1782 17.2228 22.5475 18.4012L20.2654 21.1205ZM429.042 14.5034L426.577 11.784C427.946 10.6056 429.224 9.33655 430.593 8.15815L433.058 10.7869C431.78 12.0559 430.411 13.325 429.042 14.5034ZM11.9584 13.8689C10.5891 12.5998 9.21983 11.4214 7.94183 10.1524L10.4065 7.52363C11.6845 8.79267 13.0538 9.97107 14.4231 11.1495L11.9584 13.8689ZM437.075 7.0704L434.519 4.44166C435.797 3.17261 437.075 1.90357 438.353 0.634523L440.909 3.17261C439.722 4.44166 438.444 5.80135 437.075 7.0704ZM3.92527 6.43587C2.55599 5.16683 1.278 3.80714 0 2.53809L2.55599 0C3.83399 1.26905 5.11199 2.53809 6.38998 3.80714L3.92527 6.43587Z" fill="white"/>
</svg>
