<svg width="170" height="147" viewBox="0 0 170 147" fill="none" xmlns="http://www.w3.org/2000/svg">
<g clip-path="url(#clip0)">
<path d="M84.9073 64.2498H74.6567V107.562H84.9073V64.2498Z" fill="white"/>
<path d="M121.464 85.9999C123.378 85.3749 124.922 84.4374 126.033 83.2499C127.145 82.0624 127.824 80.7499 128.133 79.2499C128.318 78.4999 128.38 77.8124 128.503 77.1874C128.565 76.6249 128.627 76.0624 128.627 75.6249C128.627 74.1874 128.442 72.8124 128.071 71.4374C127.701 70.0624 126.898 68.7499 125.786 67.3749C125.231 66.6874 124.675 66.1249 123.996 65.6874C123.378 65.2499 122.637 64.9374 121.773 64.6874C120.908 64.4374 119.982 64.3124 118.932 64.1874C117.882 64.1249 116.647 64.0624 115.289 64.0624H89.4769V107.5H115.845C118.685 107.5 120.908 107.25 122.575 106.75C124.243 106.25 125.725 105.062 126.96 103.125C128.195 101.125 128.812 98.9999 128.812 96.8124C128.75 93.8124 128.009 91.4374 126.589 89.6249C125.169 87.8124 123.44 86.6249 121.464 85.9999ZM118.376 77.2499C118.376 78.4999 117.821 79.4999 116.709 80.0624C115.598 80.6874 113.807 80.9999 111.46 80.9999H110.102H104.668V90.5624H109.361H110.719C113.56 90.4374 115.598 90.7499 116.771 91.4999C117.944 92.2499 118.5 93.2499 118.438 94.4999C118.438 95.1874 118.191 95.8749 117.759 96.6249C117.327 97.3749 116.709 97.8749 115.845 98.0624C114.98 98.2499 113.683 98.3749 111.892 98.3749H110.534H99.6658V95.8124V73.4374H110.657H111.707C114.177 73.3749 115.906 73.6874 116.956 74.4374C118.006 75.1249 118.438 76.1249 118.376 77.2499Z" fill="white"/>
<path d="M148.943 81.2499V90.4999H159.749V98.2499H154.871C153.451 98.2499 152.216 98.1874 151.104 98.0624C149.993 97.9374 149.005 97.7499 148.14 97.4374C147.276 97.1249 146.473 96.6874 145.794 96.1249C145.115 95.5624 144.435 94.8124 143.88 93.8124C142.706 91.9374 142.15 89.4374 142.15 86.2499C142.15 84.6874 142.274 83.3124 142.583 81.9374C142.891 80.6249 143.447 79.1249 144.312 77.4999C144.806 76.6249 145.362 75.9999 146.041 75.4374C146.72 74.9374 147.523 74.4999 148.449 74.2499C149.375 73.9999 150.487 73.8124 151.722 73.6874C152.957 73.5624 154.377 73.5624 155.921 73.5624H170.062V64.1874H151.722C147.893 64.1874 144.497 64.6249 141.656 65.4999C138.754 66.3749 136.655 68.0624 135.296 70.6249C133.876 73.1874 132.95 75.6249 132.456 78.0624C131.962 80.4999 131.653 83.0624 131.653 85.7499C131.653 88.5624 131.9 91.1874 132.456 93.6249C132.95 96.0624 133.938 98.4999 135.42 101C136.902 103.5 139.001 105.187 141.656 106.125C144.374 107 147.585 107.5 151.413 107.5H170.124V81.2499H148.943Z" fill="white"/>
<path d="M95.2815 112.437C83.0549 115.687 57.3048 117.625 23.9594 93.4374L49.7094 123.437C65.3941 126.812 82.2521 124 96.3313 114.75C97.5046 113.937 96.6401 112.062 95.2815 112.437Z" fill="#004977"/>
<path d="M45.6339 118.188C44.3372 116.25 43.0404 114.188 41.8671 112.063C41.2496 111.813 40.6939 111.375 40.1999 110.813C38.0386 108.125 36.0008 104.875 34.5188 101.313C30.752 101.5 28.3437 99.1875 26.1207 96.25C25.0092 94.8125 23.9594 93.25 22.9096 91.75C22.7861 91.5625 21.9834 90.375 22.7861 91.5625C22.6009 91.3125 22.4774 91.0625 22.2921 90.875C21.9834 90.5 21.7364 90.0625 21.4276 89.6875C21.0571 89.1875 20.7484 88.6875 20.5014 88.125C18.4636 87.9375 16.611 86.875 15.129 85.4375C12.1032 82.5 10.0037 77.75 9.63321 73.375C5.74291 69 5.86641 61.4375 10.0037 57.25C9.88021 50.6875 11.8562 45.5625 16.3023 38.9375C18.5871 35.5 20.6249 31.375 19.8221 27.125C19.2663 24.125 16.9198 23 14.141 24.25C-2.90221 46.4375 -3.45796 78.3125 14.5115 101.313C24.0829 113.5 37.1741 121.125 51.1915 123.813C49.1537 122.375 47.2395 120.625 45.6339 118.188Z" fill="url(#paint0_linear)"/>
<path d="M31.8633 104.813C31.1223 103.688 30.3195 102.438 29.6403 101.188C29.2698 101 28.961 100.813 28.6523 100.438C27.4173 98.8751 26.1822 96.9376 25.3177 94.8126C23.0947 94.9376 21.6744 93.5626 20.3777 91.8126C19.6984 90.9376 19.0809 90.0626 18.4634 89.1251C18.4016 89.0001 17.9076 88.3126 18.4016 89.0001C18.2781 88.8751 18.2164 88.6876 18.0929 88.5626C17.9076 88.3126 17.7841 88.1251 17.5989 87.8751C17.3519 87.5626 17.1666 87.2501 17.0431 86.9376C15.8699 86.8126 14.7583 86.1876 13.8938 85.3126C12.1031 83.5626 10.868 80.7501 10.621 78.1876C8.33626 75.6251 8.39801 71.1251 10.868 68.6876C10.8063 64.8126 11.9796 61.7501 14.5731 57.8751C15.9316 55.8126 17.1049 53.3751 16.6726 50.8751C16.3639 49.1251 14.9436 48.4376 13.3381 49.1876C3.2727 62.4376 2.90219 81.2501 13.5851 94.8126C19.2044 102 26.985 106.5 35.2596 108.063C33.9628 107.313 32.8513 106.25 31.8633 104.813Z" fill="url(#paint1_linear)"/>
<path d="M63.6651 124.812C63.6651 124.812 34.1482 126.437 15.5612 102.562C13.7087 100.125 11.9179 97.6873 10.3124 95.0623C8.76863 92.6248 7.41011 90.1248 6.17509 87.5623C5.00183 85.1248 4.01381 82.6248 3.21105 80.0623C2.40829 77.5623 1.79078 75.0623 1.35853 72.4998C0.926271 69.9373 0.679268 67.3748 0.617517 64.8123C0.494015 62.1873 0.617517 59.5623 0.926271 56.9998C1.23502 54.2498 1.66728 51.5623 2.28479 48.9373C2.96405 46.1248 3.76681 43.3123 4.69307 40.5623C5.68108 37.6248 6.85435 34.7498 8.08937 31.8748C8.64512 30.6873 9.13913 29.4373 9.69489 28.2498C9.81839 27.9998 9.94189 27.6873 10.1271 27.4998C10.9917 26.6873 12.5354 27.8123 13.0912 28.4998C14.2027 29.8748 13.9557 32.1248 13.8322 33.7498C13.5852 37.0623 12.9059 40.3748 12.2267 43.6873C11.6092 46.7498 10.9917 49.8123 10.4976 52.8748C8.27462 65.5623 16.364 86.5623 20.2543 85.4373C24.1446 84.3123 21.057 70.8748 20.5013 65.7498C19.9455 60.5623 19.4515 55.7498 22.5391 55.9373C25.6884 56.1248 29.9492 59.6873 33.963 86.8123C37.9768 113.937 58.5398 124.5 63.6651 124.812Z" fill="url(#paint2_linear)"/>
<path d="M44.3988 82.5623C45.6338 81.8748 46.0661 80.3123 45.3868 78.9998C44.7075 77.7498 43.1638 77.2498 41.9288 77.9373C41.126 78.3748 40.632 79.2498 40.632 80.1873C40.138 80.2498 39.644 80.3123 39.2735 80.3748C39.2117 80.1873 39.15 79.9998 39.0265 79.8123C38.5942 79.3123 37.9149 79.2498 37.4827 79.6873C37.0504 80.1248 36.9887 80.8123 37.4209 81.2498C37.8532 81.6873 38.5325 81.8123 38.9647 81.3748C39.2117 81.1873 39.3352 80.8748 39.3352 80.5623C39.7675 80.5623 40.1997 80.5623 40.6937 80.5623C40.7555 80.8748 40.8172 81.1248 41.0025 81.4373C41.62 82.7498 43.1638 83.2498 44.3988 82.5623Z" fill="url(#paint3_linear)"/>
<path d="M38.7795 91.3127C38.409 91.1252 37.9768 91.3127 37.7915 91.6877C37.6063 92.0627 37.7298 92.5627 38.1003 92.7502H38.162C38.162 92.8752 38.1003 93.0002 38.1003 93.1877C38.1003 93.3752 38.1003 93.5627 38.1003 93.8127C38.1003 94.3127 38.1003 94.8127 38.1003 95.1252C37.9768 95.1252 37.8533 95.1877 37.7915 95.3127C37.7298 95.5002 37.7915 95.7502 37.9768 95.8127C38.162 95.8752 38.3473 95.8127 38.4708 95.6252C38.5943 95.4377 38.4708 95.1877 38.2855 95.1252C38.2238 95.1252 38.2238 95.1252 38.162 95.1252C38.2238 94.8127 38.2238 94.3127 38.2855 93.8127C38.2855 93.6252 38.3473 93.3752 38.3473 93.1877C38.3473 93.0627 38.3473 92.9377 38.3473 92.8127C38.5943 92.8127 38.8413 92.6252 39.0266 92.3752C39.2736 91.9377 39.1501 91.5002 38.7795 91.3127Z" fill="url(#paint4_linear)"/>
<path d="M18.5253 72.8126C18.1548 72.6251 17.7225 72.8126 17.5373 73.1876C17.352 73.5626 17.4755 74.0626 17.846 74.2501H17.9078C17.9078 74.3751 17.846 74.5001 17.846 74.6876C17.846 74.8751 17.846 75.0626 17.846 75.3126C17.846 75.8126 17.846 76.3126 17.846 76.6251C17.7225 76.6251 17.599 76.6876 17.5373 76.8126C17.4755 77.0001 17.5373 77.2501 17.7225 77.3126C17.9078 77.3751 18.093 77.3126 18.2165 77.1251C18.2783 76.9376 18.2165 76.6876 18.0313 76.6251C17.9695 76.6251 17.9695 76.6251 17.9078 76.6251C17.9695 76.3126 17.9695 75.8126 18.0313 75.3126C18.0313 75.1251 18.093 74.8751 18.093 74.6876C18.093 74.5626 18.093 74.4376 18.093 74.3126C18.34 74.3126 18.587 74.1251 18.7723 73.8751C19.081 73.4376 18.8958 73.0001 18.5253 72.8126Z" fill="url(#paint5_linear)"/>
<path d="M47.9187 88.3124C47.7335 88.3749 47.61 88.4999 47.5482 88.6249C47.1777 88.4999 46.7455 88.3749 46.3132 88.2499C46.1897 88.1874 46.0662 88.1874 45.9427 88.1249C45.9427 87.9374 45.9427 87.7499 45.9427 87.5624C45.7575 86.3749 44.6459 85.5624 43.4727 85.7499C42.2994 85.9374 41.5584 87.0624 41.8054 88.3124C41.9906 89.3749 42.9169 90.1249 43.9667 90.1249C43.9667 90.1874 43.9667 90.1874 43.9667 90.2499C44.0284 90.4999 44.0902 90.8124 44.1519 91.0624C44.2137 91.4374 44.2754 91.8124 44.3372 92.1249C43.8432 92.2499 43.5344 92.7499 43.6579 93.3124C43.7814 93.8749 44.2754 94.2499 44.8312 94.1874C44.8929 94.1874 44.8929 94.1874 44.9547 94.1249C45.0164 94.2499 45.1399 94.4374 45.2017 94.5624C45.3252 94.7499 45.5104 94.9999 45.6957 95.2499C46.0662 95.8124 46.4985 96.3124 46.7455 96.6249C46.622 96.7499 46.5602 96.8749 46.5602 97.0624C46.622 97.3124 46.869 97.4999 47.116 97.4999C47.363 97.4374 47.5482 97.1874 47.4865 96.9374C47.4247 96.6874 47.1777 96.4999 46.9307 96.4999C46.869 96.4999 46.869 96.5624 46.8072 96.5624C46.622 96.1874 46.2515 95.6249 45.9427 95.0624C45.8192 94.8124 45.6957 94.5624 45.5104 94.3749C45.3869 94.2499 45.3252 94.1249 45.2017 93.9999C45.5104 93.7499 45.6339 93.3749 45.5722 92.9999C45.5104 92.4999 45.0164 92.1249 44.5842 92.1249C44.5842 91.8124 44.5842 91.4374 44.5224 91.0624C44.5224 90.7499 44.5224 90.4999 44.5224 90.2499C44.5224 90.1874 44.5224 90.1874 44.5224 90.1249C45.2017 89.9374 45.6957 89.3749 45.881 88.7499C46.0045 88.7499 46.128 88.8124 46.2515 88.8124C46.6837 88.8749 47.1777 88.9374 47.5482 88.9999C47.61 89.2499 47.857 89.4374 48.104 89.3749C48.351 89.3124 48.5362 89.0624 48.4745 88.8124C48.4127 88.4999 48.1657 88.3124 47.9187 88.3124Z" fill="url(#paint6_linear)"/>
<path d="M41.8054 22.4376C40.7556 22.7501 40.0764 23.4376 40.2616 24.0626C40.4469 24.6876 41.3731 24.9376 42.4229 24.6251C43.4727 24.3126 44.1519 23.6251 43.9667 23.0001C43.7814 22.3751 42.8551 22.1251 41.8054 22.4376Z" fill="url(#paint7_linear)"/>
<path d="M108.373 31.0623C108.187 31.2498 108.126 31.4373 108.126 31.7498C107.446 31.4373 106.582 31.0623 105.779 30.6873C105.285 30.4373 104.791 30.2498 104.359 29.9998C103.927 29.8748 103.556 29.7498 103.247 29.6248C103.309 28.9373 102.815 28.2498 102.012 28.0623C101.703 27.9998 101.395 27.9998 101.086 28.1248C100.715 27.4998 100.221 26.6248 99.7275 25.8123C99.4804 25.3748 99.2334 24.9373 98.9864 24.4998C98.7394 24.1248 98.4307 23.7498 98.1837 23.4373C98.1219 23.3748 98.0602 23.2498 97.9984 23.1873C98.3072 23.2498 98.5542 23.2498 98.6159 23.1873C98.6777 22.9998 98.1837 22.5623 97.4427 22.2498C96.7017 21.8748 96.0224 21.7498 95.9606 21.9373C95.8989 22.1248 96.3929 22.5623 97.1339 22.8748C97.1957 22.9373 97.3192 22.9373 97.3809 22.9998C97.4427 23.1873 97.5662 23.4998 97.6897 23.8123C97.8749 24.1873 98.0602 24.5623 98.3072 24.9373C98.5542 25.3123 98.9247 25.7498 99.2334 26.1248C99.7892 26.8748 100.345 27.6248 100.839 28.2498C100.53 28.4373 100.283 28.6873 100.221 29.0623C100.098 29.7498 100.654 30.4998 101.456 30.6873C102.074 30.8123 102.691 30.6248 103 30.2498C103.309 30.4373 103.68 30.6248 104.112 30.7498C104.606 30.9373 105.1 31.0623 105.594 31.2498C106.52 31.5623 107.446 31.8748 108.187 32.1248C108.311 32.4998 108.496 32.9373 108.867 33.3123C109.608 34.1248 110.534 34.3748 111.028 33.9998C111.46 33.5623 111.275 32.5623 110.534 31.8123C109.793 31.0623 108.805 30.6248 108.373 31.0623Z" fill="url(#paint8_linear)"/>
<path d="M57.0577 2.6875C60.8863 2 64.2208 1 66.5673 0.125C58.7867 -0.375 50.9444 0.625 43.4108 3.125C44.584 4.125 50.3269 4 57.0577 2.6875Z" fill="url(#paint9_linear)"/>
<path d="M33.5307 41.6251C33.5924 41.6876 33.5924 41.8126 33.6542 41.8751C34.1482 42.6876 34.8274 43.3751 35.3832 44.1876C35.9389 45.0001 36.4947 45.8126 37.0504 46.5001C35.0744 48.1251 34.5187 50.9376 35.8154 53.0626C37.2357 55.4376 40.385 56.1251 42.7933 54.6251C45.2016 53.1251 46.0661 50.0001 44.584 47.6251C43.349 45.5626 40.8172 44.8126 38.5942 45.6251C38.2237 44.7501 37.8532 43.8751 37.4827 42.9376C37.1122 42.0626 36.8652 41.0626 36.4329 40.2501C36.3712 40.1876 36.3094 40.0626 36.2477 40.0001C37.3592 38.8751 38.0385 37.5001 38.1002 36.1251C39.891 35.8751 41.9288 35.5001 43.9665 35.1251C44.8928 34.9376 45.8808 34.8126 46.8071 34.6876C48.4126 38.0001 52.8587 39.4376 57.1195 38.0001C61.689 36.3751 64.2826 32.0001 62.9858 28.1876C61.689 24.3751 56.9342 22.5626 52.3647 24.1876C48.7214 25.5001 46.3131 28.5626 46.1896 31.6876C45.2633 32.0001 44.337 32.3751 43.4108 32.6876C41.4965 33.3126 39.644 33.9376 37.9767 34.5626C37.8532 34.2501 37.7297 33.9376 37.5445 33.6876C36.6799 32.2501 35.0127 31.5001 33.2219 31.6251C33.2219 31.1251 33.1601 30.6876 33.0984 30.1251C32.9749 29.1876 32.6044 28.2501 32.4191 27.2501C32.1721 26.1876 31.9251 25.1251 31.7399 24.1876C32.4191 23.9376 33.0366 23.6251 33.7159 23.1876C37.2975 21.0001 39.2117 17.5001 37.9767 15.3751C36.7417 13.2501 32.7279 13.4376 29.1463 15.6251C27.4791 16.6251 26.1823 17.9376 25.3795 19.1876C25.0708 19.2501 24.7003 19.3126 24.3298 19.3126C22.4155 19.5626 20.4395 19.8126 19.328 19.9376C19.9455 19.1876 20.2542 18.5626 20.069 18.3751C19.822 18.1251 18.8957 18.7501 17.9694 19.6876C17.0432 20.6251 16.4874 21.6251 16.7344 21.8126C16.9814 22.0001 17.9077 21.4376 18.834 20.5001C18.9575 20.3751 19.081 20.2501 19.1427 20.1251C20.1925 20.1251 22.292 20.1251 24.3915 20.1251C24.515 20.1251 24.7003 20.1251 24.8238 20.1251C24.3298 21.3126 24.3298 22.4376 24.8238 23.3126C25.6883 24.7501 27.9113 25.1251 30.3814 24.5001C30.4431 25.4376 30.5049 26.4376 30.5666 27.3751C30.6284 28.3751 30.5666 29.3751 30.6901 30.3126C30.7519 30.8751 30.8754 31.4376 31.0606 31.9376C30.7519 32.0626 30.4431 32.2501 30.1344 32.4376C27.8496 33.8751 26.7381 36.3126 27.2321 38.4376L27.1703 38.5001C26.4911 39.0001 25.75 39.6251 25.0708 40.1876C24.6385 40.5001 24.2063 40.8751 23.774 41.1876C22.6008 40.3126 20.316 41.0001 18.5252 42.8126C16.6109 44.7501 15.9317 47.1876 17.0432 48.3126C18.1547 49.4376 20.563 48.7501 22.4773 46.8126C24.021 45.2501 24.762 43.2501 24.3915 42.0001C24.8238 41.7501 25.3178 41.4376 25.75 41.1876C26.4911 40.7501 27.2938 40.3751 27.9731 39.8751C29.0846 41.7501 31.3076 42.3126 33.5307 41.6251Z" fill="url(#paint10_linear)"/>
<path d="M83.7342 10.3126C88.0568 11.0001 92.1323 10.5001 94.9728 9.18762C87.501 4.50012 79.1646 1.62512 70.7048 0.500122C70.2725 4.81262 76.0153 9.12512 83.7342 10.3126Z" fill="url(#paint11_linear)"/>
<path d="M58.0458 56.5624C55.514 57.4374 54.0938 60.2499 55.02 62.8124C55.5758 64.4999 57.0578 65.6874 58.7251 65.9999C58.6633 66.9374 58.6633 67.8749 58.6016 68.6249C58.2311 68.6249 57.8606 68.7499 57.5518 68.9374C56.5638 69.5624 56.1933 70.8749 56.8108 71.8749C57.4283 72.8749 58.7251 73.1874 59.7131 72.5624C60.7011 71.9374 61.0716 70.6249 60.4541 69.6249C60.1453 69.1249 59.6513 68.8124 59.0956 68.6874C59.2191 67.9374 59.4043 66.9999 59.5896 66.1249C60.1453 66.1249 60.7011 66.0624 61.2568 65.8749C63.7886 64.9999 65.2089 62.1874 64.2826 59.6249C63.3564 56.9999 60.5776 55.6874 58.0458 56.5624Z" fill="url(#paint12_linear)"/>
<path d="M45.0782 61.8123C43.3492 62.8748 42.6699 65.0623 43.4109 66.8748C43.3492 66.8748 43.2874 66.9373 43.2257 66.9373C42.7934 67.1873 42.3612 67.4998 41.9289 67.8123C41.3114 68.1873 40.7556 68.5623 40.2616 68.8748C39.6441 68.1248 38.5944 67.9373 37.7299 68.4998C36.8036 69.0623 36.4948 70.2498 37.0506 71.1873C37.1124 71.2498 37.1741 71.3748 37.2359 71.4373C37.2359 71.4998 37.1741 71.4998 37.1741 71.5623C36.9889 71.8748 36.8036 72.1873 36.6183 72.4998C36.1861 73.2498 35.7538 73.9373 35.4451 74.4373C35.2598 74.3123 35.0128 74.3123 34.8276 74.4373C34.5188 74.6248 34.3953 74.9998 34.5806 75.3123C34.7658 75.6248 35.1363 75.6873 35.4451 75.4998C35.7538 75.3123 35.8773 74.9373 35.6921 74.6248C35.6303 74.5623 35.6303 74.4998 35.5686 74.4998C35.9391 74.0623 36.4331 73.3748 36.9889 72.6873C37.2359 72.3748 37.4211 72.1248 37.6681 71.8748L37.7299 71.8123C38.3474 72.1873 39.1501 72.2498 39.8294 71.8123C40.6939 71.3123 41.0027 70.2498 40.6321 69.3748C41.1879 69.1248 41.8054 68.8748 42.4229 68.5623C42.9169 68.3748 43.4109 68.1873 43.8432 67.9373C43.9049 67.8748 43.9667 67.8748 44.0284 67.8123C44.8312 68.8123 46.128 69.3748 47.363 69.2498C47.4247 69.4998 47.4865 69.7498 47.5482 69.9373C47.7335 70.8123 47.9805 71.6873 48.1657 72.4373C47.7335 72.7498 47.61 73.2498 47.9187 73.6873C48.1657 74.1248 48.7832 74.2498 49.2155 73.9998C49.6478 73.7498 49.833 73.1248 49.5243 72.6873C49.339 72.3748 49.0303 72.2498 48.6597 72.2498C48.598 71.4998 48.5362 70.6873 48.4127 69.8123C48.4127 69.5623 48.351 69.3123 48.351 69.0623C48.6597 68.9373 48.9685 68.8123 49.2773 68.6248C51.1915 67.4373 51.8708 64.9373 50.6975 62.9998C49.5243 61.1873 46.9925 60.6248 45.0782 61.8123Z" fill="url(#paint13_linear)"/>
<path d="M106.953 26.1876C107.2 26.0001 107.323 25.6876 107.138 25.4376C106.953 25.1876 106.644 25.1251 106.397 25.2501C106.15 25.3751 106.026 25.7501 106.212 26.0001C106.397 26.2501 106.706 26.3126 106.953 26.1876Z" fill="url(#paint14_linear)"/>
<path d="M112.942 37.8751C112.695 37.4376 112.078 37.3126 111.646 37.5626C111.213 37.8126 111.028 38.4376 111.337 38.8751C111.646 39.3126 112.201 39.4376 112.634 39.1876C113.066 38.8751 113.189 38.3126 112.942 37.8751Z" fill="url(#paint15_linear)"/>
<path d="M31.8635 55.0001C31.1842 55.5626 31.0607 56.5001 31.493 57.0626C31.9253 57.6251 32.8515 57.6251 33.5308 57.0626C34.21 56.5001 34.3335 55.5626 33.9013 55.0001C33.469 54.4376 32.5428 54.4376 31.8635 55.0001Z" fill="url(#paint16_linear)"/>
<path d="M91.5148 26.1248C91.2678 26.1248 91.0208 26.2498 90.8356 26.3748C90.6503 26.1873 90.465 25.9998 90.2798 25.7498C89.9093 25.3748 89.477 24.9373 88.983 24.4998C90.8973 23.6248 92.1323 22.3748 92.3793 20.7498C92.9351 17.2498 88.1803 13.5623 81.8199 12.6248C75.4596 11.6248 69.9021 13.6873 69.3463 17.2498C68.8523 20.4998 72.8661 23.8748 78.4854 25.1248C78.1766 26.0623 77.8061 26.9998 77.4974 27.9998C77.3121 28.4998 77.1269 28.9998 76.9416 29.4998C75.7684 29.3748 74.5334 29.4998 73.3601 29.8748C69.408 31.2498 67.2468 35.3748 68.173 39.3123C67.185 39.8748 66.1353 40.5623 65.0855 41.1248C63.233 42.1248 61.3805 43.1873 59.7749 44.1248C58.4782 42.0623 55.8846 41.1248 53.4146 41.9373C50.5741 42.9373 49.0303 46.0623 50.0183 48.8748C51.0063 51.6873 54.0939 53.1873 56.9344 52.1873C59.7132 51.1873 61.1952 48.2498 60.3924 45.4373C62.1215 44.8123 64.0975 44.1248 66.0735 43.3123C67.185 42.8748 68.3583 42.5623 69.4698 42.1248C71.5076 44.8748 75.1509 46.0623 78.5472 44.8748C82.7462 43.3748 84.9692 38.8123 83.549 34.6873C82.7462 32.4373 81.0789 30.7498 79.0412 29.9373C79.1029 29.4373 79.2264 28.8748 79.2882 28.3748C79.4734 27.3123 79.6587 26.2498 79.8439 25.2498C82.7462 25.6873 85.525 25.4998 87.6863 24.8123C87.748 24.8748 87.8098 24.9373 87.8715 24.9998C88.489 25.4998 89.1065 25.9373 89.6623 26.3123C89.8475 26.4373 90.0945 26.5623 90.2798 26.6873C90.0945 26.9373 90.0328 27.1873 90.0328 27.4998C90.0945 28.2498 90.8973 28.7498 91.7618 28.6248C92.6263 28.4998 93.2438 27.8748 93.1821 27.1248C93.1203 26.4998 92.3176 25.9998 91.5148 26.1248Z" fill="url(#paint17_linear)"/>
<path d="M18.2783 54C18.1548 54.0625 18.0313 54.1875 18.0313 54.3125C17.9695 54.3125 17.846 54.3125 17.7843 54.25C17.2903 54.1875 16.6728 54.125 16.0553 54.125C15.4377 54.125 14.8202 54.0625 14.3262 54.0625C14.4497 53.375 14.2027 52.75 13.8322 52.6875C13.4 52.5625 12.906 53.125 12.7825 53.875C12.5972 54.625 12.8442 55.3125 13.2765 55.4375C13.2765 55.4375 13.2765 55.4375 13.3382 55.4375C13.2765 56.0625 13.153 56.75 13.0912 57.5C13.0295 58.5 12.906 59.5 12.8442 60.1875C12.5972 60.25 12.412 60.5 12.2885 60.875C12.165 61.3125 12.3502 61.75 12.5972 61.8125C12.8442 61.875 13.153 61.5625 13.2147 61.125C13.3382 60.6875 13.153 60.25 12.906 60.1875H12.8442C12.906 59.5 13.0912 58.5625 13.2147 57.5625C13.3382 56.8125 13.4 56.0625 13.4617 55.4375C13.8322 55.3125 14.141 54.875 14.3262 54.25V54.1875C14.8202 54.25 15.4377 54.3125 16.0553 54.375C16.6728 54.4375 17.2903 54.5 17.7843 54.5C17.846 54.5 17.9695 54.5 18.0313 54.5C18.0313 54.625 18.0313 54.6875 18.093 54.8125C18.2165 55.0625 18.587 55.125 18.8958 54.9375C19.2045 54.75 19.2663 54.4375 19.1428 54.1875C18.8958 53.875 18.5253 53.875 18.2783 54Z" fill="url(#paint18_linear)"/>
<path d="M22.9097 31.1874C23.2802 30.9374 23.4654 30.4374 23.2802 30.1249C23.0949 29.8124 22.6009 29.6874 22.1686 29.9374C21.7981 30.1874 21.6129 30.6874 21.7981 30.9999C21.9834 31.3749 22.4774 31.4374 22.9097 31.1874Z" fill="url(#paint19_linear)"/>
<path d="M34.8892 9.2502C35.1362 9.1252 35.3214 9.0002 35.5067 8.8752L44.9546 10.9377C43.7196 12.4377 43.2255 14.1252 43.5961 15.6252C44.5841 19.1252 50.2651 20.5627 56.3167 18.8127C57.4282 18.5002 58.5397 18.0627 59.466 17.6252C59.96 18.2502 60.454 18.8752 60.948 19.5002C62.8006 21.8752 64.6531 24.2502 65.9498 25.8752C65.2706 26.4377 65.1471 27.3127 65.5793 27.8752C66.0116 28.4377 66.9379 28.4377 67.5554 27.9377L67.6171 27.8752C68.2346 27.3127 68.4199 26.4377 67.9259 25.8752C67.4936 25.3752 66.7526 25.3127 66.1351 25.6877C64.9618 24.0002 63.2946 21.5002 61.5655 19.0002C61.1333 18.3752 60.7628 17.8127 60.3305 17.1877C64.0356 15.1252 66.1351 12.0627 65.4558 9.4377C65.3941 9.1877 65.3323 9.0002 65.2088 8.7502C65.3323 8.6877 65.4558 8.6877 65.5176 8.6252C66.3203 8.3752 67.0614 8.0627 67.5554 7.8752C67.9259 8.0002 68.3581 8.0627 68.7904 8.1877C70.0872 8.3752 71.1987 8.3127 71.2604 8.0002C71.3222 7.6877 70.2724 7.2502 68.9756 7.0627C67.6789 6.8752 66.5674 6.9377 66.5056 7.2502C66.5056 7.4377 66.6909 7.5627 67.1231 7.7502C66.6291 7.8127 65.9498 7.9377 65.3323 8.0627C65.1471 8.1252 64.9618 8.1252 64.7766 8.1877C62.9241 5.6877 57.9222 4.7502 52.6734 6.2502C49.7094 7.1252 47.2394 8.5627 45.5721 10.1877L35.5684 8.8127C38.5942 7.1252 40.7555 5.5627 40.5085 5.1252C40.2615 4.6877 37.2975 5.8752 33.9012 7.7502C30.4431 9.6252 27.8496 11.4377 28.0966 11.8752C28.3436 12.3127 31.4311 11.1252 34.8892 9.2502Z" fill="url(#paint20_linear)"/>
<path d="M98.3072 16.8749C99.3569 17.6874 100.345 18.1874 100.53 17.9374C100.715 17.6874 100.036 16.8124 98.9864 15.9374C97.9367 15.0624 96.9487 14.6249 96.7634 14.8749C96.5782 15.1249 97.2574 15.9999 98.3072 16.8749Z" fill="url(#paint21_linear)"/>
<path d="M1.29677 141.625C1.48202 142.062 1.79077 142.437 2.28478 142.75C2.71704 143.062 3.27279 143.187 3.8903 143.187C4.26081 143.187 4.56956 143.125 4.87831 143.062C5.18707 143 5.49582 142.875 5.74283 142.687C5.98983 142.5 6.17508 142.312 6.36033 142.062C6.48384 141.812 6.60734 141.5 6.60734 141.125C6.60734 140.75 6.54559 140.437 6.36033 140.187C6.23683 139.875 5.98983 139.625 5.74283 139.437C5.49582 139.25 5.18707 139.062 4.87831 139C4.56956 138.937 4.19906 138.812 3.82855 138.812C3.33454 138.812 2.84054 138.75 2.40828 138.625C1.97603 138.5 1.60552 138.25 1.29677 138C0.988013 137.75 0.74101 137.375 0.555757 137C0.370505 136.625 0.308754 136.187 0.308754 135.687C0.308754 134.75 0.617508 134.062 1.29677 133.562C1.91428 133.062 2.77879 132.812 3.8903 132.812C3.8903 132.812 4.0138 132.812 4.26081 132.812C4.50781 132.812 4.75481 132.875 5.12532 133C5.43407 133.125 5.80458 133.25 6.11333 133.5C6.48384 133.75 6.73084 134.062 6.97784 134.437C6.97784 134.5 7.03959 134.562 7.03959 134.625C7.03959 134.687 7.10134 134.75 7.10134 134.812C7.10134 134.937 7.03959 135.062 6.91609 135.25C6.79259 135.437 6.66909 135.437 6.48384 135.437C6.29858 135.437 6.11333 135.375 5.98983 135.187C5.86633 135 5.68108 134.875 5.55757 134.75C5.43407 134.625 5.24882 134.5 5.12532 134.375C4.94007 134.25 4.75481 134.187 4.56956 134.125C4.38431 134.062 4.13731 134.062 3.82855 134.062C3.3963 134.062 3.08754 134.125 2.77879 134.187C2.47003 134.312 2.22303 134.375 2.09953 134.562C1.91428 134.687 1.79077 134.875 1.72902 135.062C1.66727 135.25 1.60552 135.437 1.60552 135.687C1.60552 136 1.66727 136.25 1.79077 136.5C1.91428 136.75 2.09953 136.937 2.28478 137.062C2.47003 137.25 2.71704 137.375 3.02579 137.437C3.27279 137.5 3.58155 137.562 3.8903 137.562C4.44606 137.562 4.94007 137.625 5.43407 137.812C5.92808 138 6.36033 138.187 6.66909 138.5C6.97784 138.812 7.2866 139.187 7.5336 139.625C7.71885 140.062 7.84235 140.562 7.84235 141.125C7.84235 141.687 7.71885 142.187 7.5336 142.562C7.34835 143 7.03959 143.312 6.66909 143.625C6.29858 143.937 5.86633 144.125 5.37232 144.25C4.87831 144.375 4.38431 144.437 3.82855 144.437C3.70505 144.437 3.5198 144.437 3.21104 144.375C2.90229 144.312 2.53178 144.25 2.16128 144.062C1.79077 143.875 1.42027 143.625 0.988013 143.312C0.617508 143 0.308754 142.5 0.0617508 141.937C0 141.875 0 141.75 0 141.625C0 141.437 0.0617508 141.312 0.185252 141.187C0.308754 141.062 0.432256 141 0.617508 141C0.802761 141 0.926262 141.062 1.04976 141.187C1.11151 141.25 1.23502 141.437 1.29677 141.625Z" fill="white"/>
<path d="M8.70691 138.75C8.70691 138.312 8.76866 137.937 8.95391 137.562C9.07741 137.187 9.32442 136.875 9.57142 136.625C9.81842 136.375 10.1889 136.125 10.4977 136C10.8682 135.875 11.2387 135.75 11.6709 135.75C12.0415 135.75 12.4737 135.812 12.8442 136C13.2147 136.125 13.5235 136.375 13.7705 136.625C14.0175 136.875 14.2645 137.187 14.388 137.562C14.5732 137.937 14.635 138.312 14.635 138.75V141.125C14.635 141.5 14.5732 141.937 14.388 142.25C14.2027 142.562 14.0175 142.937 13.7705 143.187C13.5235 143.437 13.153 143.687 12.8442 143.812C12.4737 143.937 12.1032 144.062 11.6709 144.062C11.2387 144.062 10.8682 144 10.4977 143.812C10.1272 143.687 9.81842 143.437 9.57142 143.187C9.32442 142.937 9.07741 142.625 8.95391 142.25C8.76866 141.875 8.70691 141.5 8.70691 141.125V138.75ZM11.3004 133.187C11.3622 133.125 11.4857 133.125 11.6092 133.125C11.7327 133.125 11.8562 133.187 11.9797 133.25L13.0912 134.062C13.2765 134.187 13.4 134.375 13.4 134.562C13.4 134.75 13.3382 134.875 13.2147 135C13.0912 135.125 12.906 135.187 12.7825 135.187C12.659 135.187 12.5355 135.125 12.412 135.062L11.6709 134.562L10.9917 135.062C10.8682 135.125 10.7447 135.187 10.6212 135.187C10.4359 135.187 10.3124 135.125 10.1889 135C10.0654 134.875 10.0037 134.75 10.0037 134.562C10.0037 134.375 10.0654 134.187 10.2507 134.062L11.3004 133.187ZM9.94193 141.125C9.94193 141.375 10.0037 141.562 10.0654 141.812C10.1272 142 10.2507 142.187 10.4359 142.375C10.6212 142.562 10.7447 142.687 10.9917 142.75C11.1769 142.812 11.4239 142.875 11.6709 142.875C11.918 142.875 12.165 142.812 12.3502 142.75C12.5355 142.687 12.7207 142.562 12.906 142.375C13.0912 142.187 13.2147 142 13.2765 141.812C13.3382 141.625 13.4 141.375 13.4 141.125V138.75C13.4 138.5 13.3382 138.312 13.2765 138.062C13.153 137.875 13.0295 137.687 12.906 137.5C12.7825 137.312 12.5972 137.187 12.3502 137.125C12.165 137.062 11.918 137 11.6709 137C11.4239 137 11.1769 137.062 10.9917 137.125C10.8064 137.187 10.6212 137.312 10.4359 137.5C10.2507 137.687 10.1272 137.875 10.0654 138.062C10.0037 138.25 9.94193 138.5 9.94193 138.75V141.125ZM13.2765 131.312C13.4 131.125 13.5852 131 13.8322 131C14.0175 131 14.141 131.062 14.2645 131.187C14.388 131.312 14.4497 131.437 14.4497 131.625C14.4497 131.75 14.4497 131.875 14.388 131.937L13.7087 133.125C13.5852 133.312 13.4 133.437 13.2147 133.437C13.0295 133.437 12.8442 133.375 12.7825 133.25C12.659 133.125 12.5972 133 12.5972 132.812C12.5972 132.687 12.659 132.625 12.7207 132.5L13.2765 131.312Z" fill="white"/>
<path d="M15.623 138.75C15.623 138.312 15.6848 137.938 15.8701 137.563C16.0553 137.188 16.2406 136.875 16.4876 136.625C16.7346 136.375 17.1051 136.125 17.4138 136C17.7843 135.875 18.1548 135.75 18.5871 135.75C18.9576 135.75 19.3898 135.813 19.7604 136C20.1309 136.125 20.4396 136.375 20.6866 136.625C20.9336 136.875 21.1806 137.188 21.3041 137.563C21.4894 137.938 21.5511 138.312 21.5511 138.75V143.437C21.5511 143.625 21.4894 143.75 21.3659 143.875C21.2424 144 21.1189 144.062 20.9336 144.062C20.7484 144.062 20.6249 144 20.5014 143.875C20.3779 143.75 20.3161 143.625 20.3161 143.437V138.75C20.3161 138.5 20.2544 138.312 20.1926 138.062C20.0691 137.875 19.9456 137.687 19.8221 137.5C19.6986 137.312 19.5133 137.187 19.2663 137.125C19.0811 137.062 18.8341 137 18.5871 137C18.3401 137 18.0931 137.062 17.9078 137.125C17.7226 137.187 17.5373 137.312 17.3521 137.5C17.1668 137.687 17.0433 137.875 16.9816 138.062C16.9198 138.25 16.8581 138.5 16.8581 138.75V143.437C16.8581 143.625 16.7963 143.75 16.6728 143.875C16.5493 144 16.4258 144.062 16.2406 144.062C16.0553 144.062 15.9318 144 15.8083 143.875C15.6848 143.75 15.623 143.625 15.623 143.437V138.75Z" fill="white"/>
<path d="M22.3538 138.75C22.3538 138.313 22.4155 137.938 22.6008 137.563C22.786 137.188 22.9713 136.875 23.2183 136.625C23.4653 136.375 23.8358 136.125 24.1445 136C24.515 135.875 24.8855 135.75 25.3178 135.75C25.6883 135.75 26.1206 135.813 26.4911 136C26.8616 136.125 27.1703 136.375 27.4173 136.625C27.6643 136.875 27.9113 137.188 28.0348 137.563C28.2201 137.938 28.2818 138.313 28.2818 138.75V144C28.2818 144.437 28.2201 144.813 28.0348 145.188C27.8496 145.563 27.6643 145.875 27.4173 146.125C27.1703 146.375 26.8616 146.625 26.4911 146.75C26.1206 146.875 25.7501 147 25.3178 147C25.1325 147 25.009 146.937 24.8855 146.812C24.762 146.687 24.7003 146.562 24.7003 146.375C24.7003 146.188 24.762 146.063 24.8855 145.938C25.009 145.813 25.1325 145.75 25.3178 145.75C25.5648 145.75 25.7501 145.688 25.9971 145.625C26.1823 145.563 26.3676 145.437 26.5528 145.25C26.6763 145.062 26.7998 144.875 26.9233 144.688C27.0468 144.5 27.0468 144.25 27.0468 144V143.562C26.5528 143.938 25.9353 144.125 25.3178 144.125C24.8855 144.125 24.515 144.062 24.1445 143.875C23.774 143.75 23.4653 143.5 23.2183 143.25C22.9713 143 22.7243 142.688 22.6008 142.312C22.4155 141.938 22.3538 141.562 22.3538 141.187V138.75ZM23.6505 141.125C23.6505 141.375 23.7123 141.562 23.774 141.812C23.8358 142 23.9593 142.188 24.1445 142.375C24.3298 142.563 24.4533 142.687 24.7003 142.75C24.8855 142.812 25.1325 142.875 25.3795 142.875C25.6266 142.875 25.8118 142.812 26.0588 142.75C26.2441 142.687 26.4293 142.563 26.6146 142.375C26.7381 142.25 26.8616 142.063 26.9851 141.875C27.1086 141.688 27.1086 141.438 27.1703 141.25V138.75C27.1703 138.5 27.1086 138.312 27.0468 138.062C26.9233 137.875 26.7998 137.688 26.6763 137.5C26.5528 137.313 26.3676 137.187 26.1206 137.125C25.9353 137.062 25.6883 137 25.4413 137C25.1943 137 24.9473 137.062 24.762 137.125C24.5768 137.187 24.3915 137.313 24.2063 137.5C24.021 137.688 23.8975 137.875 23.8358 138.062C23.774 138.25 23.7123 138.5 23.7123 138.75V141.125H23.6505Z" fill="white"/>
<path d="M46.7454 133.75C46.7454 133.563 46.8071 133.438 46.9306 133.313C47.0541 133.188 47.1776 133.125 47.3629 133.125C47.5481 133.125 47.6716 133.188 47.7951 133.313C47.9186 133.438 47.9804 133.563 47.9804 133.75V135.875H51.1914C51.3767 135.875 51.5002 135.938 51.6237 136.063C51.7472 136.188 51.8089 136.313 51.8089 136.5C51.8089 136.688 51.7472 136.813 51.6237 136.938C51.5002 137.063 51.3767 137.125 51.1914 137.125H47.9804V141.188C47.9804 141.438 48.0421 141.625 48.1039 141.875C48.1656 142.063 48.2891 142.25 48.4744 142.438C48.6596 142.625 48.7831 142.75 49.0301 142.813C49.2154 142.875 49.4624 142.938 49.7094 142.938C50.0799 142.938 50.3887 142.813 50.6357 142.625C50.9444 142.438 51.1297 142.188 51.2532 141.813C51.3149 141.688 51.3767 141.625 51.5002 141.5C51.6237 141.438 51.6854 141.375 51.8707 141.375C52.0559 141.375 52.1794 141.438 52.3029 141.563C52.4264 141.688 52.4882 141.813 52.4882 142C52.4882 142.063 52.4882 142.125 52.4264 142.25C52.1794 142.75 51.9324 143.125 51.6237 143.375C51.3149 143.625 51.0062 143.813 50.7592 143.938C50.4504 144.063 50.2034 144.125 50.0182 144.125C49.8329 144.125 49.7094 144.125 49.7094 144.125C49.2771 144.125 48.9066 144.063 48.5361 143.875C48.1656 143.75 47.8569 143.5 47.6099 143.25C47.3629 143 47.1159 142.688 46.9924 142.313C46.8071 141.938 46.7454 141.563 46.7454 141.188V133.75Z" fill="white"/>
<path d="M53.1057 133.562C53.1057 133.375 53.1675 133.25 53.291 133.125C53.4145 133 53.538 132.937 53.7232 132.937C53.9085 132.937 54.032 133 54.1555 133.125C54.279 133.25 54.3407 133.375 54.3407 133.562V134.062C54.3407 134.25 54.279 134.375 54.1555 134.5C54.032 134.625 53.9085 134.687 53.7232 134.687C53.538 134.687 53.4145 134.625 53.291 134.5C53.1675 134.375 53.1057 134.25 53.1057 134.062V133.562ZM53.1057 136.437C53.1057 136.25 53.1675 136.125 53.291 136C53.4145 135.875 53.538 135.812 53.7232 135.812C53.9085 135.812 54.032 135.875 54.1555 136C54.279 136.125 54.3407 136.25 54.3407 136.437V143.437C54.3407 143.625 54.279 143.75 54.1555 143.875C54.032 144 53.9085 144.062 53.7232 144.062C53.538 144.062 53.4145 144 53.291 143.875C53.1675 143.75 53.1057 143.625 53.1057 143.437V136.437Z" fill="white"/>
<path d="M55.3906 138.75C55.3906 138.313 55.4524 137.938 55.6376 137.563C55.7611 137.188 56.0081 136.875 56.2551 136.625C56.5021 136.375 56.8726 136.125 57.1814 136C57.5519 135.875 57.9224 135.75 58.3546 135.75C58.7251 135.75 59.1574 135.813 59.5279 136C59.8984 136.125 60.2072 136.375 60.4542 136.625C60.7012 136.875 60.9482 137.188 61.0717 137.563C61.2569 137.938 61.3187 138.313 61.3187 138.75V139.938C61.3187 140.125 61.2569 140.25 61.1334 140.375C61.0099 140.5 60.8864 140.563 60.7012 140.563H56.6256V141.125C56.6256 141.375 56.6874 141.563 56.7491 141.813C56.8109 142 56.9344 142.188 57.1196 142.375C57.3049 142.563 57.4284 142.688 57.6754 142.75C57.8606 142.813 58.1076 142.875 58.3546 142.875C58.7251 142.875 59.0339 142.813 59.2809 142.625C59.5897 142.438 59.7749 142.188 59.8984 141.875V141.813C59.9602 141.688 60.0219 141.625 60.1454 141.5C60.2689 141.438 60.3924 141.375 60.5159 141.375C60.7012 141.375 60.8247 141.438 60.9482 141.563C61.0717 141.688 61.1334 141.813 61.1334 142C61.1334 142.063 61.1334 142.125 61.0717 142.25L61.0099 142.313C60.7629 142.813 60.4542 143.25 59.9602 143.625C59.4662 144 58.9104 144.125 58.2929 144.125C57.8606 144.125 57.4901 144.063 57.1196 143.875C56.7491 143.75 56.4404 143.5 56.1934 143.25C55.9464 143 55.6994 142.688 55.5759 142.313C55.3906 141.938 55.3289 141.563 55.3289 141.188V138.75H55.3906ZM57.9841 133.188C58.0459 133.125 58.1694 133.125 58.2929 133.125C58.4164 133.125 58.5399 133.188 58.6634 133.25L59.7749 134.063C59.9602 134.188 60.0837 134.375 60.0837 134.563C60.0837 134.75 60.0219 134.875 59.8984 135C59.7749 135.125 59.5897 135.188 59.4662 135.188C59.3427 135.188 59.2192 135.125 59.0957 135.063L58.3546 134.563L57.6754 135.063C57.5519 135.125 57.4284 135.188 57.3049 135.188C57.1196 135.188 56.9961 135.125 56.8726 135C56.7491 134.875 56.6874 134.75 56.6874 134.563C56.6874 134.375 56.7491 134.188 56.9344 134.063L57.9841 133.188ZM56.6256 139.313H60.0837V138.75C60.0837 138.5 60.0219 138.313 59.9602 138.063C59.8367 137.875 59.7132 137.688 59.5897 137.5C59.4662 137.313 59.2809 137.188 59.0339 137.125C58.8486 137.063 58.6016 137 58.3546 137C58.1076 137 57.8606 137.063 57.6754 137.125C57.4901 137.188 57.3049 137.313 57.1196 137.5C56.9344 137.688 56.8109 137.875 56.7491 138.063C56.6874 138.25 56.6256 138.5 56.6256 138.75V139.313Z" fill="white"/>
<path d="M62.3065 136.437C62.3065 136.25 62.3683 136.125 62.4918 136C62.6153 135.875 62.7388 135.812 62.924 135.812C63.1093 135.812 63.2328 135.875 63.3563 136C63.4798 136.125 63.5415 136.25 63.5415 136.437V141.125C63.5415 141.375 63.6033 141.562 63.665 141.812C63.7268 142.062 63.8503 142.187 64.0355 142.375C64.2208 142.562 64.406 142.687 64.5913 142.75C64.7765 142.812 65.0235 142.875 65.2706 142.875C65.5176 142.875 65.7028 142.812 65.9498 142.75C66.1351 142.687 66.3203 142.562 66.5056 142.375C66.6291 142.187 66.7526 142 66.8761 141.812C66.9996 141.625 66.9996 141.375 66.9996 141.125V136.437C66.9996 136.25 67.0613 136.125 67.1848 136C67.3083 135.875 67.4318 135.812 67.6171 135.812C67.8023 135.812 67.9258 135.875 68.0493 136C68.1728 136.125 68.2346 136.25 68.2346 136.437V141.125C68.2346 141.5 68.1728 141.937 67.9876 142.25C67.8023 142.625 67.6171 142.937 67.3701 143.187C67.1231 143.437 66.8143 143.687 66.4438 143.812C66.0733 143.937 65.7028 144.062 65.2706 144.062C64.8383 144.062 64.4678 144 64.0973 143.812C63.7268 143.687 63.418 143.437 63.171 143.187C62.924 142.937 62.677 142.625 62.5535 142.25C62.43 141.875 62.3065 141.5 62.3065 141.125V136.437Z" fill="white"/>
<path d="M77.9913 133.562C77.9913 133.375 78.053 133.25 78.1765 133.125C78.3 133 78.4235 132.937 78.6088 132.937C78.794 132.937 78.9175 133 79.041 133.125C79.1645 133.25 79.2263 133.375 79.2263 133.562V141.187C79.2263 141.562 79.1645 142 78.9793 142.312C78.794 142.687 78.6088 143 78.3618 143.25C78.1148 143.5 77.806 143.75 77.4355 143.875C77.065 144 76.6945 144.125 76.2623 144.125C75.83 144.125 75.4595 144.062 75.089 143.875C74.7185 143.75 74.4097 143.5 74.1627 143.25C73.9157 143 73.6687 142.687 73.5452 142.312C73.4217 141.937 73.2982 141.562 73.2982 141.187V138.75C73.2982 138.312 73.36 137.937 73.5452 137.562C73.7305 137.187 73.9157 136.875 74.1627 136.625C74.4097 136.375 74.7185 136.125 75.089 136C75.4595 135.875 75.83 135.75 76.2623 135.75C76.571 135.75 76.8798 135.812 77.1885 135.875C77.4973 136 77.7443 136.125 77.9913 136.312V133.562ZM74.5332 141.125C74.5332 141.375 74.595 141.562 74.6567 141.812C74.7185 142 74.842 142.187 75.0272 142.375C75.2125 142.562 75.3977 142.687 75.583 142.75C75.7683 142.812 76.0153 142.875 76.2623 142.875C76.5093 142.875 76.6945 142.812 76.9415 142.75C77.1268 142.687 77.312 142.562 77.4973 142.375C77.6208 142.187 77.7443 142 77.8678 141.812C77.9913 141.625 77.9913 141.375 77.9913 141.125V138.75C77.9913 138.5 77.9295 138.312 77.8678 138.062C77.806 137.875 77.6825 137.687 77.4973 137.5C77.312 137.312 77.1268 137.187 76.9415 137.125C76.7563 137.062 76.5093 137 76.2623 137C76.0153 137 75.83 137.062 75.583 137.125C75.3977 137.187 75.2125 137.312 75.0272 137.5C74.842 137.687 74.7802 137.875 74.6567 138.062C74.595 138.25 74.5332 138.5 74.5332 138.75V141.125Z" fill="white"/>
<path d="M80.2761 136.437C80.2761 136.25 80.3379 136.125 80.4614 136C80.5849 135.875 80.7084 135.812 80.8936 135.812C81.0789 135.812 81.2024 135.875 81.3259 136C81.4494 136.125 81.5111 136.25 81.5111 136.437V141.125C81.5111 141.375 81.5729 141.562 81.6346 141.812C81.6964 142.062 81.8199 142.187 82.0051 142.375C82.1904 142.562 82.3756 142.687 82.5609 142.75C82.7462 142.812 82.9932 142.875 83.2402 142.875C83.4872 142.875 83.6724 142.812 83.9194 142.75C84.1047 142.687 84.2899 142.562 84.4752 142.375C84.5987 142.187 84.7222 142 84.8457 141.812C84.9692 141.625 84.9692 141.375 84.9692 141.125V136.437C84.9692 136.25 85.0309 136.125 85.1544 136C85.2779 135.875 85.4014 135.812 85.5867 135.812C85.7719 135.812 85.8954 135.875 86.0189 136C86.1424 136.125 86.2042 136.25 86.2042 136.437V141.125C86.2042 141.5 86.1424 141.937 85.9572 142.25C85.7719 142.625 85.5867 142.937 85.3397 143.187C85.0927 143.437 84.7839 143.687 84.4134 143.812C84.0429 143.937 83.6724 144.062 83.2402 144.062C82.8079 144.062 82.4374 144 82.0669 143.812C81.6964 143.687 81.3876 143.437 81.1406 143.187C80.8936 142.937 80.6466 142.625 80.5231 142.25C80.3996 141.875 80.2761 141.5 80.2761 141.125V136.437ZM82.0669 133.312C82.0051 133.187 81.9434 133.125 81.9434 133C81.9434 132.812 82.0051 132.687 82.1286 132.562C82.2521 132.437 82.3756 132.375 82.5609 132.375C82.8079 132.375 82.9932 132.5 83.0549 132.687L83.7342 133.875C83.7959 134 83.7959 134.062 83.7959 134.187C83.7959 134.375 83.7342 134.5 83.6107 134.625C83.4872 134.75 83.3637 134.812 83.1784 134.812C82.9314 134.812 82.7462 134.687 82.6227 134.5L82.0669 133.312Z" fill="white"/>
<path d="M87.3156 138.75C87.3156 138.312 87.3773 137.938 87.5626 137.563C87.7478 137.188 87.9331 136.875 88.1801 136.625C88.4271 136.375 88.7976 136.125 89.1063 136C89.4768 135.875 89.8473 135.75 90.2796 135.75C90.6501 135.75 91.0823 135.813 91.4528 136C91.8233 136.125 92.1321 136.375 92.3791 136.625C92.6261 136.875 92.8731 137.188 92.9966 137.563C93.1819 137.938 93.2436 138.312 93.2436 138.75V143.437C93.2436 143.625 93.1818 143.75 93.0583 143.875C92.9348 144 92.8113 144.062 92.6261 144.062C92.4408 144.062 92.3173 144 92.1938 143.875C92.0703 143.75 92.0086 143.625 92.0086 143.437V138.75C92.0086 138.5 91.9468 138.312 91.8851 138.062C91.7616 137.875 91.6381 137.687 91.5146 137.5C91.3911 137.312 91.2058 137.187 90.9588 137.125C90.7736 137.062 90.5266 137 90.2796 137C90.0326 137 89.7856 137.062 89.6003 137.125C89.4151 137.187 89.2298 137.312 89.0446 137.5C88.8593 137.687 88.7358 137.875 88.6741 138.062C88.6123 138.25 88.5506 138.5 88.5506 138.75V143.437C88.5506 143.625 88.4888 143.75 88.3653 143.875C88.2418 144 88.1183 144.062 87.9331 144.062C87.7478 144.062 87.6243 144 87.5008 143.875C87.3773 143.75 87.3156 143.625 87.3156 143.437V138.75Z" fill="white"/>
<path d="M94.0464 138.75C94.0464 138.313 94.1081 137.938 94.2934 137.563C94.4786 137.188 94.6639 136.875 94.9109 136.625C95.1579 136.375 95.5284 136.125 95.8371 136C96.2076 135.875 96.5782 135.75 97.0104 135.75C97.3809 135.75 97.8132 135.813 98.1837 136C98.5542 136.125 98.8629 136.375 99.1099 136.625C99.3569 136.875 99.6039 137.188 99.7274 137.563C99.9127 137.938 99.9744 138.313 99.9744 138.75V144C99.9744 144.437 99.9127 144.813 99.7274 145.188C99.5422 145.563 99.3569 145.875 99.1099 146.125C98.8629 146.375 98.5542 146.625 98.1837 146.75C97.8132 146.875 97.4427 147 97.0104 147C96.8252 147 96.7017 146.937 96.5782 146.812C96.4546 146.687 96.3929 146.562 96.3929 146.375C96.3929 146.188 96.4546 146.063 96.5782 145.938C96.7017 145.813 96.8252 145.75 97.0104 145.75C97.2574 145.75 97.4427 145.688 97.6897 145.625C97.8749 145.563 98.0602 145.437 98.2454 145.25C98.3689 145.062 98.4924 144.875 98.6159 144.688C98.7394 144.5 98.7394 144.25 98.7394 144V143.562C98.2454 143.938 97.6279 144.125 97.0104 144.125C96.5782 144.125 96.2076 144.062 95.8371 143.875C95.4666 143.75 95.1579 143.5 94.9109 143.25C94.6639 143 94.4169 142.688 94.2934 142.312C94.1081 141.938 94.0464 141.562 94.0464 141.187V138.75ZM95.2814 141.125C95.2814 141.375 95.3431 141.562 95.4049 141.812C95.4666 142 95.5902 142.188 95.7754 142.375C95.9607 142.563 96.0842 142.687 96.3312 142.75C96.5164 142.812 96.7634 142.875 97.0104 142.875C97.2574 142.875 97.4427 142.812 97.6897 142.75C97.8749 142.687 98.0602 142.563 98.2454 142.375C98.3689 142.25 98.4924 142.063 98.6159 141.875C98.7394 141.688 98.7394 141.438 98.8012 141.25V138.75C98.8012 138.5 98.7394 138.312 98.6777 138.062C98.5542 137.875 98.4307 137.688 98.3072 137.5C98.1837 137.313 97.9984 137.187 97.7514 137.125C97.5662 137.062 97.3192 137 97.0722 137C96.8252 137 96.5782 137.062 96.3929 137.125C96.2077 137.187 96.0224 137.313 95.8371 137.5C95.6519 137.688 95.5284 137.875 95.4666 138.062C95.4049 138.25 95.3431 138.5 95.3431 138.75V141.125H95.2814Z" fill="white"/>
<path d="M105.347 133.75C105.347 133.563 105.409 133.438 105.532 133.313C105.656 133.188 105.779 133.125 105.964 133.125C106.15 133.125 106.273 133.188 106.397 133.313C106.52 133.438 106.582 133.563 106.582 133.75V135.875H109.793C109.978 135.875 110.102 135.938 110.225 136.063C110.349 136.188 110.41 136.313 110.41 136.5C110.41 136.688 110.349 136.813 110.225 136.938C110.102 137.063 109.978 137.125 109.793 137.125H106.582V141.188C106.582 141.438 106.644 141.625 106.705 141.875C106.767 142.063 106.891 142.25 107.076 142.438C107.261 142.625 107.385 142.75 107.632 142.813C107.817 142.875 108.064 142.938 108.311 142.938C108.681 142.938 108.99 142.813 109.237 142.625C109.546 142.438 109.731 142.188 109.855 141.813C109.916 141.688 109.978 141.625 110.102 141.5C110.225 141.438 110.287 141.375 110.472 141.375C110.657 141.375 110.781 141.438 110.904 141.563C111.028 141.688 111.09 141.813 111.09 142C111.09 142.063 111.09 142.125 111.028 142.25C110.781 142.75 110.534 143.125 110.225 143.375C109.916 143.625 109.608 143.813 109.361 143.938C109.052 144.063 108.805 144.125 108.62 144.125C108.434 144.125 108.311 144.125 108.311 144.125C107.879 144.125 107.508 144.063 107.138 143.875C106.767 143.75 106.458 143.5 106.211 143.25C105.964 143 105.717 142.688 105.594 142.313C105.409 141.938 105.347 141.563 105.347 141.188V133.75Z" fill="white"/>
<path d="M111.769 133.562C111.769 133.375 111.831 133.25 111.954 133.125C112.078 133 112.201 132.937 112.386 132.937C112.572 132.937 112.695 133 112.819 133.125C112.942 133.25 113.004 133.375 113.004 133.562V136.375C113.251 136.187 113.498 136.062 113.807 135.937C114.115 135.812 114.424 135.812 114.733 135.812C115.103 135.812 115.536 135.875 115.906 136.062C116.277 136.187 116.585 136.437 116.832 136.687C117.079 136.937 117.326 137.25 117.45 137.625C117.573 138 117.697 138.375 117.697 138.812V143.5C117.697 143.687 117.635 143.812 117.512 143.937C117.388 144.062 117.265 144.125 117.079 144.125C116.894 144.125 116.771 144.062 116.647 143.937C116.524 143.812 116.462 143.687 116.462 143.5V138.75C116.462 138.5 116.4 138.312 116.338 138.062C116.215 137.875 116.091 137.687 115.968 137.5C115.844 137.312 115.659 137.187 115.412 137.125C115.227 137.062 114.98 137 114.733 137C114.486 137 114.301 137.062 114.054 137.125C113.868 137.187 113.683 137.312 113.498 137.5C113.313 137.687 113.189 137.812 113.127 138C113.066 138.187 113.004 138.437 113.004 138.625V143.375C113.004 143.562 112.942 143.687 112.819 143.812C112.695 143.937 112.572 144 112.386 144C112.201 144 112.078 143.937 111.954 143.812C111.831 143.687 111.769 143.562 111.769 143.375V138.562V133.562Z" fill="white"/>
<path d="M118.376 138.75C118.376 138.313 118.438 137.938 118.623 137.563C118.747 137.188 118.994 136.875 119.241 136.625C119.488 136.375 119.858 136.125 120.167 136C120.538 135.875 120.908 135.75 121.34 135.75C121.711 135.75 122.143 135.813 122.514 136C122.884 136.125 123.193 136.375 123.44 136.625C123.687 136.875 123.934 137.188 124.058 137.563C124.243 137.938 124.305 138.313 124.305 138.75V141.125C124.305 141.5 124.243 141.938 124.058 142.25C123.872 142.563 123.687 142.938 123.44 143.188C123.193 143.438 122.823 143.688 122.514 143.813C122.143 143.938 121.773 144.063 121.34 144.063C120.908 144.063 120.538 144 120.167 143.813C119.797 143.688 119.488 143.438 119.241 143.188C118.994 142.938 118.747 142.625 118.623 142.25C118.438 141.875 118.376 141.5 118.376 141.125V138.75ZM121.032 133.188C121.093 133.125 121.217 133.125 121.34 133.125C121.464 133.125 121.588 133.188 121.711 133.25L122.823 134.063C123.008 134.188 123.131 134.375 123.131 134.563C123.131 134.75 123.07 134.875 122.946 135C122.823 135.125 122.637 135.188 122.514 135.188C122.39 135.188 122.267 135.125 122.143 135.063L121.402 134.563L120.723 135.063C120.599 135.125 120.476 135.188 120.352 135.188C120.167 135.188 120.044 135.125 119.92 135C119.797 134.875 119.735 134.75 119.735 134.563C119.735 134.375 119.797 134.188 119.982 134.063L121.032 133.188ZM119.673 141.125C119.673 141.375 119.735 141.563 119.797 141.813C119.858 142 119.982 142.188 120.167 142.375C120.352 142.563 120.476 142.688 120.723 142.75C120.908 142.813 121.155 142.875 121.402 142.875C121.649 142.875 121.896 142.813 122.082 142.75C122.267 142.688 122.452 142.563 122.637 142.375C122.823 142.188 122.946 142 123.008 141.813C123.07 141.625 123.131 141.375 123.131 141.125V138.75C123.131 138.5 123.07 138.313 123.008 138.063C122.884 137.875 122.761 137.688 122.637 137.5C122.514 137.313 122.329 137.188 122.082 137.125C121.896 137.063 121.649 137 121.402 137C121.155 137 120.908 137.063 120.723 137.125C120.538 137.188 120.352 137.313 120.167 137.5C119.982 137.688 119.858 137.875 119.797 138.063C119.735 138.25 119.673 138.5 119.673 138.75V141.125Z" fill="white"/>
<path d="M125.354 138.75C125.354 138.312 125.416 137.938 125.601 137.563C125.786 137.188 125.972 136.875 126.219 136.625C126.466 136.375 126.836 136.125 127.145 136C127.515 135.875 127.886 135.75 128.318 135.75C128.689 135.75 129.121 135.813 129.491 136C129.862 136.125 130.171 136.375 130.418 136.625C130.665 136.875 130.912 137.188 131.035 137.563C131.22 137.938 131.282 138.312 131.282 138.75V143.437C131.282 143.625 131.22 143.75 131.097 143.875C130.973 144 130.85 144.062 130.665 144.062C130.479 144.062 130.356 144 130.232 143.875C130.109 143.75 130.047 143.625 130.047 143.437V138.75C130.047 138.5 129.985 138.312 129.924 138.062C129.8 137.875 129.677 137.687 129.553 137.5C129.43 137.312 129.244 137.187 128.997 137.125C128.812 137.062 128.565 137 128.318 137C128.071 137 127.824 137.062 127.639 137.125C127.454 137.187 127.268 137.312 127.083 137.5C126.898 137.687 126.774 137.875 126.713 138.062C126.651 138.25 126.589 138.5 126.589 138.75V143.437C126.589 143.625 126.527 143.75 126.404 143.875C126.28 144 126.157 144.062 125.972 144.062C125.786 144.062 125.663 144 125.539 143.875C125.416 143.75 125.354 143.625 125.354 143.437V138.75Z" fill="white"/>
<path d="M132.085 138.75C132.085 138.313 132.147 137.938 132.332 137.563C132.517 137.188 132.702 136.875 132.949 136.625C133.196 136.375 133.567 136.125 133.876 136C134.246 135.875 134.617 135.75 135.049 135.75C135.42 135.75 135.852 135.813 136.222 136C136.593 136.125 136.902 136.375 137.149 136.625C137.396 136.875 137.643 137.188 137.766 137.563C137.951 137.938 138.013 138.313 138.013 138.75V144C138.013 144.437 137.951 144.813 137.766 145.188C137.581 145.563 137.396 145.875 137.149 146.125C136.902 146.375 136.593 146.625 136.222 146.75C135.852 146.875 135.481 147 135.049 147C134.864 147 134.74 146.937 134.617 146.812C134.493 146.687 134.432 146.562 134.432 146.375C134.432 146.188 134.493 146.063 134.617 145.938C134.74 145.813 134.864 145.75 135.049 145.75C135.296 145.75 135.481 145.688 135.728 145.625C135.914 145.563 136.099 145.437 136.284 145.25C136.408 145.062 136.531 144.875 136.655 144.688C136.778 144.5 136.778 144.25 136.778 144V143.562C136.284 143.938 135.667 144.125 135.049 144.125C134.617 144.125 134.246 144.062 133.876 143.875C133.505 143.75 133.196 143.5 132.949 143.25C132.702 143 132.455 142.688 132.332 142.312C132.147 141.938 132.085 141.562 132.085 141.187V138.75ZM133.32 141.125C133.32 141.375 133.382 141.562 133.443 141.812C133.505 142 133.629 142.188 133.814 142.375C133.999 142.563 134.123 142.687 134.37 142.75C134.555 142.812 134.802 142.875 135.049 142.875C135.296 142.875 135.481 142.812 135.728 142.75C135.914 142.687 136.099 142.563 136.284 142.375C136.408 142.25 136.531 142.063 136.655 141.875C136.778 141.688 136.778 141.438 136.84 141.25V138.75C136.84 138.5 136.778 138.312 136.716 138.062C136.593 137.875 136.469 137.688 136.346 137.5C136.222 137.313 136.037 137.187 135.79 137.125C135.605 137.062 135.358 137 135.111 137C134.864 137 134.617 137.062 134.432 137.125C134.246 137.187 134.061 137.313 133.876 137.5C133.69 137.688 133.567 137.875 133.505 138.062C133.443 138.25 133.382 138.5 133.382 138.75V141.125H133.32Z" fill="white"/>
<path d="M143.447 138.75C143.447 138.312 143.509 137.938 143.632 137.563C143.756 137.188 143.941 136.875 144.188 136.625C144.435 136.375 144.744 136.125 145.053 136C145.361 135.875 145.794 135.75 146.164 135.75C146.596 135.75 147.029 135.875 147.399 136.062C147.77 136.25 148.078 136.5 148.325 136.812C148.572 136.5 148.881 136.25 149.252 136.062C149.622 135.875 150.054 135.75 150.487 135.75C150.919 135.75 151.289 135.813 151.598 136C151.969 136.125 152.216 136.375 152.463 136.625C152.71 136.875 152.895 137.188 153.018 137.563C153.142 137.938 153.204 138.312 153.204 138.75V143.437C153.204 143.625 153.142 143.75 153.018 143.875C152.895 144 152.771 144.062 152.586 144.062C152.401 144.062 152.277 144 152.154 143.875C152.03 143.75 151.969 143.625 151.969 143.437V138.75C151.969 138.25 151.845 137.875 151.536 137.5C151.228 137.187 150.857 137 150.425 137C149.931 137 149.56 137.187 149.252 137.5C149.005 137.812 148.819 138.25 148.819 138.75V143.437C148.819 143.625 148.758 143.75 148.634 143.875C148.511 144 148.387 144.062 148.202 144.062C148.017 144.062 147.893 144 147.77 143.875C147.646 143.75 147.584 143.625 147.584 143.437V138.75C147.584 138.25 147.461 137.875 147.152 137.5C146.843 137.187 146.473 137 146.041 137C145.547 137 145.176 137.187 144.867 137.5C144.62 137.812 144.435 138.25 144.435 138.75V143.437C144.435 143.625 144.373 143.75 144.25 143.875C144.126 144 144.003 144.062 143.818 144.062C143.632 144.062 143.509 144 143.385 143.875C143.262 143.75 143.2 143.625 143.2 143.437V138.75H143.447Z" fill="white"/>
<path d="M154.501 133.562C154.501 133.375 154.562 133.25 154.686 133.125C154.809 133 154.933 132.937 155.118 132.937C155.303 132.937 155.427 133 155.55 133.125C155.674 133.25 155.736 133.375 155.736 133.562V134.062C155.736 134.25 155.674 134.375 155.55 134.5C155.427 134.625 155.303 134.687 155.118 134.687C154.933 134.687 154.809 134.625 154.686 134.5C154.562 134.375 154.501 134.25 154.501 134.062V133.562ZM154.501 136.437C154.501 136.25 154.562 136.125 154.686 136C154.809 135.875 154.933 135.812 155.118 135.812C155.303 135.812 155.427 135.875 155.55 136C155.674 136.125 155.736 136.25 155.736 136.437V143.437C155.736 143.625 155.674 143.75 155.55 143.875C155.427 144 155.303 144.062 155.118 144.062C154.933 144.062 154.809 144 154.686 143.875C154.562 143.75 154.501 143.625 154.501 143.437V136.437Z" fill="white"/>
<path d="M156.909 138.75C156.909 138.312 156.971 137.938 157.156 137.563C157.341 137.188 157.526 136.875 157.773 136.625C158.02 136.375 158.391 136.125 158.7 136C159.07 135.875 159.441 135.75 159.873 135.75C160.243 135.75 160.676 135.813 161.046 136C161.417 136.125 161.725 136.375 161.972 136.625C162.219 136.875 162.467 137.188 162.59 137.563C162.775 137.938 162.837 138.312 162.837 138.75V143.437C162.837 143.625 162.775 143.75 162.652 143.875C162.528 144 162.405 144.062 162.22 144.062C162.034 144.062 161.911 144 161.787 143.875C161.664 143.75 161.602 143.625 161.602 143.437V138.75C161.602 138.5 161.54 138.312 161.478 138.062C161.355 137.875 161.231 137.687 161.108 137.5C160.984 137.312 160.799 137.187 160.552 137.125C160.367 137.062 160.12 137 159.873 137C159.626 137 159.379 137.062 159.194 137.125C159.008 137.187 158.823 137.312 158.638 137.5C158.453 137.687 158.329 137.875 158.267 138.062C158.206 138.25 158.144 138.5 158.144 138.75V143.437C158.144 143.625 158.082 143.75 157.959 143.875C157.835 144 157.712 144.062 157.526 144.062C157.341 144.062 157.218 144 157.094 143.875C156.971 143.75 156.909 143.625 156.909 143.437V138.75Z" fill="white"/>
<path d="M163.948 133.562C163.948 133.375 164.01 133.25 164.134 133.125C164.257 133 164.381 132.937 164.566 132.937C164.751 132.937 164.875 133 164.998 133.125C165.122 133.25 165.183 133.375 165.183 133.562V136.375C165.43 136.187 165.677 136.062 165.986 135.937C166.295 135.812 166.604 135.812 166.912 135.812C167.283 135.812 167.715 135.875 168.086 136.062C168.456 136.187 168.765 136.437 169.012 136.687C169.259 136.937 169.506 137.25 169.629 137.625C169.753 138 169.876 138.375 169.876 138.812V143.5C169.876 143.687 169.815 143.812 169.691 143.937C169.568 144.062 169.444 144.125 169.259 144.125C169.074 144.125 168.95 144.062 168.827 143.937C168.703 143.812 168.641 143.687 168.641 143.5V138.75C168.641 138.5 168.58 138.312 168.518 138.062C168.394 137.875 168.271 137.687 168.147 137.5C168.024 137.312 167.839 137.187 167.592 137.125C167.406 137.062 167.159 137 166.912 137C166.665 137 166.48 137.062 166.233 137.125C166.048 137.187 165.863 137.312 165.677 137.5C165.492 137.687 165.369 137.812 165.307 138C165.245 138.187 165.183 138.437 165.183 138.625V143.375C165.183 143.562 165.122 143.687 164.998 143.812C164.875 143.937 164.751 144 164.566 144C164.381 144 164.257 143.937 164.134 143.812C164.01 143.687 163.948 143.562 163.948 143.375V138.562V133.562Z" fill="white"/>
<path d="M41.0642 141.937L42.7315 144H41.2495L40.385 142.937C40.0145 143.375 39.644 143.687 39.2734 143.875C38.8412 144.125 38.2854 144.25 37.6062 144.25C36.5564 144.25 35.8154 143.937 35.3214 143.25C34.9509 142.812 34.8274 142.25 34.8274 141.687C34.8274 141 34.9509 140.437 35.2596 140.062C35.5684 139.625 36.1242 139.187 36.9887 138.687C36.6182 138.25 36.3712 137.875 36.2477 137.625C36.0624 137.312 36.0007 136.937 36.0007 136.562C36.0007 136 36.1859 135.5 36.5564 135.062C36.9887 134.625 37.5444 134.437 38.2237 134.437C38.9029 134.437 39.4587 134.625 39.8292 135.062C40.138 135.437 40.3232 135.875 40.3232 136.375C40.3232 136.937 40.138 137.5 39.7675 137.937C39.5205 138.187 39.1499 138.5 38.6559 138.875L40.385 140.937C40.5085 140.625 40.5702 140.437 40.632 140.25C40.6937 140.062 40.6937 139.812 40.7555 139.437H41.867C41.867 139.75 41.8052 140.125 41.6817 140.562C41.4965 141 41.3112 141.437 41.0642 141.937ZM39.7057 142.125L37.6062 139.5C36.9887 139.875 36.6182 140.187 36.4329 140.437C36.1242 140.75 36.0007 141.187 36.0007 141.625C36.0007 142.125 36.2477 142.562 36.6799 142.875C36.9887 143.125 37.3592 143.187 37.7297 143.187C38.5324 143.187 39.2117 142.812 39.7057 142.125ZM37.9767 138.125C38.3472 137.875 38.5942 137.687 38.7177 137.5C38.9647 137.187 39.1499 136.875 39.1499 136.5C39.1499 136.125 39.0264 135.812 38.7794 135.687C38.5942 135.562 38.4089 135.5 38.1619 135.5C37.7297 135.5 37.4209 135.625 37.2357 135.875C37.1122 136.062 37.0504 136.25 37.0504 136.5C37.0504 136.75 37.1739 137.062 37.3592 137.437C37.5444 137.687 37.7914 137.937 37.9767 138.125Z" fill="white"/>
</g>
<defs>
<linearGradient id="paint0_linear" x1="-6.38229" y1="54.0786" x2="62.8564" y2="89.1214" gradientUnits="userSpaceOnUse">
<stop stop-color="#12C3F4"/>
<stop offset="1" stop-color="#00346F"/>
</linearGradient>
<linearGradient id="paint1_linear" x1="1.20097" y1="66.9851" x2="42.0603" y2="87.6646" gradientUnits="userSpaceOnUse">
<stop stop-color="#12C3F4"/>
<stop offset="1" stop-color="#00346F"/>
</linearGradient>
<linearGradient id="paint2_linear" x1="50.5278" y1="72.5423" x2="4.12914" y2="84.2201" gradientUnits="userSpaceOnUse">
<stop stop-color="#52CAF5"/>
<stop offset="1" stop-color="#00346F"/>
</linearGradient>
<linearGradient id="paint3_linear" x1="263.777" y1="14.6552" x2="-43.7067" y2="103.9" gradientUnits="userSpaceOnUse">
<stop stop-color="white"/>
<stop offset="0.1728" stop-color="#FBFDFF"/>
<stop offset="0.2717" stop-color="#F1FAFE"/>
<stop offset="0.352" stop-color="#E2F4FD"/>
<stop offset="0.4223" stop-color="#CEEDFC"/>
<stop offset="0.4861" stop-color="#B2E3FA"/>
<stop offset="0.5451" stop-color="#8ED8F8"/>
<stop offset="0.6005" stop-color="#5CCCF5"/>
<stop offset="0.6517" stop-color="#00BFF3"/>
<stop offset="0.6751" stop-color="#00B9F2"/>
<stop offset="0.7211" stop-color="#00B6ED"/>
<stop offset="0.7646" stop-color="#00AFE4"/>
<stop offset="0.8071" stop-color="#00A5D6"/>
<stop offset="0.849" stop-color="#0096C3"/>
<stop offset="0.8905" stop-color="#0082A9"/>
<stop offset="0.9316" stop-color="#00698A"/>
<stop offset="0.9717" stop-color="#004C66"/>
<stop offset="1" stop-color="#003044"/>
</linearGradient>
<linearGradient id="paint4_linear" x1="266.935" y1="25.5342" x2="-40.5492" y2="114.78" gradientUnits="userSpaceOnUse">
<stop stop-color="white"/>
<stop offset="0.1728" stop-color="#FBFDFF"/>
<stop offset="0.2717" stop-color="#F1FAFE"/>
<stop offset="0.352" stop-color="#E2F4FD"/>
<stop offset="0.4223" stop-color="#CEEDFC"/>
<stop offset="0.4861" stop-color="#B2E3FA"/>
<stop offset="0.5451" stop-color="#8ED8F8"/>
<stop offset="0.6005" stop-color="#5CCCF5"/>
<stop offset="0.6517" stop-color="#00BFF3"/>
<stop offset="0.6751" stop-color="#00B9F2"/>
<stop offset="0.7211" stop-color="#00B6ED"/>
<stop offset="0.7646" stop-color="#00AFE4"/>
<stop offset="0.8071" stop-color="#00A5D6"/>
<stop offset="0.849" stop-color="#0096C3"/>
<stop offset="0.8905" stop-color="#0082A9"/>
<stop offset="0.9316" stop-color="#00698A"/>
<stop offset="0.9717" stop-color="#004C66"/>
<stop offset="1" stop-color="#003044"/>
</linearGradient>
<linearGradient id="paint5_linear" x1="260.384" y1="2.96509" x2="-47.0996" y2="92.2099" gradientUnits="userSpaceOnUse">
<stop stop-color="white"/>
<stop offset="0.1728" stop-color="#FBFDFF"/>
<stop offset="0.2717" stop-color="#F1FAFE"/>
<stop offset="0.352" stop-color="#E2F4FD"/>
<stop offset="0.4223" stop-color="#CEEDFC"/>
<stop offset="0.4861" stop-color="#B2E3FA"/>
<stop offset="0.5451" stop-color="#8ED8F8"/>
<stop offset="0.6005" stop-color="#5CCCF5"/>
<stop offset="0.6517" stop-color="#00BFF3"/>
<stop offset="0.6751" stop-color="#00B9F2"/>
<stop offset="0.7211" stop-color="#00B6ED"/>
<stop offset="0.7646" stop-color="#00AFE4"/>
<stop offset="0.8071" stop-color="#00A5D6"/>
<stop offset="0.849" stop-color="#0096C3"/>
<stop offset="0.8905" stop-color="#0082A9"/>
<stop offset="0.9316" stop-color="#00698A"/>
<stop offset="0.9717" stop-color="#004C66"/>
<stop offset="1" stop-color="#003044"/>
</linearGradient>
<linearGradient id="paint6_linear" x1="267.003" y1="25.7704" x2="-40.4804" y2="115.015" gradientUnits="userSpaceOnUse">
<stop stop-color="white"/>
<stop offset="0.1728" stop-color="#FBFDFF"/>
<stop offset="0.2717" stop-color="#F1FAFE"/>
<stop offset="0.352" stop-color="#E2F4FD"/>
<stop offset="0.4223" stop-color="#CEEDFC"/>
<stop offset="0.4861" stop-color="#B2E3FA"/>
<stop offset="0.5451" stop-color="#8ED8F8"/>
<stop offset="0.6005" stop-color="#5CCCF5"/>
<stop offset="0.6517" stop-color="#00BFF3"/>
<stop offset="0.6751" stop-color="#00B9F2"/>
<stop offset="0.7211" stop-color="#00B6ED"/>
<stop offset="0.7646" stop-color="#00AFE4"/>
<stop offset="0.8071" stop-color="#00A5D6"/>
<stop offset="0.849" stop-color="#0096C3"/>
<stop offset="0.8905" stop-color="#0082A9"/>
<stop offset="0.9316" stop-color="#00698A"/>
<stop offset="0.9717" stop-color="#004C66"/>
<stop offset="1" stop-color="#003044"/>
</linearGradient>
<linearGradient id="paint7_linear" x1="248.537" y1="-37.8529" x2="-58.9468" y2="51.3916" gradientUnits="userSpaceOnUse">
<stop stop-color="white"/>
<stop offset="0.1728" stop-color="#FBFDFF"/>
<stop offset="0.2717" stop-color="#F1FAFE"/>
<stop offset="0.352" stop-color="#E2F4FD"/>
<stop offset="0.4223" stop-color="#CEEDFC"/>
<stop offset="0.4861" stop-color="#B2E3FA"/>
<stop offset="0.5451" stop-color="#8ED8F8"/>
<stop offset="0.6005" stop-color="#5CCCF5"/>
<stop offset="0.6517" stop-color="#00BFF3"/>
<stop offset="0.6751" stop-color="#00B9F2"/>
<stop offset="0.7211" stop-color="#00B6ED"/>
<stop offset="0.7646" stop-color="#00AFE4"/>
<stop offset="0.8071" stop-color="#00A5D6"/>
<stop offset="0.849" stop-color="#0096C3"/>
<stop offset="0.8905" stop-color="#0082A9"/>
<stop offset="0.9316" stop-color="#00698A"/>
<stop offset="0.9717" stop-color="#004C66"/>
<stop offset="1" stop-color="#003044"/>
</linearGradient>
<linearGradient id="paint8_linear" x1="254.595" y1="-16.9799" x2="-52.8888" y2="72.2647" gradientUnits="userSpaceOnUse">
<stop stop-color="white"/>
<stop offset="0.1728" stop-color="#FBFDFF"/>
<stop offset="0.2717" stop-color="#F1FAFE"/>
<stop offset="0.352" stop-color="#E2F4FD"/>
<stop offset="0.4223" stop-color="#CEEDFC"/>
<stop offset="0.4861" stop-color="#B2E3FA"/>
<stop offset="0.5451" stop-color="#8ED8F8"/>
<stop offset="0.6005" stop-color="#5CCCF5"/>
<stop offset="0.6517" stop-color="#00BFF3"/>
<stop offset="0.6751" stop-color="#00B9F2"/>
<stop offset="0.7211" stop-color="#00B6ED"/>
<stop offset="0.7646" stop-color="#00AFE4"/>
<stop offset="0.8071" stop-color="#00A5D6"/>
<stop offset="0.849" stop-color="#0096C3"/>
<stop offset="0.8905" stop-color="#0082A9"/>
<stop offset="0.9316" stop-color="#00698A"/>
<stop offset="0.9717" stop-color="#004C66"/>
<stop offset="1" stop-color="#003044"/>
</linearGradient>
<linearGradient id="paint9_linear" x1="243.719" y1="-54.4523" x2="-63.7646" y2="34.7922" gradientUnits="userSpaceOnUse">
<stop stop-color="white"/>
<stop offset="0.1728" stop-color="#FBFDFF"/>
<stop offset="0.2717" stop-color="#F1FAFE"/>
<stop offset="0.352" stop-color="#E2F4FD"/>
<stop offset="0.4223" stop-color="#CEEDFC"/>
<stop offset="0.4861" stop-color="#B2E3FA"/>
<stop offset="0.5451" stop-color="#8ED8F8"/>
<stop offset="0.6005" stop-color="#5CCCF5"/>
<stop offset="0.6517" stop-color="#00BFF3"/>
<stop offset="0.6751" stop-color="#00B9F2"/>
<stop offset="0.7211" stop-color="#00B6ED"/>
<stop offset="0.7646" stop-color="#00AFE4"/>
<stop offset="0.8071" stop-color="#00A5D6"/>
<stop offset="0.849" stop-color="#0096C3"/>
<stop offset="0.8905" stop-color="#0082A9"/>
<stop offset="0.9316" stop-color="#00698A"/>
<stop offset="0.9717" stop-color="#004C66"/>
<stop offset="1" stop-color="#003044"/>
</linearGradient>
<linearGradient id="paint10_linear" x1="251.115" y1="-28.9689" x2="-56.3683" y2="60.2756" gradientUnits="userSpaceOnUse">
<stop stop-color="white"/>
<stop offset="0.1728" stop-color="#FBFDFF"/>
<stop offset="0.2717" stop-color="#F1FAFE"/>
<stop offset="0.352" stop-color="#E2F4FD"/>
<stop offset="0.4223" stop-color="#CEEDFC"/>
<stop offset="0.4861" stop-color="#B2E3FA"/>
<stop offset="0.5451" stop-color="#8ED8F8"/>
<stop offset="0.6005" stop-color="#5CCCF5"/>
<stop offset="0.6517" stop-color="#00BFF3"/>
<stop offset="0.6751" stop-color="#00B9F2"/>
<stop offset="0.7211" stop-color="#00B6ED"/>
<stop offset="0.7646" stop-color="#00AFE4"/>
<stop offset="0.8071" stop-color="#00A5D6"/>
<stop offset="0.849" stop-color="#0096C3"/>
<stop offset="0.8905" stop-color="#0082A9"/>
<stop offset="0.9316" stop-color="#00698A"/>
<stop offset="0.9717" stop-color="#004C66"/>
<stop offset="1" stop-color="#003044"/>
</linearGradient>
<linearGradient id="paint11_linear" x1="246.803" y1="-43.8263" x2="-60.6805" y2="45.4183" gradientUnits="userSpaceOnUse">
<stop stop-color="white"/>
<stop offset="0.1728" stop-color="#FBFDFF"/>
<stop offset="0.2717" stop-color="#F1FAFE"/>
<stop offset="0.352" stop-color="#E2F4FD"/>
<stop offset="0.4223" stop-color="#CEEDFC"/>
<stop offset="0.4861" stop-color="#B2E3FA"/>
<stop offset="0.5451" stop-color="#8ED8F8"/>
<stop offset="0.6005" stop-color="#5CCCF5"/>
<stop offset="0.6517" stop-color="#00BFF3"/>
<stop offset="0.6751" stop-color="#00B9F2"/>
<stop offset="0.7211" stop-color="#00B6ED"/>
<stop offset="0.7646" stop-color="#00AFE4"/>
<stop offset="0.8071" stop-color="#00A5D6"/>
<stop offset="0.849" stop-color="#0096C3"/>
<stop offset="0.8905" stop-color="#0082A9"/>
<stop offset="0.9316" stop-color="#00698A"/>
<stop offset="0.9717" stop-color="#004C66"/>
<stop offset="1" stop-color="#003044"/>
</linearGradient>
<linearGradient id="paint12_linear" x1="260.836" y1="4.52187" x2="-46.6477" y2="93.7663" gradientUnits="userSpaceOnUse">
<stop stop-color="white"/>
<stop offset="0.1728" stop-color="#FBFDFF"/>
<stop offset="0.2717" stop-color="#F1FAFE"/>
<stop offset="0.352" stop-color="#E2F4FD"/>
<stop offset="0.4223" stop-color="#CEEDFC"/>
<stop offset="0.4861" stop-color="#B2E3FA"/>
<stop offset="0.5451" stop-color="#8ED8F8"/>
<stop offset="0.6005" stop-color="#5CCCF5"/>
<stop offset="0.6517" stop-color="#00BFF3"/>
<stop offset="0.6751" stop-color="#00B9F2"/>
<stop offset="0.7211" stop-color="#00B6ED"/>
<stop offset="0.7646" stop-color="#00AFE4"/>
<stop offset="0.8071" stop-color="#00A5D6"/>
<stop offset="0.849" stop-color="#0096C3"/>
<stop offset="0.8905" stop-color="#0082A9"/>
<stop offset="0.9316" stop-color="#00698A"/>
<stop offset="0.9717" stop-color="#004C66"/>
<stop offset="1" stop-color="#003044"/>
</linearGradient>
<linearGradient id="paint13_linear" x1="260.783" y1="4.33976" x2="-46.7005" y2="93.5842" gradientUnits="userSpaceOnUse">
<stop stop-color="white"/>
<stop offset="0.1728" stop-color="#FBFDFF"/>
<stop offset="0.2717" stop-color="#F1FAFE"/>
<stop offset="0.352" stop-color="#E2F4FD"/>
<stop offset="0.4223" stop-color="#CEEDFC"/>
<stop offset="0.4861" stop-color="#B2E3FA"/>
<stop offset="0.5451" stop-color="#8ED8F8"/>
<stop offset="0.6005" stop-color="#5CCCF5"/>
<stop offset="0.6517" stop-color="#00BFF3"/>
<stop offset="0.6751" stop-color="#00B9F2"/>
<stop offset="0.7211" stop-color="#00B6ED"/>
<stop offset="0.7646" stop-color="#00AFE4"/>
<stop offset="0.8071" stop-color="#00A5D6"/>
<stop offset="0.849" stop-color="#0096C3"/>
<stop offset="0.8905" stop-color="#0082A9"/>
<stop offset="0.9316" stop-color="#00698A"/>
<stop offset="0.9717" stop-color="#004C66"/>
<stop offset="1" stop-color="#003044"/>
</linearGradient>
<linearGradient id="paint14_linear" x1="254.251" y1="-18.1721" x2="-53.2358" y2="71.0745" gradientUnits="userSpaceOnUse">
<stop stop-color="white"/>
<stop offset="0.1728" stop-color="#FBFDFF"/>
<stop offset="0.2717" stop-color="#F1FAFE"/>
<stop offset="0.352" stop-color="#E2F4FD"/>
<stop offset="0.4223" stop-color="#CEEDFC"/>
<stop offset="0.4861" stop-color="#B2E3FA"/>
<stop offset="0.5451" stop-color="#8ED8F8"/>
<stop offset="0.6005" stop-color="#5CCCF5"/>
<stop offset="0.6517" stop-color="#00BFF3"/>
<stop offset="0.6751" stop-color="#00B9F2"/>
<stop offset="0.7211" stop-color="#00B6ED"/>
<stop offset="0.7646" stop-color="#00AFE4"/>
<stop offset="0.8071" stop-color="#00A5D6"/>
<stop offset="0.849" stop-color="#0096C3"/>
<stop offset="0.8905" stop-color="#0082A9"/>
<stop offset="0.9316" stop-color="#00698A"/>
<stop offset="0.9717" stop-color="#004C66"/>
<stop offset="1" stop-color="#003044"/>
</linearGradient>
<linearGradient id="paint15_linear" x1="258.063" y1="-5.01977" x2="-49.4142" y2="84.2205" gradientUnits="userSpaceOnUse">
<stop stop-color="white"/>
<stop offset="0.1728" stop-color="#FBFDFF"/>
<stop offset="0.2717" stop-color="#F1FAFE"/>
<stop offset="0.352" stop-color="#E2F4FD"/>
<stop offset="0.4223" stop-color="#CEEDFC"/>
<stop offset="0.4861" stop-color="#B2E3FA"/>
<stop offset="0.5451" stop-color="#8ED8F8"/>
<stop offset="0.6005" stop-color="#5CCCF5"/>
<stop offset="0.6517" stop-color="#00BFF3"/>
<stop offset="0.6751" stop-color="#00B9F2"/>
<stop offset="0.7211" stop-color="#00B6ED"/>
<stop offset="0.7646" stop-color="#00AFE4"/>
<stop offset="0.8071" stop-color="#00A5D6"/>
<stop offset="0.849" stop-color="#0096C3"/>
<stop offset="0.8905" stop-color="#0082A9"/>
<stop offset="0.9316" stop-color="#00698A"/>
<stop offset="0.9717" stop-color="#004C66"/>
<stop offset="1" stop-color="#003044"/>
</linearGradient>
<linearGradient id="paint16_linear" x1="256.481" y1="-10.4861" x2="-51.0038" y2="78.7588" gradientUnits="userSpaceOnUse">
<stop stop-color="white"/>
<stop offset="0.1728" stop-color="#FBFDFF"/>
<stop offset="0.2717" stop-color="#F1FAFE"/>
<stop offset="0.352" stop-color="#E2F4FD"/>
<stop offset="0.4223" stop-color="#CEEDFC"/>
<stop offset="0.4861" stop-color="#B2E3FA"/>
<stop offset="0.5451" stop-color="#8ED8F8"/>
<stop offset="0.6005" stop-color="#5CCCF5"/>
<stop offset="0.6517" stop-color="#00BFF3"/>
<stop offset="0.6751" stop-color="#00B9F2"/>
<stop offset="0.7211" stop-color="#00B6ED"/>
<stop offset="0.7646" stop-color="#00AFE4"/>
<stop offset="0.8071" stop-color="#00A5D6"/>
<stop offset="0.849" stop-color="#0096C3"/>
<stop offset="0.8905" stop-color="#0082A9"/>
<stop offset="0.9316" stop-color="#00698A"/>
<stop offset="0.9717" stop-color="#004C66"/>
<stop offset="1" stop-color="#003044"/>
</linearGradient>
<linearGradient id="paint17_linear" x1="252.823" y1="-23.0859" x2="-54.6604" y2="66.1583" gradientUnits="userSpaceOnUse">
<stop stop-color="white"/>
<stop offset="0.1728" stop-color="#FBFDFF"/>
<stop offset="0.2717" stop-color="#F1FAFE"/>
<stop offset="0.352" stop-color="#E2F4FD"/>
<stop offset="0.4223" stop-color="#CEEDFC"/>
<stop offset="0.4861" stop-color="#B2E3FA"/>
<stop offset="0.5451" stop-color="#8ED8F8"/>
<stop offset="0.6005" stop-color="#5CCCF5"/>
<stop offset="0.6517" stop-color="#00BFF3"/>
<stop offset="0.6751" stop-color="#00B9F2"/>
<stop offset="0.7211" stop-color="#00B6ED"/>
<stop offset="0.7646" stop-color="#00AFE4"/>
<stop offset="0.8071" stop-color="#00A5D6"/>
<stop offset="0.849" stop-color="#0096C3"/>
<stop offset="0.8905" stop-color="#0082A9"/>
<stop offset="0.9316" stop-color="#00698A"/>
<stop offset="0.9717" stop-color="#004C66"/>
<stop offset="1" stop-color="#003044"/>
</linearGradient>
<linearGradient id="paint18_linear" x1="255.264" y1="-14.6748" x2="-52.2194" y2="74.5698" gradientUnits="userSpaceOnUse">
<stop stop-color="white"/>
<stop offset="0.1728" stop-color="#FBFDFF"/>
<stop offset="0.2717" stop-color="#F1FAFE"/>
<stop offset="0.352" stop-color="#E2F4FD"/>
<stop offset="0.4223" stop-color="#CEEDFC"/>
<stop offset="0.4861" stop-color="#B2E3FA"/>
<stop offset="0.5451" stop-color="#8ED8F8"/>
<stop offset="0.6005" stop-color="#5CCCF5"/>
<stop offset="0.6517" stop-color="#00BFF3"/>
<stop offset="0.6751" stop-color="#00B9F2"/>
<stop offset="0.7211" stop-color="#00B6ED"/>
<stop offset="0.7646" stop-color="#00AFE4"/>
<stop offset="0.8071" stop-color="#00A5D6"/>
<stop offset="0.849" stop-color="#0096C3"/>
<stop offset="0.8905" stop-color="#0082A9"/>
<stop offset="0.9316" stop-color="#00698A"/>
<stop offset="0.9717" stop-color="#004C66"/>
<stop offset="1" stop-color="#003044"/>
</linearGradient>
<linearGradient id="paint19_linear" x1="248.874" y1="-36.6965" x2="-58.6111" y2="52.5497" gradientUnits="userSpaceOnUse">
<stop stop-color="white"/>
<stop offset="0.1728" stop-color="#FBFDFF"/>
<stop offset="0.2717" stop-color="#F1FAFE"/>
<stop offset="0.352" stop-color="#E2F4FD"/>
<stop offset="0.4223" stop-color="#CEEDFC"/>
<stop offset="0.4861" stop-color="#B2E3FA"/>
<stop offset="0.5451" stop-color="#8ED8F8"/>
<stop offset="0.6005" stop-color="#5CCCF5"/>
<stop offset="0.6517" stop-color="#00BFF3"/>
<stop offset="0.6751" stop-color="#00B9F2"/>
<stop offset="0.7211" stop-color="#00B6ED"/>
<stop offset="0.7646" stop-color="#00AFE4"/>
<stop offset="0.8071" stop-color="#00A5D6"/>
<stop offset="0.849" stop-color="#0096C3"/>
<stop offset="0.8905" stop-color="#0082A9"/>
<stop offset="0.9316" stop-color="#00698A"/>
<stop offset="0.9717" stop-color="#004C66"/>
<stop offset="1" stop-color="#003044"/>
</linearGradient>
<linearGradient id="paint20_linear" x1="247.618" y1="-41.0175" x2="-59.8653" y2="48.227" gradientUnits="userSpaceOnUse">
<stop stop-color="white"/>
<stop offset="0.1728" stop-color="#FBFDFF"/>
<stop offset="0.2717" stop-color="#F1FAFE"/>
<stop offset="0.352" stop-color="#E2F4FD"/>
<stop offset="0.4223" stop-color="#CEEDFC"/>
<stop offset="0.4861" stop-color="#B2E3FA"/>
<stop offset="0.5451" stop-color="#8ED8F8"/>
<stop offset="0.6005" stop-color="#5CCCF5"/>
<stop offset="0.6517" stop-color="#00BFF3"/>
<stop offset="0.6751" stop-color="#00B9F2"/>
<stop offset="0.7211" stop-color="#00B6ED"/>
<stop offset="0.7646" stop-color="#00AFE4"/>
<stop offset="0.8071" stop-color="#00A5D6"/>
<stop offset="0.849" stop-color="#0096C3"/>
<stop offset="0.8905" stop-color="#0082A9"/>
<stop offset="0.9316" stop-color="#00698A"/>
<stop offset="0.9717" stop-color="#004C66"/>
<stop offset="1" stop-color="#003044"/>
</linearGradient>
<linearGradient id="paint21_linear" x1="251.12" y1="-28.9451" x2="-56.3601" y2="60.2975" gradientUnits="userSpaceOnUse">
<stop stop-color="white"/>
<stop offset="0.1728" stop-color="#FBFDFF"/>
<stop offset="0.2717" stop-color="#F1FAFE"/>
<stop offset="0.352" stop-color="#E2F4FD"/>
<stop offset="0.4223" stop-color="#CEEDFC"/>
<stop offset="0.4861" stop-color="#B2E3FA"/>
<stop offset="0.5451" stop-color="#8ED8F8"/>
<stop offset="0.6005" stop-color="#5CCCF5"/>
<stop offset="0.6517" stop-color="#00BFF3"/>
<stop offset="0.6751" stop-color="#00B9F2"/>
<stop offset="0.7211" stop-color="#00B6ED"/>
<stop offset="0.7646" stop-color="#00AFE4"/>
<stop offset="0.8071" stop-color="#00A5D6"/>
<stop offset="0.849" stop-color="#0096C3"/>
<stop offset="0.8905" stop-color="#0082A9"/>
<stop offset="0.9316" stop-color="#00698A"/>
<stop offset="0.9717" stop-color="#004C66"/>
<stop offset="1" stop-color="#003044"/>
</linearGradient>
<clipPath id="clip0">
<rect width="170" height="147" fill="white"/>
</clipPath>
</defs>
</svg>
