<svg width="116" height="101" viewBox="0 0 116 101" fill="none" xmlns="http://www.w3.org/2000/svg">
<g clip-path="url(#clip0)">
<path d="M57.9368 44.1448H50.9423V73.9037H57.9368V44.1448Z" fill="white"/>
<path d="M82.8813 59.0886C84.1875 58.6592 85.2409 58.015 85.9993 57.1991C86.7578 56.3832 87.2213 55.4814 87.4319 54.4508C87.5584 53.9355 87.6005 53.4632 87.6848 53.0337C87.7269 52.6472 87.769 52.2608 87.769 51.9602C87.769 50.9725 87.6426 50.0278 87.3898 49.083C87.137 48.1383 86.5892 47.2365 85.8308 46.2918C85.4516 45.8194 85.0723 45.433 84.6088 45.1324C84.1875 44.8318 83.6819 44.6171 83.092 44.4453C82.5021 44.2735 81.87 44.1876 81.1537 44.1018C80.4374 44.0588 79.5947 44.0159 78.6677 44.0159H61.0549V73.8607H79.0469C80.9852 73.8607 82.5021 73.6889 83.6397 73.3454C84.7774 73.0018 85.7887 72.1859 86.6314 70.8547C87.4741 69.4806 87.8954 68.0205 87.8954 66.5176C87.8533 64.4563 87.3477 62.8245 86.3786 61.5792C85.4094 60.3339 84.2296 59.518 82.8813 59.0886ZM80.7745 53.0767C80.7745 53.9355 80.3953 54.6226 79.6368 55.0091C78.8784 55.4385 77.6564 55.6532 76.0553 55.6532H75.1283H71.4203V62.2234H74.6227H75.5496C77.4879 62.1375 78.8784 62.3522 79.679 62.8675C80.4795 63.3828 80.8588 64.0699 80.8166 64.9287C80.8166 65.4011 80.6481 65.8734 80.3531 66.3888C80.0582 66.9041 79.6368 67.2476 79.0469 67.3764C78.457 67.5052 77.5722 67.5911 76.3502 67.5911H75.4232H68.0073V65.8305V50.4572H75.5075H76.2238C77.9092 50.4143 79.089 50.629 79.8054 51.1443C80.5217 51.6166 80.8166 52.3037 80.7745 53.0767Z" fill="white"/>
<path d="M101.632 55.825V62.1805H109.006V67.5053H105.677C104.708 67.5053 103.865 67.4623 103.107 67.3765C102.348 67.2906 101.674 67.1617 101.084 66.947C100.494 66.7323 99.9463 66.4317 99.4828 66.0452C99.0193 65.6588 98.5558 65.1435 98.1766 64.4564C97.376 63.1681 96.9968 61.4504 96.9968 59.2604C96.9968 58.1868 97.0811 57.2421 97.2918 56.2974C97.5024 55.3956 97.8817 54.365 98.4716 53.2485C98.8087 52.6473 99.1879 52.2179 99.6514 51.8314C100.115 51.4879 100.663 51.1873 101.295 51.0155C101.927 50.8437 102.685 50.7149 103.528 50.629C104.371 50.5431 105.34 50.5431 106.393 50.5431H116.042V44.1018H103.528C100.915 44.1018 98.598 44.4024 96.6597 45.0036C94.6793 45.6048 93.2467 46.7642 92.3197 48.5248C91.3506 50.2855 90.7186 51.9602 90.3815 53.635C90.0444 55.3097 89.8337 57.0703 89.8337 58.9169C89.8337 60.8492 90.0023 62.6528 90.3815 64.3276C90.7186 66.0023 91.3927 67.6771 92.404 69.3947C93.4153 71.1124 94.8479 72.2719 96.6597 72.916C98.5137 73.5172 100.705 73.8607 103.317 73.8607H116.084V55.825H101.632Z" fill="white"/>
<path d="M65.0156 77.2529C56.6727 79.4859 39.1021 80.8171 16.3487 64.1985L33.9194 84.8107C44.6219 87.1296 56.125 85.1972 65.732 78.8418C66.5325 78.2835 65.9426 76.9953 65.0156 77.2529Z" fill="#004977"/>
<path d="M31.1385 81.2036C30.2536 79.8724 29.3688 78.4553 28.5682 76.9952C28.1468 76.8235 27.7676 76.5229 27.4305 76.1364C25.9557 74.2899 24.5653 72.0569 23.554 69.6092C20.9837 69.738 19.3404 68.1492 17.8235 66.1309C17.0651 65.1432 16.3488 64.0696 15.6325 63.039C15.5482 62.9102 15.0004 62.0943 15.5482 62.9102C15.4218 62.7384 15.3375 62.5667 15.2111 62.4378C15.0004 62.1802 14.8319 61.8796 14.6212 61.6219C14.3684 61.2784 14.1577 60.9349 13.9892 60.5484C12.5987 60.4196 11.3346 59.6895 10.3233 58.7019C8.25869 56.6836 6.82607 53.42 6.57326 50.414C3.9187 47.4081 4.00297 42.2121 6.82607 39.3349C6.7418 34.826 8.09015 31.3048 11.1239 26.7529C12.683 24.3911 14.0734 21.5569 13.5257 18.6368C13.1464 16.5756 11.5453 15.8026 9.64917 16.6615C-1.98032 31.9059 -2.35954 53.8065 9.90199 69.6092C16.433 77.9829 25.3658 83.2219 34.9307 85.0684C33.5402 84.0807 32.234 82.8783 31.1385 81.2036Z" fill="url(#paint0_linear)"/>
<path d="M21.7421 72.0139C21.2365 71.2409 20.6887 70.3821 20.2252 69.5232C19.9724 69.3944 19.7617 69.2656 19.551 69.0079C18.7083 67.9344 17.8656 66.6032 17.2757 65.1431C15.7588 65.229 14.7897 64.2843 13.9048 63.0819C13.4413 62.4807 13.02 61.8795 12.5986 61.2354C12.5565 61.1495 12.2194 60.6771 12.5565 61.1495C12.4722 61.0636 12.4301 60.9348 12.3458 60.8489C12.2194 60.6771 12.1351 60.5483 12.0087 60.3765C11.8402 60.1618 11.7138 59.9471 11.6295 59.7324C10.8289 59.6465 10.0705 59.2171 9.48057 58.6159C8.25863 57.4135 7.41591 55.4811 7.24737 53.7205C5.68834 51.9599 5.73048 48.868 7.41591 47.1933C7.37378 44.5309 8.17436 42.4267 9.94406 39.7643C10.8711 38.3472 11.6716 36.6725 11.3767 34.9548C11.166 33.7524 10.1969 33.28 9.10135 33.7953C2.2332 42.8991 1.98039 55.8247 9.26989 65.1431C13.1043 70.0815 18.4134 73.1733 24.0596 74.2469C23.1747 73.7316 22.4163 73.0015 21.7421 72.0139Z" fill="url(#paint1_linear)"/>
<path d="M43.4421 85.7555C43.4421 85.7555 23.3012 86.872 10.6183 70.4681C9.35419 68.7934 8.13226 67.1186 7.03672 65.3151C5.98333 63.6403 5.05634 61.9226 4.21362 60.162C3.41304 58.4873 2.73886 56.7696 2.1911 55.0089C1.64333 53.2912 1.22197 51.5736 0.927023 49.8129C0.632072 48.0523 0.463528 46.2917 0.421392 44.531C0.337121 42.7275 0.421392 40.9239 0.632072 39.1633C0.842751 37.2738 1.1377 35.4273 1.55906 33.6237C2.02255 31.6913 2.57032 29.7589 3.20236 27.8695C3.87653 25.8512 4.67711 23.8758 5.51983 21.9005C5.89905 21.0846 6.23614 20.2258 6.61536 19.4099C6.69964 19.2381 6.78391 19.0234 6.91031 18.8946C7.50022 18.3363 8.55361 19.1093 8.93284 19.5816C9.69128 20.5264 9.52274 22.0723 9.43847 23.1888C9.26992 25.4647 8.80643 27.7406 8.34293 30.0166C7.92158 32.1207 7.50022 34.2249 7.16313 36.3291C5.64624 45.0463 11.166 59.4749 13.8206 58.702C16.4752 57.929 14.3684 48.6964 13.9891 45.1752C13.6099 41.611 13.2728 38.3044 15.3796 38.4332C17.5286 38.5621 20.4359 41.0098 23.1748 59.6467C25.9136 78.2836 39.9448 85.5408 43.4421 85.7555Z" fill="url(#paint2_linear)"/>
<path d="M30.2957 56.7267C31.1384 56.2543 31.4334 55.1808 30.9699 54.279C30.5064 53.4202 29.453 53.0766 28.6103 53.549C28.0625 53.8496 27.7254 54.4508 27.7254 55.0949C27.3883 55.1378 27.0512 55.1808 26.7984 55.2237C26.7563 55.0949 26.7142 54.9661 26.6299 54.8373C26.3349 54.4937 25.8714 54.4508 25.5765 54.7514C25.2815 55.052 25.2394 55.5243 25.5343 55.8249C25.8293 56.1255 26.2928 56.2114 26.5877 55.9108C26.7563 55.782 26.8406 55.5673 26.8406 55.3526C27.1355 55.3526 27.4305 55.3526 27.7676 55.3526C27.8097 55.5673 27.8518 55.739 27.9782 55.9538C28.3996 56.8555 29.453 57.1991 30.2957 56.7267Z" fill="url(#paint3_linear)"/>
<path d="M26.4614 62.7385C26.2086 62.6097 25.9136 62.7385 25.7872 62.9962C25.6608 63.2538 25.7451 63.5974 25.9979 63.7262H26.04C26.04 63.8121 25.9979 63.898 25.9979 64.0268C25.9979 64.1556 25.9979 64.2844 25.9979 64.4562C25.9979 64.7997 25.9979 65.1433 25.9979 65.358C25.9136 65.358 25.8293 65.4009 25.7872 65.4868C25.7451 65.6156 25.7872 65.7874 25.9136 65.8303C26.04 65.8733 26.1664 65.8303 26.2507 65.7015C26.335 65.5727 26.2507 65.4009 26.1243 65.358C26.0822 65.358 26.0822 65.358 26.04 65.358C26.0822 65.1433 26.0822 64.7997 26.1243 64.4562C26.1243 64.3274 26.1664 64.1556 26.1664 64.0268C26.1664 63.9409 26.1664 63.855 26.1664 63.7691C26.335 63.7691 26.5035 63.6403 26.6299 63.4685C26.7985 63.1679 26.7142 62.8674 26.4614 62.7385Z" fill="url(#paint4_linear)"/>
<path d="M12.6408 50.0276C12.388 49.8988 12.093 50.0276 11.9666 50.2852C11.8402 50.5429 11.9245 50.8864 12.1773 51.0153H12.2194C12.2194 51.1011 12.1773 51.187 12.1773 51.3159C12.1773 51.4447 12.1773 51.5735 12.1773 51.7453C12.1773 52.0888 12.1773 52.4324 12.1773 52.6471C12.093 52.6471 12.0088 52.69 11.9666 52.7759C11.9245 52.9047 11.9666 53.0765 12.093 53.1194C12.2194 53.1624 12.3459 53.1194 12.4301 52.9906C12.4723 52.8618 12.4301 52.69 12.3037 52.6471C12.2616 52.6471 12.2616 52.6471 12.2194 52.6471C12.2616 52.4324 12.2616 52.0888 12.3037 51.7453C12.3037 51.6165 12.3459 51.4447 12.3459 51.3159C12.3459 51.23 12.3459 51.1441 12.3459 51.0582C12.5144 51.0582 12.6829 50.9294 12.8093 50.7576C13.02 50.457 12.8936 50.1564 12.6408 50.0276Z" fill="url(#paint5_linear)"/>
<path d="M32.6975 60.6773C32.5711 60.7202 32.4868 60.8061 32.4447 60.892C32.1918 60.8061 31.8969 60.7202 31.6019 60.6344C31.5177 60.5914 31.4334 60.5914 31.3491 60.5485C31.3491 60.4197 31.3491 60.2908 31.3491 60.162C31.2227 59.3461 30.4643 58.7879 29.6637 58.9167C28.8631 59.0455 28.3575 59.8185 28.526 60.6773C28.6524 61.4073 29.2845 61.9226 30.0008 61.9226C30.0008 61.9656 30.0008 61.9656 30.0008 62.0085C30.0429 62.1803 30.085 62.395 30.1272 62.5668C30.1693 62.8244 30.2115 63.0821 30.2536 63.2968C29.9165 63.3827 29.7058 63.7262 29.7901 64.1127C29.8744 64.4991 30.2115 64.7568 30.5907 64.7139C30.6328 64.7139 30.6328 64.7139 30.675 64.6709C30.7171 64.7568 30.8014 64.8856 30.8435 64.9715C30.9278 65.1003 31.0542 65.2721 31.1806 65.4439C31.4334 65.8303 31.7283 66.1739 31.8969 66.3886C31.8126 66.4745 31.7705 66.5604 31.7705 66.6892C31.8126 66.861 31.9812 66.9898 32.1497 66.9898C32.3183 66.9468 32.4447 66.7751 32.4025 66.6033C32.3604 66.4315 32.1918 66.3027 32.0233 66.3027C31.9812 66.3027 31.9812 66.3457 31.939 66.3457C31.8126 66.088 31.5598 65.7015 31.3491 65.315C31.2649 65.1433 31.1806 64.9715 31.0542 64.8427C30.9699 64.7568 30.9278 64.6709 30.8435 64.585C31.0542 64.4133 31.1384 64.1556 31.0963 63.898C31.0542 63.5544 30.7171 63.2968 30.4221 63.2968C30.4221 63.0821 30.4221 62.8244 30.38 62.5668C30.38 62.352 30.38 62.1803 30.38 62.0085C30.38 61.9656 30.38 61.9656 30.38 61.9226C30.8435 61.7938 31.1806 61.4073 31.307 60.9779C31.3913 60.9779 31.4755 61.0208 31.5598 61.0208C31.8548 61.0638 32.1918 61.1067 32.4447 61.1497C32.4868 61.3214 32.6553 61.4503 32.8239 61.4073C32.9924 61.3644 33.1188 61.1926 33.0767 61.0208C33.0346 60.8061 32.866 60.6773 32.6975 60.6773Z" fill="url(#paint6_linear)"/>
<path d="M28.5261 15.4162C27.8097 15.6309 27.3462 16.1032 27.4727 16.5327C27.5991 16.9621 28.2311 17.1339 28.9474 16.9191C29.6637 16.7044 30.1272 16.2321 30.0008 15.8026C29.8744 15.3732 29.2424 15.2015 28.5261 15.4162Z" fill="url(#paint7_linear)"/>
<path d="M73.9484 21.3422C73.822 21.471 73.7798 21.5998 73.7798 21.8145C73.3163 21.5998 72.7264 21.3422 72.1787 21.0845C71.8416 20.9128 71.5045 20.7839 71.2095 20.6122C70.9146 20.5263 70.6618 20.4404 70.4511 20.3545C70.4932 19.8821 70.1561 19.4098 69.6084 19.2809C69.3977 19.238 69.187 19.238 68.9763 19.3239C68.7235 18.8945 68.3864 18.2933 68.0493 17.735C67.8808 17.4344 67.7123 17.1338 67.5437 16.8332C67.3752 16.5756 67.1645 16.3179 66.996 16.1032C66.9538 16.0603 66.9117 15.9744 66.8695 15.9315C67.0802 15.9744 67.2488 15.9744 67.2909 15.9315C67.333 15.8026 66.996 15.502 66.4903 15.2873C65.9847 15.0297 65.5212 14.9438 65.4791 15.0726C65.4369 15.2014 65.774 15.502 66.2796 15.7167C66.3218 15.7597 66.406 15.7597 66.4482 15.8026C66.4903 15.9315 66.5746 16.1462 66.6589 16.3609C66.7853 16.6185 66.9117 16.8762 67.0802 17.1338C67.2488 17.3915 67.5016 17.6921 67.7123 17.9497C68.0915 18.465 68.4707 18.9804 68.8078 19.4098C68.5971 19.5386 68.4286 19.7104 68.3864 19.968C68.3022 20.4404 68.6814 20.9557 69.2292 21.0845C69.6505 21.1704 70.0719 21.0416 70.2825 20.7839C70.4932 20.9128 70.746 21.0416 71.041 21.1275C71.3781 21.2563 71.7152 21.3422 72.0523 21.471C72.6843 21.6857 73.3163 21.9004 73.822 22.0722C73.9062 22.3298 74.0326 22.6304 74.2855 22.8881C74.7911 23.4463 75.4231 23.6181 75.7602 23.3605C76.0552 23.0599 75.9288 22.3728 75.4231 21.8575C74.9175 21.3422 74.2433 21.0416 73.9484 21.3422Z" fill="url(#paint8_linear)"/>
<path d="M38.9335 1.84651C41.546 1.37415 43.8213 0.687075 45.4225 0.0858844C40.1133 -0.257653 34.7621 0.429422 29.6215 2.14711C30.4221 2.83418 34.3407 2.7483 38.9335 1.84651Z" fill="url(#paint9_linear)"/>
<path d="M22.8798 28.5994C22.922 28.6424 22.922 28.7283 22.9641 28.7712C23.3012 29.3295 23.7647 29.8018 24.1439 30.3601C24.5231 30.9183 24.9024 31.4766 25.2816 31.9489C23.9332 33.0654 23.554 34.9978 24.4389 36.4579C25.408 38.0897 27.5569 38.562 29.2002 37.5314C30.8435 36.5008 31.4334 34.3537 30.4222 32.7219C29.5794 31.3048 27.8519 30.7895 26.335 31.3477C26.0822 30.7466 25.8294 30.1454 25.5765 29.5012C25.3237 28.9 25.1552 28.213 24.8602 27.6547C24.8181 27.6118 24.776 27.5259 24.7338 27.483C25.4923 26.71 25.9558 25.7653 25.9979 24.8205C27.2198 24.6488 28.6103 24.3911 30.0008 24.1335C30.6328 24.0046 31.307 23.9188 31.9391 23.8329C33.0346 26.1088 36.0684 27.0965 38.9757 26.1088C42.0938 24.9923 43.8635 21.9864 42.9786 19.3669C42.0938 16.7474 38.8493 15.5021 35.7313 16.6186C33.2453 17.5204 31.602 19.6245 31.5177 21.7716C30.8857 21.9864 30.2536 22.244 29.6216 22.4587C28.3154 22.8881 27.0513 23.3176 25.9136 23.747C25.8294 23.5323 25.7451 23.3176 25.6187 23.1458C25.0288 22.1581 23.8911 21.6428 22.6692 21.7287C22.6692 21.3852 22.627 21.0846 22.5849 20.6981C22.5006 20.054 22.2478 19.4098 22.1214 18.7228C21.9529 17.9927 21.7843 17.2627 21.6579 16.6186C22.1214 16.4468 22.5428 16.2321 23.0063 15.9315C25.4501 14.4285 26.7563 12.0238 25.9136 10.5637C25.0709 9.10371 22.3321 9.23254 19.8882 10.7355C18.7505 11.4226 17.8657 12.3244 17.3179 13.1832C17.1072 13.2262 16.8544 13.2691 16.6016 13.2691C15.2954 13.4409 13.947 13.6126 13.1886 13.6985C13.61 13.1832 13.8206 12.7538 13.6942 12.625C13.5257 12.4532 12.8936 12.8826 12.2616 13.5268C11.6296 14.1709 11.2503 14.858 11.4189 14.9868C11.5874 15.1156 12.2195 14.7291 12.8515 14.085C12.9358 13.9991 13.0201 13.9132 13.0622 13.8273C13.7785 13.8273 15.2111 13.8273 16.6437 13.8273C16.728 13.8273 16.8544 13.8273 16.9387 13.8273C16.6016 14.6432 16.6016 15.4162 16.9387 16.0174C17.5286 17.0051 19.0455 17.2627 20.7309 16.8333C20.7731 17.4774 20.8152 18.1645 20.8573 18.8086C20.8995 19.4957 20.8573 20.1828 20.9416 20.8269C20.9837 21.2134 21.068 21.5999 21.1944 21.9434C20.9837 22.0293 20.7731 22.1581 20.5624 22.287C19.0033 23.2746 18.2449 24.9494 18.582 26.4094L18.5399 26.4523C18.0764 26.7959 17.5707 27.2253 17.1072 27.6118C16.8123 27.8265 16.5173 28.0841 16.2224 28.2989C15.4218 27.6977 13.8628 28.17 12.6408 29.4153C11.3346 30.7466 10.8711 32.4213 11.6296 33.1943C12.388 33.9672 14.0313 33.4949 15.3375 32.1636C16.3909 31.0901 16.8966 29.7159 16.6437 28.8571C16.9387 28.6853 17.2758 28.4706 17.5707 28.2989C18.0764 27.9983 18.6241 27.7406 19.0876 27.3971C19.8461 28.6853 21.363 29.0718 22.8798 28.5994Z" fill="url(#paint10_linear)"/>
<path d="M57.1363 7.08542C60.0858 7.55779 62.8668 7.21425 64.8051 6.31247C59.7066 3.0918 54.0183 1.11646 48.2457 0.343506C47.9507 3.30651 51.8694 6.26952 57.1363 7.08542Z" fill="url(#paint11_linear)"/>
<path d="M39.6078 38.8627C37.8802 39.4639 36.9111 41.3963 37.5431 43.1569C37.9223 44.3164 38.9336 45.1323 40.0713 45.347C40.0291 45.9911 40.0291 46.6353 39.987 47.1506C39.7342 47.1506 39.4814 47.2365 39.2707 47.3653C38.5965 47.7947 38.3437 48.6965 38.7651 49.3836C39.1864 50.0706 40.0713 50.2853 40.7454 49.8559C41.4196 49.4265 41.6724 48.5247 41.2511 47.8376C41.0404 47.4941 40.7033 47.2794 40.3241 47.1935C40.4083 46.6782 40.5348 46.0341 40.6612 45.4329C41.0404 45.4329 41.4196 45.3899 41.7988 45.2611C43.5264 44.6599 44.4955 42.7275 43.8635 40.9669C43.2315 39.1633 41.3353 38.2615 39.6078 38.8627Z" fill="url(#paint12_linear)"/>
<path d="M30.7592 42.4698C29.5794 43.1998 29.1159 44.7028 29.6216 45.9481C29.5794 45.9481 29.5373 45.991 29.4952 45.991C29.2002 46.1628 28.9053 46.3775 28.6103 46.5922C28.1889 46.8499 27.8097 47.1075 27.4726 47.3222C27.0513 46.8069 26.335 46.6781 25.7451 47.0646C25.113 47.4511 24.9024 48.267 25.2816 48.9111C25.3237 48.954 25.3658 49.0399 25.408 49.0829C25.408 49.1258 25.3658 49.1258 25.3658 49.1687C25.2394 49.3835 25.113 49.5982 24.9866 49.8129C24.6917 50.3282 24.3967 50.8006 24.186 51.1441C24.0596 51.0582 23.8911 51.0582 23.7647 51.1441C23.554 51.2729 23.4697 51.5306 23.5961 51.7453C23.7225 51.96 23.9754 52.0029 24.186 51.8741C24.3967 51.7453 24.481 51.4876 24.3546 51.2729C24.3124 51.23 24.3124 51.187 24.2703 51.187C24.5231 50.8864 24.8602 50.4141 25.2394 49.9417C25.408 49.727 25.5344 49.5552 25.7029 49.3835L25.7451 49.3405C26.1664 49.5982 26.7142 49.6411 27.1777 49.3405C27.7676 48.997 27.9783 48.267 27.7255 47.6658C28.1047 47.494 28.526 47.3222 28.9474 47.1075C29.2845 46.9787 29.6216 46.8499 29.9165 46.6781C29.9587 46.6352 30.0008 46.6352 30.0429 46.5922C30.5907 47.2793 31.4755 47.6658 32.3183 47.5799C32.3604 47.7517 32.4025 47.9234 32.4447 48.0523C32.5711 48.6534 32.7396 49.2546 32.866 49.7699C32.5711 49.9847 32.4868 50.3282 32.6975 50.6288C32.866 50.9294 33.2874 51.0153 33.5823 50.8435C33.8773 50.6717 34.0037 50.2423 33.793 49.9417C33.6666 49.727 33.4559 49.6411 33.2031 49.6411C33.161 49.1258 33.1188 48.5676 33.0346 47.9664C33.0346 47.7946 32.9924 47.6228 32.9924 47.4511C33.2031 47.3652 33.4138 47.2793 33.6245 47.1505C34.9307 46.3346 35.3942 44.6169 34.5936 43.2857C33.793 42.0404 32.0654 41.6539 30.7592 42.4698Z" fill="url(#paint13_linear)"/>
<path d="M72.9795 17.9927C73.148 17.8639 73.2323 17.6492 73.1059 17.4774C72.9795 17.3057 72.7688 17.2627 72.6003 17.3486C72.4317 17.4345 72.3474 17.6921 72.4738 17.8639C72.6003 18.0357 72.8109 18.0786 72.9795 17.9927Z" fill="url(#paint14_linear)"/>
<path d="M77.0666 26.023C76.898 25.7224 76.4767 25.6365 76.1818 25.8082C75.8868 25.98 75.7604 26.4094 75.9711 26.71C76.1818 27.0106 76.561 27.0965 76.8559 26.9247C77.1509 26.71 77.2351 26.3236 77.0666 26.023Z" fill="url(#paint15_linear)"/>
<path d="M21.7422 37.7891C21.2787 38.1756 21.1944 38.8197 21.4894 39.2062C21.7843 39.5927 22.4164 39.5927 22.8799 39.2062C23.3434 38.8197 23.4276 38.1756 23.1327 37.7891C22.8377 37.4026 22.2057 37.4026 21.7422 37.7891Z" fill="url(#paint16_linear)"/>
<path d="M62.4454 17.9497C62.2769 17.9497 62.1083 18.0356 61.9819 18.1215C61.8555 17.9927 61.7291 17.8639 61.6027 17.6921C61.3499 17.4344 61.0549 17.1338 60.7178 16.8332C62.0241 16.2321 62.8668 15.3732 63.0353 14.2567C63.4145 11.852 60.1701 9.31836 55.8301 8.67423C51.4901 7.98716 47.6979 9.40425 47.3187 11.852C46.9816 14.0849 49.7204 16.4038 53.5548 17.2627C53.3441 17.9068 53.0913 18.5509 52.8806 19.238C52.7542 19.5815 52.6278 19.9251 52.5014 20.2686C51.7008 20.1827 50.8581 20.2686 50.0575 20.5263C47.3608 21.471 45.886 24.3052 46.5181 27.0105C45.8439 27.397 45.1276 27.8694 44.4113 28.2559C43.1472 28.9429 41.8831 29.673 40.7876 30.3171C39.9027 28.9 38.133 28.2559 36.4476 28.8141C34.5094 29.5012 33.456 31.6483 34.1301 33.5807C34.8043 35.5131 36.9111 36.5437 38.8493 35.8566C40.7455 35.1696 41.7567 33.1513 41.209 31.2189C42.3888 30.7894 43.7371 30.3171 45.0855 29.7588C45.8439 29.4582 46.6445 29.2435 47.4029 28.9429C48.7934 30.8324 51.2794 31.6483 53.5969 30.8324C56.4621 29.8018 57.979 26.667 57.0099 23.8328C56.4621 22.2869 55.3245 21.1275 53.934 20.5692C53.9761 20.2257 54.0604 19.8392 54.1025 19.4957C54.2289 18.7656 54.3553 18.0356 54.4817 17.3486C56.4621 17.6491 58.3582 17.5203 59.833 17.048C59.8751 17.0909 59.9173 17.1338 59.9594 17.1768C60.3808 17.5203 60.8021 17.8209 61.1813 18.0786C61.3077 18.1645 61.4763 18.2503 61.6027 18.3362C61.4763 18.508 61.4341 18.6798 61.4341 18.8945C61.4763 19.4098 62.0241 19.7533 62.614 19.6674C63.2039 19.5815 63.6252 19.1521 63.5831 18.6368C63.5409 18.2074 62.9932 17.8639 62.4454 17.9497Z" fill="url(#paint17_linear)"/>
<path d="M12.4723 37.102C12.388 37.1449 12.3037 37.2308 12.3037 37.3167C12.2616 37.3167 12.1773 37.3167 12.1352 37.2738C11.7981 37.2308 11.3767 37.1879 10.9554 37.1879C10.534 37.1879 10.1127 37.1449 9.77558 37.1449C9.85985 36.6726 9.69131 36.2432 9.4385 36.2002C9.14355 36.1143 8.80646 36.5008 8.72219 37.0161C8.59578 37.5314 8.76432 38.0038 9.05927 38.0897C9.05927 38.0897 9.05927 38.0897 9.10141 38.0897C9.05927 38.5191 8.975 38.9915 8.93287 39.5068C8.89073 40.1938 8.80646 40.8809 8.76432 41.3533C8.59578 41.3962 8.46937 41.568 8.3851 41.8256C8.30083 42.1262 8.42724 42.4268 8.59578 42.4698C8.76432 42.5127 8.975 42.298 9.01714 41.9974C9.10141 41.6968 8.975 41.3962 8.80646 41.3533H8.76432C8.80646 40.8809 8.93287 40.2368 9.01714 39.5497C9.10141 39.0344 9.14354 38.5191 9.18568 38.0897C9.4385 38.0038 9.64918 37.7032 9.77558 37.2738V37.2308C10.1127 37.2738 10.534 37.3167 10.9554 37.3597C11.3767 37.4026 11.7981 37.4455 12.1352 37.4455C12.1773 37.4455 12.2616 37.4455 12.3037 37.4455C12.3037 37.5314 12.3037 37.5744 12.3459 37.6602C12.4301 37.832 12.683 37.875 12.8936 37.7461C13.1043 37.6173 13.1465 37.4026 13.0622 37.2308C12.8936 37.0161 12.6408 37.0161 12.4723 37.102Z" fill="url(#paint18_linear)"/>
<path d="M15.6325 21.4282C15.8853 21.2565 16.0117 20.9129 15.8853 20.6982C15.7589 20.4835 15.4218 20.3976 15.1269 20.5694C14.8741 20.7412 14.7477 21.0847 14.8741 21.2994C15.0005 21.5571 15.3376 21.6 15.6325 21.4282Z" fill="url(#paint19_linear)"/>
<path d="M23.8068 6.35554C23.9753 6.26965 24.1017 6.18377 24.2281 6.09788L30.6749 7.51498C29.8322 8.54559 29.4951 9.70503 29.7479 10.7356C30.4221 13.1404 34.2986 14.1281 38.4279 12.9257C39.1863 12.711 39.9448 12.4104 40.5768 12.1098C40.9139 12.5392 41.251 12.9686 41.5881 13.3981C42.8522 15.0299 44.1162 16.6617 45.0011 17.7782C44.5376 18.1646 44.4533 18.7658 44.7483 19.1523C45.0432 19.5388 45.6753 19.5388 46.0966 19.1952L46.1388 19.1523C46.5601 18.7658 46.6865 18.1646 46.3494 17.7782C46.0545 17.4346 45.5489 17.3917 45.1275 17.6493C44.3269 16.4899 43.1893 14.7722 42.0094 13.0545C41.7145 12.6251 41.4617 12.2386 41.1667 11.8092C43.6949 10.3921 45.1275 8.28793 44.664 6.48436C44.6219 6.31259 44.5797 6.18377 44.4955 6.012C44.5797 5.96906 44.664 5.96906 44.7061 5.92611C45.2539 5.75435 45.7595 5.53963 46.0966 5.41081C46.3494 5.49669 46.6444 5.53963 46.9393 5.62552C47.8242 5.75435 48.5826 5.7114 48.6248 5.49669C48.6669 5.28198 47.9506 4.98139 47.0658 4.85256C46.1809 4.72373 45.4225 4.76668 45.3803 4.98139C45.3803 5.11021 45.5067 5.1961 45.8017 5.32492C45.4646 5.36787 45.0011 5.45375 44.5797 5.53963C44.4533 5.58258 44.3269 5.58258 44.2005 5.62552C42.9364 3.90783 39.5234 3.2637 35.9419 4.29431C33.9194 4.8955 32.2339 5.88317 31.0963 6.99967L24.2703 6.05494C26.3349 4.8955 27.8097 3.82195 27.6411 3.52135C27.4726 3.22076 25.4501 4.03666 23.1326 5.32492C20.773 6.61319 19.0033 7.85851 19.1718 8.15911C19.3404 8.4597 21.4472 7.6438 23.8068 6.35554Z" fill="url(#paint20_linear)"/>
<path d="M67.0803 11.5944C67.7966 12.1527 68.4708 12.4962 68.5972 12.3245C68.7236 12.1527 68.2601 11.5515 67.5438 10.9503C66.8275 10.3491 66.1533 10.0485 66.0269 10.2203C65.9005 10.3921 66.364 10.9933 67.0803 11.5944Z" fill="url(#paint21_linear)"/>
<path d="M0.884853 97.307C1.01126 97.6076 1.22194 97.8653 1.55903 98.08C1.85398 98.2947 2.2332 98.3806 2.65456 98.3806C2.90737 98.3806 3.11805 98.3377 3.32873 98.2947C3.53941 98.2518 3.75009 98.1659 3.91863 98.0371C4.08718 97.9082 4.21359 97.7794 4.33999 97.6076C4.42426 97.4359 4.50854 97.2212 4.50854 96.9635C4.50854 96.7059 4.4664 96.4911 4.33999 96.3194C4.25572 96.1047 4.08718 95.9329 3.91863 95.8041C3.75009 95.6752 3.53941 95.5464 3.32873 95.5035C3.11805 95.4605 2.86524 95.3747 2.61242 95.3747C2.27534 95.3747 1.93825 95.3317 1.6433 95.2458C1.34835 95.1599 1.09553 94.9882 0.884853 94.8164C0.674174 94.6446 0.50563 94.387 0.379223 94.1293C0.252815 93.8717 0.210679 93.5711 0.210679 93.2275C0.210679 92.5834 0.421358 92.111 0.884853 91.7675C1.30621 91.424 1.89611 91.2522 2.65456 91.2522C2.65456 91.2522 2.73883 91.2522 2.90737 91.2522C3.07592 91.2522 3.24446 91.2951 3.49728 91.381C3.70796 91.4669 3.96077 91.5528 4.17145 91.7246C4.42426 91.8963 4.59281 92.111 4.76135 92.3687C4.76135 92.4116 4.80349 92.4546 4.80349 92.4975C4.80349 92.5405 4.84562 92.5834 4.84562 92.6263C4.84562 92.7122 4.80349 92.7981 4.71922 92.9269C4.63494 93.0558 4.55067 93.0558 4.42426 93.0558C4.29786 93.0558 4.17145 93.0128 4.08718 92.884C4.00291 92.7552 3.8765 92.6693 3.79223 92.5834C3.70796 92.4975 3.58155 92.4116 3.49728 92.3258C3.37087 92.2399 3.24446 92.1969 3.11805 92.154C2.99165 92.111 2.8231 92.111 2.61242 92.111C2.31747 92.111 2.10679 92.154 1.89611 92.1969C1.68543 92.2828 1.51689 92.3258 1.43262 92.4546C1.30621 92.5405 1.22194 92.6693 1.1798 92.7981C1.13767 92.9269 1.09553 93.0558 1.09553 93.2275C1.09553 93.4423 1.13767 93.614 1.22194 93.7858C1.30621 93.9576 1.43262 94.0864 1.55903 94.1723C1.68543 94.3011 1.85398 94.387 2.06466 94.4299C2.2332 94.4729 2.44388 94.5158 2.65456 94.5158C3.03378 94.5158 3.37087 94.5587 3.70796 94.6876C4.04504 94.8164 4.33999 94.9452 4.55067 95.1599C4.76135 95.3747 4.97203 95.6323 5.14057 95.9329C5.26698 96.2335 5.35125 96.577 5.35125 96.9635C5.35125 97.35 5.26698 97.6935 5.14057 97.9512C5.01417 98.2518 4.80349 98.4665 4.55067 98.6812C4.29786 98.8959 4.00291 99.0247 3.66582 99.1106C3.32873 99.1965 2.99165 99.2394 2.61242 99.2394C2.52815 99.2394 2.40174 99.2394 2.19106 99.1965C1.98039 99.1536 1.72757 99.1106 1.47475 98.9818C1.22194 98.853 0.969125 98.6812 0.674174 98.4665C0.421359 98.2518 0.210679 97.9082 0.0421359 97.5218C0 97.4788 0 97.3929 0 97.307C0 97.1782 0.0421359 97.0923 0.126408 97.0064C0.210679 96.9206 0.294951 96.8776 0.421359 96.8776C0.547766 96.8776 0.632038 96.9206 0.71631 97.0064C0.758445 97.0494 0.842717 97.1782 0.884853 97.307Z" fill="white"/>
<path d="M5.9412 95.3317C5.9412 95.0311 5.98334 94.7734 6.10975 94.5158C6.19402 94.2581 6.36256 94.0434 6.53111 93.8716C6.69965 93.6999 6.95246 93.5281 7.16314 93.4422C7.41596 93.3563 7.66877 93.2704 7.96372 93.2704C8.21654 93.2704 8.51149 93.3134 8.7643 93.4422C9.01712 93.5281 9.2278 93.6999 9.39634 93.8716C9.56489 94.0434 9.73343 94.2581 9.8177 94.5158C9.94411 94.7734 9.98624 95.0311 9.98624 95.3317V96.9635C9.98624 97.2211 9.94411 97.5217 9.8177 97.7364C9.69129 97.9511 9.56489 98.2088 9.39634 98.3806C9.2278 98.5523 8.97498 98.7241 8.7643 98.81C8.51149 98.8959 8.25867 98.9818 7.96372 98.9818C7.66877 98.9818 7.41596 98.9388 7.16314 98.81C6.91033 98.7241 6.69965 98.5523 6.53111 98.3806C6.36256 98.2088 6.19402 97.9941 6.10975 97.7364C5.98334 97.4788 5.9412 97.2211 5.9412 96.9635V95.3317ZM7.71091 91.5098C7.75304 91.4669 7.83732 91.4669 7.92159 91.4669C8.00586 91.4669 8.09013 91.5098 8.1744 91.5528L8.93285 92.111C9.05926 92.1969 9.14353 92.3257 9.14353 92.4545C9.14353 92.5834 9.10139 92.6693 9.01712 92.7551C8.93285 92.841 8.80644 92.884 8.72217 92.884C8.6379 92.884 8.55363 92.841 8.46935 92.7981L7.96372 92.4545L7.50023 92.7981C7.41596 92.841 7.33169 92.884 7.24742 92.884C7.12101 92.884 7.03674 92.841 6.95246 92.7551C6.86819 92.6693 6.82606 92.5834 6.82606 92.4545C6.82606 92.3257 6.86819 92.1969 6.9946 92.111L7.71091 91.5098ZM6.78392 96.9635C6.78392 97.1352 6.82606 97.2641 6.86819 97.4358C6.91033 97.5647 6.9946 97.6935 7.12101 97.8223C7.24741 97.9511 7.33169 98.037 7.50023 98.08C7.62664 98.1229 7.79518 98.1659 7.96372 98.1659C8.13227 98.1659 8.30081 98.1229 8.42722 98.08C8.55363 98.037 8.68003 97.9511 8.80644 97.8223C8.93285 97.6935 9.01712 97.5647 9.05926 97.4358C9.10139 97.307 9.14353 97.1352 9.14353 96.9635V95.3317C9.14353 95.1599 9.10139 95.0311 9.05926 94.8593C8.97498 94.7305 8.89071 94.6017 8.80644 94.4728C8.72217 94.344 8.59576 94.2581 8.42722 94.2152C8.30081 94.1722 8.13227 94.1293 7.96372 94.1293C7.79518 94.1293 7.62664 94.1722 7.50023 94.2152C7.37382 94.2581 7.24741 94.344 7.12101 94.4728C6.9946 94.6017 6.91033 94.7305 6.86819 94.8593C6.82606 94.9881 6.78392 95.1599 6.78392 95.3317V96.9635ZM9.05926 90.2215C9.14353 90.0927 9.26993 90.0068 9.43848 90.0068C9.56489 90.0068 9.64916 90.0498 9.73343 90.1357C9.8177 90.2215 9.85984 90.3074 9.85984 90.4363C9.85984 90.5221 9.85984 90.608 9.8177 90.651L9.35421 91.4669C9.26994 91.5957 9.14353 91.6816 9.01712 91.6816C8.89071 91.6816 8.76431 91.6386 8.72217 91.5528C8.6379 91.4669 8.59576 91.381 8.59576 91.2522C8.59576 91.1663 8.6379 91.1233 8.68003 91.0374L9.05926 90.2215Z" fill="white"/>
<path d="M10.6604 95.3317C10.6604 95.0311 10.7025 94.7735 10.8289 94.5158C10.9553 94.2582 11.0818 94.0435 11.2503 93.8717C11.4188 93.6999 11.6717 93.5282 11.8823 93.4423C12.1351 93.3564 12.388 93.2705 12.6829 93.2705C12.9357 93.2705 13.2307 93.3135 13.4835 93.4423C13.7363 93.5282 13.947 93.6999 14.1155 93.8717C14.2841 94.0435 14.4526 94.2582 14.5369 94.5158C14.6633 94.7735 14.7054 95.0311 14.7054 95.3317V98.5524C14.7054 98.6812 14.6633 98.7671 14.579 98.853C14.4948 98.9389 14.4105 98.9818 14.2841 98.9818C14.1577 98.9818 14.0734 98.9389 13.9891 98.853C13.9049 98.7671 13.8627 98.6812 13.8627 98.5524V95.3317C13.8627 95.16 13.8206 95.0311 13.7784 94.8594C13.6942 94.7305 13.6099 94.6017 13.5256 94.4729C13.4414 94.3441 13.315 94.2582 13.1464 94.2152C13.02 94.1723 12.8515 94.1294 12.6829 94.1294C12.5144 94.1294 12.3458 94.1723 12.2194 94.2152C12.093 94.2582 11.9666 94.3441 11.8402 94.4729C11.7138 94.6017 11.6295 94.7305 11.5874 94.8594C11.5452 94.9882 11.5031 95.16 11.5031 95.3317V98.5524C11.5031 98.6812 11.461 98.7671 11.3767 98.853C11.2924 98.9389 11.2082 98.9818 11.0818 98.9818C10.9553 98.9818 10.8711 98.9389 10.7868 98.853C10.7025 98.7671 10.6604 98.6812 10.6604 98.5524V95.3317Z" fill="white"/>
<path d="M15.2532 95.3317C15.2532 95.0311 15.2953 94.7735 15.4217 94.5158C15.5481 94.2582 15.6745 94.0435 15.8431 93.8717C16.0116 93.6999 16.2644 93.5282 16.4751 93.4423C16.7279 93.3564 16.9807 93.2705 17.2757 93.2705C17.5285 93.2705 17.8234 93.3135 18.0763 93.4423C18.3291 93.5282 18.5398 93.6999 18.7083 93.8717C18.8768 94.0435 19.0454 94.2582 19.1297 94.5158C19.2561 94.7735 19.2982 95.0311 19.2982 95.3317V98.9389C19.2982 99.2395 19.2561 99.4971 19.1297 99.7548C19.0033 100.012 18.8768 100.227 18.7083 100.399C18.5398 100.571 18.3291 100.742 18.0763 100.828C17.8234 100.914 17.5706 101 17.2757 101C17.1493 101 17.065 100.957 16.9807 100.871C16.8965 100.785 16.8543 100.7 16.8543 100.571C16.8543 100.442 16.8965 100.356 16.9807 100.27C17.065 100.184 17.1493 100.141 17.2757 100.141C17.4442 100.141 17.5706 100.098 17.7392 100.055C17.8656 100.012 17.992 99.9266 18.1184 99.7977C18.2027 99.6689 18.2869 99.5401 18.3712 99.4113C18.4555 99.2824 18.4555 99.1107 18.4555 98.9389V98.6383C18.1184 98.8959 17.697 99.0248 17.2757 99.0248C16.9807 99.0248 16.7279 98.9818 16.4751 98.853C16.2223 98.7671 16.0116 98.5953 15.8431 98.4236C15.6745 98.2518 15.506 98.0371 15.4217 97.7794C15.2953 97.5218 15.2532 97.2641 15.2532 97.0065V95.3317ZM16.138 96.9635C16.138 97.1353 16.1802 97.2641 16.2223 97.4359C16.2644 97.5647 16.3487 97.6936 16.4751 97.8224C16.6015 97.9512 16.6858 98.0371 16.8543 98.08C16.9807 98.123 17.1493 98.1659 17.3178 98.1659C17.4864 98.1659 17.6128 98.123 17.7813 98.08C17.9077 98.0371 18.0341 97.9512 18.1605 97.8224C18.2448 97.7365 18.3291 97.6077 18.4133 97.4789C18.4976 97.35 18.4976 97.1783 18.5398 97.0494V95.3317C18.5398 95.16 18.4976 95.0311 18.4555 94.8594C18.3712 94.7305 18.2869 94.6017 18.2027 94.4729C18.1184 94.3441 17.992 94.2582 17.8234 94.2152C17.697 94.1723 17.5285 94.1294 17.36 94.1294C17.1914 94.1294 17.0229 94.1723 16.8965 94.2152C16.7701 94.2582 16.6436 94.3441 16.5172 94.4729C16.3908 94.6017 16.3066 94.7305 16.2644 94.8594C16.2223 94.9882 16.1802 95.16 16.1802 95.3317V96.9635H16.138Z" fill="white"/>
<path d="M31.8968 91.8963C31.8968 91.7675 31.9389 91.6816 32.0232 91.5957C32.1075 91.5099 32.1918 91.4669 32.3182 91.4669C32.4446 91.4669 32.5288 91.5099 32.6131 91.5957C32.6974 91.6816 32.7395 91.7675 32.7395 91.8963V93.3564H34.9306C35.057 93.3564 35.1413 93.3993 35.2255 93.4852C35.3098 93.5711 35.3519 93.657 35.3519 93.7858C35.3519 93.9146 35.3098 94.0005 35.2255 94.0864C35.1413 94.1723 35.057 94.2152 34.9306 94.2152H32.7395V97.0065C32.7395 97.1782 32.7817 97.3071 32.8238 97.4788C32.8659 97.6077 32.9502 97.7365 33.0766 97.8653C33.203 97.9941 33.2873 98.08 33.4558 98.123C33.5822 98.1659 33.7508 98.2089 33.9193 98.2089C34.1721 98.2089 34.3828 98.123 34.5514 97.9941C34.762 97.8653 34.8885 97.6935 34.9727 97.4359C35.0149 97.35 35.057 97.3071 35.1413 97.2212C35.2255 97.1782 35.2677 97.1353 35.3941 97.1353C35.5205 97.1353 35.6048 97.1782 35.689 97.2641C35.7733 97.35 35.8154 97.4359 35.8154 97.5647C35.8154 97.6077 35.8154 97.6506 35.7733 97.7365C35.6048 98.08 35.4362 98.3377 35.2255 98.5094C35.0149 98.6812 34.8042 98.81 34.6356 98.8959C34.425 98.9818 34.2564 99.0248 34.13 99.0248C34.0036 99.0248 33.9193 99.0248 33.9193 99.0248C33.6244 99.0248 33.3716 98.9818 33.1187 98.853C32.8659 98.7671 32.6553 98.5953 32.4867 98.4236C32.3182 98.2518 32.1496 98.0371 32.0654 97.7794C31.9389 97.5218 31.8968 97.2641 31.8968 97.0065V91.8963Z" fill="white"/>
<path d="M36.2368 91.7674C36.2368 91.6386 36.279 91.5527 36.3632 91.4668C36.4475 91.381 36.5318 91.338 36.6582 91.338C36.7846 91.338 36.8689 91.381 36.9531 91.4668C37.0374 91.5527 37.0796 91.6386 37.0796 91.7674V92.111C37.0796 92.2398 37.0374 92.3257 36.9531 92.4116C36.8689 92.4974 36.7846 92.5404 36.6582 92.5404C36.5318 92.5404 36.4475 92.4974 36.3632 92.4116C36.279 92.3257 36.2368 92.2398 36.2368 92.111V91.7674ZM36.2368 93.7428C36.2368 93.6139 36.279 93.5281 36.3632 93.4422C36.4475 93.3563 36.5318 93.3134 36.6582 93.3134C36.7846 93.3134 36.8689 93.3563 36.9531 93.4422C37.0374 93.5281 37.0796 93.6139 37.0796 93.7428V98.5523C37.0796 98.6811 37.0374 98.767 36.9531 98.8529C36.8689 98.9388 36.7846 98.9817 36.6582 98.9817C36.5318 98.9817 36.4475 98.9388 36.3632 98.8529C36.279 98.767 36.2368 98.6811 36.2368 98.5523V93.7428Z" fill="white"/>
<path d="M37.7959 95.3317C37.7959 95.0311 37.838 94.7735 37.9644 94.5158C38.0487 94.2582 38.2173 94.0435 38.3858 93.8717C38.5544 93.6999 38.8072 93.5281 39.0178 93.4423C39.2707 93.3564 39.5235 93.2705 39.8184 93.2705C40.0712 93.2705 40.3662 93.3134 40.619 93.4423C40.8718 93.5281 41.0825 93.6999 41.251 93.8717C41.4196 94.0435 41.5881 94.2582 41.6724 94.5158C41.7988 94.7735 41.841 95.0311 41.841 95.3317V96.1476C41.841 96.2764 41.7988 96.3623 41.7145 96.4482C41.6303 96.5341 41.546 96.577 41.4196 96.577H38.6386V96.9635C38.6386 97.1353 38.6808 97.2641 38.7229 97.4359C38.765 97.5647 38.8493 97.6935 38.9757 97.8224C39.1021 97.9512 39.1864 98.0371 39.3549 98.08C39.4813 98.123 39.6499 98.1659 39.8184 98.1659C40.0712 98.1659 40.2819 98.123 40.4505 97.9941C40.6611 97.8653 40.7876 97.6935 40.8718 97.4788V97.4359C40.914 97.35 40.9561 97.3071 41.0404 97.2212C41.1246 97.1782 41.2089 97.1353 41.2932 97.1353C41.4196 97.1353 41.5039 97.1782 41.5881 97.2641C41.6724 97.35 41.7145 97.4359 41.7145 97.5647C41.7145 97.6077 41.7145 97.6506 41.6724 97.7365L41.6303 97.7794C41.4617 98.123 41.251 98.4236 40.914 98.6812C40.5769 98.9389 40.1977 99.0248 39.7763 99.0248C39.4813 99.0248 39.2285 98.9818 38.9757 98.853C38.7229 98.7671 38.5122 98.5953 38.3437 98.4236C38.1751 98.2518 38.0066 98.0371 37.9223 97.7794C37.7959 97.5218 37.7538 97.2641 37.7538 97.0065V95.3317H37.7959ZM39.5656 91.5099C39.6077 91.4669 39.692 91.4669 39.7763 91.4669C39.8606 91.4669 39.9448 91.5099 40.0291 91.5528L40.7876 92.1111C40.914 92.1969 40.9982 92.3258 40.9982 92.4546C40.9982 92.5834 40.9561 92.6693 40.8718 92.7552C40.7876 92.8411 40.6611 92.884 40.5769 92.884C40.4926 92.884 40.4083 92.8411 40.3241 92.7981L39.8184 92.4546L39.3549 92.7981C39.2707 92.8411 39.1864 92.884 39.1021 92.884C38.9757 92.884 38.8914 92.8411 38.8072 92.7552C38.7229 92.6693 38.6808 92.5834 38.6808 92.4546C38.6808 92.3258 38.7229 92.1969 38.8493 92.1111L39.5656 91.5099ZM38.6386 95.7182H40.9982V95.3317C40.9982 95.16 40.9561 95.0311 40.914 94.8594C40.8297 94.7305 40.7454 94.6017 40.6611 94.4729C40.5769 94.344 40.4505 94.2582 40.2819 94.2152C40.1555 94.1723 39.987 94.1293 39.8184 94.1293C39.6499 94.1293 39.4813 94.1723 39.3549 94.2152C39.2285 94.2582 39.1021 94.344 38.9757 94.4729C38.8493 94.6017 38.765 94.7305 38.7229 94.8594C38.6808 94.9882 38.6386 95.16 38.6386 95.3317V95.7182Z" fill="white"/>
<path d="M42.515 93.7428C42.515 93.6139 42.5572 93.5281 42.6414 93.4422C42.7257 93.3563 42.81 93.3134 42.9364 93.3134C43.0628 93.3134 43.1471 93.3563 43.2313 93.4422C43.3156 93.5281 43.3577 93.6139 43.3577 93.7428V96.9634C43.3577 97.1352 43.3999 97.264 43.442 97.4358C43.4842 97.6076 43.5684 97.6935 43.6948 97.8223C43.8212 97.9511 43.9476 98.037 44.0741 98.0799C44.2005 98.1229 44.369 98.1658 44.5376 98.1658C44.7061 98.1658 44.8325 98.1229 45.001 98.0799C45.1275 98.037 45.2539 97.9511 45.3803 97.8223C45.4645 97.6935 45.5488 97.5646 45.6331 97.4358C45.7174 97.307 45.7174 97.1352 45.7174 96.9634V93.7428C45.7174 93.6139 45.7595 93.5281 45.8438 93.4422C45.928 93.3563 46.0123 93.3134 46.1387 93.3134C46.2651 93.3134 46.3494 93.3563 46.4337 93.4422C46.5179 93.5281 46.5601 93.6139 46.5601 93.7428V96.9634C46.5601 97.2211 46.5179 97.5217 46.3915 97.7364C46.2651 97.994 46.1387 98.2088 45.9702 98.3805C45.8016 98.5523 45.5909 98.7241 45.3381 98.8099C45.0853 98.8958 44.8325 98.9817 44.5376 98.9817C44.2426 98.9817 43.9898 98.9388 43.737 98.8099C43.4842 98.7241 43.2735 98.5523 43.1049 98.3805C42.9364 98.2088 42.7678 97.994 42.6836 97.7364C42.5993 97.4787 42.515 97.2211 42.515 96.9634V93.7428Z" fill="white"/>
<path d="M53.2176 91.7674C53.2176 91.6386 53.2597 91.5527 53.344 91.4668C53.4282 91.381 53.5125 91.338 53.6389 91.338C53.7653 91.338 53.8496 91.381 53.9339 91.4668C54.0181 91.5527 54.0603 91.6386 54.0603 91.7674V97.0064C54.0603 97.264 54.0181 97.5646 53.8917 97.7793C53.7653 98.037 53.6389 98.2517 53.4704 98.4235C53.3018 98.5952 53.0912 98.767 52.8383 98.8529C52.5855 98.9388 52.3327 99.0247 52.0378 99.0247C51.7428 99.0247 51.49 98.9817 51.2372 98.8529C50.9844 98.767 50.7737 98.5952 50.6051 98.4235C50.4366 98.2517 50.2681 98.037 50.1838 97.7793C50.0995 97.5217 50.0152 97.264 50.0152 97.0064V95.3316C50.0152 95.031 50.0574 94.7734 50.1838 94.5157C50.3102 94.2581 50.4366 94.0434 50.6051 93.8716C50.7737 93.6998 50.9844 93.5281 51.2372 93.4422C51.49 93.3563 51.7428 93.2704 52.0378 93.2704C52.2484 93.2704 52.4591 93.3133 52.6698 93.3563C52.8805 93.4422 53.049 93.5281 53.2176 93.6569V91.7674ZM50.858 96.9634C50.858 97.1352 50.9001 97.264 50.9422 97.4358C50.9844 97.5646 51.0686 97.6935 51.195 97.8223C51.3214 97.9511 51.4479 98.037 51.5743 98.0799C51.7007 98.1229 51.8692 98.1658 52.0378 98.1658C52.2063 98.1658 52.3327 98.1229 52.5013 98.0799C52.6277 98.037 52.7541 97.9511 52.8805 97.8223C52.9647 97.6935 53.049 97.5646 53.1333 97.4358C53.2176 97.307 53.2176 97.1352 53.2176 96.9634V95.3316C53.2176 95.1599 53.1754 95.031 53.1333 94.8593C53.0912 94.7304 53.0069 94.6016 52.8805 94.4728C52.7541 94.344 52.6277 94.2581 52.5013 94.2151C52.3748 94.1722 52.2063 94.1293 52.0378 94.1293C51.8692 94.1293 51.7428 94.1722 51.5743 94.2151C51.4479 94.2581 51.3214 94.344 51.195 94.4728C51.0686 94.6016 51.0265 94.7304 50.9422 94.8593C50.9001 94.9881 50.858 95.1599 50.858 95.3316V96.9634Z" fill="white"/>
<path d="M54.7766 93.7428C54.7766 93.614 54.8187 93.5281 54.903 93.4422C54.9873 93.3563 55.0715 93.3134 55.198 93.3134C55.3244 93.3134 55.4086 93.3563 55.4929 93.4422C55.5772 93.5281 55.6193 93.614 55.6193 93.7428V96.9634C55.6193 97.1352 55.6614 97.264 55.7036 97.4358C55.7457 97.6076 55.83 97.6935 55.9564 97.8223C56.0828 97.9511 56.2092 98.037 56.3356 98.0799C56.462 98.1229 56.6306 98.1658 56.7991 98.1658C56.9677 98.1658 57.0941 98.1229 57.2626 98.0799C57.389 98.037 57.5154 97.9511 57.6418 97.8223C57.7261 97.6935 57.8104 97.5646 57.8947 97.4358C57.9789 97.307 57.9789 97.1352 57.9789 96.9634V93.7428C57.9789 93.614 58.0211 93.5281 58.1053 93.4422C58.1896 93.3563 58.2739 93.3134 58.4003 93.3134C58.5267 93.3134 58.611 93.3563 58.6952 93.4422C58.7795 93.5281 58.8216 93.614 58.8216 93.7428V96.9634C58.8216 97.2211 58.7795 97.5217 58.6531 97.7364C58.5267 97.9941 58.4003 98.2088 58.2317 98.3805C58.0632 98.5523 57.8525 98.7241 57.5997 98.81C57.3469 98.8958 57.0941 98.9817 56.7991 98.9817C56.5042 98.9817 56.2514 98.9388 55.9985 98.81C55.7457 98.7241 55.535 98.5523 55.3665 98.3805C55.198 98.2088 55.0294 97.9941 54.9451 97.7364C54.8609 97.4788 54.7766 97.2211 54.7766 96.9634V93.7428ZM55.9985 91.5957C55.9564 91.5098 55.9143 91.4668 55.9143 91.381C55.9143 91.2521 55.9564 91.1663 56.0407 91.0804C56.1249 90.9945 56.2092 90.9515 56.3356 90.9515C56.5042 90.9515 56.6306 91.0374 56.6727 91.1662L57.1362 91.9821C57.1783 92.068 57.1783 92.111 57.1783 92.1969C57.1783 92.3257 57.1362 92.4116 57.0519 92.4975C56.9677 92.5833 56.8834 92.6263 56.757 92.6263C56.5884 92.6263 56.462 92.5404 56.3778 92.4116L55.9985 91.5957Z" fill="white"/>
<path d="M59.58 95.3317C59.58 95.0311 59.6222 94.7735 59.7486 94.5158C59.875 94.2582 60.0014 94.0435 60.1699 93.8717C60.3385 93.6999 60.5913 93.5282 60.802 93.4423C61.0548 93.3564 61.3076 93.2705 61.6026 93.2705C61.8554 93.2705 62.1503 93.3135 62.4031 93.4423C62.6559 93.5282 62.8666 93.6999 63.0352 93.8717C63.2037 94.0435 63.3723 94.2582 63.4565 94.5158C63.5829 94.7735 63.6251 95.0311 63.6251 95.3317V98.5524C63.6251 98.6812 63.5829 98.7671 63.4987 98.853C63.4144 98.9389 63.3301 98.9818 63.2037 98.9818C63.0773 98.9818 62.993 98.9389 62.9088 98.853C62.8245 98.7671 62.7824 98.6812 62.7824 98.5524V95.3317C62.7824 95.16 62.7402 95.0311 62.6981 94.8594C62.6138 94.7305 62.5295 94.6017 62.4453 94.4729C62.361 94.3441 62.2346 94.2582 62.066 94.2152C61.9396 94.1723 61.7711 94.1294 61.6026 94.1294C61.434 94.1294 61.2655 94.1723 61.1391 94.2152C61.0127 94.2582 60.8862 94.3441 60.7598 94.4729C60.6334 94.6017 60.5492 94.7305 60.507 94.8594C60.4649 94.9882 60.4227 95.16 60.4227 95.3317V98.5524C60.4227 98.6812 60.3806 98.7671 60.2963 98.853C60.2121 98.9389 60.1278 98.9818 60.0014 98.9818C59.875 98.9818 59.7907 98.9389 59.7064 98.853C59.6222 98.7671 59.58 98.6812 59.58 98.5524V95.3317Z" fill="white"/>
<path d="M64.1729 95.3317C64.1729 95.0311 64.215 94.7735 64.3414 94.5158C64.4678 94.2582 64.5942 94.0435 64.7627 93.8717C64.9313 93.6999 65.1841 93.5282 65.3948 93.4423C65.6476 93.3564 65.9004 93.2705 66.1954 93.2705C66.4482 93.2705 66.7431 93.3135 66.9959 93.4423C67.2487 93.5282 67.4594 93.6999 67.628 93.8717C67.7965 94.0435 67.9651 94.2582 68.0493 94.5158C68.1757 94.7735 68.2179 95.0311 68.2179 95.3317V98.9389C68.2179 99.2395 68.1757 99.4971 68.0493 99.7548C67.9229 100.012 67.7965 100.227 67.628 100.399C67.4594 100.571 67.2487 100.742 66.9959 100.828C66.7431 100.914 66.4903 101 66.1954 101C66.069 101 65.9847 100.957 65.9004 100.871C65.8161 100.785 65.774 100.7 65.774 100.571C65.774 100.442 65.8161 100.356 65.9004 100.27C65.9847 100.184 66.069 100.141 66.1954 100.141C66.3639 100.141 66.4903 100.098 66.6588 100.055C66.7853 100.012 66.9117 99.9266 67.0381 99.7977C67.1223 99.6689 67.2066 99.5401 67.2909 99.4113C67.3752 99.2824 67.3752 99.1107 67.3752 98.9389V98.6383C67.0381 98.8959 66.6167 99.0248 66.1954 99.0248C65.9004 99.0248 65.6476 98.9818 65.3948 98.853C65.142 98.7671 64.9313 98.5953 64.7627 98.4236C64.5942 98.2518 64.4257 98.0371 64.3414 97.7794C64.215 97.5218 64.1729 97.2641 64.1729 97.0065V95.3317ZM65.0156 96.9635C65.0156 97.1353 65.0577 97.2641 65.0998 97.4359C65.142 97.5647 65.2262 97.6936 65.3526 97.8224C65.4791 97.9512 65.5633 98.0371 65.7319 98.08C65.8583 98.123 66.0268 98.1659 66.1954 98.1659C66.3639 98.1659 66.4903 98.123 66.6588 98.08C66.7853 98.0371 66.9117 97.9512 67.0381 97.8224C67.1223 97.7365 67.2066 97.6077 67.2909 97.4789C67.3752 97.35 67.3752 97.1783 67.4173 97.0494V95.3317C67.4173 95.16 67.3752 95.0311 67.333 94.8594C67.2487 94.7305 67.1645 94.6017 67.0802 94.4729C66.9959 94.3441 66.8695 94.2582 66.701 94.2152C66.5746 94.1723 66.406 94.1294 66.2375 94.1294C66.069 94.1294 65.9004 94.1723 65.774 94.2152C65.6476 94.2582 65.5212 94.3441 65.3948 94.4729C65.2684 94.6017 65.1841 94.7305 65.142 94.8594C65.0998 94.9882 65.0577 95.16 65.0577 95.3317V96.9635H65.0156Z" fill="white"/>
<path d="M71.8838 91.8963C71.8838 91.7675 71.926 91.6816 72.0102 91.5957C72.0945 91.5099 72.1788 91.4669 72.3052 91.4669C72.4316 91.4669 72.5159 91.5099 72.6001 91.5957C72.6844 91.6816 72.7266 91.7675 72.7266 91.8963V93.3564H74.9176C75.044 93.3564 75.1283 93.3993 75.2126 93.4852C75.2968 93.5711 75.339 93.657 75.339 93.7858C75.339 93.9146 75.2968 94.0005 75.2126 94.0864C75.1283 94.1723 75.044 94.2152 74.9176 94.2152H72.7266V97.0065C72.7266 97.1782 72.7687 97.3071 72.8108 97.4788C72.853 97.6077 72.9372 97.7365 73.0636 97.8653C73.19 97.9941 73.2743 98.08 73.4429 98.123C73.5693 98.1659 73.7378 98.2089 73.9063 98.2089C74.1592 98.2089 74.3698 98.123 74.5384 97.9941C74.7491 97.8653 74.8755 97.6935 74.9597 97.4359C75.0019 97.35 75.044 97.3071 75.1283 97.2212C75.2126 97.1782 75.2547 97.1353 75.3811 97.1353C75.5075 97.1353 75.5918 97.1782 75.6761 97.2641C75.7603 97.35 75.8025 97.4359 75.8025 97.5647C75.8025 97.6077 75.8025 97.6506 75.7603 97.7365C75.5918 98.08 75.4232 98.3377 75.2126 98.5094C75.0019 98.6812 74.7912 98.81 74.6227 98.8959C74.412 98.9818 74.2434 99.0248 74.117 99.0248C73.9906 99.0248 73.9063 99.0248 73.9063 99.0248C73.6114 99.0248 73.3586 98.9818 73.1058 98.853C72.853 98.7671 72.6423 98.5953 72.4737 98.4236C72.3052 98.2518 72.1367 98.0371 72.0524 97.7794C71.926 97.5218 71.8838 97.2641 71.8838 97.0065V91.8963Z" fill="white"/>
<path d="M76.2659 91.7674C76.2659 91.6386 76.308 91.5527 76.3923 91.4668C76.4766 91.381 76.5608 91.338 76.6872 91.338C76.8137 91.338 76.8979 91.381 76.9822 91.4668C77.0665 91.5527 77.1086 91.6386 77.1086 91.7674V93.6998C77.2771 93.571 77.4457 93.4851 77.6564 93.3992C77.867 93.3134 78.0777 93.3134 78.2884 93.3134C78.5412 93.3134 78.8362 93.3563 79.089 93.4851C79.3418 93.571 79.5525 93.7428 79.721 93.9145C79.8896 94.0863 80.0581 94.301 80.1424 94.5587C80.2266 94.8163 80.3109 95.074 80.3109 95.3746V98.5952C80.3109 98.7241 80.2688 98.8099 80.1845 98.8958C80.1002 98.9817 80.016 99.0247 79.8896 99.0247C79.7631 99.0247 79.6789 98.9817 79.5946 98.8958C79.5103 98.8099 79.4682 98.7241 79.4682 98.5952V95.3316C79.4682 95.1599 79.4261 95.031 79.3839 94.8593C79.2997 94.7304 79.2154 94.6016 79.1311 94.4728C79.0468 94.344 78.9204 94.2581 78.7519 94.2151C78.6255 94.1722 78.4569 94.1293 78.2884 94.1293C78.1199 94.1293 77.9935 94.1722 77.8249 94.2151C77.6985 94.2581 77.5721 94.344 77.4457 94.4728C77.3193 94.6016 77.235 94.6875 77.1929 94.8163C77.1507 94.9452 77.1086 95.1169 77.1086 95.2457V98.5093C77.1086 98.6382 77.0665 98.7241 76.9822 98.8099C76.8979 98.8958 76.8137 98.9388 76.6872 98.9388C76.5608 98.9388 76.4766 98.8958 76.3923 98.8099C76.308 98.7241 76.2659 98.6382 76.2659 98.5093V95.2028V91.7674Z" fill="white"/>
<path d="M80.7745 95.3317C80.7745 95.0311 80.8167 94.7735 80.9431 94.5158C81.0273 94.2582 81.1959 94.0435 81.3644 93.8717C81.533 93.6999 81.7858 93.5281 81.9965 93.4423C82.2493 93.3564 82.5021 93.2705 82.797 93.2705C83.0499 93.2705 83.3448 93.3134 83.5976 93.4423C83.8504 93.5281 84.0611 93.6999 84.2297 93.8717C84.3982 94.0435 84.5667 94.2582 84.651 94.5158C84.7774 94.7735 84.8196 95.0311 84.8196 95.3317V96.9635C84.8196 97.2212 84.7774 97.5218 84.651 97.7365C84.5246 97.9512 84.3982 98.2089 84.2297 98.3806C84.0611 98.5524 83.8083 98.7242 83.5976 98.81C83.3448 98.8959 83.092 98.9818 82.797 98.9818C82.5021 98.9818 82.2493 98.9389 81.9965 98.81C81.7436 98.7242 81.533 98.5524 81.3644 98.3806C81.1959 98.2089 81.0273 97.9941 80.9431 97.7365C80.8167 97.4788 80.7745 97.2212 80.7745 96.9635V95.3317ZM82.5864 91.5099C82.6285 91.4669 82.7128 91.4669 82.797 91.4669C82.8813 91.4669 82.9656 91.5099 83.0499 91.5528L83.8083 92.1111C83.9347 92.1969 84.019 92.3258 84.019 92.4546C84.019 92.5834 83.9768 92.6693 83.8926 92.7552C83.8083 92.8411 83.6819 92.884 83.5976 92.884C83.5133 92.884 83.4291 92.8411 83.3448 92.7981L82.8392 92.4546L82.3757 92.7981C82.2914 92.8411 82.2071 92.884 82.1229 92.884C81.9965 92.884 81.9122 92.8411 81.8279 92.7552C81.7436 92.6693 81.7015 92.5834 81.7015 92.4546C81.7015 92.3258 81.7436 92.1969 81.8701 92.1111L82.5864 91.5099ZM81.6594 96.9635C81.6594 97.1353 81.7015 97.2641 81.7436 97.4359C81.7858 97.5647 81.8701 97.6935 81.9965 97.8224C82.1229 97.9512 82.2071 98.0371 82.3757 98.08C82.5021 98.123 82.6706 98.1659 82.8392 98.1659C83.0077 98.1659 83.1763 98.123 83.3027 98.08C83.4291 98.0371 83.5555 97.9512 83.6819 97.8224C83.8083 97.6935 83.8926 97.5647 83.9347 97.4359C83.9768 97.3071 84.019 97.1353 84.019 96.9635V95.3317C84.019 95.16 83.9768 95.0311 83.9347 94.8594C83.8504 94.7305 83.7662 94.6017 83.6819 94.4729C83.5976 94.344 83.4712 94.2582 83.3027 94.2152C83.1763 94.1723 83.0077 94.1293 82.8392 94.1293C82.6706 94.1293 82.5021 94.1723 82.3757 94.2152C82.2493 94.2582 82.1229 94.344 81.9965 94.4729C81.8701 94.6017 81.7858 94.7305 81.7436 94.8594C81.7015 94.9882 81.6594 95.16 81.6594 95.3317V96.9635Z" fill="white"/>
<path d="M85.5358 95.3317C85.5358 95.0311 85.5779 94.7735 85.7043 94.5158C85.8307 94.2582 85.9571 94.0435 86.1257 93.8717C86.2942 93.6999 86.547 93.5282 86.7577 93.4423C87.0105 93.3564 87.2634 93.2705 87.5583 93.2705C87.8111 93.2705 88.1061 93.3135 88.3589 93.4423C88.6117 93.5282 88.8224 93.6999 88.9909 93.8717C89.1595 94.0435 89.328 94.2582 89.4123 94.5158C89.5387 94.7735 89.5808 95.0311 89.5808 95.3317V98.5524C89.5808 98.6812 89.5387 98.7671 89.4544 98.853C89.3701 98.9389 89.2859 98.9818 89.1595 98.9818C89.0331 98.9818 88.9488 98.9389 88.8645 98.853C88.7802 98.7671 88.7381 98.6812 88.7381 98.5524V95.3317C88.7381 95.16 88.696 95.0311 88.6538 94.8594C88.5696 94.7305 88.4853 94.6017 88.401 94.4729C88.3167 94.3441 88.1903 94.2582 88.0218 94.2152C87.8954 94.1723 87.7268 94.1294 87.5583 94.1294C87.3898 94.1294 87.2212 94.1723 87.0948 94.2152C86.9684 94.2582 86.842 94.3441 86.7156 94.4729C86.5892 94.6017 86.5049 94.7305 86.4628 94.8594C86.4206 94.9882 86.3785 95.16 86.3785 95.3317V98.5524C86.3785 98.6812 86.3364 98.7671 86.2521 98.853C86.1678 98.9389 86.0835 98.9818 85.9571 98.9818C85.8307 98.9818 85.7465 98.9389 85.6622 98.853C85.5779 98.7671 85.5358 98.6812 85.5358 98.5524V95.3317Z" fill="white"/>
<path d="M90.1285 95.3317C90.1285 95.0311 90.1707 94.7735 90.2971 94.5158C90.4235 94.2582 90.5499 94.0435 90.7184 93.8717C90.887 93.6999 91.1398 93.5282 91.3505 93.4423C91.6033 93.3564 91.8561 93.2705 92.1511 93.2705C92.4039 93.2705 92.6988 93.3135 92.9516 93.4423C93.2045 93.5282 93.4151 93.6999 93.5837 93.8717C93.7522 94.0435 93.9208 94.2582 94.005 94.5158C94.1315 94.7735 94.1736 95.0311 94.1736 95.3317V98.9389C94.1736 99.2395 94.1315 99.4971 94.005 99.7548C93.8786 100.012 93.7522 100.227 93.5837 100.399C93.4151 100.571 93.2045 100.742 92.9516 100.828C92.6988 100.914 92.446 101 92.1511 101C92.0247 101 91.9404 100.957 91.8561 100.871C91.7718 100.785 91.7297 100.7 91.7297 100.571C91.7297 100.442 91.7718 100.356 91.8561 100.27C91.9404 100.184 92.0247 100.141 92.1511 100.141C92.3196 100.141 92.446 100.098 92.6146 100.055C92.741 100.012 92.8674 99.9266 92.9938 99.7977C93.0781 99.6689 93.1623 99.5401 93.2466 99.4113C93.3309 99.2824 93.3309 99.1107 93.3309 98.9389V98.6383C92.9938 98.8959 92.5724 99.0248 92.1511 99.0248C91.8561 99.0248 91.6033 98.9818 91.3505 98.853C91.0977 98.7671 90.887 98.5953 90.7184 98.4236C90.5499 98.2518 90.3814 98.0371 90.2971 97.7794C90.1707 97.5218 90.1285 97.2641 90.1285 97.0065V95.3317ZM90.9713 96.9635C90.9713 97.1353 91.0134 97.2641 91.0555 97.4359C91.0977 97.5647 91.1819 97.6936 91.3083 97.8224C91.4348 97.9512 91.519 98.0371 91.6876 98.08C91.814 98.123 91.9825 98.1659 92.1511 98.1659C92.3196 98.1659 92.446 98.123 92.6146 98.08C92.741 98.0371 92.8674 97.9512 92.9938 97.8224C93.0781 97.7365 93.1623 97.6077 93.2466 97.4789C93.3309 97.35 93.3309 97.1783 93.373 97.0494V95.3317C93.373 95.16 93.3309 95.0311 93.2887 94.8594C93.2045 94.7305 93.1202 94.6017 93.0359 94.4729C92.9516 94.3441 92.8252 94.2582 92.6567 94.2152C92.5303 94.1723 92.3617 94.1294 92.1932 94.1294C92.0247 94.1294 91.8561 94.1723 91.7297 94.2152C91.6033 94.2582 91.4769 94.3441 91.3505 94.4729C91.2241 94.6017 91.1398 94.7305 91.0977 94.8594C91.0555 94.9882 91.0134 95.16 91.0134 95.3317V96.9635H90.9713Z" fill="white"/>
<path d="M97.8815 95.3317C97.8815 95.0311 97.9237 94.7735 98.008 94.5158C98.0922 94.2582 98.2186 94.0435 98.3872 93.8717C98.5557 93.6999 98.7664 93.5282 98.9771 93.4423C99.1878 93.3564 99.4827 93.2705 99.7355 93.2705C100.03 93.2705 100.325 93.3564 100.578 93.4852C100.831 93.614 101.042 93.7858 101.21 94.0005C101.379 93.7858 101.589 93.614 101.842 93.4852C102.095 93.3564 102.39 93.2705 102.685 93.2705C102.98 93.2705 103.233 93.3135 103.443 93.4423C103.696 93.5282 103.865 93.6999 104.033 93.8717C104.202 94.0435 104.328 94.2582 104.413 94.5158C104.497 94.7735 104.539 95.0311 104.539 95.3317V98.5524C104.539 98.6812 104.497 98.7671 104.413 98.853C104.328 98.9389 104.244 98.9818 104.118 98.9818C103.991 98.9818 103.907 98.9389 103.823 98.853C103.738 98.7671 103.696 98.6812 103.696 98.5524V95.3317C103.696 94.9882 103.612 94.7305 103.401 94.4729C103.191 94.2582 102.938 94.1294 102.643 94.1294C102.306 94.1294 102.053 94.2582 101.842 94.4729C101.674 94.6876 101.547 94.9882 101.547 95.3317V98.5524C101.547 98.6812 101.505 98.7671 101.421 98.853C101.337 98.9389 101.252 98.9818 101.126 98.9818C101 98.9818 100.915 98.9389 100.831 98.853C100.747 98.7671 100.705 98.6812 100.705 98.5524V95.3317C100.705 94.9882 100.62 94.7305 100.41 94.4729C100.199 94.2582 99.9462 94.1294 99.6512 94.1294C99.3142 94.1294 99.0613 94.2582 98.8507 94.4729C98.6821 94.6876 98.5557 94.9882 98.5557 95.3317V98.5524C98.5557 98.6812 98.5136 98.7671 98.4293 98.853C98.345 98.9389 98.2608 98.9818 98.1344 98.9818C98.0079 98.9818 97.9237 98.9389 97.8394 98.853C97.7551 98.7671 97.713 98.6812 97.713 98.5524V95.3317H97.8815Z" fill="white"/>
<path d="M105.424 91.7674C105.424 91.6386 105.466 91.5527 105.55 91.4668C105.635 91.381 105.719 91.338 105.845 91.338C105.972 91.338 106.056 91.381 106.14 91.4668C106.225 91.5527 106.267 91.6386 106.267 91.7674V92.111C106.267 92.2398 106.225 92.3257 106.14 92.4116C106.056 92.4974 105.972 92.5404 105.845 92.5404C105.719 92.5404 105.635 92.4974 105.55 92.4116C105.466 92.3257 105.424 92.2398 105.424 92.111V91.7674ZM105.424 93.7428C105.424 93.6139 105.466 93.5281 105.55 93.4422C105.635 93.3563 105.719 93.3134 105.845 93.3134C105.972 93.3134 106.056 93.3563 106.14 93.4422C106.225 93.5281 106.267 93.6139 106.267 93.7428V98.5523C106.267 98.6811 106.225 98.767 106.14 98.8529C106.056 98.9388 105.972 98.9817 105.845 98.9817C105.719 98.9817 105.635 98.9388 105.55 98.8529C105.466 98.767 105.424 98.6811 105.424 98.5523V93.7428Z" fill="white"/>
<path d="M107.067 95.3317C107.067 95.0311 107.109 94.7735 107.236 94.5158C107.362 94.2582 107.489 94.0435 107.657 93.8717C107.826 93.6999 108.079 93.5282 108.289 93.4423C108.542 93.3564 108.795 93.2705 109.09 93.2705C109.343 93.2705 109.638 93.3135 109.89 93.4423C110.143 93.5282 110.354 93.6999 110.522 93.8717C110.691 94.0435 110.859 94.2582 110.944 94.5158C111.07 94.7735 111.112 95.0311 111.112 95.3317V98.5524C111.112 98.6812 111.07 98.7671 110.986 98.853C110.902 98.9389 110.817 98.9818 110.691 98.9818C110.565 98.9818 110.48 98.9389 110.396 98.853C110.312 98.7671 110.27 98.6812 110.27 98.5524V95.3317C110.27 95.16 110.227 95.0311 110.185 94.8594C110.101 94.7305 110.017 94.6017 109.933 94.4729C109.848 94.3441 109.722 94.2582 109.553 94.2152C109.427 94.1723 109.258 94.1294 109.09 94.1294C108.921 94.1294 108.753 94.1723 108.626 94.2152C108.5 94.2582 108.373 94.3441 108.247 94.4729C108.121 94.6017 108.036 94.7305 107.994 94.8594C107.952 94.9882 107.91 95.16 107.91 95.3317V98.5524C107.91 98.6812 107.868 98.7671 107.784 98.853C107.699 98.9389 107.615 98.9818 107.489 98.9818C107.362 98.9818 107.278 98.9389 107.194 98.853C107.109 98.7671 107.067 98.6812 107.067 98.5524V95.3317Z" fill="white"/>
<path d="M111.871 91.7674C111.871 91.6386 111.913 91.5527 111.997 91.4668C112.081 91.381 112.166 91.338 112.292 91.338C112.418 91.338 112.503 91.381 112.587 91.4668C112.671 91.5527 112.713 91.6386 112.713 91.7674V93.6998C112.882 93.571 113.05 93.4851 113.261 93.3992C113.472 93.3134 113.683 93.3134 113.893 93.3134C114.146 93.3134 114.441 93.3563 114.694 93.4851C114.947 93.571 115.157 93.7428 115.326 93.9145C115.494 94.0863 115.663 94.301 115.747 94.5587C115.831 94.8163 115.916 95.074 115.916 95.3746V98.5952C115.916 98.7241 115.874 98.8099 115.789 98.8958C115.705 98.9817 115.621 99.0247 115.494 99.0247C115.368 99.0247 115.284 98.9817 115.199 98.8958C115.115 98.8099 115.073 98.7241 115.073 98.5952V95.3316C115.073 95.1599 115.031 95.031 114.989 94.8593C114.904 94.7304 114.82 94.6016 114.736 94.4728C114.652 94.344 114.525 94.2581 114.357 94.2151C114.23 94.1722 114.062 94.1293 113.893 94.1293C113.725 94.1293 113.598 94.1722 113.43 94.2151C113.303 94.2581 113.177 94.344 113.05 94.4728C112.924 94.6016 112.84 94.6875 112.798 94.8163C112.756 94.9452 112.713 95.1169 112.713 95.2457V98.5093C112.713 98.6382 112.671 98.7241 112.587 98.8099C112.503 98.8958 112.418 98.9388 112.292 98.9388C112.166 98.9388 112.081 98.8958 111.997 98.8099C111.913 98.7241 111.871 98.6382 111.871 98.5093V95.2028V91.7674Z" fill="white"/>
<path d="M28.0203 97.5217L29.158 98.9388H28.1467L27.5568 98.2088C27.304 98.5094 27.0512 98.7241 26.7984 98.8529C26.5034 99.0247 26.1242 99.1106 25.6607 99.1106C24.9444 99.1106 24.4388 98.8959 24.1017 98.4235C23.8489 98.1229 23.7646 97.7364 23.7646 97.3499C23.7646 96.8776 23.8489 96.4911 24.0595 96.2334C24.2702 95.9328 24.6494 95.6322 25.2393 95.2887C24.9865 94.9881 24.818 94.7305 24.7337 94.5587C24.6073 94.344 24.5652 94.0863 24.5652 93.8287C24.5652 93.4422 24.6916 93.0987 24.9444 92.7981C25.2393 92.4975 25.6186 92.3687 26.0821 92.3687C26.5456 92.3687 26.9248 92.4975 27.1776 92.7981C27.3883 93.0557 27.5147 93.3563 27.5147 93.6999C27.5147 94.0863 27.3883 94.4728 27.1355 94.7734C26.9669 94.9452 26.7141 95.1599 26.377 95.4175L27.5568 96.8346C27.6411 96.6199 27.6832 96.4911 27.7254 96.3623C27.7675 96.2334 27.7675 96.0617 27.8096 95.804H28.5681C28.5681 96.0187 28.5259 96.2764 28.4417 96.577C28.3153 96.8776 28.1888 97.1782 28.0203 97.5217ZM27.0933 97.6505L25.6607 95.847C25.2393 96.1046 24.9865 96.3193 24.8601 96.4911C24.6494 96.7058 24.5652 97.0064 24.5652 97.307C24.5652 97.6505 24.7337 97.9511 25.0287 98.1658C25.2393 98.3376 25.4922 98.3806 25.745 98.3806C26.2927 98.3806 26.7562 98.1229 27.0933 97.6505ZM25.9135 94.9022C26.1663 94.7305 26.3349 94.6016 26.4191 94.4728C26.5877 94.2581 26.7141 94.0434 26.7141 93.7857C26.7141 93.5281 26.6298 93.3134 26.4613 93.2275C26.3349 93.1416 26.2085 93.0987 26.0399 93.0987C25.745 93.0987 25.5343 93.1845 25.4079 93.3563C25.3236 93.4851 25.2815 93.614 25.2815 93.7857C25.2815 93.9575 25.3657 94.1722 25.4922 94.4299C25.6186 94.6016 25.7871 94.7734 25.9135 94.9022Z" fill="white"/>
</g>
<defs>
<linearGradient id="paint0_linear" x1="-4.35496" y1="37.156" x2="43.0226" y2="60.9697" gradientUnits="userSpaceOnUse">
<stop stop-color="#12C3F4"/>
<stop offset="1" stop-color="#00346F"/>
</linearGradient>
<linearGradient id="paint1_linear" x1="0.819555" y1="46.0235" x2="28.7781" y2="60.0765" gradientUnits="userSpaceOnUse">
<stop stop-color="#12C3F4"/>
<stop offset="1" stop-color="#00346F"/>
</linearGradient>
<linearGradient id="paint2_linear" x1="34.4778" y1="49.8421" x2="2.7917" y2="57.7622" gradientUnits="userSpaceOnUse">
<stop stop-color="#52CAF5"/>
<stop offset="1" stop-color="#00346F"/>
</linearGradient>
<linearGradient id="paint3_linear" x1="179.989" y1="10.0694" x2="-30.0469" y2="70.6116" gradientUnits="userSpaceOnUse">
<stop stop-color="white"/>
<stop offset="0.1728" stop-color="#FBFDFF"/>
<stop offset="0.2717" stop-color="#F1FAFE"/>
<stop offset="0.352" stop-color="#E2F4FD"/>
<stop offset="0.4223" stop-color="#CEEDFC"/>
<stop offset="0.4861" stop-color="#B2E3FA"/>
<stop offset="0.5451" stop-color="#8ED8F8"/>
<stop offset="0.6005" stop-color="#5CCCF5"/>
<stop offset="0.6517" stop-color="#00BFF3"/>
<stop offset="0.6751" stop-color="#00B9F2"/>
<stop offset="0.7211" stop-color="#00B6ED"/>
<stop offset="0.7646" stop-color="#00AFE4"/>
<stop offset="0.8071" stop-color="#00A5D6"/>
<stop offset="0.849" stop-color="#0096C3"/>
<stop offset="0.8905" stop-color="#0082A9"/>
<stop offset="0.9316" stop-color="#00698A"/>
<stop offset="0.9717" stop-color="#004C66"/>
<stop offset="1" stop-color="#003044"/>
</linearGradient>
<linearGradient id="paint4_linear" x1="182.144" y1="17.5438" x2="-27.8923" y2="78.0867" gradientUnits="userSpaceOnUse">
<stop stop-color="white"/>
<stop offset="0.1728" stop-color="#FBFDFF"/>
<stop offset="0.2717" stop-color="#F1FAFE"/>
<stop offset="0.352" stop-color="#E2F4FD"/>
<stop offset="0.4223" stop-color="#CEEDFC"/>
<stop offset="0.4861" stop-color="#B2E3FA"/>
<stop offset="0.5451" stop-color="#8ED8F8"/>
<stop offset="0.6005" stop-color="#5CCCF5"/>
<stop offset="0.6517" stop-color="#00BFF3"/>
<stop offset="0.6751" stop-color="#00B9F2"/>
<stop offset="0.7211" stop-color="#00B6ED"/>
<stop offset="0.7646" stop-color="#00AFE4"/>
<stop offset="0.8071" stop-color="#00A5D6"/>
<stop offset="0.849" stop-color="#0096C3"/>
<stop offset="0.8905" stop-color="#0082A9"/>
<stop offset="0.9316" stop-color="#00698A"/>
<stop offset="0.9717" stop-color="#004C66"/>
<stop offset="1" stop-color="#003044"/>
</linearGradient>
<linearGradient id="paint5_linear" x1="177.674" y1="2.03698" x2="-32.3621" y2="62.5791" gradientUnits="userSpaceOnUse">
<stop stop-color="white"/>
<stop offset="0.1728" stop-color="#FBFDFF"/>
<stop offset="0.2717" stop-color="#F1FAFE"/>
<stop offset="0.352" stop-color="#E2F4FD"/>
<stop offset="0.4223" stop-color="#CEEDFC"/>
<stop offset="0.4861" stop-color="#B2E3FA"/>
<stop offset="0.5451" stop-color="#8ED8F8"/>
<stop offset="0.6005" stop-color="#5CCCF5"/>
<stop offset="0.6517" stop-color="#00BFF3"/>
<stop offset="0.6751" stop-color="#00B9F2"/>
<stop offset="0.7211" stop-color="#00B6ED"/>
<stop offset="0.7646" stop-color="#00AFE4"/>
<stop offset="0.8071" stop-color="#00A5D6"/>
<stop offset="0.849" stop-color="#0096C3"/>
<stop offset="0.8905" stop-color="#0082A9"/>
<stop offset="0.9316" stop-color="#00698A"/>
<stop offset="0.9717" stop-color="#004C66"/>
<stop offset="1" stop-color="#003044"/>
</linearGradient>
<linearGradient id="paint6_linear" x1="182.19" y1="17.7062" x2="-27.8455" y2="78.2486" gradientUnits="userSpaceOnUse">
<stop stop-color="white"/>
<stop offset="0.1728" stop-color="#FBFDFF"/>
<stop offset="0.2717" stop-color="#F1FAFE"/>
<stop offset="0.352" stop-color="#E2F4FD"/>
<stop offset="0.4223" stop-color="#CEEDFC"/>
<stop offset="0.4861" stop-color="#B2E3FA"/>
<stop offset="0.5451" stop-color="#8ED8F8"/>
<stop offset="0.6005" stop-color="#5CCCF5"/>
<stop offset="0.6517" stop-color="#00BFF3"/>
<stop offset="0.6751" stop-color="#00B9F2"/>
<stop offset="0.7211" stop-color="#00B6ED"/>
<stop offset="0.7646" stop-color="#00AFE4"/>
<stop offset="0.8071" stop-color="#00A5D6"/>
<stop offset="0.849" stop-color="#0096C3"/>
<stop offset="0.8905" stop-color="#0082A9"/>
<stop offset="0.9316" stop-color="#00698A"/>
<stop offset="0.9717" stop-color="#004C66"/>
<stop offset="1" stop-color="#003044"/>
</linearGradient>
<linearGradient id="paint7_linear" x1="169.59" y1="-26.0079" x2="-40.446" y2="34.5341" gradientUnits="userSpaceOnUse">
<stop stop-color="white"/>
<stop offset="0.1728" stop-color="#FBFDFF"/>
<stop offset="0.2717" stop-color="#F1FAFE"/>
<stop offset="0.352" stop-color="#E2F4FD"/>
<stop offset="0.4223" stop-color="#CEEDFC"/>
<stop offset="0.4861" stop-color="#B2E3FA"/>
<stop offset="0.5451" stop-color="#8ED8F8"/>
<stop offset="0.6005" stop-color="#5CCCF5"/>
<stop offset="0.6517" stop-color="#00BFF3"/>
<stop offset="0.6751" stop-color="#00B9F2"/>
<stop offset="0.7211" stop-color="#00B6ED"/>
<stop offset="0.7646" stop-color="#00AFE4"/>
<stop offset="0.8071" stop-color="#00A5D6"/>
<stop offset="0.849" stop-color="#0096C3"/>
<stop offset="0.8905" stop-color="#0082A9"/>
<stop offset="0.9316" stop-color="#00698A"/>
<stop offset="0.9717" stop-color="#004C66"/>
<stop offset="1" stop-color="#003044"/>
</linearGradient>
<linearGradient id="paint8_linear" x1="173.724" y1="-11.6664" x2="-36.3122" y2="48.8757" gradientUnits="userSpaceOnUse">
<stop stop-color="white"/>
<stop offset="0.1728" stop-color="#FBFDFF"/>
<stop offset="0.2717" stop-color="#F1FAFE"/>
<stop offset="0.352" stop-color="#E2F4FD"/>
<stop offset="0.4223" stop-color="#CEEDFC"/>
<stop offset="0.4861" stop-color="#B2E3FA"/>
<stop offset="0.5451" stop-color="#8ED8F8"/>
<stop offset="0.6005" stop-color="#5CCCF5"/>
<stop offset="0.6517" stop-color="#00BFF3"/>
<stop offset="0.6751" stop-color="#00B9F2"/>
<stop offset="0.7211" stop-color="#00B6ED"/>
<stop offset="0.7646" stop-color="#00AFE4"/>
<stop offset="0.8071" stop-color="#00A5D6"/>
<stop offset="0.849" stop-color="#0096C3"/>
<stop offset="0.8905" stop-color="#0082A9"/>
<stop offset="0.9316" stop-color="#00698A"/>
<stop offset="0.9717" stop-color="#004C66"/>
<stop offset="1" stop-color="#003044"/>
</linearGradient>
<linearGradient id="paint9_linear" x1="166.302" y1="-37.4128" x2="-43.7334" y2="23.1293" gradientUnits="userSpaceOnUse">
<stop stop-color="white"/>
<stop offset="0.1728" stop-color="#FBFDFF"/>
<stop offset="0.2717" stop-color="#F1FAFE"/>
<stop offset="0.352" stop-color="#E2F4FD"/>
<stop offset="0.4223" stop-color="#CEEDFC"/>
<stop offset="0.4861" stop-color="#B2E3FA"/>
<stop offset="0.5451" stop-color="#8ED8F8"/>
<stop offset="0.6005" stop-color="#5CCCF5"/>
<stop offset="0.6517" stop-color="#00BFF3"/>
<stop offset="0.6751" stop-color="#00B9F2"/>
<stop offset="0.7211" stop-color="#00B6ED"/>
<stop offset="0.7646" stop-color="#00AFE4"/>
<stop offset="0.8071" stop-color="#00A5D6"/>
<stop offset="0.849" stop-color="#0096C3"/>
<stop offset="0.8905" stop-color="#0082A9"/>
<stop offset="0.9316" stop-color="#00698A"/>
<stop offset="0.9717" stop-color="#004C66"/>
<stop offset="1" stop-color="#003044"/>
</linearGradient>
<linearGradient id="paint10_linear" x1="171.349" y1="-19.9039" x2="-38.6865" y2="40.6382" gradientUnits="userSpaceOnUse">
<stop stop-color="white"/>
<stop offset="0.1728" stop-color="#FBFDFF"/>
<stop offset="0.2717" stop-color="#F1FAFE"/>
<stop offset="0.352" stop-color="#E2F4FD"/>
<stop offset="0.4223" stop-color="#CEEDFC"/>
<stop offset="0.4861" stop-color="#B2E3FA"/>
<stop offset="0.5451" stop-color="#8ED8F8"/>
<stop offset="0.6005" stop-color="#5CCCF5"/>
<stop offset="0.6517" stop-color="#00BFF3"/>
<stop offset="0.6751" stop-color="#00B9F2"/>
<stop offset="0.7211" stop-color="#00B6ED"/>
<stop offset="0.7646" stop-color="#00AFE4"/>
<stop offset="0.8071" stop-color="#00A5D6"/>
<stop offset="0.849" stop-color="#0096C3"/>
<stop offset="0.8905" stop-color="#0082A9"/>
<stop offset="0.9316" stop-color="#00698A"/>
<stop offset="0.9717" stop-color="#004C66"/>
<stop offset="1" stop-color="#003044"/>
</linearGradient>
<linearGradient id="paint11_linear" x1="168.407" y1="-30.1121" x2="-41.6289" y2="30.4301" gradientUnits="userSpaceOnUse">
<stop stop-color="white"/>
<stop offset="0.1728" stop-color="#FBFDFF"/>
<stop offset="0.2717" stop-color="#F1FAFE"/>
<stop offset="0.352" stop-color="#E2F4FD"/>
<stop offset="0.4223" stop-color="#CEEDFC"/>
<stop offset="0.4861" stop-color="#B2E3FA"/>
<stop offset="0.5451" stop-color="#8ED8F8"/>
<stop offset="0.6005" stop-color="#5CCCF5"/>
<stop offset="0.6517" stop-color="#00BFF3"/>
<stop offset="0.6751" stop-color="#00B9F2"/>
<stop offset="0.7211" stop-color="#00B6ED"/>
<stop offset="0.7646" stop-color="#00AFE4"/>
<stop offset="0.8071" stop-color="#00A5D6"/>
<stop offset="0.849" stop-color="#0096C3"/>
<stop offset="0.8905" stop-color="#0082A9"/>
<stop offset="0.9316" stop-color="#00698A"/>
<stop offset="0.9717" stop-color="#004C66"/>
<stop offset="1" stop-color="#003044"/>
</linearGradient>
<linearGradient id="paint12_linear" x1="177.982" y1="3.10696" x2="-32.0537" y2="63.649" gradientUnits="userSpaceOnUse">
<stop stop-color="white"/>
<stop offset="0.1728" stop-color="#FBFDFF"/>
<stop offset="0.2717" stop-color="#F1FAFE"/>
<stop offset="0.352" stop-color="#E2F4FD"/>
<stop offset="0.4223" stop-color="#CEEDFC"/>
<stop offset="0.4861" stop-color="#B2E3FA"/>
<stop offset="0.5451" stop-color="#8ED8F8"/>
<stop offset="0.6005" stop-color="#5CCCF5"/>
<stop offset="0.6517" stop-color="#00BFF3"/>
<stop offset="0.6751" stop-color="#00B9F2"/>
<stop offset="0.7211" stop-color="#00B6ED"/>
<stop offset="0.7646" stop-color="#00AFE4"/>
<stop offset="0.8071" stop-color="#00A5D6"/>
<stop offset="0.849" stop-color="#0096C3"/>
<stop offset="0.8905" stop-color="#0082A9"/>
<stop offset="0.9316" stop-color="#00698A"/>
<stop offset="0.9717" stop-color="#004C66"/>
<stop offset="1" stop-color="#003044"/>
</linearGradient>
<linearGradient id="paint13_linear" x1="177.946" y1="2.9818" x2="-32.0898" y2="63.5239" gradientUnits="userSpaceOnUse">
<stop stop-color="white"/>
<stop offset="0.1728" stop-color="#FBFDFF"/>
<stop offset="0.2717" stop-color="#F1FAFE"/>
<stop offset="0.352" stop-color="#E2F4FD"/>
<stop offset="0.4223" stop-color="#CEEDFC"/>
<stop offset="0.4861" stop-color="#B2E3FA"/>
<stop offset="0.5451" stop-color="#8ED8F8"/>
<stop offset="0.6005" stop-color="#5CCCF5"/>
<stop offset="0.6517" stop-color="#00BFF3"/>
<stop offset="0.6751" stop-color="#00B9F2"/>
<stop offset="0.7211" stop-color="#00B6ED"/>
<stop offset="0.7646" stop-color="#00AFE4"/>
<stop offset="0.8071" stop-color="#00A5D6"/>
<stop offset="0.849" stop-color="#0096C3"/>
<stop offset="0.8905" stop-color="#0082A9"/>
<stop offset="0.9316" stop-color="#00698A"/>
<stop offset="0.9717" stop-color="#004C66"/>
<stop offset="1" stop-color="#003044"/>
</linearGradient>
<linearGradient id="paint14_linear" x1="173.488" y1="-12.4856" x2="-36.5486" y2="48.0575" gradientUnits="userSpaceOnUse">
<stop stop-color="white"/>
<stop offset="0.1728" stop-color="#FBFDFF"/>
<stop offset="0.2717" stop-color="#F1FAFE"/>
<stop offset="0.352" stop-color="#E2F4FD"/>
<stop offset="0.4223" stop-color="#CEEDFC"/>
<stop offset="0.4861" stop-color="#B2E3FA"/>
<stop offset="0.5451" stop-color="#8ED8F8"/>
<stop offset="0.6005" stop-color="#5CCCF5"/>
<stop offset="0.6517" stop-color="#00BFF3"/>
<stop offset="0.6751" stop-color="#00B9F2"/>
<stop offset="0.7211" stop-color="#00B6ED"/>
<stop offset="0.7646" stop-color="#00AFE4"/>
<stop offset="0.8071" stop-color="#00A5D6"/>
<stop offset="0.849" stop-color="#0096C3"/>
<stop offset="0.8905" stop-color="#0082A9"/>
<stop offset="0.9316" stop-color="#00698A"/>
<stop offset="0.9717" stop-color="#004C66"/>
<stop offset="1" stop-color="#003044"/>
</linearGradient>
<linearGradient id="paint15_linear" x1="176.09" y1="-3.44897" x2="-33.9413" y2="57.0904" gradientUnits="userSpaceOnUse">
<stop stop-color="white"/>
<stop offset="0.1728" stop-color="#FBFDFF"/>
<stop offset="0.2717" stop-color="#F1FAFE"/>
<stop offset="0.352" stop-color="#E2F4FD"/>
<stop offset="0.4223" stop-color="#CEEDFC"/>
<stop offset="0.4861" stop-color="#B2E3FA"/>
<stop offset="0.5451" stop-color="#8ED8F8"/>
<stop offset="0.6005" stop-color="#5CCCF5"/>
<stop offset="0.6517" stop-color="#00BFF3"/>
<stop offset="0.6751" stop-color="#00B9F2"/>
<stop offset="0.7211" stop-color="#00B6ED"/>
<stop offset="0.7646" stop-color="#00AFE4"/>
<stop offset="0.8071" stop-color="#00A5D6"/>
<stop offset="0.849" stop-color="#0096C3"/>
<stop offset="0.8905" stop-color="#0082A9"/>
<stop offset="0.9316" stop-color="#00698A"/>
<stop offset="0.9717" stop-color="#004C66"/>
<stop offset="1" stop-color="#003044"/>
</linearGradient>
<linearGradient id="paint16_linear" x1="175.01" y1="-7.2049" x2="-35.0261" y2="53.3373" gradientUnits="userSpaceOnUse">
<stop stop-color="white"/>
<stop offset="0.1728" stop-color="#FBFDFF"/>
<stop offset="0.2717" stop-color="#F1FAFE"/>
<stop offset="0.352" stop-color="#E2F4FD"/>
<stop offset="0.4223" stop-color="#CEEDFC"/>
<stop offset="0.4861" stop-color="#B2E3FA"/>
<stop offset="0.5451" stop-color="#8ED8F8"/>
<stop offset="0.6005" stop-color="#5CCCF5"/>
<stop offset="0.6517" stop-color="#00BFF3"/>
<stop offset="0.6751" stop-color="#00B9F2"/>
<stop offset="0.7211" stop-color="#00B6ED"/>
<stop offset="0.7646" stop-color="#00AFE4"/>
<stop offset="0.8071" stop-color="#00A5D6"/>
<stop offset="0.849" stop-color="#0096C3"/>
<stop offset="0.8905" stop-color="#0082A9"/>
<stop offset="0.9316" stop-color="#00698A"/>
<stop offset="0.9717" stop-color="#004C66"/>
<stop offset="1" stop-color="#003044"/>
</linearGradient>
<linearGradient id="paint17_linear" x1="172.514" y1="-15.8617" x2="-37.5213" y2="44.6803" gradientUnits="userSpaceOnUse">
<stop stop-color="white"/>
<stop offset="0.1728" stop-color="#FBFDFF"/>
<stop offset="0.2717" stop-color="#F1FAFE"/>
<stop offset="0.352" stop-color="#E2F4FD"/>
<stop offset="0.4223" stop-color="#CEEDFC"/>
<stop offset="0.4861" stop-color="#B2E3FA"/>
<stop offset="0.5451" stop-color="#8ED8F8"/>
<stop offset="0.6005" stop-color="#5CCCF5"/>
<stop offset="0.6517" stop-color="#00BFF3"/>
<stop offset="0.6751" stop-color="#00B9F2"/>
<stop offset="0.7211" stop-color="#00B6ED"/>
<stop offset="0.7646" stop-color="#00AFE4"/>
<stop offset="0.8071" stop-color="#00A5D6"/>
<stop offset="0.849" stop-color="#0096C3"/>
<stop offset="0.8905" stop-color="#0082A9"/>
<stop offset="0.9316" stop-color="#00698A"/>
<stop offset="0.9717" stop-color="#004C66"/>
<stop offset="1" stop-color="#003044"/>
</linearGradient>
<linearGradient id="paint18_linear" x1="174.18" y1="-10.0827" x2="-35.8555" y2="50.4595" gradientUnits="userSpaceOnUse">
<stop stop-color="white"/>
<stop offset="0.1728" stop-color="#FBFDFF"/>
<stop offset="0.2717" stop-color="#F1FAFE"/>
<stop offset="0.352" stop-color="#E2F4FD"/>
<stop offset="0.4223" stop-color="#CEEDFC"/>
<stop offset="0.4861" stop-color="#B2E3FA"/>
<stop offset="0.5451" stop-color="#8ED8F8"/>
<stop offset="0.6005" stop-color="#5CCCF5"/>
<stop offset="0.6517" stop-color="#00BFF3"/>
<stop offset="0.6751" stop-color="#00B9F2"/>
<stop offset="0.7211" stop-color="#00B6ED"/>
<stop offset="0.7646" stop-color="#00AFE4"/>
<stop offset="0.8071" stop-color="#00A5D6"/>
<stop offset="0.849" stop-color="#0096C3"/>
<stop offset="0.8905" stop-color="#0082A9"/>
<stop offset="0.9316" stop-color="#00698A"/>
<stop offset="0.9717" stop-color="#004C66"/>
<stop offset="1" stop-color="#003044"/>
</linearGradient>
<linearGradient id="paint19_linear" x1="169.82" y1="-25.2132" x2="-40.217" y2="35.33" gradientUnits="userSpaceOnUse">
<stop stop-color="white"/>
<stop offset="0.1728" stop-color="#FBFDFF"/>
<stop offset="0.2717" stop-color="#F1FAFE"/>
<stop offset="0.352" stop-color="#E2F4FD"/>
<stop offset="0.4223" stop-color="#CEEDFC"/>
<stop offset="0.4861" stop-color="#B2E3FA"/>
<stop offset="0.5451" stop-color="#8ED8F8"/>
<stop offset="0.6005" stop-color="#5CCCF5"/>
<stop offset="0.6517" stop-color="#00BFF3"/>
<stop offset="0.6751" stop-color="#00B9F2"/>
<stop offset="0.7211" stop-color="#00B6ED"/>
<stop offset="0.7646" stop-color="#00AFE4"/>
<stop offset="0.8071" stop-color="#00A5D6"/>
<stop offset="0.849" stop-color="#0096C3"/>
<stop offset="0.8905" stop-color="#0082A9"/>
<stop offset="0.9316" stop-color="#00698A"/>
<stop offset="0.9717" stop-color="#004C66"/>
<stop offset="1" stop-color="#003044"/>
</linearGradient>
<linearGradient id="paint20_linear" x1="168.963" y1="-28.1821" x2="-41.0728" y2="32.36" gradientUnits="userSpaceOnUse">
<stop stop-color="white"/>
<stop offset="0.1728" stop-color="#FBFDFF"/>
<stop offset="0.2717" stop-color="#F1FAFE"/>
<stop offset="0.352" stop-color="#E2F4FD"/>
<stop offset="0.4223" stop-color="#CEEDFC"/>
<stop offset="0.4861" stop-color="#B2E3FA"/>
<stop offset="0.5451" stop-color="#8ED8F8"/>
<stop offset="0.6005" stop-color="#5CCCF5"/>
<stop offset="0.6517" stop-color="#00BFF3"/>
<stop offset="0.6751" stop-color="#00B9F2"/>
<stop offset="0.7211" stop-color="#00B6ED"/>
<stop offset="0.7646" stop-color="#00AFE4"/>
<stop offset="0.8071" stop-color="#00A5D6"/>
<stop offset="0.849" stop-color="#0096C3"/>
<stop offset="0.8905" stop-color="#0082A9"/>
<stop offset="0.9316" stop-color="#00698A"/>
<stop offset="0.9717" stop-color="#004C66"/>
<stop offset="1" stop-color="#003044"/>
</linearGradient>
<linearGradient id="paint21_linear" x1="171.353" y1="-19.8874" x2="-38.6809" y2="40.6534" gradientUnits="userSpaceOnUse">
<stop stop-color="white"/>
<stop offset="0.1728" stop-color="#FBFDFF"/>
<stop offset="0.2717" stop-color="#F1FAFE"/>
<stop offset="0.352" stop-color="#E2F4FD"/>
<stop offset="0.4223" stop-color="#CEEDFC"/>
<stop offset="0.4861" stop-color="#B2E3FA"/>
<stop offset="0.5451" stop-color="#8ED8F8"/>
<stop offset="0.6005" stop-color="#5CCCF5"/>
<stop offset="0.6517" stop-color="#00BFF3"/>
<stop offset="0.6751" stop-color="#00B9F2"/>
<stop offset="0.7211" stop-color="#00B6ED"/>
<stop offset="0.7646" stop-color="#00AFE4"/>
<stop offset="0.8071" stop-color="#00A5D6"/>
<stop offset="0.849" stop-color="#0096C3"/>
<stop offset="0.8905" stop-color="#0082A9"/>
<stop offset="0.9316" stop-color="#00698A"/>
<stop offset="0.9717" stop-color="#004C66"/>
<stop offset="1" stop-color="#003044"/>
</linearGradient>
<clipPath id="clip0">
<rect width="116" height="101" fill="white"/>
</clipPath>
</defs>
</svg>
