<svg width="166" height="74" viewBox="0 0 166 74" fill="none" xmlns="http://www.w3.org/2000/svg">
<path d="M17.6954 0H0V74H17.6954V0Z" fill="#21B0FE"/>
<path d="M81.3147 37.4205C84.6853 36.1591 87.2132 34.8977 89.3198 32.7955C91.4264 30.6932 92.269 28.5909 93.1117 26.0682C93.533 24.8068 93.533 23.5455 93.533 22.7045C93.533 21.8636 93.533 21.0227 93.533 20.1818C93.533 17.6591 93.1117 15.5568 92.6904 13.0341C91.8477 10.5114 90.5838 8.40909 88.8985 5.88636C88.0558 4.625 86.7919 3.78409 85.9492 2.94318C84.6853 2.10227 83.4213 1.68182 82.1574 1.26136C80.8934 0.840909 78.7868 0.420455 77.1015 0C75.4162 0 73.3096 0 70.7817 0H25.7005V74H71.6244C76.6802 74 80.4721 73.5795 83.4213 72.7386C86.3705 71.8977 88.8985 69.7955 91.0051 66.4318C93.1117 63.0682 94.3756 59.2841 94.3756 55.5C94.3756 50.4545 93.1117 46.25 90.5837 43.3068C88.0558 40.3636 85.1066 38.2614 81.3147 37.4205ZM76.2589 22.2841C76.2589 24.3864 75.4162 26.0682 73.3096 27.3295C71.203 28.1705 68.2538 29.0114 64.0406 29.0114H61.5127H51.8223V45.4091H59.8274H62.3553C67.4112 44.9886 70.7817 45.8295 72.8883 47.0909C74.9949 48.3523 75.8376 50.0341 75.8376 52.1364C75.8376 53.3977 75.4162 54.6591 74.5736 55.9205C73.731 57.1818 72.8883 58.0227 71.203 58.4432C69.5178 58.8636 67.4112 58.8636 64.4619 58.8636H61.934H42.9746V54.6591V15.5568H61.934H63.6193C67.8325 15.5568 70.7817 15.9773 72.8883 17.2386C75.4162 18.9205 76.2589 20.1818 76.2589 22.2841Z" fill="#21B0FE"/>
<path d="M129.345 29.0114V44.9886H148.305V58.4432H139.878C137.35 58.4432 135.244 58.4432 133.558 58.0227C131.873 57.6023 129.767 57.6023 128.503 56.7614C126.817 56.3409 125.553 55.5 124.289 54.6591C123.025 53.8182 121.761 52.5568 120.919 50.875C118.812 47.5114 117.97 43.3068 117.97 37.8409C117.97 35.3182 118.391 32.7955 118.812 30.6932C119.234 28.5909 120.497 26.0682 121.761 23.125C122.604 21.8636 123.447 20.6023 124.711 19.7614C125.975 18.9205 127.239 18.0795 128.924 17.6591C130.609 17.2386 132.294 16.8182 134.401 16.8182C136.508 16.8182 139.036 16.3977 141.563 16.3977H166V0H133.98C127.239 0 121.34 0.840909 116.284 2.10227C111.228 3.36364 107.437 6.30682 105.33 10.9318C102.802 15.1364 101.117 19.3409 100.274 23.5455C99.4315 27.75 99.0102 31.9545 99.0102 36.5795C99.0102 41.2045 99.4315 45.8295 100.274 50.0341C101.117 54.2386 102.802 58.4432 105.33 62.6477C107.858 66.8523 111.65 69.7955 116.284 71.4773C120.919 73.1591 126.817 74 133.137 74H165.579V29.0114H129.345Z" fill="#21B0FE"/>
</svg>
