<svg width="70" height="103" viewBox="0 0 70 103" fill="none" xmlns="http://www.w3.org/2000/svg">
<path d="M70 35C70 62.8085 35 102.061 35 102.061C35 102.061 0 62.1513 0 35C0 15.6693 15.6693 0 35 0C54.3307 0 70 15.6693 70 35Z" fill="#30B8BB"/>
<path d="M61.2218 35C61.2218 49.4863 49.4769 61.2312 34.9906 61.2312C20.5043 61.2312 8.7594 49.4863 8.7594 35C8.7594 20.5137 20.5043 8.7688 34.9906 8.7688C49.4863 8.7688 61.2218 20.5137 61.2218 35Z" fill="white"/>
<path d="M35 20C26.7157 20 20 26.7157 20 35C20 43.2842 26.7157 49.9999 35 49.9999C43.2842 49.9999 49.9999 43.2842 49.9999 35C49.9906 26.7196 43.2804 20.0094 35 20Z" fill="#30B8BB"/>
<path d="M35 42.1738C32.6644 42.3368 30.6309 40.5938 30.4347 38.2608C30.4347 37.9006 30.7267 37.6086 31.0869 37.6086C31.4471 37.6086 31.7391 37.9006 31.7391 38.2608C31.9431 39.8683 33.3869 41.0233 35 40.8695C36.613 41.0233 38.0568 39.8683 38.2608 38.2608C38.0568 36.6533 36.613 35.4983 35 35.6521C32.6644 35.8151 30.6309 34.0721 30.4347 31.739C30.6309 29.406 32.6644 27.663 35 27.826C37.3355 27.663 39.369 29.406 39.5652 31.739C39.5652 32.0992 39.2732 32.3912 38.913 32.3912C38.5528 32.3912 38.2608 32.0992 38.2608 31.739C38.0568 30.1315 36.613 28.9765 35 29.1303C33.3869 28.9765 31.9431 30.1315 31.7391 31.739C31.9431 33.3466 33.3869 34.5015 35 34.3477C37.3355 34.1847 39.369 35.9277 39.5652 38.2608C39.369 40.5938 37.3355 42.3368 35 42.1738Z" fill="#FAFAFA"/>
<path d="M34.9999 43.4783C34.6398 43.4783 34.3477 43.1863 34.3477 42.8261V27.1739C34.3477 26.8137 34.6398 26.5217 34.9999 26.5217C35.3601 26.5217 35.6521 26.8137 35.6521 27.1739V42.8261C35.6521 43.1863 35.3601 43.4783 34.9999 43.4783Z" fill="#FAFAFA"/>
</svg>
