<svg width="72" height="103" viewBox="0 0 72 103" fill="none" xmlns="http://www.w3.org/2000/svg">
<path d="M71.1658 35.125C71.1658 63.0328 36.0407 102.426 36.0407 102.426C36.0407 102.426 0.91571 62.3733 0.91571 35.125C0.91571 15.7252 16.6409 0 36.0407 0C55.4405 0 71.1658 15.7252 71.1658 35.125Z" fill="#F67F14"/>
<path d="M62.3563 35.125C62.3563 49.663 50.5694 61.4499 36.0314 61.4499C21.4933 61.4499 9.70642 49.663 9.70642 35.125C9.70642 20.5869 21.4933 8.80005 36.0314 8.80005C50.5788 8.80005 62.3563 20.5869 62.3563 35.125Z" fill="white"/>
<g clip-path="url(#clip0)">
<path d="M27.4213 44.83L26.1702 43.5789L36.6553 32.6172L47.6766 22.0725L48.9276 23.3832L37.9064 33.8683L27.4213 44.83Z" fill="#F67F14"/>
<path d="M46.0085 46.2598L36.6553 33.8683L27.3617 26.6597L28.4936 25.2896L37.9064 32.6172L47.4383 45.1875L46.0085 46.2598Z" fill="#F67F14"/>
<path d="M37.7276 39.4086C41.1165 39.4086 43.8638 36.6613 43.8638 33.2724C43.8638 29.8835 41.1165 27.1362 37.7276 27.1362C34.3387 27.1362 31.5914 29.8835 31.5914 33.2724C31.5914 36.6613 34.3387 39.4086 37.7276 39.4086Z" fill="#F67F14"/>
<path d="M26.8255 48.9999C29.4906 48.9999 31.6511 46.8395 31.6511 44.1744C31.6511 41.5093 29.4906 39.3489 26.8255 39.3489C24.1605 39.3489 22 41.5093 22 44.1744C22 46.8395 24.1605 48.9999 26.8255 48.9999Z" fill="#F67F14"/>
<path d="M27.8978 29.6382C29.9377 29.6382 31.5914 27.9845 31.5914 25.9446C31.5914 23.9047 29.9377 22.251 27.8978 22.251C25.8579 22.251 24.2042 23.9047 24.2042 25.9446C24.2042 27.9845 25.8579 29.6382 27.8978 29.6382Z" fill="#F67F14"/>
<path d="M46.7235 49.0003C48.5331 49.0003 50.0001 47.5333 50.0001 45.7236C50.0001 43.914 48.5331 42.447 46.7235 42.447C44.9138 42.447 43.4468 43.914 43.4468 45.7236C43.4468 47.5333 44.9138 49.0003 46.7235 49.0003Z" fill="#F67F14"/>
<path d="M47.3787 26.2425C48.8264 26.2425 49.9999 25.0689 49.9999 23.6213C49.9999 22.1736 48.8264 21 47.3787 21C45.931 21 44.7574 22.1736 44.7574 23.6213C44.7574 25.0689 45.931 26.2425 47.3787 26.2425Z" fill="#F67F14"/>
</g>
<defs>
<clipPath id="clip0">
<rect width="28" height="28" fill="white" transform="translate(22 21)"/>
</clipPath>
</defs>
</svg>
