<svg width="70" height="103" viewBox="0 0 70 103" fill="none" xmlns="http://www.w3.org/2000/svg">
<path d="M70 35C70 62.8085 35 102.061 35 102.061C35 102.061 0 62.1513 0 35C0 15.6693 15.6693 0 35 0C54.3307 0 70 15.6693 70 35Z" fill="#AD718C"/>
<path d="M61.2218 35C61.2218 49.4863 49.4769 61.2312 34.9906 61.2312C20.5043 61.2312 8.7594 49.4863 8.7594 35C8.7594 20.5137 20.5043 8.7688 34.9906 8.7688C49.4863 8.7688 61.2218 20.5137 61.2218 35Z" fill="white"/>
<g clip-path="url(#clip0)">
<path d="M41.1705 36H28.8295C28.6542 36 28.5125 36.1445 28.517 36.3198C28.5543 37.7664 28.6523 39.1484 28.8013 40.4551C28.8228 40.6431 29.0043 40.7701 29.1877 40.7234C31.0745 40.2427 33.0188 40 35 40C36.9812 40 38.9256 40.2427 40.8123 40.7234C40.9956 40.7701 41.1773 40.6431 41.1987 40.4551C41.3478 39.1483 41.4458 37.7664 41.4831 36.3198C41.4876 36.1445 41.3459 36 41.1705 36Z" fill="#AD718C"/>
<path d="M41.1987 29.5449C41.1773 29.3569 40.9957 29.2299 40.8123 29.2766C38.9256 29.7573 36.9812 30 35 30C33.0188 30 31.0745 29.7573 29.1877 29.2766C29.0044 29.2299 28.8228 29.3569 28.8013 29.5449C28.6523 30.8517 28.5543 32.2336 28.517 33.6802C28.5125 33.8556 28.6541 34 28.8295 34H41.1705C41.3458 34 41.4875 33.8555 41.483 33.6802C41.4458 32.2336 41.3477 30.8516 41.1987 29.5449Z" fill="#AD718C"/>
<path d="M40.8124 26.9075C40.2524 23.8091 39.3941 21.268 38.4035 19.4723C38.3593 19.3923 38.282 19.3358 38.1924 19.3178C37.1527 19.1083 36.0848 19 35 19C33.9153 19 32.8473 19.1083 31.8076 19.3178C31.7181 19.3359 31.6407 19.3923 31.5966 19.4723C30.606 21.268 29.7476 23.8091 29.1876 26.9076C29.159 27.0662 29.2565 27.2216 29.4121 27.2635C31.1946 27.7436 33.068 28 35 28C36.9321 28 38.8054 27.7436 40.5879 27.2634C40.7435 27.2216 40.8411 27.0661 40.8124 26.9075Z" fill="#AD718C"/>
<path d="M41.6506 20.4397C41.396 20.3232 41.1307 20.5775 41.2313 20.8387C41.2331 20.8434 41.2349 20.848 41.2367 20.8526C41.8449 22.4341 42.339 24.2296 42.7088 26.1712C42.7457 26.3653 42.9523 26.4759 43.1351 26.4009C44.3652 25.8961 45.5384 25.2801 46.6425 24.5661C46.806 24.4604 46.8353 24.2325 46.7027 24.09C46.5757 23.9536 46.4462 23.8189 46.3137 23.6864C44.9417 22.3144 43.364 21.2231 41.6506 20.4397Z" fill="#AD718C"/>
<path d="M43.7958 33.9998H50.6321C50.8154 33.9998 50.959 33.8429 50.9439 33.6603C50.723 30.9778 49.8402 28.431 48.3744 26.2104C48.2785 26.0651 48.0838 26.0258 47.9385 26.1218C46.7443 26.9107 45.4785 27.5898 44.1476 28.1526C43.8746 28.2681 43.6 28.3781 43.3238 28.4828C43.1883 28.5341 43.1055 28.6704 43.1236 28.8143C43.3203 30.3829 43.4422 32.0193 43.4838 33.6944C43.488 33.8641 43.626 33.9998 43.7958 33.9998Z" fill="#AD718C"/>
<path d="M29.1876 43.0925C29.7476 46.1909 30.606 48.732 31.5966 50.5278C31.6407 50.6077 31.7181 50.6642 31.8076 50.6822C32.8473 50.8917 33.9153 51 35 51C36.0848 51 37.1527 50.8918 38.1924 50.6822C38.282 50.6641 38.3593 50.6077 38.4035 50.5277C39.3941 48.732 40.2524 46.1909 40.8124 43.0924C40.8411 42.9338 40.7435 42.7784 40.5879 42.7365C38.8054 42.2564 36.9321 42 35 42C33.068 42 31.1946 42.2564 29.4121 42.7366C29.2565 42.7784 29.159 42.9339 29.1876 43.0925Z" fill="#AD718C"/>
<path d="M25.8525 41.8471C26.1255 41.7316 26.4001 41.6217 26.6762 41.517C26.8117 41.4656 26.8945 41.3293 26.8765 41.1855C26.6797 39.6168 26.5578 37.9804 26.5162 36.3054C26.512 36.1357 26.374 36 26.2043 36H19.3679C19.1846 36 19.0411 36.1569 19.0561 36.3396C19.2771 39.022 20.1599 41.5688 21.6256 43.7894C21.7215 43.9346 21.9163 43.974 22.0615 43.8781C23.2557 43.0891 24.5216 42.41 25.8525 41.8471Z" fill="#AD718C"/>
<path d="M46.6425 45.4341C45.5385 44.7201 44.3653 44.1041 43.1351 43.5993C42.9524 43.5243 42.7458 43.6349 42.7088 43.829C42.3391 45.7707 41.845 47.5661 41.2367 49.1476C41.235 49.1522 41.2331 49.1568 41.2314 49.1615C41.1307 49.4227 41.396 49.677 41.6506 49.5605C43.3641 48.7771 44.9418 47.6858 46.3138 46.3138C46.4463 46.1813 46.5758 46.0467 46.7028 45.9102C46.8354 45.7677 46.806 45.5398 46.6425 45.4341Z" fill="#AD718C"/>
<path d="M43.4838 36.3054C43.4422 37.9805 43.3203 39.6169 43.1236 41.1856C43.1055 41.3294 43.1883 41.4657 43.3238 41.5171C43.6 41.6218 43.8746 41.7317 44.1476 41.8472C45.4785 42.4101 46.7443 43.0892 47.9385 43.8781C48.0838 43.974 48.2785 43.9346 48.3744 43.7894C49.8401 41.5689 50.723 39.0221 50.9439 36.3396C50.959 36.1569 50.8154 36 50.6321 36H43.7958C43.626 36.0001 43.488 36.1357 43.4838 36.3054Z" fill="#AD718C"/>
<path d="M23.3575 24.5659C24.4616 25.2799 25.6348 25.8959 26.8649 26.4006C27.0476 26.4756 27.2543 26.3651 27.2912 26.171C27.6609 24.2293 28.155 22.4339 28.7633 20.8524C28.7651 20.8477 28.7669 20.8431 28.7686 20.8385C28.8693 20.5772 28.604 20.323 28.3494 20.4394C26.636 21.2229 25.0583 22.3142 23.6863 23.6862C23.5538 23.8187 23.4242 23.9533 23.2972 24.0897C23.1646 24.2322 23.1941 24.4602 23.3575 24.5659Z" fill="#AD718C"/>
<path d="M26.5095 34.0001C26.5433 32.2185 26.6678 30.4784 26.8765 28.8145C26.8945 28.6707 26.8117 28.5344 26.6762 28.483C26.4001 28.3783 26.1255 28.2684 25.8525 28.1529C24.5216 27.5899 23.2557 26.9109 22.0615 26.122C21.9163 26.0261 21.7216 26.0654 21.6256 26.2107C20.1599 28.4312 19.2771 30.9781 19.0561 33.6605C19.0411 33.8431 19.1846 34.0001 19.3679 34.0001H26.5095Z" fill="#AD718C"/>
<path d="M28.3494 49.5605C28.6041 49.677 28.8694 49.4227 28.7687 49.1615C28.7669 49.1568 28.7651 49.1522 28.7634 49.1476C28.1551 47.5661 27.661 45.7706 27.2913 43.829C27.2543 43.6349 27.0477 43.5243 26.8649 43.5993C25.6348 44.1042 24.4616 44.7201 23.3576 45.4341C23.1941 45.5398 23.1647 45.7677 23.2973 45.9102C23.4243 46.0467 23.5539 46.1813 23.6864 46.3138C25.0583 47.6858 26.636 48.7771 28.3494 49.5605Z" fill="#AD718C"/>
</g>
<defs>
<clipPath id="clip0">
<rect width="32" height="32" fill="white" transform="translate(19 19)"/>
</clipPath>
</defs>
</svg>
