<svg width="70" height="102" viewBox="0 0 70 102" fill="none" xmlns="http://www.w3.org/2000/svg">
<path d="M69.9579 34.9789C69.9579 62.7707 34.9789 102 34.9789 102C34.9789 102 0 62.1139 0 34.9789C0 15.6598 15.6598 0 34.9789 0C54.298 0 69.9579 15.6598 69.9579 34.9789Z" fill="#FFBA14"/>
<path d="M61.185 34.9791C61.185 49.4567 49.4471 61.1945 34.9695 61.1945C20.4919 61.1945 8.75409 49.4567 8.75409 34.9791C8.75409 20.5015 20.4919 8.76367 34.9695 8.76367C49.4565 8.76367 61.185 20.5015 61.185 34.9791Z" fill="white"/>
<g clip-path="url(#clip0)">
<path d="M24.5 33.8333C24.2013 33.8333 23.9027 33.7189 23.6752 33.4914C23.219 33.0353 23.219 32.2979 23.6752 31.8418L31.7322 23.7848C32.1883 23.3286 32.9257 23.3286 33.3818 23.7848C33.838 24.2409 33.838 24.9783 33.3818 25.4344L25.3248 33.4914C25.0973 33.7189 24.7987 33.8333 24.5 33.8333Z" fill="#FFBA14"/>
<path d="M34.125 28.0001C33.8975 28.0001 33.6735 27.9114 33.5067 27.7434L29.4233 23.6601C29.1725 23.4104 29.0978 23.0336 29.2332 22.7069C29.3685 22.3802 29.6882 22.1667 30.0417 22.1667H34.125C34.608 22.1667 35 22.5587 35 23.0417V27.1251C35 27.4786 34.7865 27.7982 34.4598 27.9336C34.3513 27.9779 34.2382 28.0001 34.125 28.0001Z" fill="#FFBA14"/>
<path d="M29.1666 38.7916V45.4999H22.1666V38.7916C22.1666 37.9866 22.82 37.3333 23.625 37.3333H27.7083C28.5133 37.3333 29.1666 37.9866 29.1666 38.7916Z" fill="#FFBA14"/>
<path d="M38.5 34.1251V45.5001H31.5V34.1251C31.5 33.3201 32.1533 32.6667 32.9583 32.6667H37.0417C37.8467 32.6667 38.5 33.3201 38.5 34.1251Z" fill="#FFBA14"/>
<path d="M47.8333 29.4583V45.5H40.8333V29.4583C40.8333 28.6533 41.4867 28 42.2917 28H46.375C47.18 28 47.8333 28.6533 47.8333 29.4583Z" fill="#FFBA14"/>
<path d="M48.125 49H21.875C21.392 49 21 48.608 21 48.125C21 47.642 21.392 47.25 21.875 47.25H48.125C48.608 47.25 49 47.642 49 48.125C49 48.608 48.608 49 48.125 49Z" fill="#FFBA14"/>
</g>
<defs>
<clipPath id="clip0">
<rect width="28" height="28" fill="white" transform="translate(21 21)"/>
</clipPath>
</defs>
</svg>
