<svg width="88" height="77" viewBox="0 0 88 77" fill="none" xmlns="http://www.w3.org/2000/svg">
<path d="M43.9521 33.6548H38.6459V56.3423H43.9521V33.6548Z" fill="#0C4978"/>
<path d="M62.8754 45.0476C63.8664 44.7202 64.6655 44.2292 65.2409 43.6071C65.8162 42.9851 66.1679 42.2976 66.3277 41.5119C66.4236 41.1191 66.4555 40.7589 66.5195 40.4315C66.5514 40.1369 66.5834 39.8423 66.5834 39.6131C66.5834 38.8601 66.4875 38.1399 66.2957 37.4196C66.1039 36.6994 65.6884 36.0119 65.113 35.2917C64.8253 34.9316 64.5376 34.6369 64.186 34.4077C63.8664 34.1786 63.4828 34.0149 63.0353 33.8839C62.5878 33.753 62.1083 33.6875 61.5649 33.622C61.0215 33.5893 60.3822 33.5565 59.6789 33.5565H46.3175V56.3095H59.9666C61.437 56.3095 62.5878 56.1786 63.4508 55.9167C64.3139 55.6548 65.081 55.0327 65.7203 54.0179C66.3597 52.9702 66.6793 51.8571 66.6793 50.7113C66.6473 49.1399 66.2638 47.8958 65.5286 46.9464C64.7934 45.997 63.8983 45.375 62.8754 45.0476ZM61.2772 40.4643C61.2772 41.119 60.9895 41.6429 60.4141 41.9375C59.8388 42.2649 58.9118 42.4286 57.6971 42.4286H56.9939H54.1809V47.4375H56.6103H57.3135C58.7839 47.372 59.8388 47.5357 60.4461 47.9286C61.0534 48.3214 61.3411 48.8452 61.3092 49.5C61.3092 49.8601 61.1813 50.2202 60.9575 50.6131C60.7338 51.006 60.4141 51.2679 59.9666 51.3661C59.5191 51.4643 58.8478 51.5298 57.9209 51.5298H57.2176H51.5918V50.1875V38.4673H57.2815H57.825C59.1036 38.4345 59.9986 38.5982 60.542 38.9911C61.0854 39.3512 61.3092 39.875 61.2772 40.4643Z" fill="#0C4978"/>
<path d="M77.1 42.5595V47.4048H82.6939V51.4643H80.1686C79.4334 51.4643 78.7941 51.4316 78.2187 51.3661C77.6434 51.3006 77.1319 51.2024 76.6844 51.0387C76.2369 50.875 75.8214 50.6458 75.4697 50.3512C75.1181 50.0566 74.7665 49.6637 74.4788 49.1399C73.8715 48.1578 73.5838 46.8482 73.5838 45.1786C73.5838 44.3601 73.6477 43.6399 73.8076 42.9197C73.9674 42.2322 74.2551 41.4464 74.7026 40.5953C74.9583 40.1369 75.246 39.8095 75.5976 39.5149C75.9492 39.253 76.3648 39.0238 76.8442 38.8929C77.3237 38.7619 77.8991 38.6637 78.5384 38.5982C79.1777 38.5328 79.9129 38.5328 80.712 38.5328H88.032V33.622H78.5384C76.5566 33.622 74.7985 33.8512 73.3281 34.3095C71.8257 34.7679 70.7389 35.6518 70.0357 36.9941C69.3005 38.3363 68.821 39.6131 68.5653 40.8899C68.3095 42.1667 68.1497 43.5089 68.1497 44.9167C68.1497 46.3899 68.2776 47.7649 68.5653 49.0417C68.821 50.3185 69.3324 51.5953 70.0996 52.9048C70.8668 54.2143 71.9536 55.0982 73.3281 55.5893C74.7345 56.0476 76.3967 56.3095 78.3786 56.3095H88.064V42.5595H77.1Z" fill="#0C4978"/>
<path d="M49.3222 58.8958C42.9931 60.5982 29.6636 61.6131 12.4025 48.9435L25.7319 64.6577C33.8511 66.4256 42.5776 64.9524 49.8656 60.1072C50.4729 59.6816 50.0254 58.6994 49.3222 58.8958Z" fill="#004977"/>
<path d="M23.6223 61.9077C22.951 60.8929 22.2797 59.8125 21.6724 58.6994C21.3528 58.5685 21.0651 58.3393 20.8093 58.0447C19.6906 56.6369 18.6357 54.9345 17.8686 53.0685C15.9187 53.1667 14.672 51.9554 13.5213 50.4167C12.9459 49.6637 12.4025 48.8452 11.8591 48.0595C11.7952 47.9613 11.3796 47.3393 11.7952 47.9613C11.6993 47.8304 11.6354 47.6994 11.5395 47.6012C11.3796 47.4048 11.2518 47.1756 11.0919 46.9792C10.9002 46.7173 10.7403 46.4554 10.6125 46.1607C9.55762 46.0625 8.59867 45.506 7.8315 44.753C6.26521 43.2143 5.1784 40.7262 4.98661 38.4345C2.9728 36.1429 3.03673 32.1815 5.1784 29.9881C5.11447 26.5506 6.13735 23.8661 8.43884 20.3958C9.62155 18.5952 10.6764 16.4345 10.2609 14.2083C9.97317 12.6369 8.75849 12.0476 7.32006 12.7024C-1.50231 24.3244 -1.79 41.0208 7.51185 53.0685C12.4664 59.4524 19.2431 63.4464 26.4991 64.8542C25.4443 64.1012 24.4534 63.1845 23.6223 61.9077Z" fill="url(#paint0_linear)"/>
<path d="M16.494 54.9018C16.1104 54.3125 15.6949 53.6577 15.3432 53.003C15.1514 52.9048 14.9916 52.8066 14.8318 52.6101C14.1925 51.7917 13.5532 50.7768 13.1057 49.6637C11.9549 49.7292 11.2197 49.0089 10.5485 48.0923C10.1969 47.6339 9.8772 47.1756 9.55755 46.6845C9.52559 46.6191 9.26987 46.2589 9.52559 46.6191C9.46166 46.5536 9.42969 46.4554 9.36576 46.3899C9.26987 46.2589 9.20594 46.1607 9.11004 46.0298C8.98218 45.8661 8.88628 45.7024 8.82235 45.5387C8.21502 45.4732 7.63964 45.1458 7.19213 44.6875C6.26514 43.7708 5.62584 42.2976 5.49798 40.9554C4.31527 39.6131 4.34724 37.256 5.62584 35.9792C5.59388 33.9494 6.20121 32.3452 7.54375 30.3155C8.24698 29.2351 8.85432 27.9583 8.63056 26.6488C8.47074 25.7322 7.73554 25.372 6.90445 25.7649C1.69413 32.7054 1.50234 42.5595 7.03231 49.6637C9.94113 53.4286 13.9687 55.7857 18.2521 56.6042C17.5808 56.2113 17.0054 55.6548 16.494 54.9018Z" fill="url(#paint1_linear)"/>
<path d="M32.9561 65.378C32.9561 65.378 17.6767 66.2292 8.05523 53.7232C7.09627 52.4464 6.16928 51.1697 5.33819 49.7947C4.53906 48.5179 3.83583 47.2083 3.19653 45.8661C2.58919 44.5893 2.07775 43.2798 1.6622 41.9375C1.24665 40.628 0.927002 39.3185 0.703246 37.9762C0.47949 36.6339 0.351629 35.2917 0.319664 33.9494C0.255734 32.5744 0.319664 31.1994 0.47949 29.8572C0.639316 28.4167 0.863072 27.0089 1.18272 25.6339C1.53434 24.1607 1.94989 22.6875 2.42936 21.247C2.94081 19.7083 3.54814 18.2024 4.18745 16.6964C4.47513 16.0744 4.73085 15.4197 5.01854 14.7976C5.08247 14.6667 5.1464 14.503 5.2423 14.4048C5.68981 13.9792 6.48894 14.5685 6.77662 14.9286C7.35199 15.6488 7.22413 16.8274 7.1602 17.6786C7.03234 19.4137 6.68073 21.1488 6.32911 22.8839C6.00946 24.4881 5.68981 26.0923 5.43409 27.6964C4.28334 34.3423 8.47077 45.3423 10.4846 44.753C12.4984 44.1637 10.9001 37.125 10.6124 34.4405C10.3248 31.7232 10.069 29.2024 11.6673 29.3006C13.2975 29.3988 15.5031 31.2649 17.5808 45.4732C19.6586 59.6816 30.303 65.2143 32.9561 65.378Z" fill="url(#paint2_linear)"/>
<path d="M22.9829 43.247C23.6223 42.8869 23.846 42.0684 23.4944 41.3809C23.1428 40.7262 22.3436 40.4643 21.7043 40.8244C21.2888 41.0536 21.0331 41.5119 21.0331 42.003C20.7774 42.0357 20.5216 42.0684 20.3298 42.1012C20.2979 42.003 20.2659 41.9048 20.202 41.8065C19.9782 41.5446 19.6266 41.5119 19.4029 41.7411C19.1791 41.9702 19.1471 42.3304 19.3709 42.5595C19.5946 42.7887 19.9463 42.8542 20.17 42.625C20.2979 42.5268 20.3618 42.3631 20.3618 42.1994C20.5856 42.1994 20.8093 42.1994 21.065 42.1994C21.097 42.3631 21.129 42.494 21.2249 42.6577C21.5445 43.3452 22.3436 43.6071 22.9829 43.247Z" fill="url(#paint3_linear)"/>
<path d="M20.0742 47.8304C19.8824 47.7321 19.6586 47.8304 19.5627 48.0268C19.4668 48.2232 19.5308 48.4851 19.7226 48.5833H19.7545C19.7545 48.6488 19.7226 48.7143 19.7226 48.8125C19.7226 48.9107 19.7226 49.0089 19.7226 49.1399C19.7226 49.4018 19.7226 49.6637 19.7226 49.8274C19.6586 49.8274 19.5947 49.8601 19.5627 49.9256C19.5308 50.0238 19.5627 50.1547 19.6586 50.1875C19.7545 50.2202 19.8504 50.1875 19.9144 50.0893C19.9783 49.9911 19.9144 49.8601 19.8185 49.8274C19.7865 49.8274 19.7865 49.8274 19.7545 49.8274C19.7865 49.6637 19.7865 49.4018 19.8185 49.1399C19.8185 49.0417 19.8504 48.9107 19.8504 48.8125C19.8504 48.747 19.8504 48.6815 19.8504 48.6161C19.9783 48.6161 20.1061 48.5178 20.202 48.3869C20.3299 48.1577 20.266 47.9286 20.0742 47.8304Z" fill="url(#paint4_linear)"/>
<path d="M9.58956 38.1399C9.39777 38.0417 9.17401 38.1399 9.07811 38.3363C8.98222 38.5327 9.04615 38.7946 9.23794 38.8929H9.26991C9.26991 38.9583 9.23794 39.0238 9.23794 39.122C9.23794 39.2202 9.23794 39.3184 9.23794 39.4494C9.23794 39.7113 9.23794 39.9732 9.23794 40.1369C9.17401 40.1369 9.11008 40.1696 9.07811 40.2351C9.04615 40.3333 9.07812 40.4643 9.17401 40.497C9.26991 40.5298 9.3658 40.497 9.42973 40.3988C9.4617 40.3006 9.42973 40.1696 9.33384 40.1369C9.30187 40.1369 9.30187 40.1369 9.26991 40.1369C9.30187 39.9732 9.30187 39.7113 9.33384 39.4494C9.33384 39.3512 9.3658 39.2202 9.3658 39.122C9.3658 39.0565 9.3658 38.9911 9.3658 38.9256C9.49366 38.9256 9.62152 38.8274 9.71742 38.6964C9.87724 38.4673 9.78135 38.2381 9.58956 38.1399Z" fill="url(#paint5_linear)"/>
<path d="M24.805 46.2589C24.7091 46.2917 24.6451 46.3571 24.6132 46.4226C24.4214 46.3571 24.1976 46.2917 23.9739 46.2262C23.9099 46.1934 23.846 46.1934 23.7821 46.1607C23.7821 46.0625 23.7821 45.9643 23.7821 45.8661C23.6862 45.244 23.1108 44.8185 22.5035 44.9167C21.8961 45.0149 21.5126 45.6042 21.6404 46.2589C21.7363 46.8155 22.2158 47.2083 22.7592 47.2083C22.7592 47.2411 22.7592 47.2411 22.7592 47.2738C22.7912 47.4048 22.8231 47.5684 22.8551 47.6994C22.8871 47.8958 22.919 48.0923 22.951 48.2559C22.6953 48.3214 22.5354 48.5833 22.5994 48.878C22.6633 49.1726 22.919 49.369 23.2067 49.3363C23.2387 49.3363 23.2387 49.3363 23.2706 49.3036C23.3026 49.369 23.3665 49.4673 23.3985 49.5327C23.4624 49.6309 23.5583 49.7619 23.6542 49.8928C23.846 50.1875 24.0698 50.4494 24.1976 50.6131C24.1337 50.6786 24.1017 50.744 24.1017 50.8422C24.1337 50.9732 24.2616 51.0714 24.3894 51.0714C24.5173 51.0387 24.6132 50.9077 24.5812 50.7768C24.5492 50.6458 24.4214 50.5476 24.2935 50.5476C24.2616 50.5476 24.2616 50.5803 24.2296 50.5803C24.1337 50.3839 23.9419 50.0893 23.7821 49.7946C23.7181 49.6637 23.6542 49.5327 23.5583 49.4345C23.4944 49.369 23.4624 49.3036 23.3985 49.2381C23.5583 49.1071 23.6223 48.9107 23.5903 48.7143C23.5583 48.4524 23.3026 48.2559 23.0788 48.2559C23.0788 48.0923 23.0788 47.8958 23.0469 47.6994C23.0469 47.5357 23.0469 47.4048 23.0469 47.2738C23.0469 47.2411 23.0469 47.2411 23.0469 47.2083C23.3985 47.1101 23.6542 46.8155 23.7501 46.4881C23.814 46.4881 23.878 46.5208 23.9419 46.5208C24.1657 46.5536 24.4214 46.5863 24.6132 46.619C24.6451 46.75 24.773 46.8482 24.9009 46.8155C25.0287 46.7827 25.1246 46.6518 25.0926 46.5208C25.0607 46.3571 24.9328 46.2589 24.805 46.2589Z" fill="url(#paint6_linear)"/>
<path d="M21.6404 11.753C21.097 11.9167 20.7454 12.2768 20.8413 12.6042C20.9372 12.9315 21.4167 13.0625 21.9601 12.8988C22.5035 12.7351 22.8551 12.375 22.7592 12.0476C22.6633 11.7202 22.1838 11.5893 21.6404 11.753Z" fill="url(#paint7_linear)"/>
<path d="M56.0988 16.2708C56.0029 16.3691 55.9709 16.4673 55.9709 16.631C55.6193 16.4673 55.1718 16.2708 54.7562 16.0744C54.5005 15.9435 54.2448 15.8452 54.021 15.7143C53.7973 15.6488 53.6055 15.5833 53.4457 15.5179C53.4776 15.1577 53.2219 14.7976 52.8064 14.6994C52.6465 14.6667 52.4867 14.6667 52.3269 14.7321C52.1351 14.4048 51.8794 13.9464 51.6236 13.5208C51.4958 13.2917 51.3679 13.0625 51.2401 12.8333C51.1122 12.6369 50.9524 12.4405 50.8245 12.2768C50.7926 12.2441 50.7606 12.1786 50.7286 12.1458C50.8884 12.1786 51.0163 12.1786 51.0483 12.1458C51.0802 12.0476 50.8245 11.8185 50.4409 11.6548C50.0574 11.4583 49.7057 11.3929 49.6738 11.4911C49.6418 11.5893 49.8975 11.8185 50.2811 11.9821C50.3131 12.0149 50.377 12.0149 50.409 12.0476C50.4409 12.1458 50.5049 12.3095 50.5688 12.4732C50.6647 12.6696 50.7606 12.8661 50.8884 13.0625C51.0163 13.2589 51.2081 13.4881 51.3679 13.6845C51.6556 14.0774 51.9433 14.4702 52.199 14.7976C52.0392 14.8958 51.9113 15.0268 51.8794 15.2232C51.8154 15.5833 52.1031 15.9762 52.5187 16.0744C52.8383 16.1399 53.158 16.0417 53.3178 15.8452C53.4776 15.9435 53.6694 16.0417 53.8932 16.1071C54.1489 16.2054 54.4046 16.2708 54.6603 16.3691C55.1398 16.5327 55.6193 16.6964 56.0029 16.8274C56.0668 17.0238 56.1627 17.253 56.3545 17.4494C56.7381 17.875 57.2175 18.006 57.4733 17.8095C57.697 17.5804 57.6011 17.0566 57.2175 16.6637C56.834 16.2708 56.3225 16.0417 56.0988 16.2708Z" fill="url(#paint8_linear)"/>
<path d="M29.5358 1.40774C31.5176 1.04762 33.2437 0.523809 34.4584 0.0654762C30.4308 -0.196429 26.3712 0.327381 22.4715 1.6369C23.0788 2.16071 26.0516 2.09524 29.5358 1.40774Z" fill="url(#paint9_linear)"/>
<path d="M17.3571 21.8036C17.3891 21.8363 17.3891 21.9018 17.421 21.9345C17.6768 22.3601 18.0284 22.7202 18.3161 23.1458C18.6037 23.5714 18.8914 23.997 19.1791 24.3571C18.1562 25.2083 17.8686 26.6815 18.5398 27.7946C19.275 29.0387 20.9052 29.3988 22.1519 28.6131C23.3985 27.8274 23.846 26.1905 23.0789 24.9464C22.4396 23.8661 21.129 23.4732 19.9782 23.8988C19.7865 23.4405 19.5947 22.9821 19.4029 22.4911C19.2111 22.0327 19.0832 21.5089 18.8595 21.0833C18.8275 21.0506 18.7955 20.9851 18.7636 20.9524C19.3389 20.3631 19.6906 19.6429 19.7225 18.9226C20.6495 18.7917 21.7044 18.5952 22.7592 18.3988C23.2387 18.3006 23.7501 18.2351 24.2296 18.1696C25.0607 19.9048 27.3622 20.6577 29.5678 19.9048C31.9332 19.0536 33.2757 16.7619 32.6045 14.7649C31.9332 12.7679 29.4719 11.8185 27.1065 12.6696C25.2205 13.3571 23.9739 14.9613 23.91 16.5982C23.4305 16.7619 22.951 16.9583 22.4715 17.122C21.4806 17.4494 20.5217 17.7768 19.6586 18.1042C19.5947 17.9405 19.5307 17.7768 19.4348 17.6458C18.9873 16.8929 18.1243 16.5 17.1973 16.5655C17.1973 16.3036 17.1653 16.0744 17.1334 15.7798C17.0694 15.2887 16.8776 14.7976 16.7817 14.2738C16.6539 13.7173 16.526 13.1607 16.4301 12.6696C16.7817 12.5387 17.1014 12.375 17.453 12.1458C19.307 11 20.2979 9.16667 19.6586 8.05357C19.0193 6.94048 16.9416 7.03869 15.0876 8.18453C14.2245 8.70834 13.5533 9.39584 13.1377 10.0506C12.9779 10.0833 12.7861 10.1161 12.5943 10.1161C11.6034 10.247 10.5805 10.378 10.0051 10.4435C10.3248 10.0506 10.4846 9.72322 10.3887 9.625C10.2609 9.49405 9.78138 9.82143 9.3019 10.3125C8.82242 10.8036 8.53474 11.3274 8.6626 11.4256C8.79046 11.5238 9.26993 11.2292 9.74941 10.7381C9.81334 10.6726 9.87727 10.6071 9.90924 10.5417C10.4526 10.5417 11.5395 10.5417 12.6263 10.5417C12.6902 10.5417 12.7861 10.5417 12.85 10.5417C12.5943 11.1637 12.5943 11.753 12.85 12.2113C13.2975 12.9643 14.4483 13.1607 15.7269 12.8333C15.7589 13.3244 15.7908 13.8482 15.8228 14.3393C15.8547 14.8631 15.8228 15.3869 15.8867 15.878C15.9187 16.1726 15.9826 16.4673 16.0785 16.7292C15.9187 16.7946 15.7589 16.8929 15.599 16.9911C14.4163 17.744 13.8409 19.0208 14.0967 20.1339L14.0647 20.1667C13.7131 20.4286 13.3295 20.7559 12.9779 21.0506C12.7541 21.2143 12.5304 21.4107 12.3066 21.5744C11.6993 21.1161 10.5166 21.4762 9.58958 22.4256C8.59867 23.4405 8.24705 24.7173 8.82242 25.3065C9.39779 25.8958 10.6444 25.5357 11.6354 24.5208C12.4345 23.7024 12.8181 22.6548 12.6263 22C12.85 21.869 13.1057 21.7054 13.3295 21.5744C13.7131 21.3452 14.1286 21.1488 14.4802 20.8869C15.0556 21.869 16.2064 22.1637 17.3571 21.8036Z" fill="url(#paint10_linear)"/>
<path d="M43.3448 5.40178C45.5824 5.7619 47.6921 5.49999 49.1625 4.81249C45.2947 2.35714 40.9794 0.851187 36.6002 0.261902C36.3764 2.52083 39.3492 4.77976 43.3448 5.40178Z" fill="url(#paint11_linear)"/>
<path d="M30.0473 29.628C28.7367 30.0863 28.0015 31.5595 28.481 32.9018C28.7687 33.7857 29.5358 34.4077 30.3989 34.5714C30.3669 35.0625 30.3669 35.5536 30.335 35.9464C30.1432 35.9464 29.9514 36.0119 29.7915 36.1101C29.2801 36.4375 29.0883 37.125 29.408 37.6488C29.7276 38.1726 30.3989 38.3363 30.9103 38.0089C31.4218 37.6816 31.6136 36.9941 31.2939 36.4702C31.1341 36.2083 30.8784 36.0446 30.5907 35.9792C30.6546 35.5863 30.7505 35.0952 30.8464 34.6369C31.1341 34.6369 31.4218 34.6042 31.7094 34.506C33.02 34.0476 33.7552 32.5744 33.2757 31.2321C32.7963 29.8571 31.3578 29.1696 30.0473 29.628Z" fill="url(#paint12_linear)"/>
<path d="M23.3346 32.378C22.4396 32.9345 22.088 34.0804 22.4715 35.0298C22.4396 35.0298 22.4076 35.0625 22.3756 35.0625C22.1519 35.1934 21.9281 35.3571 21.7044 35.5208C21.3847 35.7173 21.097 35.9137 20.8413 36.0774C20.5217 35.6845 19.9783 35.5863 19.5307 35.8809C19.0513 36.1756 18.8914 36.7976 19.1791 37.2887C19.2111 37.3214 19.2431 37.3869 19.275 37.4196C19.275 37.4524 19.2431 37.4524 19.2431 37.4851C19.1472 37.6488 19.0513 37.8125 18.9554 37.9762C18.7316 38.369 18.5079 38.7292 18.348 38.9911C18.2521 38.9256 18.1243 38.9256 18.0284 38.9911C17.8686 39.0893 17.8046 39.2857 17.9005 39.4494C17.9964 39.6131 18.1882 39.6458 18.348 39.5476C18.5079 39.4494 18.5718 39.253 18.4759 39.0893C18.4439 39.0565 18.4439 39.0238 18.412 39.0238C18.6038 38.7946 18.8595 38.4345 19.1472 38.0744C19.275 37.9107 19.3709 37.7798 19.4988 37.6488L19.5307 37.6161C19.8504 37.8125 20.2659 37.8452 20.6176 37.6161C21.0651 37.3542 21.2249 36.7976 21.0331 36.3393C21.3208 36.2083 21.6404 36.0774 21.9601 35.9137C22.2158 35.8155 22.4715 35.7173 22.6953 35.5863C22.7273 35.5536 22.7592 35.5536 22.7912 35.5208C23.2067 36.0446 23.878 36.3393 24.5173 36.2738C24.5493 36.4048 24.5812 36.5357 24.6132 36.6339C24.7091 37.0923 24.837 37.5506 24.9329 37.9434C24.7091 38.1071 24.6452 38.369 24.805 38.5982C24.9329 38.8274 25.2525 38.8928 25.4763 38.7619C25.7 38.6309 25.7959 38.3036 25.6361 38.0744C25.5402 37.9107 25.3804 37.8452 25.1886 37.8452C25.1566 37.4524 25.1246 37.0268 25.0607 36.5684C25.0607 36.4375 25.0287 36.3065 25.0287 36.1756C25.1886 36.1101 25.3484 36.0446 25.5082 35.9464C26.4991 35.3244 26.8508 34.0149 26.2434 33C25.6361 32.0506 24.3255 31.756 23.3346 32.378Z" fill="url(#paint13_linear)"/>
<path d="M55.3637 13.7173C55.4916 13.619 55.5555 13.4554 55.4596 13.3244C55.3637 13.1935 55.2039 13.1607 55.076 13.2262C54.9482 13.2917 54.8842 13.4881 54.9801 13.619C55.076 13.75 55.2359 13.7827 55.3637 13.7173Z" fill="url(#paint14_linear)"/>
<path d="M58.4643 19.8393C58.3365 19.6101 58.0168 19.5446 57.7931 19.6756C57.5693 19.8066 57.4734 20.1339 57.6333 20.3631C57.7931 20.5923 58.0808 20.6577 58.3045 20.5268C58.5283 20.3631 58.5922 20.0685 58.4643 19.8393Z" fill="url(#paint15_linear)"/>
<path d="M16.4941 28.8095C16.1425 29.1042 16.0785 29.5952 16.3023 29.8899C16.526 30.1845 17.0055 30.1845 17.3571 29.8899C17.7087 29.5952 17.7727 29.1042 17.5489 28.8095C17.3252 28.5149 16.8457 28.5149 16.4941 28.8095Z" fill="url(#paint16_linear)"/>
<path d="M47.3724 13.6845C47.2445 13.6845 47.1166 13.75 47.0207 13.8155C46.9249 13.7173 46.829 13.6191 46.7331 13.4881C46.5413 13.2917 46.3175 13.0625 46.0618 12.8333C47.0527 12.375 47.692 11.7202 47.8199 10.8691C48.1076 9.03572 45.6462 7.10417 42.3538 6.6131C39.0614 6.08929 36.1846 7.16965 35.8969 9.03572C35.6412 10.7381 37.7189 12.506 40.6277 13.1607C40.4679 13.6518 40.2761 14.1429 40.1163 14.6667C40.0204 14.9286 39.9245 15.1905 39.8286 15.4524C39.2213 15.3869 38.582 15.4524 37.9746 15.6488C35.9289 16.3691 34.8101 18.5298 35.2896 20.5923C34.7781 20.8869 34.2347 21.247 33.6913 21.5417C32.7323 22.0655 31.7734 22.622 30.9423 23.1131C30.271 22.0327 28.9285 21.5417 27.6499 21.9673C26.1795 22.4911 25.3804 24.128 25.8918 25.6012C26.4033 27.0744 28.0015 27.8601 29.4719 27.3363C30.9103 26.8125 31.6775 25.2738 31.262 23.8006C32.157 23.4732 33.1799 23.1131 34.2027 22.6875C34.7781 22.4583 35.3855 22.2947 35.9608 22.0655C37.0157 23.506 38.9016 24.128 40.6597 23.506C42.8333 22.7202 43.9841 20.3304 43.2489 18.1697C42.8333 16.9911 41.9703 16.1072 40.9154 15.6816C40.9474 15.4197 41.0113 15.125 41.0433 14.8631C41.1392 14.3066 41.2351 13.75 41.331 13.2262C42.8333 13.4554 44.2717 13.3572 45.3905 12.997C45.4225 13.0298 45.4545 13.0625 45.4864 13.0952C45.8061 13.3572 46.1257 13.5863 46.4134 13.7827C46.5093 13.8482 46.6372 13.9137 46.7331 13.9792C46.6372 14.1101 46.6052 14.2411 46.6052 14.4048C46.6372 14.7976 47.0527 15.0595 47.5002 14.9941C47.9477 14.9286 48.2674 14.6012 48.2354 14.2083C48.2035 13.881 47.7879 13.6191 47.3724 13.6845Z" fill="url(#paint17_linear)"/>
<path d="M9.46172 28.2857C9.39779 28.3185 9.33386 28.3839 9.33386 28.4494C9.3019 28.4494 9.23797 28.4494 9.206 28.4167C8.95028 28.3839 8.63063 28.3512 8.31098 28.3512C7.99133 28.3512 7.67168 28.3185 7.41596 28.3185C7.47989 27.9583 7.35203 27.631 7.16024 27.5982C6.93648 27.5327 6.68076 27.8274 6.61683 28.2202C6.52093 28.6131 6.64879 28.9732 6.87255 29.0387C6.87255 29.0387 6.87255 29.0387 6.90452 29.0387C6.87255 29.3661 6.80862 29.7262 6.77666 30.119C6.74469 30.6429 6.68076 31.1667 6.64879 31.5268C6.52093 31.5595 6.42504 31.6905 6.36111 31.8869C6.29718 32.1161 6.39307 32.3452 6.52093 32.378C6.64879 32.4107 6.80862 32.247 6.84058 32.0179C6.90452 31.7887 6.80862 31.5595 6.68076 31.5268H6.64879C6.68076 31.1667 6.77665 30.6756 6.84058 30.1518C6.90452 29.7589 6.93648 29.3661 6.96845 29.0387C7.16024 28.9732 7.32006 28.744 7.41596 28.4167V28.3839C7.67168 28.4167 7.99133 28.4494 8.31098 28.4821C8.63063 28.5149 8.95028 28.5476 9.206 28.5476C9.23797 28.5476 9.3019 28.5476 9.33386 28.5476C9.33386 28.6131 9.33386 28.6458 9.36583 28.7113C9.42976 28.8423 9.62155 28.875 9.78138 28.7768C9.9412 28.6786 9.97317 28.5149 9.90924 28.3839C9.78138 28.2202 9.58959 28.2202 9.46172 28.2857Z" fill="url(#paint18_linear)"/>
<path d="M11.8592 16.3363C12.0509 16.2053 12.1468 15.9434 12.0509 15.7798C11.955 15.6161 11.6993 15.5506 11.4756 15.6815C11.2838 15.8125 11.1879 16.0744 11.2838 16.2381C11.3797 16.4345 11.6354 16.4673 11.8592 16.3363Z" fill="url(#paint19_linear)"/>
<path d="M18.0603 4.84523C18.1882 4.77975 18.284 4.71427 18.3799 4.6488L23.2706 5.72915C22.6313 6.51487 22.3756 7.3988 22.5674 8.18451C23.0788 10.0178 26.0196 10.7708 29.1522 9.85415C29.7276 9.69046 30.3029 9.4613 30.7824 9.23213C31.0381 9.55951 31.2938 9.88689 31.5496 10.2143C32.5085 11.4583 33.4675 12.7024 34.1387 13.5536C33.7871 13.8482 33.7232 14.3065 33.947 14.6012C34.1707 14.8958 34.6502 14.8958 34.9698 14.6339L35.0018 14.6012C35.3215 14.3065 35.4174 13.8482 35.1616 13.5536C34.9379 13.2917 34.5543 13.2589 34.2346 13.4553C33.6273 12.5714 32.7642 11.2619 31.8692 9.95237C31.6455 9.62499 31.4537 9.33034 31.2299 9.00296C33.1478 7.92261 34.2346 6.31844 33.883 4.94344C33.8511 4.81249 33.8191 4.71427 33.7552 4.58332C33.8191 4.55058 33.883 4.55058 33.915 4.51784C34.3305 4.38689 34.7141 4.2232 34.9698 4.12499C35.1616 4.19046 35.3854 4.2232 35.6091 4.28868C36.2804 4.38689 36.8558 4.35415 36.8877 4.19046C36.9197 4.02677 36.3763 3.79761 35.705 3.69939C35.0338 3.60118 34.4584 3.63392 34.4264 3.79761C34.4264 3.89582 34.5223 3.9613 34.7461 4.05951C34.4904 4.09225 34.1387 4.15772 33.8191 4.2232C33.7232 4.25594 33.6273 4.25594 33.5314 4.28868C32.5725 2.97915 29.9833 2.48808 27.2662 3.2738C25.7319 3.73213 24.4533 4.48511 23.5903 5.3363L18.4119 4.61606C19.9782 3.73213 21.097 2.91368 20.9691 2.68451C20.8413 2.45534 19.3069 3.07737 17.5489 4.05951C15.7588 5.04165 14.4163 5.99106 14.5441 6.22023C14.672 6.44939 16.2702 5.82737 18.0603 4.84523Z" fill="url(#paint20_linear)"/>
<path d="M50.8885 8.83929C51.4319 9.26488 51.9434 9.52679 52.0393 9.39584C52.1352 9.26488 51.7835 8.80655 51.2401 8.34822C50.6967 7.88988 50.1853 7.66072 50.0894 7.79167C49.9935 7.92262 50.3451 8.38096 50.8885 8.83929Z" fill="url(#paint21_linear)"/>
<path d="M0.671268 74.1845C0.767163 74.4137 0.926989 74.6101 1.18271 74.7738C1.40647 74.9375 1.69415 75.003 2.0138 75.003C2.20559 75.003 2.36542 74.9702 2.52525 74.9375C2.68507 74.9048 2.8449 74.8393 2.97276 74.7411C3.10062 74.6429 3.19651 74.5446 3.29241 74.4137C3.35634 74.2827 3.42027 74.1191 3.42027 73.9226C3.42027 73.7262 3.3883 73.5625 3.29241 73.4316C3.22848 73.2679 3.10062 73.1369 2.97276 73.0387C2.8449 72.9405 2.68507 72.8423 2.52525 72.8095C2.36542 72.7768 2.17363 72.7113 1.98184 72.7113C1.72612 72.7113 1.4704 72.6786 1.24664 72.6131C1.02288 72.5476 0.831093 72.4167 0.671268 72.2857C0.511442 72.1548 0.383582 71.9583 0.287686 71.7619C0.191791 71.5655 0.159826 71.3363 0.159826 71.0744C0.159826 70.5833 0.319651 70.2232 0.671268 69.9613C0.990919 69.6994 1.43843 69.5685 2.0138 69.5685C2.0138 69.5685 2.07773 69.5685 2.20559 69.5685C2.33345 69.5685 2.46132 69.6012 2.65311 69.6667C2.81293 69.7321 3.00472 69.7976 3.16455 69.9286C3.35634 70.0595 3.4842 70.2232 3.61206 70.4196C3.61206 70.4524 3.64403 70.4851 3.64403 70.5179C3.64403 70.5506 3.67599 70.5833 3.67599 70.6161C3.67599 70.6815 3.64403 70.747 3.58009 70.8452C3.51616 70.9435 3.45223 70.9435 3.35634 70.9435C3.26044 70.9435 3.16455 70.9107 3.10062 70.8125C3.03669 70.7143 2.94079 70.6488 2.87686 70.5833C2.81293 70.5179 2.71704 70.4524 2.65311 70.3869C2.55721 70.3214 2.46132 70.2887 2.36542 70.256C2.26952 70.2232 2.14166 70.2232 1.98184 70.2232C1.75808 70.2232 1.59826 70.256 1.43843 70.2887C1.27861 70.3542 1.15074 70.3869 1.08681 70.4851C0.990919 70.5506 0.926989 70.6488 0.895024 70.747C0.863059 70.8452 0.831093 70.9435 0.831093 71.0744C0.831093 71.2381 0.863059 71.369 0.926989 71.5C0.990919 71.631 1.08681 71.7292 1.18271 71.7946C1.27861 71.8929 1.40647 71.9583 1.56629 71.9911C1.69415 72.0238 1.85398 72.0566 2.0138 72.0566C2.30149 72.0566 2.55721 72.0893 2.81293 72.1875C3.06865 72.2857 3.29241 72.3839 3.45223 72.5476C3.61206 72.7113 3.77189 72.9077 3.89975 73.1369C3.99564 73.3661 4.05957 73.628 4.05957 73.9226C4.05957 74.2173 3.99564 74.4792 3.89975 74.6756C3.80385 74.9048 3.64403 75.0685 3.45223 75.2321C3.26044 75.3958 3.03669 75.4941 2.78097 75.5595C2.52525 75.625 2.26952 75.6577 1.98184 75.6577C1.91791 75.6577 1.82201 75.6577 1.66219 75.625C1.50236 75.5923 1.31057 75.5595 1.11878 75.4613C0.926989 75.3631 0.735198 75.2321 0.511442 75.0685C0.319651 74.9048 0.159826 74.6429 0.0319651 74.3482C0 74.3155 0 74.25 0 74.1845C0 74.0863 0.0319651 74.0208 0.0958954 73.9554C0.159826 73.8899 0.223756 73.8571 0.319651 73.8571C0.415547 73.8571 0.479477 73.8899 0.543407 73.9554C0.575372 73.9881 0.639303 74.0863 0.671268 74.1845Z" fill="#0C4978"/>
<path d="M4.50714 72.6786C4.50714 72.4494 4.53911 72.253 4.635 72.0565C4.69893 71.8601 4.82679 71.6964 4.95465 71.5655C5.08251 71.4345 5.2743 71.3036 5.43413 71.2381C5.62592 71.1726 5.81771 71.1071 6.04147 71.1071C6.23326 71.1071 6.45701 71.1399 6.6488 71.2381C6.84059 71.3036 7.00042 71.4345 7.12828 71.5655C7.25614 71.6964 7.384 71.8601 7.44793 72.0565C7.54383 72.253 7.57579 72.4494 7.57579 72.6786V73.9226C7.57579 74.119 7.54383 74.3482 7.44793 74.5119C7.35204 74.6756 7.25614 74.872 7.12828 75.003C7.00042 75.1339 6.80863 75.2649 6.6488 75.3304C6.45701 75.3958 6.26522 75.4613 6.04147 75.4613C5.81771 75.4613 5.62592 75.4286 5.43413 75.3304C5.24234 75.2649 5.08251 75.1339 4.95465 75.003C4.82679 74.872 4.69893 74.7083 4.635 74.5119C4.53911 74.3155 4.50714 74.119 4.50714 73.9226V72.6786ZM5.84968 69.7649C5.88164 69.7321 5.94557 69.7321 6.0095 69.7321C6.07343 69.7321 6.13736 69.7649 6.20129 69.7976L6.77666 70.2232C6.87256 70.2887 6.93649 70.3869 6.93649 70.4851C6.93649 70.5833 6.90452 70.6488 6.84059 70.7143C6.77666 70.7797 6.68077 70.8125 6.61684 70.8125C6.55291 70.8125 6.48898 70.7798 6.42505 70.747L6.04147 70.4851L5.68985 70.747C5.62592 70.7798 5.56199 70.8125 5.49806 70.8125C5.40216 70.8125 5.33823 70.7797 5.2743 70.7143C5.21037 70.6488 5.17841 70.5833 5.17841 70.4851C5.17841 70.3869 5.21037 70.2887 5.30627 70.2232L5.84968 69.7649ZM5.14644 73.9226C5.14644 74.0536 5.17841 74.1518 5.21037 74.2827C5.24234 74.3809 5.30627 74.4792 5.40216 74.5774C5.49806 74.6756 5.56199 74.7411 5.68985 74.7738C5.78575 74.8065 5.91361 74.8393 6.04147 74.8393C6.16933 74.8393 6.29719 74.8065 6.39308 74.7738C6.48898 74.7411 6.58487 74.6756 6.68077 74.5774C6.77666 74.4792 6.84059 74.3809 6.87256 74.2827C6.90452 74.1845 6.93649 74.0536 6.93649 73.9226V72.6786C6.93649 72.5476 6.90452 72.4494 6.87256 72.3184C6.80863 72.2202 6.7447 72.122 6.68077 72.0238C6.61684 71.9256 6.52094 71.8601 6.39308 71.8274C6.29719 71.7946 6.16933 71.7619 6.04147 71.7619C5.91361 71.7619 5.78575 71.7946 5.68985 71.8274C5.59395 71.8601 5.49806 71.9256 5.40216 72.0238C5.30627 72.122 5.24234 72.2202 5.21037 72.3184C5.17841 72.4167 5.14644 72.5476 5.14644 72.6786V73.9226ZM6.87256 68.7827C6.93649 68.6845 7.03239 68.619 7.16025 68.619C7.25614 68.619 7.32007 68.6518 7.384 68.7172C7.44793 68.7827 7.4799 68.8482 7.4799 68.9464C7.4799 69.0119 7.4799 69.0774 7.44793 69.1101L7.09632 69.7321C7.03239 69.8303 6.93649 69.8958 6.84059 69.8958C6.7447 69.8958 6.6488 69.8631 6.61684 69.7976C6.55291 69.7321 6.52094 69.6667 6.52094 69.5684C6.52094 69.503 6.55291 69.4702 6.58487 69.4047L6.87256 68.7827Z" fill="#0C4978"/>
<path d="M8.08722 72.6786C8.08722 72.4494 8.11918 72.253 8.21508 72.0565C8.31098 71.8601 8.40687 71.6964 8.53473 71.5655C8.66259 71.4345 8.85438 71.3036 9.01421 71.2381C9.206 71.1726 9.39779 71.1071 9.62155 71.1071C9.81334 71.1071 10.0371 71.1399 10.2289 71.2381C10.4207 71.3036 10.5805 71.4345 10.7084 71.5655C10.8362 71.6964 10.9641 71.8601 11.028 72.0565C11.1239 72.253 11.1559 72.4494 11.1559 72.6786V75.1339C11.1559 75.2321 11.1239 75.2976 11.06 75.3631C10.996 75.4286 10.9321 75.4613 10.8362 75.4613C10.7403 75.4613 10.6764 75.4286 10.6125 75.3631C10.5485 75.2976 10.5166 75.2321 10.5166 75.1339V72.6786C10.5166 72.5476 10.4846 72.4494 10.4526 72.3184C10.3887 72.2202 10.3248 72.122 10.2608 72.0238C10.1969 71.9256 10.101 71.8601 9.97316 71.8274C9.87727 71.7946 9.74941 71.7619 9.62155 71.7619C9.49369 71.7619 9.36582 71.7946 9.26993 71.8274C9.17403 71.8601 9.07814 71.9256 8.98224 72.0238C8.88635 72.122 8.82242 72.2202 8.79045 72.3184C8.75849 72.4167 8.72652 72.5476 8.72652 72.6786V75.1339C8.72652 75.2321 8.69456 75.2976 8.63063 75.3631C8.5667 75.4286 8.50277 75.4613 8.40687 75.4613C8.31098 75.4613 8.24705 75.4286 8.18311 75.3631C8.11918 75.2976 8.08722 75.2321 8.08722 75.1339V72.6786Z" fill="#0C4978"/>
<path d="M11.5714 72.6786C11.5714 72.4494 11.6033 72.253 11.6992 72.0565C11.7951 71.8601 11.891 71.6964 12.0189 71.5655C12.1467 71.4345 12.3385 71.3036 12.4983 71.2381C12.6901 71.1726 12.8819 71.1071 13.1057 71.1071C13.2975 71.1071 13.5212 71.1399 13.713 71.2381C13.9048 71.3036 14.0646 71.4345 14.1925 71.5655C14.3204 71.6964 14.4482 71.8601 14.5121 72.0565C14.608 72.253 14.64 72.4494 14.64 72.6786V75.4286C14.64 75.6577 14.608 75.8542 14.5121 76.0506C14.4162 76.247 14.3204 76.4107 14.1925 76.5417C14.0646 76.6726 13.9048 76.8036 13.713 76.869C13.5212 76.9345 13.3294 77 13.1057 77C13.0098 77 12.9459 76.9673 12.8819 76.9018C12.818 76.8363 12.786 76.7708 12.786 76.6726C12.786 76.5744 12.818 76.5089 12.8819 76.4435C12.9459 76.378 13.0098 76.3452 13.1057 76.3452C13.2335 76.3452 13.3294 76.3125 13.4573 76.2798C13.5532 76.247 13.6491 76.1815 13.745 76.0833C13.8089 75.9851 13.8728 75.8869 13.9368 75.7887C14.0007 75.6905 14.0007 75.5595 14.0007 75.4286V75.1994C13.745 75.3958 13.4253 75.494 13.1057 75.494C12.8819 75.494 12.6901 75.4613 12.4983 75.3631C12.3065 75.2976 12.1467 75.1667 12.0189 75.0357C11.891 74.9048 11.7631 74.7411 11.6992 74.5446C11.6033 74.3482 11.5714 74.1518 11.5714 73.9554V72.6786ZM12.2426 73.9226C12.2426 74.0536 12.2746 74.1518 12.3065 74.2827C12.3385 74.3809 12.4024 74.4792 12.4983 74.5774C12.5942 74.6756 12.6582 74.7411 12.786 74.7738C12.8819 74.8065 13.0098 74.8393 13.1376 74.8393C13.2655 74.8393 13.3614 74.8065 13.4893 74.7738C13.5852 74.7411 13.681 74.6756 13.7769 74.5774C13.8409 74.5119 13.9048 74.4137 13.9687 74.3155C14.0327 74.2173 14.0327 74.0863 14.0646 73.9881V72.6786C14.0646 72.5476 14.0327 72.4494 14.0007 72.3184C13.9368 72.2202 13.8728 72.122 13.8089 72.0238C13.745 71.9256 13.6491 71.8601 13.5212 71.8274C13.4253 71.7946 13.2975 71.7619 13.1696 71.7619C13.0417 71.7619 12.9139 71.7946 12.818 71.8274C12.7221 71.8601 12.6262 71.9256 12.5303 72.0238C12.4344 72.122 12.3705 72.2202 12.3385 72.3184C12.3065 72.4167 12.2746 72.5476 12.2746 72.6786V73.9226H12.2426Z" fill="#0C4978"/>
<path d="M24.1976 70.0595C24.1976 69.9613 24.2295 69.8958 24.2935 69.8303C24.3574 69.7649 24.4213 69.7321 24.5172 69.7321C24.6131 69.7321 24.677 69.7649 24.741 69.8303C24.8049 69.8958 24.8369 69.9613 24.8369 70.0595V71.1726H26.4991C26.595 71.1726 26.6589 71.2053 26.7228 71.2708C26.7867 71.3363 26.8187 71.4018 26.8187 71.5C26.8187 71.5982 26.7867 71.6637 26.7228 71.7292C26.6589 71.7946 26.595 71.8274 26.4991 71.8274H24.8369V73.9554C24.8369 74.0863 24.8688 74.1845 24.9008 74.3155C24.9328 74.4137 24.9967 74.5119 25.0926 74.6101C25.1885 74.7083 25.2524 74.7738 25.3803 74.8065C25.4762 74.8393 25.604 74.872 25.7319 74.872C25.9237 74.872 26.0835 74.8065 26.2114 74.7083C26.3712 74.6101 26.4671 74.4792 26.531 74.2827C26.563 74.2173 26.595 74.1845 26.6589 74.119C26.7228 74.0863 26.7548 74.0536 26.8507 74.0536C26.9466 74.0536 27.0105 74.0863 27.0744 74.1518C27.1384 74.2173 27.1703 74.2827 27.1703 74.3809C27.1703 74.4137 27.1703 74.4464 27.1384 74.5119C27.0105 74.7738 26.8826 74.9702 26.7228 75.1012C26.563 75.2321 26.4032 75.3304 26.2753 75.3958C26.1155 75.4613 25.9876 75.494 25.8917 75.494C25.7958 75.494 25.7319 75.494 25.7319 75.494C25.5081 75.494 25.3163 75.4613 25.1246 75.3631C24.9328 75.2976 24.7729 75.1667 24.6451 75.0357C24.5172 74.9048 24.3894 74.7411 24.3254 74.5446C24.2295 74.3482 24.1976 74.1518 24.1976 73.9554V70.0595Z" fill="#0C4978"/>
<path d="M27.49 69.9613C27.49 69.8631 27.522 69.7976 27.5859 69.7321C27.6498 69.6667 27.7137 69.6339 27.8096 69.6339C27.9055 69.6339 27.9695 69.6667 28.0334 69.7321C28.0973 69.7976 28.1293 69.8631 28.1293 69.9613V70.2232C28.1293 70.3214 28.0973 70.3869 28.0334 70.4524C27.9695 70.5179 27.9055 70.5506 27.8096 70.5506C27.7137 70.5506 27.6498 70.5179 27.5859 70.4524C27.522 70.3869 27.49 70.3214 27.49 70.2232V69.9613ZM27.49 71.4673C27.49 71.369 27.522 71.3036 27.5859 71.2381C27.6498 71.1726 27.7137 71.1399 27.8096 71.1399C27.9055 71.1399 27.9695 71.1726 28.0334 71.2381C28.0973 71.3036 28.1293 71.369 28.1293 71.4673V75.1339C28.1293 75.2321 28.0973 75.2976 28.0334 75.3631C27.9695 75.4286 27.9055 75.4613 27.8096 75.4613C27.7137 75.4613 27.6498 75.4286 27.5859 75.3631C27.522 75.2976 27.49 75.2321 27.49 75.1339V71.4673Z" fill="#0C4978"/>
<path d="M28.6728 72.6786C28.6728 72.4494 28.7047 72.253 28.8006 72.0565C28.8646 71.8601 28.9924 71.6964 29.1203 71.5655C29.2481 71.4345 29.4399 71.3036 29.5998 71.2381C29.7916 71.1726 29.9833 71.1071 30.2071 71.1071C30.3989 71.1071 30.6226 71.1399 30.8144 71.2381C31.0062 71.3036 31.1661 71.4345 31.2939 71.5655C31.4218 71.6964 31.5496 71.8601 31.6136 72.0565C31.7095 72.253 31.7414 72.4494 31.7414 72.6786V73.3006C31.7414 73.3988 31.7095 73.4643 31.6455 73.5298C31.5816 73.5952 31.5177 73.628 31.4218 73.628H29.3121V73.9226C29.3121 74.0536 29.344 74.1518 29.376 74.2827C29.408 74.3809 29.4719 74.4792 29.5678 74.5774C29.6637 74.6756 29.7276 74.7411 29.8555 74.7738C29.9514 74.8065 30.0792 74.8393 30.2071 74.8393C30.3989 74.8393 30.5587 74.8065 30.6866 74.7083C30.8464 74.6101 30.9423 74.4792 31.0062 74.3155V74.2827C31.0382 74.2173 31.0702 74.1845 31.1341 74.119C31.198 74.0863 31.2619 74.0536 31.3259 74.0536C31.4218 74.0536 31.4857 74.0863 31.5496 74.1518C31.6136 74.2173 31.6455 74.2827 31.6455 74.3809C31.6455 74.4137 31.6455 74.4464 31.6136 74.5119L31.5816 74.5446C31.4537 74.8065 31.2939 75.0357 31.0382 75.2321C30.7825 75.4286 30.4948 75.494 30.1751 75.494C29.9514 75.494 29.7596 75.4613 29.5678 75.3631C29.376 75.2976 29.2162 75.1667 29.0883 75.0357C28.9605 74.9048 28.8326 74.7411 28.7687 74.5446C28.6728 74.3482 28.6408 74.1518 28.6408 73.9554V72.6786H28.6728ZM30.0153 69.7649C30.0473 69.7321 30.1112 69.7321 30.1751 69.7321C30.2391 69.7321 30.303 69.7649 30.3669 69.7976L30.9423 70.2232C31.0382 70.2887 31.1021 70.3869 31.1021 70.4851C31.1021 70.5833 31.0702 70.6488 31.0062 70.7143C30.9423 70.7798 30.8464 70.8125 30.7825 70.8125C30.7185 70.8125 30.6546 70.7798 30.5907 70.747L30.2071 70.4851L29.8555 70.747C29.7916 70.7798 29.7276 70.8125 29.6637 70.8125C29.5678 70.8125 29.5039 70.7798 29.4399 70.7143C29.376 70.6488 29.344 70.5833 29.344 70.4851C29.344 70.3869 29.376 70.2887 29.4719 70.2232L30.0153 69.7649ZM29.3121 72.9732H31.1021V72.6786C31.1021 72.5476 31.0702 72.4494 31.0382 72.3184C30.9743 72.2202 30.9103 72.122 30.8464 72.0238C30.7825 71.9256 30.6866 71.8601 30.5587 71.8274C30.4628 71.7946 30.335 71.7619 30.2071 71.7619C30.0792 71.7619 29.9514 71.7946 29.8555 71.8274C29.7596 71.8601 29.6637 71.9256 29.5678 72.0238C29.4719 72.122 29.408 72.2202 29.376 72.3184C29.344 72.4167 29.3121 72.5476 29.3121 72.6786V72.9732Z" fill="#0C4978"/>
<path d="M32.2528 71.4673C32.2528 71.3691 32.2848 71.3036 32.3487 71.2381C32.4126 71.1726 32.4766 71.1399 32.5725 71.1399C32.6684 71.1399 32.7323 71.1726 32.7962 71.2381C32.8601 71.3036 32.8921 71.3691 32.8921 71.4673V73.9226C32.8921 74.0536 32.9241 74.1518 32.956 74.2827C32.988 74.4137 33.0519 74.4792 33.1478 74.5774C33.2437 74.6756 33.3396 74.7411 33.4355 74.7738C33.5314 74.8065 33.6593 74.8393 33.7871 74.8393C33.915 74.8393 34.0109 74.8065 34.1388 74.7738C34.2346 74.7411 34.3305 74.6756 34.4264 74.5774C34.4904 74.4792 34.5543 74.381 34.6182 74.2827C34.6822 74.1845 34.6822 74.0536 34.6822 73.9226V71.4673C34.6822 71.3691 34.7141 71.3036 34.7781 71.2381C34.842 71.1726 34.9059 71.1399 35.0018 71.1399C35.0977 71.1399 35.1616 71.1726 35.2256 71.2381C35.2895 71.3036 35.3215 71.3691 35.3215 71.4673V73.9226C35.3215 74.1191 35.2895 74.3482 35.1936 74.5119C35.0977 74.7083 35.0018 74.872 34.8739 75.003C34.7461 75.1339 34.5863 75.2649 34.3945 75.3304C34.2027 75.3958 34.0109 75.4613 33.7871 75.4613C33.5634 75.4613 33.3716 75.4286 33.1798 75.3304C32.988 75.2649 32.8282 75.1339 32.7003 75.003C32.5725 74.872 32.4446 74.7083 32.3807 74.5119C32.3167 74.3155 32.2528 74.1191 32.2528 73.9226V71.4673Z" fill="#0C4978"/>
<path d="M40.3719 69.9613C40.3719 69.8631 40.4039 69.7976 40.4678 69.7321C40.5317 69.6667 40.5957 69.6339 40.6916 69.6339C40.7875 69.6339 40.8514 69.6667 40.9153 69.7321C40.9793 69.7976 41.0112 69.8631 41.0112 69.9613V73.9553C41.0112 74.1518 40.9793 74.3809 40.8834 74.5446C40.7875 74.7411 40.6916 74.9048 40.5637 75.0357C40.4358 75.1667 40.276 75.2976 40.0842 75.3631C39.8924 75.4286 39.7006 75.494 39.4769 75.494C39.2531 75.494 39.0613 75.4613 38.8696 75.3631C38.6778 75.2976 38.5179 75.1667 38.3901 75.0357C38.2622 74.9048 38.1344 74.7411 38.0704 74.5446C38.0065 74.3482 37.9426 74.1518 37.9426 73.9553V72.6786C37.9426 72.4494 37.9745 72.253 38.0704 72.0565C38.1663 71.8601 38.2622 71.6964 38.3901 71.5655C38.5179 71.4345 38.6778 71.3036 38.8696 71.2381C39.0613 71.1726 39.2531 71.1071 39.4769 71.1071C39.6367 71.1071 39.7965 71.1399 39.9564 71.1726C40.1162 71.2381 40.2441 71.3036 40.3719 71.4018V69.9613ZM38.5819 73.9226C38.5819 74.0536 38.6138 74.1518 38.6458 74.2827C38.6778 74.3809 38.7417 74.4792 38.8376 74.5774C38.9335 74.6756 39.0294 74.7411 39.1253 74.7738C39.2212 74.8065 39.349 74.8393 39.4769 74.8393C39.6048 74.8393 39.7006 74.8065 39.8285 74.7738C39.9244 74.7411 40.0203 74.6756 40.1162 74.5774C40.1801 74.4792 40.2441 74.3809 40.308 74.2827C40.3719 74.1845 40.3719 74.0536 40.3719 73.9226V72.6786C40.3719 72.5476 40.34 72.4494 40.308 72.3184C40.276 72.2202 40.2121 72.122 40.1162 72.0238C40.0203 71.9256 39.9244 71.8601 39.8285 71.8274C39.7326 71.7946 39.6048 71.7619 39.4769 71.7619C39.349 71.7619 39.2531 71.7946 39.1253 71.8274C39.0294 71.8601 38.9335 71.9256 38.8376 72.0238C38.7417 72.122 38.7097 72.2202 38.6458 72.3184C38.6138 72.4167 38.5819 72.5476 38.5819 72.6786V73.9226Z" fill="#0C4978"/>
<path d="M41.5547 71.4673C41.5547 71.369 41.5867 71.3036 41.6506 71.2381C41.7145 71.1726 41.7784 71.1399 41.8743 71.1399C41.9702 71.1399 42.0342 71.1726 42.0981 71.2381C42.162 71.3036 42.194 71.369 42.194 71.4673V73.9226C42.194 74.0536 42.226 74.1518 42.2579 74.2827C42.2899 74.4137 42.3538 74.4792 42.4497 74.5774C42.5456 74.6756 42.6415 74.7411 42.7374 74.7738C42.8333 74.8065 42.9612 74.8393 43.089 74.8393C43.2169 74.8393 43.3128 74.8065 43.4406 74.7738C43.5365 74.7411 43.6324 74.6756 43.7283 74.5774C43.7923 74.4792 43.8562 74.3809 43.9201 74.2827C43.984 74.1845 43.984 74.0536 43.984 73.9226V71.4673C43.984 71.369 44.016 71.3036 44.0799 71.2381C44.1439 71.1726 44.2078 71.1399 44.3037 71.1399C44.3996 71.1399 44.4635 71.1726 44.5275 71.2381C44.5914 71.3036 44.6233 71.369 44.6233 71.4673V73.9226C44.6233 74.119 44.5914 74.3482 44.4955 74.5119C44.3996 74.7083 44.3037 74.872 44.1758 75.003C44.048 75.1339 43.8881 75.2649 43.6964 75.3304C43.5046 75.3958 43.3128 75.4613 43.089 75.4613C42.8653 75.4613 42.6735 75.4286 42.4817 75.3304C42.2899 75.2649 42.1301 75.1339 42.0022 75.003C41.8743 74.872 41.7465 74.7083 41.6825 74.5119C41.6186 74.3155 41.5547 74.119 41.5547 73.9226V71.4673ZM42.4817 69.8304C42.4497 69.7649 42.4177 69.7321 42.4177 69.6667C42.4177 69.5684 42.4497 69.503 42.5136 69.4375C42.5776 69.372 42.6415 69.3393 42.7374 69.3393C42.8653 69.3393 42.9612 69.4048 42.9931 69.503L43.3447 70.125C43.3767 70.1905 43.3767 70.2232 43.3767 70.2887C43.3767 70.3869 43.3447 70.4524 43.2808 70.5178C43.2169 70.5833 43.1529 70.6161 43.0571 70.6161C42.9292 70.6161 42.8333 70.5506 42.7694 70.4524L42.4817 69.8304Z" fill="#0C4978"/>
<path d="M45.1987 72.6786C45.1987 72.4494 45.2306 72.253 45.3265 72.0565C45.4224 71.8601 45.5183 71.6964 45.6462 71.5655C45.774 71.4345 45.9658 71.3036 46.1257 71.2381C46.3174 71.1726 46.5092 71.1071 46.733 71.1071C46.9248 71.1071 47.1485 71.1399 47.3403 71.2381C47.5321 71.3036 47.6919 71.4345 47.8198 71.5655C47.9477 71.6964 48.0755 71.8601 48.1395 72.0565C48.2354 72.253 48.2673 72.4494 48.2673 72.6786V75.1339C48.2673 75.2321 48.2353 75.2976 48.1714 75.3631C48.1075 75.4286 48.0436 75.4613 47.9477 75.4613C47.8518 75.4613 47.7878 75.4286 47.7239 75.3631C47.66 75.2976 47.628 75.2321 47.628 75.1339V72.6786C47.628 72.5476 47.5961 72.4494 47.5641 72.3184C47.5002 72.2202 47.4362 72.122 47.3723 72.0238C47.3084 71.9256 47.2125 71.8601 47.0846 71.8274C46.9887 71.7946 46.8609 71.7619 46.733 71.7619C46.6051 71.7619 46.4773 71.7946 46.3814 71.8274C46.2855 71.8601 46.1896 71.9256 46.0937 72.0238C45.9978 72.122 45.9339 72.2202 45.9019 72.3184C45.8699 72.4167 45.838 72.5476 45.838 72.6786V75.1339C45.838 75.2321 45.806 75.2976 45.7421 75.3631C45.6781 75.4286 45.6142 75.4613 45.5183 75.4613C45.4224 75.4613 45.3585 75.4286 45.2946 75.3631C45.2306 75.2976 45.1987 75.2321 45.1987 75.1339V72.6786Z" fill="#0C4978"/>
<path d="M48.6829 72.6786C48.6829 72.4494 48.7148 72.253 48.8107 72.0565C48.9066 71.8601 49.0025 71.6964 49.1304 71.5655C49.2582 71.4345 49.45 71.3036 49.6098 71.2381C49.8016 71.1726 49.9934 71.1071 50.2172 71.1071C50.409 71.1071 50.6327 71.1399 50.8245 71.2381C51.0163 71.3036 51.1761 71.4345 51.304 71.5655C51.4318 71.6964 51.5597 71.8601 51.6236 72.0565C51.7195 72.253 51.7515 72.4494 51.7515 72.6786V75.4286C51.7515 75.6577 51.7195 75.8542 51.6236 76.0506C51.5277 76.247 51.4318 76.4107 51.304 76.5417C51.1761 76.6726 51.0163 76.8036 50.8245 76.869C50.6327 76.9345 50.4409 77 50.2172 77C50.1213 77 50.0574 76.9673 49.9934 76.9018C49.9295 76.8363 49.8975 76.7708 49.8975 76.6726C49.8975 76.5744 49.9295 76.5089 49.9934 76.4435C50.0574 76.378 50.1213 76.3452 50.2172 76.3452C50.345 76.3452 50.4409 76.3125 50.5688 76.2798C50.6647 76.247 50.7606 76.1815 50.8565 76.0833C50.9204 75.9851 50.9843 75.8869 51.0483 75.7887C51.1122 75.6905 51.1122 75.5595 51.1122 75.4286V75.1994C50.8565 75.3958 50.5368 75.494 50.2172 75.494C49.9934 75.494 49.8016 75.4613 49.6098 75.3631C49.4181 75.2976 49.2582 75.1667 49.1304 75.0357C49.0025 74.9048 48.8746 74.7411 48.8107 74.5446C48.7148 74.3482 48.6829 74.1518 48.6829 73.9554V72.6786ZM49.3222 73.9226C49.3222 74.0536 49.3541 74.1518 49.3861 74.2827C49.4181 74.3809 49.482 74.4792 49.5779 74.5774C49.6738 74.6756 49.7377 74.7411 49.8656 74.7738C49.9615 74.8065 50.0893 74.8393 50.2172 74.8393C50.345 74.8393 50.4409 74.8065 50.5688 74.7738C50.6647 74.7411 50.7606 74.6756 50.8565 74.5774C50.9204 74.5119 50.9843 74.4137 51.0483 74.3155C51.1122 74.2173 51.1122 74.0863 51.1442 73.9881V72.6786C51.1442 72.5476 51.1122 72.4494 51.0802 72.3184C51.0163 72.2202 50.9524 72.122 50.8884 72.0238C50.8245 71.9256 50.7286 71.8601 50.6008 71.8274C50.5049 71.7946 50.377 71.7619 50.2491 71.7619C50.1213 71.7619 49.9934 71.7946 49.8975 71.8274C49.8016 71.8601 49.7057 71.9256 49.6098 72.0238C49.5139 72.122 49.45 72.2202 49.4181 72.3184C49.3861 72.4167 49.3541 72.5476 49.3541 72.6786V73.9226H49.3222Z" fill="#0C4978"/>
<path d="M54.5326 70.0595C54.5326 69.9613 54.5646 69.8958 54.6285 69.8303C54.6924 69.7649 54.7563 69.7321 54.8522 69.7321C54.9481 69.7321 55.0121 69.7649 55.076 69.8303C55.1399 69.8958 55.1719 69.9613 55.1719 70.0595V71.1726H56.8341C56.93 71.1726 56.9939 71.2053 57.0578 71.2708C57.1218 71.3363 57.1537 71.4018 57.1537 71.5C57.1537 71.5982 57.1218 71.6637 57.0578 71.7292C56.9939 71.7946 56.93 71.8274 56.8341 71.8274H55.1719V73.9554C55.1719 74.0863 55.2039 74.1845 55.2358 74.3155C55.2678 74.4137 55.3317 74.5119 55.4276 74.6101C55.5235 74.7083 55.5874 74.7738 55.7153 74.8065C55.8112 74.8393 55.939 74.872 56.0669 74.872C56.2587 74.872 56.4185 74.8065 56.5464 74.7083C56.7062 74.6101 56.8021 74.4792 56.866 74.2827C56.898 74.2173 56.93 74.1845 56.9939 74.119C57.0578 74.0863 57.0898 74.0536 57.1857 74.0536C57.2816 74.0536 57.3455 74.0863 57.4094 74.1518C57.4734 74.2173 57.5053 74.2827 57.5053 74.3809C57.5053 74.4137 57.5053 74.4464 57.4734 74.5119C57.3455 74.7738 57.2176 74.9702 57.0578 75.1012C56.898 75.2321 56.7382 75.3304 56.6103 75.3958C56.4505 75.4613 56.3226 75.494 56.2267 75.494C56.1308 75.494 56.0669 75.494 56.0669 75.494C55.8432 75.494 55.6514 75.4613 55.4596 75.3631C55.2678 75.2976 55.108 75.1667 54.9801 75.0357C54.8522 74.9048 54.7244 74.7411 54.6605 74.5446C54.5646 74.3482 54.5326 74.1518 54.5326 73.9554V70.0595Z" fill="#0C4978"/>
<path d="M57.8569 69.9613C57.8569 69.8631 57.8888 69.7976 57.9528 69.7321C58.0167 69.6667 58.0806 69.6339 58.1765 69.6339C58.2724 69.6339 58.3363 69.6667 58.4003 69.7321C58.4642 69.7976 58.4962 69.8631 58.4962 69.9613V71.4345C58.624 71.3363 58.7519 71.2708 58.9117 71.2054C59.0715 71.1399 59.2314 71.1399 59.3912 71.1399C59.583 71.1399 59.8067 71.1726 59.9985 71.2708C60.1903 71.3363 60.3501 71.4673 60.478 71.5982C60.6059 71.7292 60.7337 71.8929 60.7977 72.0893C60.8616 72.2857 60.9255 72.4821 60.9255 72.7113V75.1667C60.9255 75.2649 60.8935 75.3304 60.8296 75.3958C60.7657 75.4613 60.7018 75.494 60.6059 75.494C60.51 75.494 60.446 75.4613 60.3821 75.3958C60.3182 75.3304 60.2862 75.2649 60.2862 75.1667V72.6786C60.2862 72.5476 60.2542 72.4494 60.2223 72.3184C60.1584 72.2202 60.0944 72.122 60.0305 72.0238C59.9666 71.9256 59.8707 71.8601 59.7428 71.8274C59.6469 71.7946 59.5191 71.7619 59.3912 71.7619C59.2633 71.7619 59.1674 71.7946 59.0396 71.8274C58.9437 71.8601 58.8478 71.9256 58.7519 72.0238C58.656 72.122 58.5921 72.1875 58.5601 72.2857C58.5281 72.3839 58.4962 72.5149 58.4962 72.6131V75.1012C58.4962 75.1994 58.4642 75.2649 58.4003 75.3304C58.3363 75.3958 58.2724 75.4286 58.1765 75.4286C58.0806 75.4286 58.0167 75.3958 57.9528 75.3304C57.8888 75.2649 57.8569 75.1994 57.8569 75.1012V72.5804V69.9613Z" fill="#0C4978"/>
<path d="M61.2772 72.6786C61.2772 72.4494 61.3092 72.253 61.4051 72.0565C61.469 71.8601 61.5969 71.6964 61.7247 71.5655C61.8526 71.4345 62.0444 71.3036 62.2042 71.2381C62.396 71.1726 62.5878 71.1071 62.8115 71.1071C63.0033 71.1071 63.2271 71.1399 63.4189 71.2381C63.6107 71.3036 63.7705 71.4345 63.8984 71.5655C64.0262 71.6964 64.1541 71.8601 64.218 72.0565C64.3139 72.253 64.3459 72.4494 64.3459 72.6786V73.9226C64.3459 74.119 64.3139 74.3482 64.218 74.5119C64.1221 74.6756 64.0262 74.872 63.8984 75.003C63.7705 75.1339 63.5787 75.2649 63.4189 75.3304C63.2271 75.3958 63.0353 75.4613 62.8115 75.4613C62.5878 75.4613 62.396 75.4286 62.2042 75.3304C62.0124 75.2649 61.8526 75.1339 61.7247 75.003C61.5969 74.872 61.469 74.7083 61.4051 74.5119C61.3092 74.3155 61.2772 74.119 61.2772 73.9226V72.6786ZM62.6517 69.7649C62.6837 69.7321 62.7476 69.7321 62.8115 69.7321C62.8755 69.7321 62.9394 69.7649 63.0033 69.7976L63.5787 70.2232C63.6746 70.2887 63.7385 70.3869 63.7385 70.4851C63.7385 70.5833 63.7066 70.6488 63.6426 70.7143C63.5787 70.7798 63.4828 70.8125 63.4189 70.8125C63.3549 70.8125 63.291 70.7798 63.2271 70.747L62.8435 70.4851L62.4919 70.747C62.428 70.7798 62.364 70.8125 62.3001 70.8125C62.2042 70.8125 62.1403 70.7798 62.0763 70.7143C62.0124 70.6488 61.9805 70.5833 61.9805 70.4851C61.9805 70.3869 62.0124 70.2887 62.1083 70.2232L62.6517 69.7649ZM61.9485 73.9226C61.9485 74.0536 61.9805 74.1518 62.0124 74.2827C62.0444 74.3809 62.1083 74.4792 62.2042 74.5774C62.3001 74.6756 62.364 74.7411 62.4919 74.7738C62.5878 74.8065 62.7157 74.8393 62.8435 74.8393C62.9714 74.8393 63.0992 74.8065 63.1951 74.7738C63.291 74.7411 63.3869 74.6756 63.4828 74.5774C63.5787 74.4792 63.6426 74.3809 63.6746 74.2827C63.7066 74.1845 63.7385 74.0536 63.7385 73.9226V72.6786C63.7385 72.5476 63.7066 72.4494 63.6746 72.3184C63.6107 72.2202 63.5467 72.122 63.4828 72.0238C63.4189 71.9256 63.323 71.8601 63.1951 71.8274C63.0992 71.7946 62.9714 71.7619 62.8435 71.7619C62.7157 71.7619 62.5878 71.7946 62.4919 71.8274C62.396 71.8601 62.3001 71.9256 62.2042 72.0238C62.1083 72.122 62.0444 72.2202 62.0124 72.3184C61.9805 72.4167 61.9485 72.5476 61.9485 72.6786V73.9226Z" fill="#0C4978"/>
<path d="M64.8892 72.6786C64.8892 72.4494 64.9212 72.253 65.0171 72.0565C65.113 71.8601 65.2089 71.6964 65.3367 71.5655C65.4646 71.4345 65.6564 71.3036 65.8162 71.2381C66.008 71.1726 66.1998 71.1071 66.4235 71.1071C66.6153 71.1071 66.8391 71.1399 67.0309 71.2381C67.2227 71.3036 67.3825 71.4345 67.5104 71.5655C67.6382 71.6964 67.7661 71.8601 67.83 72.0565C67.9259 72.253 67.9579 72.4494 67.9579 72.6786V75.1339C67.9579 75.2321 67.9259 75.2976 67.862 75.3631C67.7981 75.4286 67.7341 75.4613 67.6382 75.4613C67.5423 75.4613 67.4784 75.4286 67.4145 75.3631C67.3505 75.2976 67.3186 75.2321 67.3186 75.1339V72.6786C67.3186 72.5476 67.2866 72.4494 67.2546 72.3184C67.1907 72.2202 67.1268 72.122 67.0629 72.0238C66.9989 71.9256 66.903 71.8601 66.7752 71.8274C66.6793 71.7946 66.5514 71.7619 66.4235 71.7619C66.2957 71.7619 66.1678 71.7946 66.0719 71.8274C65.976 71.8601 65.8801 71.9256 65.7842 72.0238C65.6884 72.122 65.6244 72.2202 65.5925 72.3184C65.5605 72.4167 65.5285 72.5476 65.5285 72.6786V75.1339C65.5285 75.2321 65.4966 75.2976 65.4326 75.3631C65.3687 75.4286 65.3048 75.4613 65.2089 75.4613C65.113 75.4613 65.049 75.4286 64.9851 75.3631C64.9212 75.2976 64.8892 75.2321 64.8892 75.1339V72.6786Z" fill="#0C4978"/>
<path d="M68.3734 72.6786C68.3734 72.4494 68.4053 72.253 68.5012 72.0565C68.5971 71.8601 68.693 71.6964 68.8209 71.5655C68.9487 71.4345 69.1405 71.3036 69.3003 71.2381C69.4921 71.1726 69.6839 71.1071 69.9077 71.1071C70.0995 71.1071 70.3232 71.1399 70.515 71.2381C70.7068 71.3036 70.8666 71.4345 70.9945 71.5655C71.1224 71.6964 71.2502 71.8601 71.3142 72.0565C71.41 72.253 71.442 72.4494 71.442 72.6786V75.4286C71.442 75.6577 71.41 75.8542 71.3142 76.0506C71.2183 76.247 71.1224 76.4107 70.9945 76.5417C70.8666 76.6726 70.7068 76.8036 70.515 76.869C70.3232 76.9345 70.1314 77 69.9077 77C69.8118 77 69.7479 76.9673 69.6839 76.9018C69.62 76.8363 69.588 76.7708 69.588 76.6726C69.588 76.5744 69.62 76.5089 69.6839 76.4435C69.7479 76.378 69.8118 76.3452 69.9077 76.3452C70.0355 76.3452 70.1314 76.3125 70.2593 76.2798C70.3552 76.247 70.4511 76.1815 70.547 76.0833C70.6109 75.9851 70.6748 75.8869 70.7388 75.7887C70.8027 75.6905 70.8027 75.5595 70.8027 75.4286V75.1994C70.547 75.3958 70.2273 75.494 69.9077 75.494C69.6839 75.494 69.4921 75.4613 69.3003 75.3631C69.1086 75.2976 68.9487 75.1667 68.8209 75.0357C68.693 74.9048 68.5651 74.7411 68.5012 74.5446C68.4053 74.3482 68.3734 74.1518 68.3734 73.9554V72.6786ZM69.0127 73.9226C69.0127 74.0536 69.0446 74.1518 69.0766 74.2827C69.1086 74.3809 69.1725 74.4792 69.2684 74.5774C69.3643 74.6756 69.4282 74.7411 69.5561 74.7738C69.652 74.8065 69.7798 74.8393 69.9077 74.8393C70.0355 74.8393 70.1314 74.8065 70.2593 74.7738C70.3552 74.7411 70.4511 74.6756 70.547 74.5774C70.6109 74.5119 70.6748 74.4137 70.7388 74.3155C70.8027 74.2173 70.8027 74.0863 70.8347 73.9881V72.6786C70.8347 72.5476 70.8027 72.4494 70.7707 72.3184C70.7068 72.2202 70.6429 72.122 70.579 72.0238C70.515 71.9256 70.4191 71.8601 70.2913 71.8274C70.1954 71.7946 70.0675 71.7619 69.9396 71.7619C69.8118 71.7619 69.6839 71.7946 69.588 71.8274C69.4921 71.8601 69.3962 71.9256 69.3003 72.0238C69.2044 72.122 69.1405 72.2202 69.1086 72.3184C69.0766 72.4167 69.0446 72.5476 69.0446 72.6786V73.9226H69.0127Z" fill="#0C4978"/>
<path d="M74.2549 72.6786C74.2549 72.4494 74.2869 72.253 74.3508 72.0565C74.4148 71.8601 74.5107 71.6964 74.6385 71.5655C74.7664 71.4345 74.9262 71.3036 75.086 71.2381C75.2459 71.1726 75.4696 71.1071 75.6614 71.1071C75.8852 71.1071 76.1089 71.1726 76.3007 71.2708C76.4925 71.369 76.6523 71.5 76.7802 71.6637C76.908 71.5 77.0679 71.369 77.2597 71.2708C77.4514 71.1726 77.6752 71.1071 77.899 71.1071C78.1227 71.1071 78.3145 71.1399 78.4743 71.2381C78.6661 71.3036 78.794 71.4345 78.9218 71.5655C79.0497 71.6964 79.1456 71.8601 79.2095 72.0565C79.2735 72.253 79.3054 72.4494 79.3054 72.6786V75.1339C79.3054 75.2321 79.2735 75.2976 79.2095 75.3631C79.1456 75.4286 79.0817 75.4613 78.9858 75.4613C78.8899 75.4613 78.8259 75.4286 78.762 75.3631C78.6981 75.2976 78.6661 75.2321 78.6661 75.1339V72.6786C78.6661 72.4167 78.6022 72.2202 78.4424 72.0238C78.2825 71.8601 78.0908 71.7619 77.867 71.7619C77.6113 71.7619 77.4195 71.8601 77.2597 72.0238C77.1318 72.1875 77.0359 72.4167 77.0359 72.6786V75.1339C77.0359 75.2321 77.0039 75.2976 76.94 75.3631C76.8761 75.4286 76.8121 75.4613 76.7163 75.4613C76.6204 75.4613 76.5564 75.4286 76.4925 75.3631C76.4286 75.2976 76.3966 75.2321 76.3966 75.1339V72.6786C76.3966 72.4167 76.3327 72.2202 76.1728 72.0238C76.013 71.8601 75.8212 71.7619 75.5975 71.7619C75.3418 71.7619 75.15 71.8601 74.9901 72.0238C74.8623 72.1875 74.7664 72.4167 74.7664 72.6786V75.1339C74.7664 75.2321 74.7344 75.2976 74.6705 75.3631C74.6066 75.4286 74.5426 75.4613 74.4467 75.4613C74.3508 75.4613 74.2869 75.4286 74.223 75.3631C74.159 75.2976 74.1271 75.2321 74.1271 75.1339V72.6786H74.2549Z" fill="#0C4978"/>
<path d="M79.9768 69.9613C79.9768 69.8631 80.0088 69.7976 80.0727 69.7321C80.1366 69.6667 80.2006 69.6339 80.2965 69.6339C80.3924 69.6339 80.4563 69.6667 80.5202 69.7321C80.5841 69.7976 80.6161 69.8631 80.6161 69.9613V70.2232C80.6161 70.3214 80.5841 70.3869 80.5202 70.4524C80.4563 70.5179 80.3924 70.5506 80.2965 70.5506C80.2006 70.5506 80.1366 70.5179 80.0727 70.4524C80.0088 70.3869 79.9768 70.3214 79.9768 70.2232V69.9613ZM79.9768 71.4673C79.9768 71.369 80.0088 71.3036 80.0727 71.2381C80.1366 71.1726 80.2006 71.1399 80.2965 71.1399C80.3924 71.1399 80.4563 71.1726 80.5202 71.2381C80.5841 71.3036 80.6161 71.369 80.6161 71.4673V75.1339C80.6161 75.2321 80.5841 75.2976 80.5202 75.3631C80.4563 75.4286 80.3924 75.4613 80.2965 75.4613C80.2006 75.4613 80.1366 75.4286 80.0727 75.3631C80.0088 75.2976 79.9768 75.2321 79.9768 75.1339V71.4673Z" fill="#0C4978"/>
<path d="M81.2234 72.6786C81.2234 72.4494 81.2554 72.253 81.3513 72.0565C81.4472 71.8601 81.5431 71.6964 81.671 71.5655C81.7988 71.4345 81.9906 71.3036 82.1504 71.2381C82.3422 71.1726 82.534 71.1071 82.7578 71.1071C82.9496 71.1071 83.1733 71.1399 83.3651 71.2381C83.5569 71.3036 83.7167 71.4345 83.8446 71.5655C83.9725 71.6964 84.1003 71.8601 84.1642 72.0565C84.2601 72.253 84.2921 72.4494 84.2921 72.6786V75.1339C84.2921 75.2321 84.2601 75.2976 84.1962 75.3631C84.1323 75.4286 84.0684 75.4613 83.9725 75.4613C83.8766 75.4613 83.8126 75.4286 83.7487 75.3631C83.6848 75.2976 83.6528 75.2321 83.6528 75.1339V72.6786C83.6528 72.5476 83.6208 72.4494 83.5889 72.3184C83.5249 72.2202 83.461 72.122 83.3971 72.0238C83.3332 71.9256 83.2373 71.8601 83.1094 71.8274C83.0135 71.7946 82.8856 71.7619 82.7578 71.7619C82.6299 71.7619 82.5021 71.7946 82.4062 71.8274C82.3103 71.8601 82.2144 71.9256 82.1185 72.0238C82.0226 72.122 81.9586 72.2202 81.9267 72.3184C81.8947 72.4167 81.8628 72.5476 81.8628 72.6786V75.1339C81.8628 75.2321 81.8308 75.2976 81.7669 75.3631C81.7029 75.4286 81.639 75.4613 81.5431 75.4613C81.4472 75.4613 81.3833 75.4286 81.3193 75.3631C81.2554 75.2976 81.2234 75.2321 81.2234 75.1339V72.6786Z" fill="#0C4978"/>
<path d="M84.8674 69.9613C84.8674 69.8631 84.8994 69.7976 84.9633 69.7321C85.0273 69.6667 85.0912 69.6339 85.1871 69.6339C85.283 69.6339 85.3469 69.6667 85.4108 69.7321C85.4748 69.7976 85.5067 69.8631 85.5067 69.9613V71.4345C85.6346 71.3363 85.7625 71.2708 85.9223 71.2054C86.0821 71.1399 86.2419 71.1399 86.4018 71.1399C86.5935 71.1399 86.8173 71.1726 87.0091 71.2708C87.2009 71.3363 87.3607 71.4673 87.4886 71.5982C87.6164 71.7292 87.7443 71.8929 87.8082 72.0893C87.8722 72.2857 87.9361 72.4821 87.9361 72.7113V75.1667C87.9361 75.2649 87.9041 75.3304 87.8402 75.3958C87.7763 75.4613 87.7123 75.494 87.6164 75.494C87.5205 75.494 87.4566 75.4613 87.3927 75.3958C87.3287 75.3304 87.2968 75.2649 87.2968 75.1667V72.6786C87.2968 72.5476 87.2648 72.4494 87.2329 72.3184C87.1689 72.2202 87.105 72.122 87.0411 72.0238C86.9771 71.9256 86.8812 71.8601 86.7534 71.8274C86.6575 71.7946 86.5296 71.7619 86.4018 71.7619C86.2739 71.7619 86.178 71.7946 86.0501 71.8274C85.9543 71.8601 85.8583 71.9256 85.7625 72.0238C85.6666 72.122 85.6026 72.1875 85.5707 72.2857C85.5387 72.3839 85.5067 72.5149 85.5067 72.6131V75.1012C85.5067 75.1994 85.4748 75.2649 85.4108 75.3304C85.3469 75.3958 85.283 75.4286 85.1871 75.4286C85.0912 75.4286 85.0273 75.3958 84.9633 75.3304C84.8994 75.2649 84.8674 75.1994 84.8674 75.1012V72.5804V69.9613Z" fill="#0C4978"/>
<path d="M21.2568 74.3482L22.1199 75.4286H21.3527L20.9052 74.872C20.7134 75.1012 20.5216 75.2649 20.3298 75.3631C20.1061 75.494 19.8184 75.5595 19.4668 75.5595C18.9233 75.5595 18.5398 75.3958 18.284 75.0357C18.0923 74.8065 18.0283 74.5119 18.0283 74.2173C18.0283 73.8571 18.0922 73.5625 18.2521 73.3661C18.4119 73.1369 18.6996 72.9077 19.1471 72.6458C18.9553 72.4167 18.8274 72.2202 18.7635 72.0893C18.6676 71.9256 18.6357 71.7292 18.6357 71.5327C18.6357 71.2381 18.7316 70.9762 18.9233 70.747C19.1471 70.5179 19.4348 70.4196 19.7864 70.4196C20.138 70.4196 20.4257 70.5179 20.6175 70.747C20.7773 70.9435 20.8732 71.1726 20.8732 71.4345C20.8732 71.7292 20.7773 72.0238 20.5855 72.253C20.4577 72.3839 20.2659 72.5476 20.0102 72.744L20.9052 73.8244C20.9691 73.6607 21.0011 73.5625 21.033 73.4643C21.065 73.3661 21.065 73.2351 21.097 73.0387H21.6723C21.6723 73.2024 21.6404 73.3988 21.5764 73.628C21.4806 73.8571 21.3847 74.0863 21.2568 74.3482ZM20.5536 74.4464L19.4668 73.0714C19.1471 73.2679 18.9553 73.4315 18.8594 73.5625C18.6996 73.7262 18.6357 73.9554 18.6357 74.1845C18.6357 74.4464 18.7635 74.6756 18.9873 74.8393C19.1471 74.9702 19.3389 75.003 19.5307 75.003C19.9462 75.003 20.2978 74.8065 20.5536 74.4464ZM19.6585 72.3512C19.8503 72.2202 19.9782 72.122 20.0421 72.0238C20.17 71.8601 20.2659 71.6964 20.2659 71.5C20.2659 71.3036 20.2019 71.1399 20.0741 71.0744C19.9782 71.0089 19.8823 70.9762 19.7544 70.9762C19.5307 70.9762 19.3709 71.0417 19.275 71.1726C19.211 71.2708 19.1791 71.369 19.1791 71.5C19.1791 71.631 19.243 71.7946 19.3389 71.9911C19.4348 72.122 19.5626 72.253 19.6585 72.3512Z" fill="#0C4978"/>
<defs>
<linearGradient id="paint0_linear" x1="-3.30377" y1="28.3269" x2="32.7092" y2="46.3392" gradientUnits="userSpaceOnUse">
<stop stop-color="#12C3F4"/>
<stop offset="1" stop-color="#00346F"/>
</linearGradient>
<linearGradient id="paint1_linear" x1="0.621708" y1="35.0874" x2="21.8738" y2="45.7168" gradientUnits="userSpaceOnUse">
<stop stop-color="#12C3F4"/>
<stop offset="1" stop-color="#00346F"/>
</linearGradient>
<linearGradient id="paint2_linear" x1="26.1556" y1="37.9985" x2="2.10393" y2="43.9807" gradientUnits="userSpaceOnUse">
<stop stop-color="#52CAF5"/>
<stop offset="1" stop-color="#00346F"/>
</linearGradient>
<linearGradient id="paint3_linear" x1="136.543" y1="7.67658" x2="-22.9144" y2="53.4133" gradientUnits="userSpaceOnUse">
<stop stop-color="white"/>
<stop offset="0.1728" stop-color="#FBFDFF"/>
<stop offset="0.2717" stop-color="#F1FAFE"/>
<stop offset="0.352" stop-color="#E2F4FD"/>
<stop offset="0.4223" stop-color="#CEEDFC"/>
<stop offset="0.4861" stop-color="#B2E3FA"/>
<stop offset="0.5451" stop-color="#8ED8F8"/>
<stop offset="0.6005" stop-color="#5CCCF5"/>
<stop offset="0.6517" stop-color="#00BFF3"/>
<stop offset="0.6751" stop-color="#00B9F2"/>
<stop offset="0.7211" stop-color="#00B6ED"/>
<stop offset="0.7646" stop-color="#00AFE4"/>
<stop offset="0.8071" stop-color="#00A5D6"/>
<stop offset="0.849" stop-color="#0096C3"/>
<stop offset="0.8905" stop-color="#0082A9"/>
<stop offset="0.9316" stop-color="#00698A"/>
<stop offset="0.9717" stop-color="#004C66"/>
<stop offset="1" stop-color="#003044"/>
</linearGradient>
<linearGradient id="paint4_linear" x1="138.178" y1="13.3749" x2="-21.2799" y2="59.112" gradientUnits="userSpaceOnUse">
<stop stop-color="white"/>
<stop offset="0.1728" stop-color="#FBFDFF"/>
<stop offset="0.2717" stop-color="#F1FAFE"/>
<stop offset="0.352" stop-color="#E2F4FD"/>
<stop offset="0.4223" stop-color="#CEEDFC"/>
<stop offset="0.4861" stop-color="#B2E3FA"/>
<stop offset="0.5451" stop-color="#8ED8F8"/>
<stop offset="0.6005" stop-color="#5CCCF5"/>
<stop offset="0.6517" stop-color="#00BFF3"/>
<stop offset="0.6751" stop-color="#00B9F2"/>
<stop offset="0.7211" stop-color="#00B6ED"/>
<stop offset="0.7646" stop-color="#00AFE4"/>
<stop offset="0.8071" stop-color="#00A5D6"/>
<stop offset="0.849" stop-color="#0096C3"/>
<stop offset="0.8905" stop-color="#0082A9"/>
<stop offset="0.9316" stop-color="#00698A"/>
<stop offset="0.9717" stop-color="#004C66"/>
<stop offset="1" stop-color="#003044"/>
</linearGradient>
<linearGradient id="paint5_linear" x1="134.787" y1="1.55299" x2="-24.6708" y2="47.2898" gradientUnits="userSpaceOnUse">
<stop stop-color="white"/>
<stop offset="0.1728" stop-color="#FBFDFF"/>
<stop offset="0.2717" stop-color="#F1FAFE"/>
<stop offset="0.352" stop-color="#E2F4FD"/>
<stop offset="0.4223" stop-color="#CEEDFC"/>
<stop offset="0.4861" stop-color="#B2E3FA"/>
<stop offset="0.5451" stop-color="#8ED8F8"/>
<stop offset="0.6005" stop-color="#5CCCF5"/>
<stop offset="0.6517" stop-color="#00BFF3"/>
<stop offset="0.6751" stop-color="#00B9F2"/>
<stop offset="0.7211" stop-color="#00B6ED"/>
<stop offset="0.7646" stop-color="#00AFE4"/>
<stop offset="0.8071" stop-color="#00A5D6"/>
<stop offset="0.849" stop-color="#0096C3"/>
<stop offset="0.8905" stop-color="#0082A9"/>
<stop offset="0.9316" stop-color="#00698A"/>
<stop offset="0.9717" stop-color="#004C66"/>
<stop offset="1" stop-color="#003044"/>
</linearGradient>
<linearGradient id="paint6_linear" x1="138.213" y1="13.4988" x2="-21.2444" y2="59.2357" gradientUnits="userSpaceOnUse">
<stop stop-color="white"/>
<stop offset="0.1728" stop-color="#FBFDFF"/>
<stop offset="0.2717" stop-color="#F1FAFE"/>
<stop offset="0.352" stop-color="#E2F4FD"/>
<stop offset="0.4223" stop-color="#CEEDFC"/>
<stop offset="0.4861" stop-color="#B2E3FA"/>
<stop offset="0.5451" stop-color="#8ED8F8"/>
<stop offset="0.6005" stop-color="#5CCCF5"/>
<stop offset="0.6517" stop-color="#00BFF3"/>
<stop offset="0.6751" stop-color="#00B9F2"/>
<stop offset="0.7211" stop-color="#00B6ED"/>
<stop offset="0.7646" stop-color="#00AFE4"/>
<stop offset="0.8071" stop-color="#00A5D6"/>
<stop offset="0.849" stop-color="#0096C3"/>
<stop offset="0.8905" stop-color="#0082A9"/>
<stop offset="0.9316" stop-color="#00698A"/>
<stop offset="0.9717" stop-color="#004C66"/>
<stop offset="1" stop-color="#003044"/>
</linearGradient>
<linearGradient id="paint7_linear" x1="128.654" y1="-19.8277" x2="-30.8034" y2="25.9089" gradientUnits="userSpaceOnUse">
<stop stop-color="white"/>
<stop offset="0.1728" stop-color="#FBFDFF"/>
<stop offset="0.2717" stop-color="#F1FAFE"/>
<stop offset="0.352" stop-color="#E2F4FD"/>
<stop offset="0.4223" stop-color="#CEEDFC"/>
<stop offset="0.4861" stop-color="#B2E3FA"/>
<stop offset="0.5451" stop-color="#8ED8F8"/>
<stop offset="0.6005" stop-color="#5CCCF5"/>
<stop offset="0.6517" stop-color="#00BFF3"/>
<stop offset="0.6751" stop-color="#00B9F2"/>
<stop offset="0.7211" stop-color="#00B6ED"/>
<stop offset="0.7646" stop-color="#00AFE4"/>
<stop offset="0.8071" stop-color="#00A5D6"/>
<stop offset="0.849" stop-color="#0096C3"/>
<stop offset="0.8905" stop-color="#0082A9"/>
<stop offset="0.9316" stop-color="#00698A"/>
<stop offset="0.9717" stop-color="#004C66"/>
<stop offset="1" stop-color="#003044"/>
</linearGradient>
<linearGradient id="paint8_linear" x1="131.79" y1="-8.89415" x2="-27.6674" y2="36.8426" gradientUnits="userSpaceOnUse">
<stop stop-color="white"/>
<stop offset="0.1728" stop-color="#FBFDFF"/>
<stop offset="0.2717" stop-color="#F1FAFE"/>
<stop offset="0.352" stop-color="#E2F4FD"/>
<stop offset="0.4223" stop-color="#CEEDFC"/>
<stop offset="0.4861" stop-color="#B2E3FA"/>
<stop offset="0.5451" stop-color="#8ED8F8"/>
<stop offset="0.6005" stop-color="#5CCCF5"/>
<stop offset="0.6517" stop-color="#00BFF3"/>
<stop offset="0.6751" stop-color="#00B9F2"/>
<stop offset="0.7211" stop-color="#00B6ED"/>
<stop offset="0.7646" stop-color="#00AFE4"/>
<stop offset="0.8071" stop-color="#00A5D6"/>
<stop offset="0.849" stop-color="#0096C3"/>
<stop offset="0.8905" stop-color="#0082A9"/>
<stop offset="0.9316" stop-color="#00698A"/>
<stop offset="0.9717" stop-color="#004C66"/>
<stop offset="1" stop-color="#003044"/>
</linearGradient>
<linearGradient id="paint9_linear" x1="126.16" y1="-28.5226" x2="-33.2973" y2="17.2141" gradientUnits="userSpaceOnUse">
<stop stop-color="white"/>
<stop offset="0.1728" stop-color="#FBFDFF"/>
<stop offset="0.2717" stop-color="#F1FAFE"/>
<stop offset="0.352" stop-color="#E2F4FD"/>
<stop offset="0.4223" stop-color="#CEEDFC"/>
<stop offset="0.4861" stop-color="#B2E3FA"/>
<stop offset="0.5451" stop-color="#8ED8F8"/>
<stop offset="0.6005" stop-color="#5CCCF5"/>
<stop offset="0.6517" stop-color="#00BFF3"/>
<stop offset="0.6751" stop-color="#00B9F2"/>
<stop offset="0.7211" stop-color="#00B6ED"/>
<stop offset="0.7646" stop-color="#00AFE4"/>
<stop offset="0.8071" stop-color="#00A5D6"/>
<stop offset="0.849" stop-color="#0096C3"/>
<stop offset="0.8905" stop-color="#0082A9"/>
<stop offset="0.9316" stop-color="#00698A"/>
<stop offset="0.9717" stop-color="#004C66"/>
<stop offset="1" stop-color="#003044"/>
</linearGradient>
<linearGradient id="paint10_linear" x1="129.989" y1="-15.1743" x2="-29.4686" y2="30.5625" gradientUnits="userSpaceOnUse">
<stop stop-color="white"/>
<stop offset="0.1728" stop-color="#FBFDFF"/>
<stop offset="0.2717" stop-color="#F1FAFE"/>
<stop offset="0.352" stop-color="#E2F4FD"/>
<stop offset="0.4223" stop-color="#CEEDFC"/>
<stop offset="0.4861" stop-color="#B2E3FA"/>
<stop offset="0.5451" stop-color="#8ED8F8"/>
<stop offset="0.6005" stop-color="#5CCCF5"/>
<stop offset="0.6517" stop-color="#00BFF3"/>
<stop offset="0.6751" stop-color="#00B9F2"/>
<stop offset="0.7211" stop-color="#00B6ED"/>
<stop offset="0.7646" stop-color="#00AFE4"/>
<stop offset="0.8071" stop-color="#00A5D6"/>
<stop offset="0.849" stop-color="#0096C3"/>
<stop offset="0.8905" stop-color="#0082A9"/>
<stop offset="0.9316" stop-color="#00698A"/>
<stop offset="0.9717" stop-color="#004C66"/>
<stop offset="1" stop-color="#003044"/>
</linearGradient>
<linearGradient id="paint11_linear" x1="127.757" y1="-22.9567" x2="-31.7008" y2="22.7801" gradientUnits="userSpaceOnUse">
<stop stop-color="white"/>
<stop offset="0.1728" stop-color="#FBFDFF"/>
<stop offset="0.2717" stop-color="#F1FAFE"/>
<stop offset="0.352" stop-color="#E2F4FD"/>
<stop offset="0.4223" stop-color="#CEEDFC"/>
<stop offset="0.4861" stop-color="#B2E3FA"/>
<stop offset="0.5451" stop-color="#8ED8F8"/>
<stop offset="0.6005" stop-color="#5CCCF5"/>
<stop offset="0.6517" stop-color="#00BFF3"/>
<stop offset="0.6751" stop-color="#00B9F2"/>
<stop offset="0.7211" stop-color="#00B6ED"/>
<stop offset="0.7646" stop-color="#00AFE4"/>
<stop offset="0.8071" stop-color="#00A5D6"/>
<stop offset="0.849" stop-color="#0096C3"/>
<stop offset="0.8905" stop-color="#0082A9"/>
<stop offset="0.9316" stop-color="#00698A"/>
<stop offset="0.9717" stop-color="#004C66"/>
<stop offset="1" stop-color="#003044"/>
</linearGradient>
<linearGradient id="paint12_linear" x1="135.021" y1="2.36863" x2="-24.4368" y2="48.1053" gradientUnits="userSpaceOnUse">
<stop stop-color="white"/>
<stop offset="0.1728" stop-color="#FBFDFF"/>
<stop offset="0.2717" stop-color="#F1FAFE"/>
<stop offset="0.352" stop-color="#E2F4FD"/>
<stop offset="0.4223" stop-color="#CEEDFC"/>
<stop offset="0.4861" stop-color="#B2E3FA"/>
<stop offset="0.5451" stop-color="#8ED8F8"/>
<stop offset="0.6005" stop-color="#5CCCF5"/>
<stop offset="0.6517" stop-color="#00BFF3"/>
<stop offset="0.6751" stop-color="#00B9F2"/>
<stop offset="0.7211" stop-color="#00B6ED"/>
<stop offset="0.7646" stop-color="#00AFE4"/>
<stop offset="0.8071" stop-color="#00A5D6"/>
<stop offset="0.849" stop-color="#0096C3"/>
<stop offset="0.8905" stop-color="#0082A9"/>
<stop offset="0.9316" stop-color="#00698A"/>
<stop offset="0.9717" stop-color="#004C66"/>
<stop offset="1" stop-color="#003044"/>
</linearGradient>
<linearGradient id="paint13_linear" x1="134.994" y1="2.27329" x2="-24.4642" y2="48.0101" gradientUnits="userSpaceOnUse">
<stop stop-color="white"/>
<stop offset="0.1728" stop-color="#FBFDFF"/>
<stop offset="0.2717" stop-color="#F1FAFE"/>
<stop offset="0.352" stop-color="#E2F4FD"/>
<stop offset="0.4223" stop-color="#CEEDFC"/>
<stop offset="0.4861" stop-color="#B2E3FA"/>
<stop offset="0.5451" stop-color="#8ED8F8"/>
<stop offset="0.6005" stop-color="#5CCCF5"/>
<stop offset="0.6517" stop-color="#00BFF3"/>
<stop offset="0.6751" stop-color="#00B9F2"/>
<stop offset="0.7211" stop-color="#00B6ED"/>
<stop offset="0.7646" stop-color="#00AFE4"/>
<stop offset="0.8071" stop-color="#00A5D6"/>
<stop offset="0.849" stop-color="#0096C3"/>
<stop offset="0.8905" stop-color="#0082A9"/>
<stop offset="0.9316" stop-color="#00698A"/>
<stop offset="0.9717" stop-color="#004C66"/>
<stop offset="1" stop-color="#003044"/>
</linearGradient>
<linearGradient id="paint14_linear" x1="131.612" y1="-9.51867" x2="-27.847" y2="36.2192" gradientUnits="userSpaceOnUse">
<stop stop-color="white"/>
<stop offset="0.1728" stop-color="#FBFDFF"/>
<stop offset="0.2717" stop-color="#F1FAFE"/>
<stop offset="0.352" stop-color="#E2F4FD"/>
<stop offset="0.4223" stop-color="#CEEDFC"/>
<stop offset="0.4861" stop-color="#B2E3FA"/>
<stop offset="0.5451" stop-color="#8ED8F8"/>
<stop offset="0.6005" stop-color="#5CCCF5"/>
<stop offset="0.6517" stop-color="#00BFF3"/>
<stop offset="0.6751" stop-color="#00B9F2"/>
<stop offset="0.7211" stop-color="#00B6ED"/>
<stop offset="0.7646" stop-color="#00AFE4"/>
<stop offset="0.8071" stop-color="#00A5D6"/>
<stop offset="0.849" stop-color="#0096C3"/>
<stop offset="0.8905" stop-color="#0082A9"/>
<stop offset="0.9316" stop-color="#00698A"/>
<stop offset="0.9717" stop-color="#004C66"/>
<stop offset="1" stop-color="#003044"/>
</linearGradient>
<linearGradient id="paint15_linear" x1="133.586" y1="-2.62945" x2="-25.8689" y2="43.1052" gradientUnits="userSpaceOnUse">
<stop stop-color="white"/>
<stop offset="0.1728" stop-color="#FBFDFF"/>
<stop offset="0.2717" stop-color="#F1FAFE"/>
<stop offset="0.352" stop-color="#E2F4FD"/>
<stop offset="0.4223" stop-color="#CEEDFC"/>
<stop offset="0.4861" stop-color="#B2E3FA"/>
<stop offset="0.5451" stop-color="#8ED8F8"/>
<stop offset="0.6005" stop-color="#5CCCF5"/>
<stop offset="0.6517" stop-color="#00BFF3"/>
<stop offset="0.6751" stop-color="#00B9F2"/>
<stop offset="0.7211" stop-color="#00B6ED"/>
<stop offset="0.7646" stop-color="#00AFE4"/>
<stop offset="0.8071" stop-color="#00A5D6"/>
<stop offset="0.849" stop-color="#0096C3"/>
<stop offset="0.8905" stop-color="#0082A9"/>
<stop offset="0.9316" stop-color="#00698A"/>
<stop offset="0.9717" stop-color="#004C66"/>
<stop offset="1" stop-color="#003044"/>
</linearGradient>
<linearGradient id="paint16_linear" x1="132.766" y1="-5.49283" x2="-26.6918" y2="40.244" gradientUnits="userSpaceOnUse">
<stop stop-color="white"/>
<stop offset="0.1728" stop-color="#FBFDFF"/>
<stop offset="0.2717" stop-color="#F1FAFE"/>
<stop offset="0.352" stop-color="#E2F4FD"/>
<stop offset="0.4223" stop-color="#CEEDFC"/>
<stop offset="0.4861" stop-color="#B2E3FA"/>
<stop offset="0.5451" stop-color="#8ED8F8"/>
<stop offset="0.6005" stop-color="#5CCCF5"/>
<stop offset="0.6517" stop-color="#00BFF3"/>
<stop offset="0.6751" stop-color="#00B9F2"/>
<stop offset="0.7211" stop-color="#00B6ED"/>
<stop offset="0.7646" stop-color="#00AFE4"/>
<stop offset="0.8071" stop-color="#00A5D6"/>
<stop offset="0.849" stop-color="#0096C3"/>
<stop offset="0.8905" stop-color="#0082A9"/>
<stop offset="0.9316" stop-color="#00698A"/>
<stop offset="0.9717" stop-color="#004C66"/>
<stop offset="1" stop-color="#003044"/>
</linearGradient>
<linearGradient id="paint17_linear" x1="130.873" y1="-12.0925" x2="-28.5846" y2="33.6441" gradientUnits="userSpaceOnUse">
<stop stop-color="white"/>
<stop offset="0.1728" stop-color="#FBFDFF"/>
<stop offset="0.2717" stop-color="#F1FAFE"/>
<stop offset="0.352" stop-color="#E2F4FD"/>
<stop offset="0.4223" stop-color="#CEEDFC"/>
<stop offset="0.4861" stop-color="#B2E3FA"/>
<stop offset="0.5451" stop-color="#8ED8F8"/>
<stop offset="0.6005" stop-color="#5CCCF5"/>
<stop offset="0.6517" stop-color="#00BFF3"/>
<stop offset="0.6751" stop-color="#00B9F2"/>
<stop offset="0.7211" stop-color="#00B6ED"/>
<stop offset="0.7646" stop-color="#00AFE4"/>
<stop offset="0.8071" stop-color="#00A5D6"/>
<stop offset="0.849" stop-color="#0096C3"/>
<stop offset="0.8905" stop-color="#0082A9"/>
<stop offset="0.9316" stop-color="#00698A"/>
<stop offset="0.9717" stop-color="#004C66"/>
<stop offset="1" stop-color="#003044"/>
</linearGradient>
<linearGradient id="paint18_linear" x1="132.137" y1="-7.68676" x2="-27.321" y2="38.05" gradientUnits="userSpaceOnUse">
<stop stop-color="white"/>
<stop offset="0.1728" stop-color="#FBFDFF"/>
<stop offset="0.2717" stop-color="#F1FAFE"/>
<stop offset="0.352" stop-color="#E2F4FD"/>
<stop offset="0.4223" stop-color="#CEEDFC"/>
<stop offset="0.4861" stop-color="#B2E3FA"/>
<stop offset="0.5451" stop-color="#8ED8F8"/>
<stop offset="0.6005" stop-color="#5CCCF5"/>
<stop offset="0.6517" stop-color="#00BFF3"/>
<stop offset="0.6751" stop-color="#00B9F2"/>
<stop offset="0.7211" stop-color="#00B6ED"/>
<stop offset="0.7646" stop-color="#00AFE4"/>
<stop offset="0.8071" stop-color="#00A5D6"/>
<stop offset="0.849" stop-color="#0096C3"/>
<stop offset="0.8905" stop-color="#0082A9"/>
<stop offset="0.9316" stop-color="#00698A"/>
<stop offset="0.9717" stop-color="#004C66"/>
<stop offset="1" stop-color="#003044"/>
</linearGradient>
<linearGradient id="paint19_linear" x1="128.829" y1="-19.222" x2="-30.6296" y2="26.5156" gradientUnits="userSpaceOnUse">
<stop stop-color="white"/>
<stop offset="0.1728" stop-color="#FBFDFF"/>
<stop offset="0.2717" stop-color="#F1FAFE"/>
<stop offset="0.352" stop-color="#E2F4FD"/>
<stop offset="0.4223" stop-color="#CEEDFC"/>
<stop offset="0.4861" stop-color="#B2E3FA"/>
<stop offset="0.5451" stop-color="#8ED8F8"/>
<stop offset="0.6005" stop-color="#5CCCF5"/>
<stop offset="0.6517" stop-color="#00BFF3"/>
<stop offset="0.6751" stop-color="#00B9F2"/>
<stop offset="0.7211" stop-color="#00B6ED"/>
<stop offset="0.7646" stop-color="#00AFE4"/>
<stop offset="0.8071" stop-color="#00A5D6"/>
<stop offset="0.849" stop-color="#0096C3"/>
<stop offset="0.8905" stop-color="#0082A9"/>
<stop offset="0.9316" stop-color="#00698A"/>
<stop offset="0.9717" stop-color="#004C66"/>
<stop offset="1" stop-color="#003044"/>
</linearGradient>
<linearGradient id="paint20_linear" x1="128.179" y1="-21.4855" x2="-31.2789" y2="24.2512" gradientUnits="userSpaceOnUse">
<stop stop-color="white"/>
<stop offset="0.1728" stop-color="#FBFDFF"/>
<stop offset="0.2717" stop-color="#F1FAFE"/>
<stop offset="0.352" stop-color="#E2F4FD"/>
<stop offset="0.4223" stop-color="#CEEDFC"/>
<stop offset="0.4861" stop-color="#B2E3FA"/>
<stop offset="0.5451" stop-color="#8ED8F8"/>
<stop offset="0.6005" stop-color="#5CCCF5"/>
<stop offset="0.6517" stop-color="#00BFF3"/>
<stop offset="0.6751" stop-color="#00B9F2"/>
<stop offset="0.7211" stop-color="#00B6ED"/>
<stop offset="0.7646" stop-color="#00AFE4"/>
<stop offset="0.8071" stop-color="#00A5D6"/>
<stop offset="0.849" stop-color="#0096C3"/>
<stop offset="0.8905" stop-color="#0082A9"/>
<stop offset="0.9316" stop-color="#00698A"/>
<stop offset="0.9717" stop-color="#004C66"/>
<stop offset="1" stop-color="#003044"/>
</linearGradient>
<linearGradient id="paint21_linear" x1="129.992" y1="-15.1617" x2="-29.4643" y2="30.574" gradientUnits="userSpaceOnUse">
<stop stop-color="white"/>
<stop offset="0.1728" stop-color="#FBFDFF"/>
<stop offset="0.2717" stop-color="#F1FAFE"/>
<stop offset="0.352" stop-color="#E2F4FD"/>
<stop offset="0.4223" stop-color="#CEEDFC"/>
<stop offset="0.4861" stop-color="#B2E3FA"/>
<stop offset="0.5451" stop-color="#8ED8F8"/>
<stop offset="0.6005" stop-color="#5CCCF5"/>
<stop offset="0.6517" stop-color="#00BFF3"/>
<stop offset="0.6751" stop-color="#00B9F2"/>
<stop offset="0.7211" stop-color="#00B6ED"/>
<stop offset="0.7646" stop-color="#00AFE4"/>
<stop offset="0.8071" stop-color="#00A5D6"/>
<stop offset="0.849" stop-color="#0096C3"/>
<stop offset="0.8905" stop-color="#0082A9"/>
<stop offset="0.9316" stop-color="#00698A"/>
<stop offset="0.9717" stop-color="#004C66"/>
<stop offset="1" stop-color="#003044"/>
</linearGradient>
</defs>
</svg>
