<svg width="100" height="93" viewBox="0 0 100 93" fill="none" xmlns="http://www.w3.org/2000/svg">
<path d="M53.3685 7.97902C53.3153 7.97902 53.2607 7.964 53.2115 7.93261C52.974 7.77971 52.7283 7.62682 52.4825 7.47803C52.346 7.39476 52.301 7.21729 52.3843 7.08078C52.4662 6.94427 52.645 6.89923 52.7815 6.9825C53.0327 7.13402 53.2839 7.28964 53.5255 7.44663C53.6606 7.53263 53.6989 7.71282 53.6115 7.8466C53.5569 7.93261 53.4641 7.97902 53.3685 7.97902Z" fill="#99D7FF"/>
<path d="M14.8578 50.0951C14.8114 50.0951 14.7636 50.0842 14.7199 50.061C14.0974 49.7252 13.5896 49.4453 13.2115 49.231C13.0722 49.1518 13.0231 48.9757 13.1023 48.8365C13.1814 48.6972 13.3589 48.6481 13.4968 48.7273C13.8722 48.9402 14.3773 49.2173 14.9956 49.5504C15.1362 49.6269 15.1895 49.8016 15.113 49.9436C15.0612 50.0405 14.9615 50.0951 14.8578 50.0951ZM11.2949 47.8973C11.2348 47.8973 11.1747 47.8782 11.1229 47.84C10.6574 47.4946 10.2001 47.1383 9.76324 46.7793C9.63901 46.6783 9.62127 46.4953 9.72365 46.3711C9.82467 46.2469 10.0076 46.2291 10.1318 46.3315C10.5618 46.6851 11.0109 47.0359 11.4682 47.3745C11.5966 47.47 11.6239 47.6516 11.5283 47.7799C11.471 47.8563 11.3836 47.8973 11.2949 47.8973ZM8.10055 45.204C8.0282 45.204 7.95585 45.1766 7.89988 45.1234C7.48353 44.7234 7.07537 44.3084 6.68904 43.8921C6.57984 43.7747 6.58666 43.5918 6.70406 43.4826C6.82146 43.3734 7.00438 43.3802 7.11359 43.4976C7.49309 43.9071 7.89169 44.3125 8.30122 44.7057C8.41589 44.8163 8.41998 45.0005 8.30941 45.1152C8.25208 45.1739 8.17563 45.204 8.10055 45.204ZM5.30347 42.1011C5.21747 42.1011 5.13147 42.0629 5.07414 41.9878C4.72058 41.5305 4.3793 41.0581 4.06124 40.5858C3.97251 40.4534 4.00663 40.2732 4.14041 40.1831C4.27283 40.0944 4.45302 40.1285 4.54312 40.2623C4.85436 40.7237 5.18744 41.1851 5.53281 41.6329C5.6311 41.7598 5.60789 41.9414 5.48094 42.0397C5.4277 42.0806 5.3649 42.1011 5.30347 42.1011ZM3.02786 38.5982C2.92411 38.5982 2.82446 38.5423 2.77259 38.4454C2.50093 37.9375 2.2443 37.4133 2.01087 36.8905C1.94534 36.7444 2.01087 36.5724 2.15693 36.5083C2.303 36.4428 2.475 36.5083 2.53916 36.6543C2.76713 37.1663 3.01694 37.6768 3.28177 38.1723C3.35685 38.3129 3.30498 38.489 3.16301 38.5641C3.12069 38.5873 3.07427 38.5982 3.02786 38.5982ZM1.39248 34.7541C1.26962 34.7541 1.15632 34.6763 1.11673 34.5535C0.940632 34.0061 0.782281 33.445 0.647137 32.8853C0.608914 32.7297 0.704471 32.5727 0.860091 32.5358C1.01571 32.499 1.1727 32.5945 1.20956 32.7488C1.34197 33.2948 1.49486 33.8422 1.66686 34.376C1.71601 34.5289 1.63273 34.6913 1.47984 34.7405C1.45118 34.7487 1.42115 34.7541 1.39248 34.7541ZM0.477865 30.6779C0.33453 30.6779 0.210306 30.5715 0.191195 30.4254C0.173449 30.2944 0.158433 30.1633 0.143417 30.0309C0.0929082 29.5913 0.0533205 29.1436 0.0273837 28.7013C0.017828 28.5416 0.139321 28.4051 0.299037 28.3941C0.457388 28.3846 0.595263 28.5061 0.604819 28.6658C0.630755 29.0972 0.668978 29.534 0.718122 29.964C0.733138 30.0923 0.748154 30.2206 0.7659 30.349C0.786376 30.5073 0.674438 30.6534 0.516087 30.6739C0.502437 30.6766 0.490151 30.6779 0.477865 30.6779ZM0.289482 26.5035C0.285387 26.5035 0.281291 26.5035 0.278561 26.5035C0.118845 26.4967 -0.00537861 26.3629 8.17694e-05 26.2032C0.0232884 25.6312 0.0656063 25.051 0.127036 24.4777C0.144782 24.318 0.286752 24.2033 0.446468 24.221C0.606184 24.2388 0.720852 24.3808 0.703105 24.5405C0.641676 25.1015 0.600723 25.668 0.578882 26.2264C0.573421 26.382 0.445103 26.5035 0.289482 26.5035ZM0.801392 22.3577C0.782281 22.3577 0.761805 22.3563 0.742693 22.3522C0.585707 22.3195 0.48469 22.1666 0.517453 22.0096C0.633486 21.4499 0.769995 20.8847 0.924251 20.3278C0.966569 20.1735 1.12628 20.0834 1.28054 20.1257C1.4348 20.1681 1.52489 20.3278 1.48257 20.482C1.33241 21.0267 1.19863 21.5796 1.08533 22.127C1.0553 22.2635 0.935171 22.3577 0.801392 22.3577ZM1.97128 18.347C1.93715 18.347 1.90302 18.3416 1.8689 18.3279C1.71874 18.2706 1.64366 18.104 1.70099 17.9539C1.90439 17.4188 2.12826 16.8809 2.36716 16.3581C2.43405 16.212 2.60468 16.1478 2.75075 16.2147C2.89681 16.2816 2.96097 16.4523 2.89408 16.5983C2.66065 17.1102 2.44087 17.6358 2.24293 18.16C2.19925 18.276 2.08868 18.347 1.97128 18.347ZM3.75546 14.5671C3.70631 14.5671 3.65717 14.5548 3.61212 14.5288C3.47288 14.4497 3.4251 14.2722 3.50428 14.1343C3.78822 13.6361 4.09264 13.1405 4.40797 12.66C4.49534 12.5262 4.67553 12.4894 4.80931 12.5768C4.94309 12.6641 4.97995 12.8443 4.89258 12.9781C4.5827 13.4491 4.28511 13.9337 4.008 14.421C3.95476 14.5152 3.85647 14.5671 3.75546 14.5671ZM6.10069 11.1079C6.03789 11.1079 5.97374 11.0874 5.9205 11.0451C5.79491 10.9455 5.77443 10.7639 5.87408 10.6383C6.23174 10.1892 6.6085 9.74554 6.99346 9.31963C7.1013 9.20087 7.28423 9.19268 7.40299 9.29915C7.52175 9.407 7.53131 9.58992 7.42347 9.70868C7.0467 10.125 6.67812 10.5591 6.32729 10.9987C6.26996 11.0711 6.18532 11.1079 6.10069 11.1079ZM8.94964 8.05009C8.87047 8.05009 8.79266 8.01733 8.73532 7.95453C8.62748 7.83577 8.63703 7.65285 8.7558 7.545C9.18307 7.15732 9.63219 6.78328 10.0881 6.43518C10.2151 6.33826 10.3966 6.36283 10.4949 6.48978C10.5918 6.61674 10.5673 6.79829 10.4403 6.89522C9.99667 7.23513 9.5612 7.59688 9.14485 7.97501C9.08888 8.02552 9.01926 8.05009 8.94964 8.05009ZM50.4649 6.3328C50.4212 6.3328 50.3775 6.32324 50.3366 6.30276C49.8383 6.05432 49.3209 5.81406 48.7995 5.58745C48.6521 5.52329 48.5852 5.35266 48.6493 5.20659C48.7135 5.05916 48.8841 4.99227 49.0302 5.05643C49.5612 5.28713 50.0881 5.53285 50.5946 5.78539C50.7379 5.85638 50.7966 6.03111 50.7243 6.17308C50.6738 6.2741 50.5714 6.3328 50.4649 6.3328ZM12.3132 5.5779C12.2136 5.5779 12.118 5.52739 12.0634 5.43456C11.9829 5.29669 12.0279 5.11922 12.1658 5.03732C12.6572 4.74792 13.1719 4.47353 13.6933 4.21963C13.838 4.15001 14.01 4.21007 14.081 4.3534C14.1507 4.49811 14.0906 4.67147 13.9473 4.74109C13.4381 4.98818 12.9384 5.25573 12.4593 5.53694C12.4143 5.56561 12.3637 5.5779 12.3132 5.5779ZM46.614 4.7056C46.5812 4.7056 46.5484 4.70014 46.517 4.68922C45.9901 4.5022 45.4482 4.32337 44.9035 4.1582C44.7506 4.11178 44.6646 3.94934 44.711 3.79645C44.7574 3.64355 44.9199 3.55755 45.0728 3.60397C45.6243 3.77187 46.1744 3.95343 46.7095 4.14318C46.8597 4.19642 46.9389 4.36296 46.8856 4.51312C46.8447 4.63189 46.7327 4.7056 46.614 4.7056ZM16.0986 3.81556C15.9799 3.81556 15.8679 3.74184 15.8256 3.62308C15.771 3.47292 15.8502 3.30638 16.0004 3.25314C16.5314 3.06202 17.087 2.88456 17.648 2.72484C17.8023 2.68116 17.962 2.76989 18.0057 2.92415C18.0494 3.0784 17.9606 3.23812 17.8064 3.2818C17.2576 3.43879 16.7157 3.61216 16.1956 3.79918C16.1642 3.8101 16.1314 3.81556 16.0986 3.81556ZM42.6047 3.51797C42.5828 3.51797 42.5596 3.51523 42.5364 3.50977C41.9958 3.37873 41.4375 3.2545 40.8765 3.13983C40.7195 3.10707 40.6185 2.95418 40.6499 2.79856C40.6813 2.64157 40.8342 2.54056 40.9911 2.57195C41.559 2.68799 42.1242 2.81357 42.6716 2.94735C42.8272 2.98558 42.9227 3.1412 42.8845 3.29682C42.8545 3.42923 42.7357 3.51797 42.6047 3.51797ZM20.1311 2.71938C19.996 2.71938 19.8745 2.62383 19.8472 2.48459C19.8172 2.3276 19.9195 2.17607 20.0765 2.14468C20.628 2.03683 21.2 1.94128 21.7788 1.85801C21.9358 1.83617 22.0832 1.94537 22.1064 2.10372C22.1283 2.26208 22.0191 2.40951 21.8607 2.43135C21.2915 2.51189 20.729 2.60745 20.1871 2.71256C20.168 2.71802 20.1489 2.71938 20.1311 2.71938ZM38.5026 2.71256C38.4876 2.71256 38.4725 2.71119 38.4575 2.70846C37.9033 2.62383 37.3354 2.54602 36.7703 2.4764C36.6119 2.45728 36.4986 2.31258 36.5177 2.15423C36.5368 1.99588 36.6829 1.88394 36.8399 1.90169C37.4105 1.97131 37.9838 2.05049 38.5449 2.13649C38.7032 2.16106 38.8111 2.30849 38.7879 2.46684C38.766 2.60881 38.6418 2.71256 38.5026 2.71256ZM34.3472 2.23068C34.339 2.23068 34.3308 2.23068 34.324 2.22931C33.7671 2.18426 33.1937 2.14604 32.6231 2.11464C32.4634 2.10645 32.3405 1.96994 32.3501 1.80886C32.3583 1.64915 32.4921 1.53038 32.6545 1.53584C33.2306 1.56724 33.808 1.60546 34.3704 1.65188C34.5301 1.66416 34.6489 1.80477 34.6366 1.96448C34.623 2.11601 34.496 2.23068 34.3472 2.23068ZM24.2756 2.16515C24.1268 2.16515 23.9998 2.05049 23.9875 1.89896C23.9752 1.73924 24.094 1.6 24.2523 1.58635C24.8066 1.54267 25.3854 1.50718 25.971 1.47987C26.128 1.47168 26.2659 1.59727 26.2727 1.75699C26.2795 1.91671 26.1553 2.05185 25.9956 2.05868C25.4168 2.08461 24.8448 2.11874 24.2974 2.16242C24.2919 2.16515 24.2837 2.16515 24.2756 2.16515ZM30.1673 2.02455C30.1646 2.02455 30.1632 2.02455 30.1605 2.02455C29.6063 2.01226 29.0643 2.00544 28.5483 2.00544H28.4555C28.2958 2.00544 28.1661 1.87575 28.1661 1.71604C28.1661 1.55632 28.2958 1.42664 28.4555 1.42664H28.5483C29.0684 1.42664 29.6144 1.4321 30.1741 1.44438C30.3338 1.44848 30.4608 1.58089 30.4581 1.74061C30.454 1.89896 30.3243 2.02455 30.1673 2.02455Z" fill="#99D7FF"/>
<path d="M43.1029 91.0274C63.9631 91.0274 80.8737 89.7287 80.8737 88.1266C80.8737 86.5245 63.9631 85.2258 43.1029 85.2258C22.2427 85.2258 5.33211 86.5245 5.33211 88.1266C5.33211 89.7287 22.2427 91.0274 43.1029 91.0274Z" fill="#F78500"/>
<path d="M55.8706 77.4598L53.1281 75.0054C51.9446 71.2773 51.3562 67.1069 52.2695 62.9993C52.2695 62.9993 55.2986 63.5809 58.5435 64.9678L60.0205 68.0488L60.7249 66.0244C62.2702 66.8735 63.7172 67.9219 64.7519 69.1955L63.9151 73.3918L65.9013 71.1421C66.061 71.5558 66.1771 71.9885 66.2426 72.4403C67.2569 79.3928 67.1108 88.0093 67.1108 88.0093H60.1311C60.1311 88.0093 56.8357 84.0259 54.3963 78.3812L55.8706 77.4598Z" fill="#217F91"/>
<path d="M59.944 85.1207C61.6367 85.9562 62.8462 85.963 63.2816 85.9289C61.1111 83.1045 59.2314 79.5238 57.7735 76.2995C57.6684 76.3049 57.566 76.3063 57.4636 76.3063C55.5607 76.3063 54.0713 75.5036 53.0134 74.6286C52.9738 74.4989 52.9356 74.3692 52.8974 74.2382C53.9717 75.2006 55.5729 76.1493 57.6766 76.0824C57.252 75.1364 56.8493 74.1904 56.4616 73.2321C54.8658 73.026 53.2891 72.0609 52.1943 71.2336C52.1752 71.1244 52.1561 71.0152 52.1384 70.906C53.1949 71.7264 54.7812 72.7516 56.3661 72.9973C54.399 68.1185 53.1636 64.1761 53.1513 64.1324L52.7581 63.2478L53.3123 63.8621C53.3342 63.9372 54.3512 67.1329 55.8951 71.1681C56.7169 69.4344 56.2705 65.1958 56.1313 64.0518C56.2077 64.0778 56.2855 64.1037 56.3647 64.131C56.5271 65.4756 56.9585 69.7921 56.0016 71.4425C56.9845 73.9897 58.2212 76.8988 59.6641 79.6754C60.2511 78.7921 59.2764 73.0738 60.9105 70.8186C61.907 69.4426 62.0394 67.84 61.9862 66.7752C62.0612 66.8244 62.1377 66.8749 62.2114 66.9254C62.2442 68.0229 62.0708 69.5887 61.0879 70.9469C59.443 73.2198 60.5719 79.117 59.7733 79.8842C60.0559 80.4248 60.3467 80.9585 60.6456 81.4841C62.2851 76.3432 62.2633 76.1602 62.0394 74.1222C61.9111 72.9495 61.7896 71.8424 62.5745 71.0616C63.2557 70.3832 63.4809 69.0385 63.5437 67.9478C63.6161 68.0106 63.6871 68.0748 63.7567 68.1389C63.6775 69.231 63.4263 70.5238 62.7301 71.2172C61.4797 72.4622 62.7793 74.6846 62.2169 76.8919C61.7077 78.8904 60.9241 81.3408 60.7944 81.7435C61.4074 82.8083 62.0503 83.8334 62.7206 84.7876C62.9977 84.5542 64.1594 83.4198 63.829 81.0323C63.5615 79.0938 65.3798 76.6257 66.5893 75.2251C66.6002 75.3289 66.6097 75.4326 66.6207 75.5364C65.4412 76.9356 63.8031 79.2385 64.0475 81.0009C64.3996 83.5495 63.1451 84.7276 62.8489 84.9665C63.6598 86.1036 64.5089 87.1342 65.3921 88.0038H65.0822C64.9266 87.8468 64.7737 87.6857 64.6208 87.5192C63.7594 87.7881 62.4244 87.6448 61.1002 86.6646C60.2962 86.0708 59.4362 85.9917 58.7195 86.094C58.6744 86.0285 58.628 85.963 58.5816 85.8947C59.3652 85.7623 60.3303 85.821 61.2313 86.4886C62.7383 87.6038 64.0215 87.4387 64.4543 87.3349C64.1116 86.9527 63.7744 86.55 63.4454 86.1282C62.3384 86.2906 60.8845 85.8224 59.8512 85.3118C59.185 84.9829 58.5038 84.8586 57.8827 84.8436C57.8363 84.7713 57.7885 84.6975 57.7407 84.6238C58.4233 84.6279 59.1918 84.7494 59.944 85.1207Z" fill="#A7CBD3"/>
<path opacity="0.34" d="M65.0605 72.095L65.9014 71.1422C66.0612 71.5558 66.1772 71.9885 66.2427 72.4404C67.257 79.3928 67.1109 88.0093 67.1109 88.0093C67.1109 88.0093 64.3848 81.693 65.0605 72.095Z" fill="#195F6D"/>
<path d="M90.0348 82.5394C89.7413 82.5394 85.9941 80.6364 79.6014 82.5394C73.2087 84.4423 68.5469 88.0094 68.5469 88.0094C68.5469 88.0094 75.8542 89.4181 82.5404 88.3206C89.2267 87.2217 90.0348 82.5394 90.0348 82.5394Z" fill="#004A58"/>
<path d="M69.3114 87.4892C73.5077 84.6116 79.9359 81.6084 85.343 81.6958C84.2073 84.8942 82.6784 87.223 79.6356 88.6523C75.0407 88.9717 70.6833 88.3929 69.1284 88.1485C69.1817 87.9438 69.2418 87.7226 69.3114 87.4892Z" fill="#003842"/>
<path d="M69.1448 60.1203L71.8873 63.0007L70.8048 56.9847C71.7999 55.3029 72.9111 53.7426 74.1097 52.3898C77.4159 48.6576 83.3678 43.114 83.3678 43.114C84.752 45.9069 85.6953 48.6167 86.2768 51.2295L83.2026 54.3651L86.7669 54.0102C89.4042 74.2368 70.914 88.0093 70.914 88.0093H67.1122C67.1122 88.0093 65.4044 71.5435 66.7818 66.4953C67.3606 64.3713 68.1633 62.2008 69.1448 60.1203Z" fill="#004A58"/>
<path d="M66.4541 68.337C66.4909 68.0093 66.5346 67.6995 66.5838 67.4114C67.3851 69.612 69.5064 74.9085 71.8107 76.2982C71.8899 76.0771 71.9705 75.8573 72.0524 75.6361C69.7563 74.7884 67.9025 69.111 66.9906 65.7569C67.0684 65.4935 67.1503 65.2286 67.2349 64.9652C68.1905 68.6373 70.1194 74.484 72.208 75.228C72.8673 73.5175 73.6372 71.8507 74.5287 70.3887C75.2604 69.1874 76.0084 67.5343 76.7428 65.6327C74.7607 64.1229 73.2441 57.711 72.5684 54.3092C72.683 54.1536 72.7977 53.9993 72.9137 53.8478C73.5308 57.0203 75.0665 63.6233 76.9067 65.2013C77.4363 63.8021 77.9564 62.28 78.4574 60.7142C76.7742 58.1984 76.2159 52.869 76.0412 50.3081C76.1791 50.1648 76.3183 50.0201 76.4575 49.8754C76.5982 52.1073 77.0869 57.4967 78.6322 60.1627C81.1043 52.3121 83.1725 43.6696 83.2025 43.5372L83.3677 43.2328L83.365 43.5631C83.3322 43.7133 81.032 54.6559 78.1271 63.1004C81.4033 64.1884 84.9922 61.8882 86.9306 60.3279C86.9142 60.5327 86.8965 60.7361 86.8774 60.9381C86.39 61.3149 85.8221 61.719 85.1915 62.1026C83.324 63.241 81.5371 63.8198 79.9194 63.8198C79.2424 63.8198 78.5953 63.7188 77.9837 63.5154C77.1865 65.7979 76.3579 67.8769 75.5375 69.4768C78.4874 70.502 82.778 69.3622 85.1655 68.5526C85.1014 68.7328 85.0372 68.9117 84.9703 69.0905C83.2366 69.6625 80.7044 70.33 78.3223 70.33C77.2684 70.33 76.2432 70.199 75.33 69.8713C75.1866 70.1362 75.0447 70.386 74.9027 70.618C71.0654 76.9193 69.4942 87.0716 69.3563 88.0121H68.9113C68.9495 87.7446 69.7535 82.2419 71.6619 76.7228C69.4245 75.4464 67.4288 70.8911 66.4541 68.337Z" fill="#CFD5F1"/>
<path opacity="0.44" d="M70.9221 88.0092H67.3811C67.3811 88.0092 68.2069 80.4397 75.2399 75.4025L76.0863 76.7266L76.2132 74.7473C76.6214 74.4893 77.0473 74.2408 77.4937 74.0019L78.5939 76.5669L79.0717 73.2388C80.4942 72.6191 82.0886 72.099 83.8728 71.7167C79.2738 81.656 71.2252 87.7812 70.9221 88.0092Z" fill="#6670A4"/>
<path d="M55.6809 74.7296L56.4207 78.0018L57.3149 75.6552C58.2459 76.2299 59.1591 76.8824 60.0164 77.6195L60.2785 79.2467L61.1467 78.6789C63.4128 80.9982 65.0946 84.0396 65.3485 88.0093H59.4717C59.4717 88.0093 46.8337 84.5146 46.3928 71.6349C46.3928 71.6349 51.0041 72.2984 55.6809 74.7296Z" fill="#469AA8"/>
<path d="M63.0852 88.0092H62.1037C55.1922 84.2716 47.4658 72.9877 47.1286 72.4908L46.6494 71.755L47.4931 72.2451C47.5777 72.3693 56.0973 84.8122 63.0852 88.0092Z" fill="#A7CBD3"/>
<path d="M75.2754 77.2482L76.0003 78.3826L76.1095 76.6872C76.4589 76.466 76.8248 76.2531 77.207 76.0483L78.1503 78.2461L78.5598 75.3944C80.4887 74.5535 82.7848 73.9269 85.5163 73.6443C85.5163 73.6443 84.9293 81.6206 81.4019 85.133C77.8745 88.6455 72.365 88.0421 72.365 88.0421H68.5441C68.5428 88.0434 69.2512 81.5647 75.2754 77.2482Z" fill="#E0AA1A"/>
<path d="M71.9378 88.0434H71.3603C79.7789 82.2595 84.8925 74.1536 84.9444 74.0703L85.3867 73.8096L85.2242 74.2437C85.1737 74.3269 80.1829 82.2404 71.9378 88.0434Z" fill="#F3DDA3"/>
<path d="M68.5482 88.0093C68.5482 88.0093 75.6003 84.8668 80.2798 85.2545C84.9594 85.6422 89.7782 90.8323 89.7782 90.8323C89.7782 90.8323 88.2438 91.3811 86.0323 91.9271L83.9479 90.2767L84.5307 92.2711C81.0784 92.9987 76.6555 93.4874 73.6332 92.2097C67.9953 89.8262 68.5482 88.0093 68.5482 88.0093Z" fill="#AD2500"/>
<path d="M68.5482 88.0092C68.5496 88.0079 68.6383 87.9683 68.9154 87.8509C70.3147 87.7649 74.8263 87.5287 78.7564 87.6734C79.413 87.167 79.6861 86.0544 79.7994 85.2258C79.9072 85.2299 80.0151 85.234 80.1215 85.2422C80.0178 86.0203 79.7734 87.0578 79.2015 87.6925C79.383 87.7007 80.6621 87.8045 81.0989 87.87C81.7911 87.3745 81.9412 86.3657 81.9412 85.578C82.0491 85.6094 82.1555 85.6435 82.2634 85.6804C82.2511 86.4339 82.0982 87.3554 81.5112 87.9383C81.9317 88.012 82.3425 88.098 82.7412 88.1949C83.6353 88.0502 84.1759 87.2898 84.4721 86.6742C84.5663 86.7274 84.6605 86.7807 84.7547 86.8339C84.4898 87.3827 84.0421 88.0325 83.335 88.3478C83.6831 88.4433 84.0216 88.5444 84.3465 88.6495C85.5096 88.3287 85.956 87.9505 86.128 87.713C86.2167 87.7744 86.3041 87.8372 86.3901 87.8987C86.1962 88.1662 85.7758 88.5157 84.8639 88.8228C87.1559 89.6255 88.7967 90.476 88.8227 90.4923L89.4192 90.8459L88.5715 90.7681C88.5319 90.7435 84.8325 88.5976 80.4314 88.1007C81.5904 89.029 82.0818 90.9756 82.3658 92.1004C82.4135 92.2874 82.464 92.4881 82.5091 92.6424C82.404 92.6587 82.2975 92.6751 82.191 92.6901C82.1528 92.5564 82.1105 92.3885 82.0572 92.1782C81.7419 90.9278 81.159 88.6153 79.7011 88.0352C79.4663 88.0202 78.2882 87.9738 78.0029 87.9669C79.1073 88.9198 79.9468 91.5407 80.3236 92.9099C80.2157 92.9195 80.1092 92.9277 80.0014 92.9359C79.4977 91.1312 78.4807 88.2741 77.3613 87.9546C73.0435 87.8878 68.5482 88.0092 68.5482 88.0092Z" fill="#DE9C8C"/>
<path d="M98.033 45.5944C98.033 48.0475 96.044 50.0364 93.591 50.0364C91.1379 50.0364 89.149 48.0475 89.149 45.5944C89.149 43.1413 91.1379 41.1523 93.591 41.1523C96.044 41.1523 98.033 43.1413 98.033 45.5944Z" fill="#99D7FF"/>
<path d="M93.5909 44.045C93.9527 44.045 94.2462 43.7515 94.2462 43.3898H92.9357C92.9357 43.7515 93.2292 44.045 93.5909 44.045Z" fill="white"/>
<path d="M96.4263 44.015L94.5056 43.3952C94.4933 43.3911 94.481 43.3898 94.4687 43.3898H94.4564C94.4564 43.8676 94.0674 44.2566 93.5896 44.2566C93.1118 44.2566 92.7227 43.8676 92.7227 43.3898H92.7105C92.6982 43.3898 92.6859 43.3911 92.6736 43.3952L90.7529 44.015C90.6928 44.0341 90.6587 44.0969 90.6751 44.1583L90.9331 45.1371C90.9495 45.1999 91.0136 45.2381 91.0764 45.2217L91.8491 45.0333C91.9228 45.0156 91.9951 45.0702 91.9965 45.1467L92.0443 47.6803C92.0457 47.7444 92.0975 47.7963 92.1631 47.7963H95.0188C95.083 47.7963 95.1362 47.7444 95.1376 47.6803L95.1854 45.1467C95.1868 45.0702 95.2577 45.0156 95.3328 45.0333L96.1055 45.2217C96.1683 45.2367 96.2324 45.1999 96.2488 45.1371L96.5068 44.1583C96.5218 44.0969 96.4863 44.0341 96.4263 44.015Z" fill="white"/>
<path d="M36.4849 24.8175C36.4849 27.2705 34.496 29.2595 32.0429 29.2595C29.5898 29.2595 27.6009 27.2705 27.6009 24.8175C27.6009 22.3644 29.5898 20.3754 32.0429 20.3754C34.4973 20.3768 36.4849 22.3657 36.4849 24.8175Z" fill="#99D7FF"/>
<path d="M29.5598 22.5924C29.755 23.0183 30.7979 25.2079 31.8149 25.7075C31.8245 25.713 31.8354 25.7157 31.8463 25.7171L32.9097 25.8795C32.9206 25.8809 32.9302 25.8836 32.9397 25.8891L34.0004 26.3928C34.0141 26.3996 34.0305 26.4023 34.0455 26.4023C34.1042 26.4023 34.1519 26.4501 34.1519 26.5088V26.6453C34.1519 26.6917 34.1219 26.7341 34.0769 26.7477C33.8776 26.8064 33.221 26.9347 31.3917 26.8528C31.3535 26.8515 31.3194 26.8296 31.3016 26.7955C31.1501 26.4993 30.3966 25.0946 29.669 24.8407C29.5994 24.8161 29.5284 24.868 29.5284 24.9417V26.7737C29.5284 26.8324 29.4806 26.8801 29.4219 26.8801H29.254C29.1994 26.8801 29.153 26.8378 29.1489 26.7832C29.1093 26.3109 28.9291 24.2646 28.7489 24.0844C28.5496 23.8851 28.368 22.7125 29.4478 22.535C29.4929 22.5241 29.5393 22.55 29.5598 22.5924Z" fill="white"/>
<path d="M30.4266 25.8031C30.4662 26.1867 30.4948 26.5225 30.5085 26.6809C30.5126 26.7355 30.559 26.7778 30.6136 26.7778H30.7815C30.8402 26.7778 30.888 26.73 30.888 26.6713V26.5048C30.7488 26.2645 30.5904 26.0215 30.4266 25.8031Z" fill="white"/>
<path d="M35.4065 26.304C35.3901 26.304 35.3751 26.2999 35.3614 26.2944L34.3021 25.7907C34.2926 25.7866 34.283 25.7839 34.2721 25.7812L33.2087 25.6187C33.1978 25.6173 33.1868 25.6132 33.1773 25.6092C32.1603 25.1095 31.1174 22.9199 30.9221 22.494C30.9017 22.4503 30.8553 22.4257 30.8088 22.4339C30.3556 22.5077 30.1249 22.7588 30.0239 23.0387C30.3352 23.6489 30.716 24.285 31.1023 24.7696C31.3849 24.8966 31.6675 25.1846 31.9159 25.504L32.9452 25.661C32.9766 25.6665 33.008 25.6747 33.0367 25.6897L34.0755 26.1825C34.2434 26.1975 34.3758 26.3381 34.3758 26.5101V26.6466C34.3758 26.6917 34.3663 26.734 34.3499 26.7722C35.0092 26.7504 35.3137 26.6862 35.4392 26.6494C35.4843 26.6357 35.5143 26.5948 35.5143 26.5483V26.4118C35.513 26.3504 35.4652 26.304 35.4065 26.304Z" fill="white"/>
<path d="M96.5109 5.83039C96.5109 8.28347 94.522 10.2724 92.0689 10.2724C89.6158 10.2724 87.6269 8.28347 87.6269 5.83039C87.6269 3.37731 89.6158 1.38837 92.0689 1.38837C94.522 1.38837 96.5109 3.37731 96.5109 5.83039Z" fill="#99D7FF"/>
<path d="M92.6886 5.0974L92.9548 3.72821H92.7077V3.08115C92.7077 3.02928 92.6654 2.9856 92.6122 2.9856C92.5603 2.9856 92.5166 3.02791 92.5166 3.08115V3.72821H91.718V3.08115C91.718 3.02928 91.6757 2.9856 91.6225 2.9856C91.5706 2.9856 91.5269 3.02791 91.5269 3.08115V3.72821H91.2607C91.2607 3.72821 91.5078 4.73565 91.5078 5.0974C91.5078 5.0974 90.671 5.85776 90.2533 6.88432C89.8356 7.91087 89.8724 8.29173 89.8724 8.29173C89.8724 8.29173 90.443 8.38729 90.9181 8.29173C91.3931 8.19618 91.3358 8.61526 91.9064 8.46237C92.477 8.31084 93.1145 8.18662 93.3138 8.38592C93.5131 8.58523 94.2639 8.40504 94.2639 8.40504C94.2639 8.40504 94.1329 6.0284 92.6886 5.0974Z" fill="white"/>
<path d="M36.4849 40.6732C36.4849 43.1262 34.496 45.1152 32.0429 45.1152C29.5898 45.1152 27.6009 43.1262 27.6009 40.6732C27.6009 38.2201 29.5898 36.2311 32.0429 36.2311C34.4973 36.2311 36.4849 38.2201 36.4849 40.6732Z" fill="#99D7FF"/>
<path d="M33.2565 40.3155L32.3105 39.1798C32.0812 38.904 31.6703 38.8658 31.3945 39.0965L28.3954 41.5946L30.1741 43.7297L33.1732 41.2302C33.449 41.0022 33.4872 40.5913 33.2565 40.3155ZM32.0498 40.3592C31.9201 40.2036 31.9419 39.9729 32.0962 39.8432C32.2518 39.7135 32.4825 39.7354 32.6122 39.8896C32.7419 40.0453 32.72 40.276 32.5658 40.4056C32.4102 40.5353 32.1795 40.5148 32.0498 40.3592Z" fill="white"/>
<path d="M32.4715 39.9156C32.4866 39.9129 33.9103 39.6385 34.4414 39.1962C34.9014 38.8126 34.9342 38.0413 34.0755 38.1328C33.4025 38.2038 32.8415 39.2207 32.6313 39.6549C32.5603 39.7996 32.3419 39.6931 32.4115 39.5484C32.6954 38.9641 33.2851 37.9717 34.0496 37.8911C35.1225 37.7765 35.2713 38.8235 34.597 39.3846C34.0168 39.8678 32.578 40.1449 32.5166 40.1572C32.3582 40.1859 32.3132 39.9456 32.4715 39.9156Z" fill="white"/>
<path d="M97.1743 24.8175C97.1743 27.2705 95.1854 29.2595 92.7323 29.2595C90.2793 29.2595 88.2903 27.2705 88.2903 24.8175C88.2903 22.3644 90.2793 20.3754 92.7323 20.3754C95.1854 20.3754 97.1743 22.3657 97.1743 24.8175Z" fill="#99D7FF"/>
<path d="M90.0567 23.8537V25.4659C90.0567 25.5191 90.1004 25.5628 90.1536 25.5628H92.7951C92.9466 25.3212 93.2579 24.9335 93.8858 24.2783C94.0564 24.0994 94.2298 23.9233 94.395 23.7581H90.1536C90.1004 23.7568 90.0567 23.8005 90.0567 23.8537Z" fill="white"/>
<path d="M93.2961 25.5615H95.2045C95.2577 25.5615 95.3014 25.5178 95.3014 25.4645V23.8524C95.3014 23.7991 95.2577 23.7554 95.2045 23.7554H94.9929C94.3827 24.3561 93.6551 25.1041 93.2961 25.5615Z" fill="white"/>
<path d="M94.9915 23.7568C94.9287 23.8196 94.8646 23.8824 94.7991 23.948H95.3V23.7568H94.9915Z" fill="#99D7FF"/>
<path d="M90.0567 23.9479H92.3938V24.7943L92.7214 24.3998L92.9821 24.7943V23.9479H94.2052C94.2694 23.8838 94.3322 23.8196 94.395 23.7568H90.0567V23.9479Z" fill="#99D7FF"/>
<path d="M94.395 23.7569C94.8004 23.3515 95.1567 23.0129 95.3014 22.8764H90.1919C90.1919 22.8955 90.1891 22.916 90.1837 22.9351C90.1263 23.1344 90.0444 23.4238 89.9543 23.7528C89.9639 23.7555 89.9721 23.7569 89.9816 23.7569H94.395Z" fill="white"/>
<path d="M95.4611 23.7569C95.5144 23.7569 95.5581 23.7132 95.5581 23.6599V23.2108C95.3956 23.3637 95.2004 23.5521 94.9915 23.7569H95.4611Z" fill="white"/>
<path d="M92.8456 27.0986C92.1712 27.0959 89.0629 27.0454 89.0629 26.3669C89.0629 25.6393 89.8397 22.9569 89.8738 22.8436C89.8915 22.7835 89.9543 22.7494 90.013 22.7671C90.0731 22.7849 90.1072 22.8477 90.0895 22.9064C90.0813 22.9337 89.2882 25.6707 89.2882 26.3669C89.2882 26.3806 89.3168 26.427 89.4479 26.4884C90.5331 26.9894 95.2864 27.003 95.8529 26.5198C95.8597 26.5143 95.8816 26.4952 95.8788 26.4843C95.7683 26.0925 94.6612 26.1239 93.9281 26.1458C93.2442 26.1662 92.7473 26.1935 92.7514 25.9055C92.7596 25.4168 95.0639 23.2313 95.4147 22.9009C95.5239 22.7985 95.6782 22.9637 95.569 23.0647C95.229 23.3842 93.0886 25.4373 92.978 25.8891C93.3875 26.0734 95.8529 25.567 96.0945 26.4215C96.1109 26.4775 96.1191 26.5867 95.999 26.6891C95.5485 27.0768 93.438 27.1027 92.8456 27.0986Z" fill="white"/>
<path d="M89.7278 68.5075C89.7278 70.9606 91.7167 72.9495 94.1698 72.9495C96.6229 72.9495 98.6118 70.9606 98.6118 68.5075C98.6118 66.0544 96.6229 64.0655 94.1698 64.0655C91.7167 64.0655 89.7278 66.0544 89.7278 68.5075Z" fill="#99D7FF"/>
<path d="M94.4455 66.6742C92.6818 66.6742 91.2512 67.2899 91.2512 68.0502C91.2512 68.4297 91.6088 68.7737 92.1863 69.0235L91.89 70.3436L92.978 69.2733C93.4176 69.3716 93.9172 69.4262 94.4455 69.4262C96.2092 69.4262 97.6398 68.8106 97.6398 68.0502C97.6398 67.2899 96.2092 66.6742 94.4455 66.6742Z" fill="white"/>
<path d="M95.6987 68.3997C95.6987 68.5444 95.8161 68.6618 95.9608 68.6618C96.1055 68.6618 96.2229 68.5444 96.2229 68.3997C96.2229 68.255 96.1055 68.1376 95.9608 68.1376C95.8161 68.1376 95.6987 68.255 95.6987 68.3997Z" fill="#99D7FF"/>
<path d="M95.0038 68.3997C95.0038 68.5444 95.1212 68.6618 95.2659 68.6618C95.4106 68.6618 95.528 68.5444 95.528 68.3997C95.528 68.255 95.4106 68.1376 95.2659 68.1376C95.1212 68.1376 95.0038 68.255 95.0038 68.3997Z" fill="#99D7FF"/>
<path d="M94.3103 68.3997C94.3103 68.5444 94.4277 68.6618 94.5724 68.6618C94.7171 68.6618 94.8345 68.5444 94.8345 68.3997C94.8345 68.255 94.7171 68.1376 94.5724 68.1376C94.4277 68.1376 94.3103 68.255 94.3103 68.3997Z" fill="#99D7FF"/>
<path d="M74.0947 16.8754H50.8362C47.6869 16.8754 45.1329 19.4295 45.1329 22.5787V71.4765C45.1329 74.6258 47.6869 77.1799 50.8362 77.1799H74.0933C77.2426 77.1799 79.7967 74.6272 79.7967 71.4765V22.5787C79.7967 19.4281 77.244 16.8754 74.0947 16.8754Z" fill="#331579"/>
<path d="M50.8361 75.6333C48.5427 75.6333 46.678 73.8013 46.678 71.5503V23.537C46.678 21.286 48.5441 19.454 50.8361 19.454H74.0933C76.3866 19.454 78.2513 21.286 78.2513 23.537V71.5503C78.2513 73.8013 76.3866 75.6333 74.0933 75.6333H50.8361Z" fill="#2BADFF"/>
<path d="M73.3779 19.0677H51.2976C50.7993 19.0677 50.3966 18.6636 50.3966 18.1667C50.3966 17.6685 50.8007 17.2657 51.2976 17.2657H73.3779C73.8762 17.2657 74.2789 17.6698 74.2789 18.1667C74.2789 18.665 73.8748 19.0677 73.3779 19.0677Z" fill="#190B3D"/>
<path d="M73.6428 18.1831C73.6428 18.5871 73.3151 18.9148 72.9111 18.9148C72.507 18.9148 72.1794 18.5871 72.1794 18.1831C72.1794 17.779 72.507 17.45 72.9111 17.45C73.3151 17.45 73.6428 17.779 73.6428 18.1831Z" fill="#331579"/>
<path d="M69.7974 18.4971H56.8345C56.6611 18.4971 56.5205 18.3565 56.5205 18.1831C56.5205 18.0097 56.6611 17.8691 56.8345 17.8691H69.7974C69.9708 17.8691 70.1114 18.0097 70.1114 18.1831C70.11 18.3565 69.9708 18.4971 69.7974 18.4971Z" fill="#0E061E"/>
<path d="M75.8243 24.6045H49.1435V63.8087H75.8243V24.6045Z" fill="white"/>
<path d="M74.2789 26.2781H61.0184V42.3071H74.2789V26.2781Z" fill="#FFF7CF"/>
<path d="M74.2789 44.6401H61.0184V60.669H74.2789V44.6401Z" fill="#FFF7CF"/>
<path d="M59.4732 27.3729H51.0397V28.9823H59.4732V27.3729Z" fill="#FFF7CF"/>
<path d="M59.4732 30.6559H51.0397V32.2654H59.4732V30.6559Z" fill="#FFF7CF"/>
<path d="M59.4732 33.9391H51.0397V35.5486H59.4732V33.9391Z" fill="#FFF7CF"/>
<path d="M59.4732 45.0754H51.0397V46.6849H59.4732V45.0754Z" fill="#FFF7CF"/>
<path d="M59.4732 48.3586H51.0397V49.9681H59.4732V48.3586Z" fill="#FFF7CF"/>
<path d="M59.4732 51.6417H51.0397V53.2511H59.4732V51.6417Z" fill="#FFF7CF"/>
<path d="M60.4218 66.0216C60.4218 66.2837 60.2088 66.4966 59.9467 66.4966C59.6846 66.4966 59.4717 66.2837 59.4717 66.0216C59.4717 65.7595 59.6846 65.5465 59.9467 65.5465C60.2102 65.5465 60.4218 65.7595 60.4218 66.0216Z" fill="#331579"/>
<path d="M62.1924 66.0216C62.1924 66.2837 61.9795 66.4966 61.7174 66.4966C61.4553 66.4966 61.2423 66.2837 61.2423 66.0216C61.2423 65.7595 61.4553 65.5465 61.7174 65.5465C61.9795 65.5465 62.1924 65.7595 62.1924 66.0216Z" fill="#331579"/>
<path d="M63.9629 66.0216C63.9629 66.2837 63.7499 66.4966 63.4878 66.4966C63.2257 66.4966 63.0128 66.2837 63.0128 66.0216C63.0128 65.7595 63.2257 65.5465 63.4878 65.5465C63.7499 65.5465 63.9629 65.7595 63.9629 66.0216Z" fill="#331579"/>
<path d="M73.094 23.6722C73.094 23.9124 73.2892 24.109 73.5308 24.109C73.7711 24.109 73.9676 23.9138 73.9676 23.6722C73.9676 23.4319 73.7724 23.2354 73.5308 23.2354C73.2892 23.2354 73.094 23.4306 73.094 23.6722Z" fill="#331579"/>
<path d="M73.5308 23.9083C73.6612 23.9083 73.767 23.8026 73.767 23.6721C73.767 23.5417 73.6612 23.436 73.5308 23.436C73.4004 23.436 73.2946 23.5417 73.2946 23.6721C73.2946 23.8026 73.4004 23.9083 73.5308 23.9083Z" fill="#270F5B"/>
<path d="M71.1979 23.6722C71.1979 23.9124 71.3931 24.109 71.6347 24.109C71.875 24.109 72.0715 23.9138 72.0715 23.6722C72.0715 23.4319 71.8763 23.2354 71.6347 23.2354C71.3931 23.2354 71.1979 23.4306 71.1979 23.6722Z" fill="#331579"/>
<path d="M71.3972 23.6721C71.3972 23.8018 71.5023 23.9083 71.6333 23.9083C71.7644 23.9083 71.8695 23.8032 71.8695 23.6721C71.8695 23.5411 71.7644 23.436 71.6333 23.436C71.5023 23.436 71.3972 23.5411 71.3972 23.6721Z" fill="#270F5B"/>
<path d="M71.363 22.5172L70.5494 21.1112C70.5099 21.0443 70.514 20.9651 70.559 20.901C70.604 20.8368 70.6819 20.7986 70.7679 20.7986H74.0018C74.0468 20.7986 74.0837 20.8313 74.0837 20.8709C74.0837 20.9105 74.0468 20.9433 74.0018 20.9433H70.7665C70.7255 20.9433 70.7051 20.9665 70.6982 20.9774C70.6914 20.987 70.6764 21.0143 70.6955 21.0457L71.5091 22.4517C71.5228 22.4749 71.5501 22.4899 71.5801 22.4899H73.6946L74.2297 20.6102C74.2925 20.3891 74.4973 20.2348 74.7266 20.2348H75.3232C75.3682 20.2348 75.4051 20.2717 75.4051 20.3167C75.4051 20.3618 75.3682 20.3986 75.3232 20.3986H74.7266C74.5696 20.3986 74.4304 20.5037 74.3881 20.6539L73.6878 23.1138H71.3931C71.348 23.1138 71.3112 23.0769 71.3112 23.0319C71.3112 22.9868 71.348 22.95 71.3931 22.95H73.5636L73.6537 22.6346H71.5801C71.4886 22.6346 71.4054 22.5896 71.363 22.5172Z" fill="#331579"/>
<path d="M67.2063 23.6721C68.0824 23.6721 68.7926 22.9619 68.7926 22.0859C68.7926 21.2098 68.0824 20.4996 67.2063 20.4996C66.3303 20.4996 65.6201 21.2098 65.6201 22.0859C65.6201 22.9619 66.3303 23.6721 67.2063 23.6721Z" fill="#FD5E5A"/>
<path d="M66.8747 21.6381H66.7054C66.8282 21.0907 67.4221 21.1221 67.6105 21.4292C67.7183 21.6053 67.6965 21.8401 67.4576 21.9807C67.7333 22.0927 67.8521 22.4067 67.6883 22.6892C67.4712 23.0633 66.7655 23.1029 66.6494 22.4708H66.8119C66.9852 23.122 67.8316 22.6974 67.5436 22.251C67.448 22.1036 67.2924 22.079 67.1108 22.0695V21.9166C67.2992 21.9166 67.4972 21.8251 67.4972 21.6381C67.4972 21.4019 67.1846 21.2941 67.0057 21.432C66.9552 21.4729 66.9102 21.5425 66.8747 21.6381Z" fill="white"/>
<path d="M75.8242 67.6066H55.8037V68.5075H75.8242V67.6066Z" fill="#8D75BB"/>
<path d="M75.8242 69.6185H55.8037V70.5195H75.8242V69.6185Z" fill="#8D75BB"/>
<path d="M63.8551 40.0944L62.9896 40.5175L63.4101 41.383L62.445 41.2711L62.4641 42.2403L61.5863 41.8198L61.3542 42.7631L60.5884 42.1652L60.1844 43.0498L59.5291 42.3304L58.9899 43.1399L58.452 42.3304L57.7968 43.0498L57.3927 42.1652L56.6256 42.7631L56.3935 41.8198L55.5171 42.2403L55.5348 41.2711L54.5697 41.383L54.9915 40.5175L54.1247 40.0944L54.9915 39.6712L54.5697 38.8057L55.5348 38.9176L55.5171 37.9484L56.3948 38.3689L56.6256 37.4256L57.3927 38.0235L57.7968 37.1389L58.452 37.8583L58.9899 37.0488L59.5291 37.8583L60.183 37.1389L60.5871 38.0235L61.3542 37.4256L61.5863 38.3689L62.4641 37.9484L62.4463 38.9176L63.4114 38.8057L62.9896 39.6712L63.8551 40.0944Z" fill="#ED0009"/>
<path d="M57.3435 39.3777L57.1183 39.577C56.904 39.278 56.6582 39.4487 56.7675 39.592C56.9517 39.8295 57.3736 39.9811 57.3736 40.3483C57.3736 40.8438 56.6487 41.0172 56.3661 40.4548L56.6228 40.3005C56.8084 40.6418 57.0746 40.5025 57.0746 40.3619C57.0746 40.138 56.4412 39.9128 56.4412 39.5251C56.4398 39.1784 56.9272 38.8931 57.3435 39.3777Z" fill="white"/>
<path d="M58.1516 39.1593H58.4615L59.0771 40.7619H58.7604L58.6349 40.4316H57.981L57.85 40.7619H57.5333L58.1516 39.1593ZM58.3086 39.5852L58.0929 40.1353H58.5216L58.3086 39.5852Z" fill="white"/>
<path d="M59.3134 39.1593H59.6178V40.4712H60.0628V40.7619H59.3134V39.1593Z" fill="white"/>
<path d="M60.2962 39.1593H61.1712V39.4583H60.5992V39.7477H61.1712V40.0412H60.5992V40.463H61.1712V40.7633H60.2962V39.1593Z" fill="white"/>
<path d="M19.5946 46.1593C19.5946 46.1593 18.4766 46.2535 18.3387 47.6295C18.2009 49.0055 17.0187 49.0506 16.6665 48.3872C16.3143 47.7251 16.9545 47.4466 16.9545 47.4466C16.9545 47.4466 15.7642 47.6896 15.8829 48.5769C16.0017 49.4642 17.0965 49.7604 17.0965 49.7604C17.0965 49.7604 15.7246 49.2103 15.5376 50.5153C15.3506 51.819 16.6351 52.1152 16.6351 52.1152C16.6351 52.1152 16.1846 51.3617 16.6883 51.0941C17.1921 50.8266 17.6712 52.4347 17.6712 52.4347C17.6712 52.4347 17.6139 53.2578 18.6732 52.3405C19.7325 51.4245 20.9079 52.7787 20.7932 53.1513C20.6785 53.5226 22.2825 52.5958 22.1897 51.8586C22.0969 51.1201 22.9965 51.2429 22.8463 51.7344C22.8463 51.7344 24.0435 50.8307 23.1739 50.1741C22.3044 49.5175 22.4081 49.7154 22.5746 49.1694C22.7425 48.6233 22.3303 47.0835 21.7583 46.5334C21.1863 45.9846 19.5946 46.1593 19.5946 46.1593Z" fill="#000A40"/>
<path d="M5.01397 58.6637C1.10434 63.1576 11.7343 89.807 11.7343 89.807H42.5937C42.5937 89.807 47.3538 77.685 45.9586 74.2667C44.4038 70.4581 34.8754 73.6156 34.8754 73.6156C34.8754 73.6156 33.8857 61.0048 31.8695 59.1483C25.7061 53.4722 10.159 52.7514 5.01397 58.6637Z" fill="#0086AC"/>
<path d="M8.5796 56.1545C9.91876 55.5607 20.4109 53.0189 23.3854 62.4135C23.9956 64.3396 24.3888 66.4091 24.6877 68.3748C25.0263 70.6109 25.2856 72.8619 25.4713 75.1157C25.474 75.1471 25.4767 75.1785 25.4795 75.2112C25.4795 75.2112 35.0078 72.0551 36.5613 75.8624C37.6438 78.5134 35.0229 86.4009 33.7929 89.8068H11.7343C11.7343 89.8068 1.10434 63.1574 5.01397 58.6649C5.91767 57.6261 7.14079 56.792 8.5796 56.1545Z" fill="#005971"/>
<path d="M34.8754 73.6141C34.8754 73.6141 44.4038 70.458 45.9573 74.2653C46.9865 76.7866 44.6659 84.0462 43.3786 87.6801L42.307 89.8055H29.3987L34.8754 73.6141Z" fill="#00145D"/>
<path d="M42.4368 89.8069H24.4749L25.7867 79.8472H45.698L42.4368 89.8069Z" fill="#00627D"/>
<path d="M43.6149 89.8193L40.8533 89.8056C40.8533 89.8056 47.7893 77.5675 45.8004 74.1534C45.2188 73.1637 36.5655 73.8435 34.8755 73.6142C38.0357 71.1857 50.6301 68.6138 51.344 72.6995C52.0225 76.5928 43.6149 89.8193 43.6149 89.8193Z" fill="#0086AC"/>
<path d="M27.3428 59.7707C27.2991 59.727 27.0821 58.8397 27.0425 58.7619C26.3859 59.0199 26.0514 59.3598 25.4153 59.6465C25.6023 60.0724 25.4303 61.0252 25.601 61.1959C26.7913 62.3862 31.2784 63.0934 32.6476 62.2784C32.8565 62.1542 32.9957 61.3692 32.9957 61.3692C32.9957 61.3692 27.807 60.2362 27.3428 59.7707Z" fill="#FD5E5A"/>
<path d="M26.3245 54.1233C25.6733 51.7234 23.0251 50.918 23.0251 50.918C23.0251 50.918 23.7404 57.678 24.8543 60.2089C25.4918 59.9208 26.9279 59.0854 27.5845 58.8288C27.205 58.0698 26.7777 55.7901 26.3245 54.1233Z" fill="#80003B"/>
<path d="M24.3355 71.3126C24.3355 71.3126 36.949 64.6427 39.3516 64.6427C41.7541 64.6427 42.0449 66.0993 42.0449 67.0453C42.0449 67.9913 37.2056 74.6666 33.1895 76.9477C29.1734 79.2288 23.8646 71.3139 23.8646 71.3139H24.3355V71.3126Z" fill="#B73000"/>
<path d="M19.7079 69.5393C18.6581 70.6574 17.9715 72.5548 18.0015 73.1159C18.0015 73.1159 24.4994 72.8074 25.0864 72.1835C25.272 71.9856 25.3594 71.7754 25.601 69.9339C23.3322 70.0349 22.0095 69.3564 19.7079 69.5393Z" fill="#B73000"/>
<path d="M18.3073 50.5386C18.3073 50.5386 16.0753 50.8253 15.3286 51.3495C15.3286 51.3495 17.7107 55.9553 18.3742 58.5749C18.9134 60.7018 18.3769 68.0801 17.8841 71.3113C20.1843 71.1284 23.6543 70.2588 25.9218 70.1578C26.4446 66.1963 25.6133 58.3497 25.4959 56.0768C25.3252 52.7487 24.958 50.4799 18.3073 50.5386Z" fill="#CD3179"/>
<path d="M44.4475 71.3127C43.7923 70.1729 18.2336 69.1804 17.9319 73.6088C17.6302 78.0372 22.0572 80.1217 29.9734 79.1374C37.8882 78.1532 46.9224 75.6182 44.4475 71.3127Z" fill="#FB9900"/>
<path d="M44.057 71.0902C43.9137 71.0424 43.7676 71.0014 43.6202 70.9646C43.3253 70.8936 43.0277 70.839 42.7301 70.7885C37.4199 69.9025 24.1935 69.6623 19.3638 71.9666C19.0908 72.1058 18.826 72.2628 18.583 72.4539C18.3427 72.6464 18.1243 72.8812 17.996 73.1692C17.966 73.2416 17.9455 73.318 17.9209 73.3917C17.91 73.4695 17.8977 73.5474 17.8909 73.6238C17.8854 73.7753 17.8827 73.9269 17.8895 74.0784C17.9018 74.3814 17.9387 74.6831 18.0028 74.978C17.9578 74.679 17.9414 74.3787 17.9482 74.0784C17.9619 73.7794 17.9496 73.4695 18.0902 73.2129C18.2212 72.9535 18.4356 72.7419 18.6731 72.5713C18.9133 72.4007 19.1768 72.2628 19.4471 72.1399C23.9 70.1769 37.8963 70.3216 42.7178 70.8909C43.0168 70.9277 43.3144 70.9673 43.6106 71.0233C43.758 71.0506 43.9055 71.082 44.0502 71.1202C44.1908 71.1653 44.3464 71.2021 44.4488 71.3141C44.3519 71.1912 44.1962 71.1448 44.057 71.0902Z" fill="#FFF7CF"/>
<path d="M26.8624 78.7757C26.8624 78.7757 25.5724 79.9565 26.4174 80.4602C27.2624 80.9639 29.1994 80.25 30.7502 80.9872C32.3023 81.7243 34.0892 81.783 34.2748 81.4704C34.4618 81.1578 33.8052 79.4514 32.0757 78.803C30.3461 78.1532 26.8624 78.7757 26.8624 78.7757Z" fill="#FC7575"/>
<path d="M32.5399 78.7674C32.5399 78.7674 31.8519 78.6022 31.8519 78.8206C31.8519 79.039 32.2982 79.0936 32.2982 79.0936C32.2982 79.0936 32.2614 79.4308 32.5808 79.5482C32.8989 79.667 32.9549 79.7025 32.9549 79.7025C32.9549 79.7025 32.8265 79.9482 33.1992 80.1297C33.5719 80.3113 33.5719 80.3113 33.5719 80.3113C33.5719 80.3113 33.5077 80.7113 33.7726 80.7932C33.7726 80.7932 33.3262 81.3119 33.9459 81.5481C34.5643 81.7843 34.7008 81.3119 34.7008 81.1836C34.7008 81.0553 34.2544 80.8382 34.2544 80.8382C34.2544 80.8382 34.4456 80.3017 33.9541 80.2471C33.9541 80.2471 34.0456 79.5646 33.3712 79.6192C33.3712 79.6192 33.5446 79.2192 32.8347 79.0363C32.8361 79.039 32.7637 78.7674 32.5399 78.7674Z" fill="#E80000"/>
<path d="M30.4826 74.2667C28.2629 70.458 14.6543 73.6155 14.6543 73.6155C14.2803 70.2833 13.0613 62.3494 10.9549 59.7011C9.14207 57.4214 4.68504 56.3334 3.92331 61.2327C2.55003 70.069 13.1213 93.0081 11.733 89.8069C11.7344 89.8069 25.6761 89.8069 25.6761 89.8069C25.6761 89.8069 32.4743 77.6835 30.4826 74.2667Z" fill="#007697"/>
<path d="M25.6788 89.8084H20.4109C20.4109 89.8084 27.5339 77.7395 25.8986 74.1357C24.9389 72.0184 23.2817 72.7555 21.5917 72.5262C25.3116 72.1972 30.2409 71.8614 31.3658 73.7917C33.3561 77.2126 25.6788 89.8084 25.6788 89.8084Z" fill="#0086AC"/>
<path d="M10.9549 59.6996C13.0612 62.3479 14.2802 70.2819 14.6543 73.6141C14.6829 73.61 22.7151 71.8326 27.0766 72.2913C32.952 73.1117 22.4804 89.4819 22.3916 89.8082H20.4109C20.5378 89.4219 27.3237 74.3908 25.3293 73.5458C23.4932 72.7691 14.3212 74.6925 13.4748 74.7921C13.1008 71.4599 11.8818 63.526 9.77541 60.8777C8.57959 59.3748 6.23572 58.3905 4.55939 59.2969C6.06236 56.7183 9.43687 57.7912 10.9549 59.6996Z" fill="#0086AC"/>
<path d="M23.1178 72.4006C23.6529 72.3541 23.8113 72.3501 23.1178 72.4006V72.4006Z" fill="#0086AC"/>
<path d="M11.4901 60.1966C11.531 60.3263 13.6428 63.0319 14.9397 73.2073C18.3224 72.4538 27.9313 70.9604 30.8307 72.8224C31.6525 73.3548 31.7126 73.8639 31.804 74.0018C33.1036 77.3709 27.6965 86.6945 25.6789 89.8083C27.2815 86.9102 32.6286 76.9463 31.1215 74.0114C29.6772 71.1979 17.491 73.3971 14.3622 74.0168C13.8148 69.6021 13.4681 66.8514 12.189 62.6346C12.1795 62.6073 11.8518 61.7009 11.8723 61.7583C11.1092 59.9372 10.3352 58.7155 8.44457 58.0575C7.67192 57.7899 6.80099 57.6971 6.00787 57.9933C7.4931 57.334 9.92569 57.91 11.4901 60.1966Z" fill="#A6A8FE"/>
<path d="M24.3834 42.4436C24.4544 42.621 24.8393 46.1648 24.2155 47.0999C23.5916 48.035 22.5514 47.5422 21.6354 47.261C20.7195 46.9798 20.1052 46.6112 20.1052 46.6112C20.1052 46.6112 23.8796 41.189 24.3834 42.4436Z" fill="#000F60"/>
<path d="M22.5842 47.6145C22.6525 47.7428 21.3816 50.4648 21.5344 51.3726C21.5344 51.3726 22.7289 55.0706 21.9986 54.9382C21.3638 54.8236 18.766 51.4763 18.8152 50.8771C18.8821 50.0717 20.2035 46.3463 20.2035 46.3463L22.5842 47.6145Z" fill="#FC7575"/>
<path d="M22.2211 48.6534C21.0266 49.2117 19.8731 48.4267 20.0301 46.846C20.2103 46.3163 20.1939 46.3764 20.2048 46.345L22.5842 47.6131C22.6128 47.6678 22.4531 48.0322 22.2211 48.6534Z" fill="#FD5E5A"/>
<path d="M24.2482 41.1345C24.2482 41.1345 25.3649 41.7228 25.1942 42.7821C25.0236 43.8401 24.9622 44.7465 24.4011 45.8714C23.84 46.9948 22.651 48.3586 21.4156 48.2575C20.1802 48.1565 19.555 45.8673 19.8744 44.823C20.1939 43.78 20.3072 41.9016 21.4252 41.0717C22.5432 40.2417 24.2482 41.1345 24.2482 41.1345Z" fill="#FC7575"/>
<path d="M21.234 46.1852C21.7746 46.648 22.696 46.9388 22.696 46.9388C22.696 46.9388 22.5923 47.0453 22.4367 47.1476C22.1718 47.0507 21.6572 46.8405 21.2695 46.5511C21.2326 46.3477 21.234 46.1852 21.234 46.1852Z" fill="white"/>
<path d="M21.2709 46.5497C21.6586 46.8391 22.1732 47.0493 22.438 47.1462C21.8347 47.538 21.406 47.2663 21.2709 46.5497Z" fill="#2E0028"/>
<path d="M24.2482 41.1344C24.2482 41.1344 25.3648 41.7227 25.1942 42.7821C25.0399 43.7417 24.9744 44.5758 24.5458 45.56C24.397 45.3717 24.1922 45.1232 23.8304 44.9198C22.7807 44.3287 22.4217 42.3998 22.5322 41.0866C22.5418 41.0579 22.6292 40.6402 22.9022 40.4955C23.8345 40.4218 24.2482 41.1344 24.2482 41.1344Z" fill="#FD5E5A"/>
<path d="M22.793 45.9163C22.8612 45.5832 22.939 45.2515 23.0414 44.9266C22.9868 45.362 22.9117 45.6692 22.8435 45.9763C22.6565 45.9709 22.4203 46.0036 22.1896 45.8262C22.378 45.9245 22.5923 45.9286 22.793 45.9163Z" fill="#172866"/>
<path d="M22.4599 44.715C22.4585 44.5102 22.3534 44.2823 22.1527 44.158C21.7964 43.9383 21.3896 44.4229 21.1262 44.3355C21.2872 44.4911 21.6913 44.259 21.9261 44.2399C22.0544 44.229 22.1445 44.2918 22.2401 44.3792C22.3329 44.4693 22.4039 44.5867 22.4599 44.715Z" fill="#172866"/>
<path d="M21.8101 44.3328C21.7746 44.4502 21.8292 44.5717 21.9329 44.6031C22.0367 44.6345 22.15 44.5649 22.1868 44.4475C22.2223 44.3301 22.1677 44.2086 22.064 44.1772C21.9602 44.1445 21.8469 44.2141 21.8101 44.3328Z" fill="#172866"/>
<path d="M23.283 45.1001C23.4072 44.9363 23.627 44.8176 23.8618 44.8367C24.2782 44.8735 24.3164 45.5042 24.5798 45.5929C24.3573 45.6216 24.1717 45.1943 23.9942 45.0387C23.8987 44.9541 23.7881 44.95 23.6598 44.9623C23.5315 44.9786 23.4045 45.0305 23.283 45.1001Z" fill="#172866"/>
<path d="M24.0325 45.1805C23.9915 45.2965 23.8741 45.3607 23.7717 45.3238C23.6693 45.287 23.6188 45.1641 23.6612 45.0481C23.7021 44.9321 23.8195 44.8679 23.9219 44.9048C24.0243 44.9416 24.0748 45.0645 24.0325 45.1805Z" fill="#172866"/>
<path d="M22.8736 43.8538C22.9241 43.8388 22.6907 43.3965 22.2962 43.234C21.903 43.0716 21.3283 43.3801 21.3283 43.3801C21.3283 43.3801 22.0341 43.2081 22.2511 43.3992C22.4695 43.593 22.5937 43.9343 22.8736 43.8538Z" fill="#172866"/>
<path d="M23.4632 39.9536C22.5691 39.7871 21.2654 39.1564 20.1952 40.3713C19.5741 41.0553 19.144 40.3072 18.3031 43.0483C17.0514 47.1327 20.0382 46.831 20.0382 46.831C20.0382 46.831 19.843 46.5661 20.3563 44.3056C20.3617 44.3192 20.3658 44.326 20.3658 44.326C20.3658 44.326 20.4532 43.997 20.5815 43.5793C20.5815 43.578 20.5815 43.578 20.5829 43.5766C20.6279 43.4565 20.6661 43.3309 20.7003 43.2012C20.8299 42.8012 20.9815 42.3862 21.1193 42.12C21.4579 41.4675 21.8196 41.1931 22.5322 41.088C23.2434 40.9829 25.2092 42.5077 25.2092 42.5077C25.5272 41.1972 24.3573 40.1188 23.4632 39.9536Z" fill="#1B2B80"/>
<path d="M24.5499 40.5406C25.5628 41.114 25.3785 42.8845 25.9956 44.0448C26.6126 45.2052 25.9928 46.4201 25.3103 47.1354C24.6277 47.8521 24.1172 47.0931 24.1172 47.0931C24.1172 47.0931 24.4107 47.3989 24.853 46.7627C25.2953 46.1266 25.0687 45.4563 23.9902 44.6933C22.9118 43.9302 22.5337 41.0839 22.5337 41.0839C22.6525 40.5898 23.5357 39.9687 24.5499 40.5406Z" fill="#2846A6"/>
<path d="M24.1171 47.0945C24.4556 47.4603 25.3457 46.6303 25.1232 45.8427C24.9716 45.2393 24.3614 44.8175 23.8891 44.4284C23.1834 43.6749 22.7779 42.0682 22.5322 41.0867C22.5909 42.1856 22.9363 43.7909 23.6925 44.6209L23.885 44.7847C24.0857 44.9472 24.7232 45.3471 24.9198 45.9014C25.0808 46.3396 24.7832 46.8501 24.5239 47.0562C24.4147 47.1463 24.2468 47.1927 24.1171 47.0945Z" fill="#023135"/>
<path d="M20.5543 44.5212C20.5543 44.5212 20.6539 43.1192 20.0533 43.2817C19.454 43.4441 19.5495 45.059 20.0178 45.2023C20.486 45.3457 20.5543 44.5212 20.5543 44.5212Z" fill="#FC7575"/>
<path d="M20.2853 43.6543C20.2853 43.6543 20.662 45.0713 20.1938 44.7846C19.7256 44.4966 19.8758 43.2871 20.2853 43.6543Z" fill="#FD5E5A"/>
<path d="M21.817 45.3512C21.7174 45.4904 21.4198 45.4481 21.1522 45.257C20.8847 45.0659 20.7482 44.7983 20.8465 44.6591C20.9461 44.5198 21.2437 44.5621 21.5113 44.7533C21.7788 44.9457 21.9153 45.2133 21.817 45.3512Z" fill="#FD5E5A"/>
<path d="M24.2469 46.012C24.2237 46.1663 23.9848 46.2591 23.7104 46.2182C23.4374 46.1772 23.234 46.0202 23.2559 45.866C23.2791 45.7117 23.518 45.6189 23.7923 45.6598C24.0667 45.6994 24.2688 45.8578 24.2469 46.012Z" fill="#FD5E5A"/>
<path d="M30.9276 56.5327C30.6519 56.4426 29.9229 56.4426 29.2622 56.4658C29.153 56.4167 29.0356 56.3717 28.9182 56.3348C29.482 56.1983 30.1291 56.0154 30.286 55.8597C30.5236 55.6222 28.8554 56.0659 28.2357 56.2365C27.4453 56.3293 27.0303 57.648 26.4897 58.1872C25.93 58.7469 21.7474 60.9229 20.8 61.1249C20.0287 61.2901 19.5441 59.4923 19.3325 58.6718C18.1463 59.4745 17.6958 60.6512 16.7784 61.7256C17.1688 63.0006 17.7968 64.4148 18.3606 64.7342C20.3973 65.8918 25.414 60.8287 26.4447 59.798C27.4753 58.7674 28.435 57.4282 28.435 57.4282C28.435 57.4282 29.2868 57.0924 29.6376 57.0924C29.9461 57.0924 29.9762 56.9832 29.8478 56.8412C30.5823 56.732 31.1733 56.6119 30.9276 56.5327Z" fill="#FC7575"/>
<path d="M19.6519 59.7529C19.5127 59.3557 19.4062 58.9543 19.3325 58.6704C18.1462 59.4731 17.6958 60.6498 16.7784 61.7241C16.8863 62.0791 17.0132 62.4435 17.1525 62.7944C17.7381 62.0026 18.8793 60.4983 19.6519 59.7529Z" fill="#FD5E5A"/>
<path d="M18.7878 64.2933C18.7878 64.2933 18.8629 64.8311 19.0117 64.8311C19.1605 64.8311 19.9973 64.6072 19.9973 64.3834C19.9973 64.1581 18.7878 64.0544 18.7878 64.2933Z" fill="#FD5E5A"/>
<path d="M38.2568 54.4373L31.4627 53.6155L27.2063 61.7242H32.7172L38.2568 54.4373Z" fill="#603E6B"/>
<path d="M32.7582 59.7572C32.7582 59.0514 32.9794 58.4467 32.5535 58.8726C32.1276 59.2985 32.4484 60.3059 32.1207 60.4998C31.7918 60.6936 30.9263 57.8419 30.4335 57.8419C30.0472 57.8419 30.671 58.979 30.8498 59.7066C30.4867 59.1524 29.897 58.3101 29.5899 58.2119C29.2349 58.0986 30.1195 59.5019 30.5481 60.1571C30.0704 59.7981 29.2459 58.6009 29.007 58.7374C28.693 58.9163 29.6636 60.0356 30.1946 60.5653C30.7242 61.095 28.8623 59.7053 28.8623 60.2131C28.8623 60.7223 29.9775 60.983 30.3734 61.3789C30.6574 61.6628 31.3904 62.0573 31.7849 62.258C32.7746 62.7645 33.2019 61.7912 32.9043 60.68C32.8224 60.3837 32.7582 60.052 32.7582 59.7572Z" fill="#FC7575"/>
<path d="M31.2129 53.2469L26.8829 61.5795L27.2064 61.7242L31.4628 53.6155L38.2568 54.4373L37.8432 54.1124L31.2129 53.2469Z" fill="#907897"/>
<path d="M15.8188 50.918C15.8188 50.918 14.3731 51.0231 13.9691 52.2367C13.565 53.4503 16.1082 62.3985 16.1082 62.3985L19.7912 59.0144C19.7926 59.0144 18.2473 50.918 15.8188 50.918Z" fill="#FF0076"/>
<path d="M32.0442 18.8739C28.8239 18.8739 26.2139 21.484 26.2139 24.7042C26.2139 27.9245 28.8239 30.5346 32.0442 30.5346C35.2644 30.5346 37.8745 27.9245 37.8745 24.7042C37.8745 21.484 35.2631 18.8739 32.0442 18.8739ZM32.0442 29.7619C29.2553 29.7619 26.9865 27.4931 26.9865 24.7042C26.9865 21.9153 29.2553 19.6465 32.0442 19.6465C34.8331 19.6465 37.1019 21.9153 37.1019 24.7042C37.1019 27.4931 34.8331 29.7619 32.0442 29.7619Z" fill="#7FCDFF"/>
<path d="M92.7322 18.9871C89.512 18.9871 86.9019 21.5971 86.9019 24.8174C86.9019 28.0377 89.512 30.6477 92.7322 30.6477C95.9525 30.6477 98.5625 28.0377 98.5625 24.8174C98.5625 21.5985 95.9525 18.9871 92.7322 18.9871ZM92.7322 29.8764C89.9433 29.8764 87.6745 27.6077 87.6745 24.8188C87.6745 22.0299 89.9433 19.7611 92.7322 19.7611C95.5211 19.7611 97.7899 22.0299 97.7899 24.8188C97.7899 27.6077 95.5211 29.8764 92.7322 29.8764Z" fill="#7FCDFF"/>
<path d="M92.0689 0C88.8486 0 86.2386 2.61007 86.2386 5.83033C86.2386 9.0506 88.8486 11.6607 92.0689 11.6607C95.2891 11.6607 97.8992 9.0506 97.8992 5.83033C97.8992 2.61007 95.2891 0 92.0689 0ZM92.0689 10.888C89.28 10.888 87.0112 8.61923 87.0112 5.83033C87.0112 3.04144 89.28 0.772645 92.0689 0.772645C94.8578 0.772645 97.1265 3.04144 97.1265 5.83033C97.1279 8.61923 94.8591 10.888 92.0689 10.888Z" fill="#7FCDFF"/>
<path d="M93.5909 39.764C90.3707 39.764 87.7606 42.374 87.7606 45.5943C87.7606 48.8146 90.3707 51.4246 93.5909 51.4246C96.8112 51.4246 99.4213 48.8146 99.4213 45.5943C99.4213 42.374 96.8112 39.764 93.5909 39.764ZM93.5909 50.652C90.8021 50.652 88.5333 48.3832 88.5333 45.5943C88.5333 42.8054 90.8021 40.5366 93.5909 40.5366C96.3798 40.5366 98.6486 42.8054 98.6486 45.5943C98.6486 48.3832 96.3798 50.652 93.5909 50.652Z" fill="#7FCDFF"/>
<path d="M94.1698 62.6771C90.9495 62.6771 88.3394 65.2872 88.3394 68.5075C88.3394 71.7277 90.9495 74.3378 94.1698 74.3378C97.39 74.3378 100 71.7277 100 68.5075C100 65.2872 97.39 62.6771 94.1698 62.6771ZM94.1698 73.5651C91.3809 73.5651 89.1121 71.2963 89.1121 68.5075C89.1121 65.7186 91.3809 63.4498 94.1698 63.4498C96.9586 63.4498 99.2274 65.7186 99.2274 68.5075C99.2274 71.2963 96.9586 73.5651 94.1698 73.5651Z" fill="#7FCDFF"/>
<path d="M32.0442 34.9315C28.8239 34.9315 26.2139 37.5416 26.2139 40.7618C26.2139 43.9821 28.8239 46.5922 32.0442 46.5922C35.2644 46.5922 37.8745 43.9821 37.8745 40.7618C37.8745 37.5416 35.2631 34.9315 32.0442 34.9315ZM32.0442 45.8195C29.2553 45.8195 26.9865 43.5507 26.9865 40.7618C26.9865 37.973 29.2553 35.7042 32.0442 35.7042C34.8331 35.7042 37.1019 37.973 37.1019 40.7618C37.1019 43.5507 34.8331 45.8195 32.0442 45.8195Z" fill="#7FCDFF"/>
<path d="M51.8381 30.772C51.7903 30.772 51.7412 30.7652 51.692 30.7529L37.4254 26.8514C37.1238 26.7695 36.9449 26.4514 37.0255 26.1429C37.106 25.8344 37.4159 25.6501 37.7176 25.732L51.9842 29.6335C52.2858 29.7154 52.4647 30.0335 52.3841 30.3433C52.3159 30.6013 52.0879 30.772 51.8381 30.772Z" fill="#7FCDFF"/>
<path d="M53.1759 42.8872H53.1745L37.5701 42.8354C37.2575 42.834 37.005 42.5746 37.0063 42.2538C37.0077 41.9344 37.2602 41.6764 37.5729 41.6764H37.5742L53.1786 41.7283C53.4912 41.7296 53.7438 41.989 53.7424 42.3098C53.741 42.6279 53.4885 42.8872 53.1759 42.8872Z" fill="#7FCDFF"/>
<path d="M72.8824 27.373C72.7596 27.373 72.6353 27.3362 72.5288 27.2597C72.2749 27.0768 72.2285 26.7341 72.4237 26.4952L86.9579 8.72714C87.1531 8.48825 87.5176 8.44457 87.7701 8.62749C88.024 8.81178 88.0704 9.15305 87.8752 9.39194L73.3424 27.1601C73.2291 27.2993 73.0571 27.373 72.8824 27.373Z" fill="#7FCDFF"/>
<path d="M72.5398 35.3232C72.3227 35.3232 72.1139 35.2003 72.0156 34.9901C71.8791 34.7007 72.0033 34.3553 72.2941 34.2188L87.5149 27.0617C87.8043 26.9251 88.1497 27.0494 88.2862 27.3401C88.4227 27.6295 88.2985 27.9749 88.0077 28.1114L72.7869 35.2686C72.7063 35.3055 72.6231 35.3232 72.5398 35.3232Z" fill="#7FCDFF"/>
<path d="M71.1801 48.3764C70.8975 48.3764 70.6546 48.158 70.6218 47.8617C70.5877 47.5437 70.8088 47.257 71.1187 47.2215L87.7155 45.3036C88.0226 45.2694 88.3025 45.4974 88.3366 45.8155C88.3707 46.1335 88.1496 46.4202 87.8397 46.4557L71.2429 48.3737C71.2224 48.3764 71.2006 48.3764 71.1801 48.3764Z" fill="#7FCDFF"/>
<path d="M88.9441 66.487C88.8444 66.5048 88.7393 66.4979 88.6383 66.4611L70.1331 59.5933C69.8328 59.4813 69.6799 59.1482 69.7918 58.8479C69.9037 58.5476 70.2368 58.3961 70.5371 58.5066L89.041 65.3745C89.3413 65.4864 89.4942 65.8195 89.3823 66.1198C89.3085 66.3164 89.1379 66.4502 88.9441 66.487Z" fill="#7FCDFF"/>
<path d="M61.7843 10.4935L53.2483 5.32251L51.1584 7.45343L61.7843 10.4935Z" fill="#0A4CFE"/>
<path d="M53.2469 11.6906L53.3684 7.68951L61.7843 10.4934L53.2469 11.6906Z" fill="#99D7FF"/>
<path d="M53.2387 2.01074L61.7842 10.4935L53.2483 5.32247L53.2387 2.01074Z" fill="#99D7FF"/>
<path d="M51.1584 7.45337L53.3684 7.68953L53.3507 8.27106L51.1584 7.45337Z" fill="#0033BF"/>
</svg>
