<svg width="114" height="89" viewBox="0 0 114 89" fill="none" xmlns="http://www.w3.org/2000/svg">
<path d="M84.7711 46.5295C84.7711 46.5214 84.7711 46.5134 84.7711 46.5053C84.7711 46.4972 84.7711 46.4892 84.7711 46.4811C84.7711 45.7468 84.7388 45.0205 84.6823 44.3023C84.6742 44.2297 84.6742 44.157 84.6661 44.0763C83.4385 28.8893 70.7261 16.9462 55.2192 16.9462C39.7122 16.9462 26.9998 28.8893 25.7722 44.0683C25.7641 44.1409 25.7641 44.2216 25.756 44.2942C25.6995 45.0124 25.6672 45.7387 25.6672 46.473C25.6672 46.4811 25.6672 46.4892 25.6672 46.4972C25.6672 46.5053 25.6672 46.5134 25.6672 46.5214C25.6672 47.2558 25.6995 47.982 25.756 48.7002C25.7641 48.7729 25.7641 48.8455 25.7722 48.9181C26.9998 64.0971 39.7042 76.0402 55.2192 76.0402C70.7261 76.0402 83.4385 64.0971 84.6661 48.9181C84.6742 48.8455 84.6742 48.7729 84.6823 48.6922C84.7307 47.9901 84.7711 47.2638 84.7711 46.5295Z" fill="#0186CB"/>
<path d="M29.6004 36.854C31.4742 36.9024 30.4081 37.8062 30.4888 39.2911C30.5858 41.1874 32.1203 40.8727 33.1541 42.1235C33.4852 42.5189 33.4933 43.0192 33.7841 43.4388C34.2121 44.0521 34.8744 44.2781 35.4963 44.6493C36.5382 45.2707 37.3539 46.5941 38.4604 46.9976C41.271 48.0305 38.315 43.6164 38.4604 42.7206C38.5654 42.1154 39.0176 42.1074 38.7754 41.5102C38.5492 40.9615 38 40.8404 37.5477 40.8727C37.2247 40.8969 36.8208 41.5909 36.417 41.2923C35.8759 40.8888 36.7562 40.3805 36.8451 40.098C37.16 39.0086 35.5771 38.242 34.9955 39.1619C34.7452 39.5654 35.1571 40.6548 34.406 40.4127C33.9052 40.2513 33.5175 38.5406 33.566 38.0806C33.776 36.1358 35.1975 35.7727 36.9178 35.7566C38.1212 35.7485 38.735 35.9502 38.9934 37.2494C39.2438 38.4922 38.6865 38.9037 39.7768 39.5977C40.9964 40.3724 41.8202 39.8317 41.2145 38.363C40.9156 37.6287 39.9868 36.6442 40.3341 35.7646C40.4633 35.4257 40.9964 35.1917 41.2145 34.9173C41.6264 34.4009 41.2225 34.4573 41.8525 34.0539C42.4502 33.6665 43.0478 33.7714 43.2901 32.8434C43.5001 32.0365 43.1932 32.0042 43.7989 31.407C45.0185 30.1966 45.9392 31.7056 47.0619 31.1004C46.8276 30.713 46.5934 30.2773 46.4723 29.8334C46.7388 29.5026 49.501 29.7205 47.9018 28.397C48.8952 27.808 48.7095 29.4865 49.5333 29.317C50.6398 29.091 48.766 28.0823 48.7256 27.8967C48.5641 27.122 49.7917 27.114 50.244 27.4126C50.8901 27.8402 50.6317 29.1072 51.6574 28.9216C51.7705 29.8254 52.9093 29.5107 52.9093 28.8086C52.9093 28.1469 52.1178 28.2921 52.1097 27.4932C52.1016 26.6379 52.78 26.6863 52.2874 25.8955C51.9643 25.3709 51.2293 25.6856 51.3586 24.7819C50.9547 24.7496 50.5913 25.4597 50.454 25.0724C50.0986 24.0717 49.6625 21.9978 48.3056 23.4665C47.7484 23.0227 47.5222 22.2318 46.7711 22.248C45.7858 22.2641 45.9069 23.4019 45.3416 24.0717C45.0831 24.3703 44.647 24.5478 44.3885 24.8706C44.1059 25.2257 44.4693 25.6695 43.807 25.7906C42.6925 25.9923 43.0317 24.5075 43.1771 23.983C41.5133 23.7974 42.0948 22.3852 43.3951 22.3448C43.8797 22.3287 44.5985 22.708 45.1396 22.3287C45.6242 21.9817 45.4627 21.2474 46.1492 21.2554C46.3107 23.0388 47.5788 21.4894 48.4026 21.3523C48.3299 21.554 48.4026 21.9252 48.3299 22.135C50.979 22.5385 48.3541 18.891 50.1552 18.2293C51.3263 17.7935 51.5363 18.8345 51.4878 19.7464C51.4393 20.7874 51.4878 21.2312 52.1178 21.9413C52.78 22.6918 53.4262 23.5149 54.0642 22.1431C54.1854 21.8849 54.1127 21.1182 54.258 20.9488C54.5165 20.6583 55.308 20.7228 55.6714 20.4485C56.9314 19.5124 56.1722 17.9227 55.0495 16.9785C51.4636 17.0027 48.0391 17.6644 44.865 18.8507C44.6954 19.0524 44.5501 19.2703 44.5016 19.4962C44.1543 19.5608 43.7989 19.5527 43.5243 19.3913C37.7012 21.9091 32.8472 26.2505 29.6812 31.6895C29.6812 31.8589 29.6893 32.0122 29.7135 32.1494C29.7216 32.2221 29.77 32.3189 29.7943 32.3834C29.9235 32.7385 30.2304 33.6181 30.1981 34.2395C30.1335 35.1513 29.4389 35.9664 29.6004 36.854Z" fill="#FFD066"/>
<path d="M84.7711 46.473C84.7711 45.7387 84.7388 45.0124 84.6823 44.2942C84.6742 44.2216 84.6742 44.149 84.6661 44.0683C84.3996 40.7517 83.5839 37.5803 82.3078 34.6672C82.3078 34.6672 82.3078 34.6672 82.3078 34.6591C82.1301 34.2556 81.9443 33.8602 81.7505 33.4648C81.7343 33.4325 81.7182 33.4002 81.702 33.3679C81.5244 33.0048 81.3386 32.6497 81.1448 32.2947C81.1125 32.2382 81.0882 32.1898 81.0559 32.1333C80.8702 31.8024 80.6844 31.4796 80.4825 31.1569C80.4421 31.0923 80.4017 31.0277 80.3613 30.9632C80.1675 30.6565 79.9737 30.3499 79.7717 30.0513C79.7233 29.9787 79.6748 29.9061 79.6264 29.8334C79.4245 29.5429 79.2226 29.2524 79.0126 28.97C78.956 28.8974 78.9076 28.8247 78.851 28.7521C78.641 28.4697 78.4149 28.1872 78.1968 27.9129C78.1403 27.8483 78.0918 27.7757 78.0353 27.7111C77.9949 27.6627 77.9545 27.6143 77.9142 27.5659C77.163 27.5336 76.5735 27.8967 76.21 28.7521C75.9758 29.3089 76.0404 31.1246 75.2651 31.2779C74.4332 31.4474 73.7467 26.8235 72.091 29.3815C71.8729 29.7205 71.9941 30.1724 71.8164 30.4952C71.566 30.9471 71.3722 30.939 71.033 31.1165C71.5499 30.1078 70.1365 27.7838 71.5902 27.8483C71.9214 27.1382 71.4045 26.3796 71.6064 25.6372C72.0102 24.1928 72.3171 25.4839 72.6321 26.1376C72.8179 26.5168 73.5932 27.9613 74.2716 27.461C74.7643 27.0978 74.1505 25.5323 74.1747 25.0482C74.7805 25.1531 74.942 25.9923 75.5881 26.1456C76.0566 26.2586 76.42 26.2667 76.7108 26.2182C76.6865 26.194 76.6623 26.1618 76.6381 26.1376C76.1535 25.6292 75.6608 25.1369 75.1439 24.6689L75.1358 24.6608C74.6028 24.1766 74.0455 23.7005 73.4802 23.2567C73.4721 23.2486 73.4559 23.2406 73.4478 23.2244C72.8906 22.7887 72.3171 22.3771 71.7356 21.9817C71.6872 21.9494 71.6387 21.9171 71.5822 21.8849C70.403 21.094 69.1592 20.392 67.867 19.7787C67.8266 19.7625 67.7862 19.7383 67.7458 19.7222C67.1078 19.4236 66.4617 19.1492 65.7994 18.891C65.7428 18.8668 65.6863 18.8507 65.6217 18.8265C64.281 18.3261 62.8999 17.9146 61.4784 17.6079C61.4461 17.5999 61.4058 17.5918 61.3734 17.5837C61.4219 17.7774 61.4381 18.0114 61.3815 18.3665C61.2765 18.9798 60.9696 18.8749 61.3815 19.4801C61.7127 19.9643 62.6092 20.0611 63.0211 20.4888C63.2876 20.7632 63.3522 21.086 63.6268 21.3765C63.9741 21.7396 64.5071 21.8364 64.7817 22.3125C64.9029 22.5143 65.0725 22.6999 65.1613 22.9097C64.5314 23.0388 63.5783 22.0543 63.2149 22.6192C62.8191 23.2325 63.9014 23.8942 64.0468 24.338C64.2245 24.8787 63.6995 25.7906 64.6525 25.8551C65.5409 25.9197 65.2259 24.8948 65.1775 24.3461C66.1871 24.225 66.3001 25.0643 66.7201 25.613C67.2774 26.3554 68.0689 26.1779 68.6342 26.7428C69.8134 27.9129 68.4404 27.6062 67.9235 27.6304C67.4389 27.6546 67.2047 27.5013 66.817 27.9613C66.3163 28.5665 66.6232 28.2437 66.8736 28.8086C67.0835 29.2928 67.6004 30.8018 67.9154 31.0923C68.1496 31.3021 69.9023 31.5846 70.4515 31.5361C69.9749 31.9638 69.7326 32.448 69.24 33.0371C68.2789 34.191 68.7715 33.8521 68.9411 35.1594C69.0865 36.2811 68.182 36.6361 67.8831 37.5884C67.5439 38.6778 68.3839 39.9608 68.5212 40.9453C68.6504 41.8653 69.1027 41.9944 69.4742 42.7126C69.7649 43.2694 69.7326 43.8423 70.1365 44.4637C70.718 45.3513 72.196 46.933 73.4317 46.7877C74.2959 46.6828 73.9486 45.9404 74.4736 45.5692C75.0308 45.1738 75.8546 45.8032 75.7981 44.6816C76.1292 44.6896 76.953 45.2868 77.2196 45.1819C77.7122 44.9882 77.5103 44.0925 77.5426 43.6729C78.843 43.455 78.6168 45.2303 78.318 45.8839C78.1726 46.1987 77.7526 46.6667 77.7284 46.9976C77.688 47.6028 78.0838 47.4333 78.3503 48.0063C78.8268 49.015 78.318 52.3154 77.7607 53.2112C77.2357 54.0423 75.9112 54.3732 76.105 55.6079C76.2262 56.3745 77.1711 56.6973 77.3569 57.48C77.583 58.4403 77.0661 59.3844 77.5023 60.3689C77.9868 61.4745 78.3664 62.4993 78.7945 63.6856C78.851 63.8389 78.9156 63.9519 78.9722 64.089C80.8136 61.6036 82.2674 58.8196 83.2608 55.8257C83.2527 55.7128 83.2447 55.5917 83.2447 55.4787C83.2447 55.4626 83.2447 55.4545 83.2447 55.4384C83.285 54.4055 83.6808 54.0101 83.9958 53.1063C84.0119 53.0659 84.02 53.0256 84.0362 52.9852C84.3269 51.6699 84.5369 50.3303 84.6419 48.9585C84.65 48.8858 84.65 48.8132 84.658 48.7325C84.7065 48.0143 84.7469 47.2961 84.7469 46.5618C84.7469 46.5537 84.7469 46.5537 84.7469 46.5457C84.7469 46.5376 84.7469 46.5295 84.7469 46.5214C84.7711 46.4892 84.7711 46.4811 84.7711 46.473Z" fill="#FFD066"/>
<path d="M60.6627 52.7512C60.1781 52.5495 59.4997 52.9287 59.0232 52.6624C58.2882 52.2428 58.692 51.9039 57.7955 51.7264C57.2383 51.6134 56.7214 51.8877 56.1802 51.8071C55.6149 51.7183 55.0253 50.9759 54.3146 51.0243C53.2162 50.1366 53.1919 49.0311 52.4489 47.8933C51.6493 46.6586 51.1566 47.0621 50.0259 47.0863C48.9114 47.1186 48.1603 46.0211 47.0457 45.771C46.6257 45.6741 46.2865 45.7225 45.8988 45.7468C45.3739 45.779 45.2527 45.8355 44.5904 45.6983C44.2512 45.6338 43.702 45.6903 43.387 45.5934C43.3547 45.5854 43.0317 45.6257 42.9267 45.6015C42.7328 45.5531 42.8621 45.085 42.5471 45.0608C42.1513 45.0286 40.108 46.0938 39.9545 46.3843C39.5911 47.0702 40.3018 47.3526 40.3745 47.9014C40.4553 48.5308 40.213 48.6034 39.8818 49.0392C38.735 50.5805 37.4993 52.9852 37.0712 54.8412C36.8289 55.8822 37.1358 56.1404 37.5639 57.0039C38.0646 58.0126 37.9838 59.1101 38.4604 60.1188C39.0096 61.305 39.7526 61.1356 40.7379 61.7973C41.6264 62.3944 41.691 63.161 41.8121 64.1536C41.909 64.9121 42.0221 65.6465 42.0302 66.4292C42.0383 66.8408 41.7233 67.0022 41.8848 67.4057C42.119 67.9705 42.9186 68.2449 43.3386 68.6565C43.7505 69.068 44.0574 69.5764 44.4935 69.9879C45.5677 71.0047 46.7953 71.8843 47.2638 73.353C47.4657 73.9905 47.3607 74.4747 47.2638 74.9911C48.2087 75.2493 49.1698 75.4672 50.1471 75.6367C50.2925 75.6609 50.3894 73.8129 50.454 73.6273C50.7044 72.8849 51.1243 72.7558 51.6655 72.191C52.247 71.5777 52.1824 71.1419 52.4004 70.3188C52.9416 68.2691 53.9754 68.0916 55.6795 67.212C57.0848 66.4857 58.2236 65.7272 57.8198 64.1536C57.3594 62.3863 58.2074 61.5229 59.3059 60.1914C60.4446 58.8034 61.1796 57.0765 61.43 55.2931C61.6077 54.115 61.4623 53.0821 60.6627 52.7512Z" fill="#FFD066"/>
<path d="M55.2191 10.7891L65.3148 20.4485L58.7728 10.7891H55.2191Z" fill="#110239"/>
<path d="M94.9071 42.9304L83.4385 47.1508L94.9071 46.9088V42.9304Z" fill="#110239"/>
<path d="M33.8325 41.946L18.4467 55.1479V50.6208L33.8325 41.946Z" fill="#110239"/>
<path d="M52.1743 66.0903L65.2421 78.2109H70.2495L52.1743 66.0903Z" fill="#110239"/>
<path d="M69.9749 22.9662C69.9749 24.3542 68.8523 25.4758 67.4632 25.4758C66.074 25.4758 64.9514 24.3542 64.9514 22.9662C64.9514 21.5782 66.074 20.4565 67.4632 20.4565C68.8523 20.4485 69.9749 21.5782 69.9749 22.9662Z" fill="#F45762"/>
<path d="M38.8561 40.4208C38.8561 41.8088 37.7335 42.9305 36.3443 42.9305C34.9552 42.9305 33.8325 41.8088 33.8325 40.4208C33.8325 39.0329 34.9552 37.9112 36.3443 37.9112C37.7335 37.9031 38.8561 39.0329 38.8561 40.4208Z" fill="#F45762"/>
<path d="M52.7639 62.8463C52.7639 64.2343 51.6413 65.356 50.2521 65.356C48.8629 65.356 47.7403 64.2343 47.7403 62.8463C47.7403 61.4583 48.8629 60.3367 50.2521 60.3367C51.6413 60.3286 52.7639 61.4583 52.7639 62.8463Z" fill="#F45762"/>
<path d="M80.5794 50.8145C81.9666 50.8145 83.0912 49.6909 83.0912 48.3048C83.0912 46.9188 81.9666 45.7952 80.5794 45.7952C79.1922 45.7952 78.0676 46.9188 78.0676 48.3048C78.0676 49.6909 79.1922 50.8145 80.5794 50.8145Z" fill="#F45762"/>
<path d="M65.7994 0H46.4157V10.7891H65.7994V0Z" fill="#0186CB"/>
<path d="M114.008 38.8956H94.6245V49.6847H114.008V38.8956Z" fill="#F45762"/>
<path d="M79.9414 78.2109H60.5577V89H79.9414V78.2109Z" fill="#BBEADB"/>
<path d="M19.3836 47.8368H0V58.6259H19.3836V47.8368Z" fill="#09C9CE"/>
<path d="M29.027 38.8633C28.8655 38.7261 28.6313 38.7342 28.4859 38.8956C28.3486 39.057 28.3647 39.291 28.5182 39.4363C29.447 40.2513 30.4162 41.0825 31.4257 41.9217C31.4984 41.9782 31.5792 42.0105 31.668 42.0105C31.7811 42.0105 31.8861 41.9621 31.9588 41.8733C32.0961 41.7119 32.0718 41.4698 31.9103 41.3407C30.9169 40.4934 29.9477 39.6703 29.027 38.8633Z" fill="#110239"/>
<path d="M37.0793 21.5943C37.2328 21.5943 37.3781 21.4974 37.4347 21.3441C37.5074 21.1504 37.4024 20.9245 37.2085 20.8599C35.9567 20.408 34.7371 19.9965 33.5822 19.6334C33.3803 19.5688 33.1703 19.6818 33.1057 19.8835C33.041 20.0853 33.1541 20.2951 33.356 20.3596C34.5029 20.7147 35.7063 21.1262 36.9501 21.5781C36.9905 21.5862 37.0308 21.5943 37.0793 21.5943Z" fill="#110239"/>
<path d="M23.543 33.61C23.3977 33.4566 23.1554 33.4486 23.0019 33.5938C22.8485 33.7391 22.8404 33.9812 22.9858 34.1345C23.8257 35.0222 24.7384 35.934 25.6995 36.8459C25.7722 36.9185 25.8691 36.9508 25.966 36.9508C26.0629 36.9508 26.1679 36.9104 26.2406 36.8297C26.386 36.6764 26.3779 36.4343 26.2244 36.2891C25.2795 35.3934 24.3749 34.4896 23.543 33.61Z" fill="#110239"/>
<path d="M40.9883 48.2402C40.8187 48.1192 40.5764 48.1595 40.4553 48.329C40.3341 48.4985 40.3745 48.7406 40.5441 48.8616C41.5698 49.5879 42.6198 50.3061 43.6859 51.0323C43.7505 51.0808 43.8232 51.0969 43.8959 51.0969C44.017 51.0969 44.1382 51.0404 44.2108 50.9274C44.332 50.7499 44.2835 50.5159 44.1059 50.4029C43.0559 49.6766 42.014 48.9584 40.9883 48.2402Z" fill="#110239"/>
<path d="M34.8825 43.7051C34.7129 43.576 34.4786 43.6083 34.3494 43.7697C34.2202 43.9391 34.2525 44.1731 34.414 44.3023C35.3994 45.0689 36.4089 45.8435 37.4589 46.6182C37.5235 46.6667 37.6043 46.6909 37.685 46.6909C37.7981 46.6909 37.9192 46.6344 37.9919 46.5375C38.1131 46.3681 38.0808 46.1341 37.9112 46.0049C36.8693 45.2383 35.8597 44.4717 34.8825 43.7051Z" fill="#110239"/>
<path d="M26.0064 18.544C27.1533 18.7296 28.397 18.9878 29.7054 19.3187C29.7377 19.3268 29.77 19.3268 29.8024 19.3268C29.972 19.3268 30.1254 19.2138 30.1739 19.0363C30.2223 18.8345 30.1012 18.6247 29.8993 18.5763C28.5747 18.2454 27.3067 17.9791 26.1356 17.7855C25.9256 17.7532 25.7318 17.8904 25.6995 18.1002C25.651 18.31 25.7964 18.5117 26.0064 18.544Z" fill="#110239"/>
<path d="M98.275 64.6055C98.3397 64.7346 98.477 64.8153 98.6143 64.8153C98.6708 64.8153 98.7273 64.7992 98.7839 64.7749C98.9696 64.6781 99.0504 64.4522 98.9535 64.2585C98.4366 63.2417 97.7501 62.1362 96.9101 60.9742C96.789 60.8047 96.5467 60.7643 96.3771 60.8854C96.2075 61.0064 96.1671 61.2485 96.2963 61.418C97.112 62.5558 97.7743 63.6291 98.275 64.6055Z" fill="#110239"/>
<path d="M16.3146 21.8122C16.3146 21.5378 16.3388 21.2796 16.3873 21.0375C16.4276 20.8358 16.2984 20.634 16.0884 20.5856C15.8784 20.5453 15.6765 20.6744 15.6361 20.8842C15.5796 21.1747 15.5473 21.4894 15.5473 21.8122C15.5473 22.6999 15.7734 23.7086 16.2338 24.8141C16.2903 24.9594 16.4357 25.0481 16.5892 25.0481C16.6376 25.0481 16.6861 25.04 16.7345 25.0158C16.9284 24.9351 17.0253 24.7173 16.9445 24.5155C16.5246 23.5068 16.3146 22.5949 16.3146 21.8122Z" fill="#110239"/>
<path d="M22.275 17.4223H22.0489C20.5951 17.4223 19.3594 17.6079 18.3902 17.963C18.1964 18.0356 18.0914 18.2535 18.1641 18.4552C18.2206 18.6085 18.366 18.7054 18.5195 18.7054C18.5598 18.7054 18.6083 18.6973 18.6487 18.6812C19.5371 18.3503 20.684 18.1889 22.0489 18.1889H22.267H22.275C22.485 18.1889 22.6546 18.0195 22.6546 17.8096C22.6546 17.5998 22.485 17.4304 22.275 17.4223Z" fill="#110239"/>
<path d="M18.7456 27.7837C18.6245 27.6062 18.3902 27.5578 18.2126 27.6788C18.0349 27.7999 17.9945 28.0339 18.1076 28.2033C18.7618 29.1717 19.5371 30.2046 20.4255 31.2779C20.4982 31.3666 20.6113 31.4151 20.7163 31.4151C20.8051 31.4151 20.8859 31.3828 20.9586 31.3263C21.1201 31.1891 21.1443 30.9551 21.007 30.7937C20.1429 29.7446 19.3756 28.7359 18.7456 27.7837Z" fill="#110239"/>
<path d="M84.8761 70.5286C83.7292 70.2138 82.5016 69.8507 81.2417 69.4311C81.0398 69.3665 80.8298 69.4714 80.7571 69.6732C80.6925 69.8749 80.7975 70.0847 80.9994 70.1574C82.2674 70.577 83.5031 70.9482 84.6661 71.2629C84.6984 71.271 84.7307 71.279 84.763 71.279C84.9326 71.279 85.0861 71.1661 85.1346 70.9966C85.1992 70.7949 85.078 70.5851 84.8761 70.5286Z" fill="#110239"/>
<path d="M50.5186 54.5265C49.4283 53.8567 48.3541 53.1788 47.2961 52.4929C47.1184 52.3799 46.8842 52.4283 46.7711 52.6059C46.658 52.7834 46.7065 53.0174 46.8842 53.1304C47.9422 53.8163 49.0244 54.4942 50.1148 55.172C50.1794 55.2124 50.244 55.2285 50.3167 55.2285C50.4459 55.2285 50.5671 55.164 50.6397 55.051C50.7528 54.8654 50.6963 54.6314 50.5186 54.5265Z" fill="#110239"/>
<path d="M92.2903 71.9004C91.1677 71.8278 89.9159 71.6502 88.559 71.392C88.3571 71.3517 88.1552 71.4888 88.1148 71.6906C88.0744 71.9004 88.2117 72.0941 88.4136 72.1344C89.7947 72.4007 91.0789 72.5782 92.2338 72.6589C92.2419 72.6589 92.25 72.6589 92.258 72.6589C92.46 72.6589 92.6215 72.5056 92.6376 72.3039C92.6619 72.0941 92.5003 71.9165 92.2903 71.9004Z" fill="#110239"/>
<path d="M100.116 68.027C100.108 67.8171 99.9307 67.68 99.7127 67.6638C99.5027 67.6719 99.3412 67.8575 99.3492 68.0673C99.3573 68.1561 99.3573 68.2448 99.3573 68.3255C99.3573 68.9792 99.2119 69.5521 98.9212 70.0282C98.4043 70.8836 97.4189 71.4565 95.9894 71.739C95.7794 71.7793 95.6502 71.9811 95.6906 72.1909C95.7229 72.3684 95.8844 72.4975 96.0621 72.4975C96.0863 72.4975 96.1105 72.4975 96.1348 72.4895C97.7824 72.1586 98.9373 71.4646 99.5673 70.4236C99.9307 69.8265 100.116 69.1164 100.116 68.3255C100.125 68.2287 100.125 68.1238 100.116 68.027Z" fill="#110239"/>
<path d="M91.8946 55.1721C91.7492 55.0187 91.5069 55.0187 91.3535 55.164C91.2 55.3092 91.2 55.5513 91.3454 55.7046C92.2742 56.6488 93.1384 57.5849 93.9218 58.4806C93.9945 58.5694 94.0995 58.6097 94.2126 58.6097C94.3014 58.6097 94.3903 58.5774 94.4629 58.5129C94.6245 58.3757 94.6406 58.1336 94.5033 57.9722C93.7118 57.0684 92.8315 56.1243 91.8946 55.1721Z" fill="#110239"/>
<path d="M88.8821 53.1627C88.987 53.1627 89.084 53.1224 89.1647 53.0417C89.3101 52.8884 89.302 52.6463 89.1486 52.501C88.2521 51.6698 87.291 50.8064 86.2976 49.951C86.136 49.8138 85.9018 49.83 85.7564 49.9914C85.6191 50.1527 85.6353 50.3948 85.7968 50.532C86.7822 51.3874 87.7352 52.2347 88.6236 53.0659C88.6963 53.1304 88.7932 53.1627 88.8821 53.1627Z" fill="#110239"/>
<path d="M57.0767 58.3919C55.9864 57.7786 54.888 57.1411 53.7815 56.4874C53.6038 56.3825 53.3696 56.439 53.2565 56.6246C53.1516 56.8021 53.2081 57.0362 53.3938 57.1491C54.5003 57.8028 55.6068 58.4403 56.7052 59.0616C56.7617 59.0939 56.8264 59.1101 56.891 59.1101C57.0202 59.1101 57.1575 59.0374 57.2221 58.9164C57.319 58.7227 57.2544 58.4968 57.0767 58.3919Z" fill="#110239"/>
<path d="M77.6638 68.1723C76.5088 67.7446 75.3216 67.2685 74.1263 66.7762C73.9324 66.6955 73.7063 66.7843 73.6255 66.978C73.5447 67.1716 73.6336 67.3976 73.8355 67.4783C75.0389 67.9786 76.2342 68.4466 77.3972 68.8824C77.4376 68.8985 77.4861 68.9066 77.5345 68.9066C77.688 68.9066 77.8334 68.8098 77.8899 68.6564C77.9626 68.4628 77.8657 68.2449 77.6638 68.1723Z" fill="#110239"/>
<path d="M63.7802 61.9909C62.6657 61.4261 61.5431 60.837 60.4123 60.2317C60.2266 60.1349 59.9924 60.1995 59.8954 60.3851C59.7985 60.5707 59.8631 60.8047 60.0489 60.9015C61.1877 61.5148 62.3184 62.1039 63.433 62.6688C63.4895 62.693 63.546 62.7091 63.6026 62.7091C63.7399 62.7091 63.8772 62.6365 63.9418 62.4993C64.0387 62.3137 63.966 62.0797 63.7802 61.9909Z" fill="#110239"/>
<path d="M70.6372 65.2752C69.5065 64.7669 68.3516 64.2343 67.1885 63.6775C66.9947 63.5806 66.7686 63.6694 66.6797 63.855C66.5909 64.0487 66.6716 64.2746 66.8574 64.3634C68.0285 64.9282 69.1834 65.4608 70.3222 65.9692C70.3707 65.9934 70.4272 66.0015 70.4757 66.0015C70.6211 66.0015 70.7584 65.9208 70.823 65.7756C70.9199 65.5819 70.8311 65.3559 70.6372 65.2752Z" fill="#110239"/>
<path d="M32.6291 73.4498C31.4096 73.8371 30.2223 74.1922 29.0997 74.4907C28.9059 74.5472 28.7847 74.749 28.8412 74.9426C28.8816 75.104 29.027 75.2089 29.1805 75.217C29.2208 75.217 29.2532 75.217 29.2935 75.2089C30.4323 74.9023 31.6357 74.5553 32.8634 74.1599C33.0572 74.0953 33.1622 73.8936 33.1056 73.6918C33.033 73.4982 32.823 73.3933 32.6291 73.4498Z" fill="#110239"/>
<path d="M25.5218 75.33C24.2215 75.5802 23.0019 75.7577 21.9035 75.8545C21.7016 75.8707 21.5482 76.0482 21.5643 76.258C21.5805 76.4436 21.7339 76.5889 21.9197 76.5969C21.9358 76.5969 21.952 76.5969 21.9681 76.5969C23.0988 76.5001 24.3426 76.3226 25.6672 76.0563C25.8691 76.0159 25.9983 75.8223 25.9579 75.6205C25.9175 75.4188 25.7237 75.2816 25.5218 75.33Z" fill="#110239"/>
<path d="M46.3269 68.0028C45.1881 68.5354 44.0655 69.0357 42.959 69.5199C42.7732 69.6006 42.6844 69.8185 42.7651 70.0041C42.8217 70.1413 42.9509 70.222 43.0882 70.23C43.1447 70.23 43.2013 70.222 43.2497 70.1977C44.3562 69.7136 45.4869 69.2052 46.6338 68.6726C46.8196 68.5838 46.9003 68.3659 46.8115 68.1803C46.7307 67.9947 46.5126 67.914 46.3269 68.0028Z" fill="#110239"/>
<path d="M39.5588 70.9401C38.3877 71.4081 37.2327 71.852 36.1182 72.2635C35.9243 72.3361 35.8274 72.5459 35.9001 72.7396C35.9566 72.8849 36.0859 72.9736 36.2312 72.9817C36.2797 72.9817 36.3282 72.9736 36.3766 72.9575C37.5073 72.5459 38.6623 72.1021 39.8414 71.626C40.0272 71.5534 40.1241 71.3355 40.0434 71.1418C39.9707 70.9562 39.7526 70.8675 39.5588 70.9401Z" fill="#110239"/>
<path d="M78.9722 26.6217C79.0125 26.6217 79.0529 26.6217 79.0933 26.6056C80.3371 26.2505 81.5324 25.9519 82.655 25.7018C82.857 25.6614 82.9781 25.4597 82.9377 25.2579C82.8973 25.0562 82.6954 24.9352 82.4935 24.9755C81.3547 25.2257 80.1433 25.5323 78.8833 25.8874C78.6895 25.9439 78.5764 26.1456 78.6249 26.3473C78.6733 26.5168 78.8187 26.6217 78.9722 26.6217Z" fill="#110239"/>
<path d="M52.9496 64.7265C51.8432 65.3076 50.7448 65.8644 49.6625 66.3969C49.4767 66.4857 49.4041 66.7117 49.4929 66.8892C49.5575 67.0102 49.6787 67.0909 49.8079 67.0909C49.8644 67.0909 49.929 67.0829 49.9856 67.0506C51.0759 66.5099 52.1824 65.9531 53.2889 65.3721C53.4665 65.2753 53.5392 65.0574 53.4423 64.8718C53.3535 64.7023 53.1273 64.6297 52.9496 64.7265Z" fill="#110239"/>
<path d="M24.8918 56.7618C24.7545 56.6084 24.5203 56.6004 24.3668 56.7376C23.4138 57.5929 22.5012 58.4483 21.6612 59.2795C21.5158 59.4247 21.5158 59.6588 21.6531 59.804C21.7177 59.8766 21.8066 59.9089 21.9035 59.917C22.0004 59.9251 22.1054 59.8847 22.1781 59.8121C23.0181 58.989 23.9226 58.1417 24.8595 57.2944C25.021 57.141 25.0291 56.907 24.8918 56.7618Z" fill="#110239"/>
<path d="M15.1435 67.801C14.9658 67.7042 14.7396 67.7687 14.6427 67.9463C13.9239 69.2697 13.4878 70.4721 13.3505 71.5292C13.3263 71.7309 13.4636 71.9165 13.6655 71.9407C13.6735 71.9407 13.6897 71.9407 13.6978 71.9407C13.8835 71.9488 14.0531 71.8116 14.0774 71.618C14.2066 70.6496 14.6104 69.536 15.2889 68.2933C15.3858 68.1238 15.3212 67.8979 15.1435 67.801Z" fill="#110239"/>
<path d="M18.2852 75.8465C16.8638 75.677 15.7815 75.2735 15.0708 74.6602C14.9173 74.523 14.6831 74.5473 14.5458 74.7006C14.4085 74.8539 14.4327 75.0879 14.5862 75.2251C15.41 75.9433 16.6296 76.3952 18.1964 76.5889C18.2045 76.5889 18.2125 76.5889 18.2206 76.5889C18.4145 76.597 18.5841 76.4598 18.6002 76.2661C18.6325 76.0482 18.4871 75.8707 18.2852 75.8465Z" fill="#110239"/>
<path d="M19.0848 61.9506C18.1964 62.9351 17.3887 63.9034 16.6941 64.8153C16.573 64.9767 16.6053 65.2107 16.7668 65.3317C16.8314 65.3802 16.9041 65.4044 16.9768 65.4044C17.098 65.4124 17.211 65.356 17.2918 65.2591C17.9702 64.3634 18.7617 63.4112 19.6421 62.4428C19.7794 62.2895 19.7632 62.0555 19.6178 61.9183C19.4563 61.7892 19.2221 61.8053 19.0848 61.9506Z" fill="#110239"/>
<path d="M71.8971 53.2838C70.9037 53.9777 69.8861 54.6637 68.8442 55.3577C68.6746 55.4706 68.6262 55.6966 68.7392 55.866C68.8038 55.971 68.9169 56.0274 69.03 56.0355C69.1027 56.0355 69.1834 56.0194 69.248 55.9709C70.298 55.277 71.3156 54.583 72.3171 53.889C72.4867 53.7679 72.5271 53.542 72.414 53.3725C72.2929 53.2111 72.0667 53.1708 71.8971 53.2838Z" fill="#110239"/>
<path d="M89.9239 24.1524C88.8174 24.112 87.5575 24.1766 86.1764 24.3461C85.9745 24.3703 85.8291 24.5559 85.8533 24.7576C85.8776 24.9432 86.023 25.0723 86.2006 25.0804C86.2249 25.0804 86.241 25.0804 86.2652 25.0804C87.6059 24.9109 88.8255 24.8464 89.8916 24.8948C90.0935 24.9029 90.2712 24.7415 90.2793 24.5397C90.2874 24.3299 90.1097 24.1605 89.9239 24.1524Z" fill="#110239"/>
<path d="M88.8659 39.1619C88.0663 40.0173 87.1941 40.8888 86.2733 41.7684C86.128 41.9056 86.1199 42.1396 86.2653 42.2929C86.3299 42.3656 86.4268 42.4059 86.5156 42.4059C86.6126 42.414 86.7095 42.3736 86.7902 42.301C87.719 41.4133 88.5994 40.5257 89.4151 39.6622C89.5524 39.517 89.5443 39.2749 89.3989 39.1377C89.2374 39.0086 89.0032 39.0086 88.8659 39.1619Z" fill="#110239"/>
<path d="M93.9137 33.3114C93.7441 33.2065 93.5099 33.2549 93.4049 33.4325C92.8315 34.3605 92.1126 35.3611 91.2808 36.4021C91.1515 36.5635 91.1758 36.7975 91.3373 36.9186C91.4019 36.967 91.4746 36.9993 91.5554 36.9993C91.6684 37.0073 91.7815 36.9589 91.8623 36.8621C92.7184 35.7969 93.4533 34.7801 94.0429 33.8198C94.1398 33.6504 94.0914 33.4163 93.9137 33.3114Z" fill="#110239"/>
<path d="M95.416 26.5248C95.0364 25.8712 94.4468 25.3467 93.6634 24.9593C93.4857 24.8706 93.2595 24.9432 93.1707 25.1288C93.0818 25.3144 93.1545 25.5323 93.3403 25.621C93.9864 25.9438 94.4791 26.3715 94.786 26.896C95.0929 27.4125 95.2302 28.0339 95.1979 28.7521C95.1817 29.1959 95.0929 29.6801 94.9395 30.1965C94.8829 30.3902 94.996 30.6 95.1898 30.6565C95.2221 30.6646 95.2464 30.6726 95.2787 30.6726C95.4483 30.6807 95.6017 30.5758 95.6502 30.4063C95.8198 29.8334 95.9086 29.2927 95.9329 28.7924C95.9652 27.9289 95.7956 27.1623 95.416 26.5248Z" fill="#110239"/>
<path d="M65.7428 57.3589C64.7171 58.0045 63.6672 58.6581 62.6011 59.2956C62.4234 59.4005 62.3669 59.6265 62.4719 59.804C62.5365 59.917 62.6495 59.9735 62.7707 59.9815C62.8434 59.9815 62.9161 59.9654 62.9807 59.9251C64.0468 59.2795 65.1048 58.6339 66.1386 57.9803C66.3082 57.8754 66.3647 57.6413 66.2517 57.4719C66.1386 57.3024 65.9125 57.254 65.7428 57.3589Z" fill="#110239"/>
<path d="M83.5516 44.2539C82.6631 45.0366 81.7182 45.8355 80.7409 46.6344C80.5794 46.7635 80.5632 46.9975 80.6925 47.1589C80.7652 47.2396 80.8621 47.2881 80.959 47.2961C81.0478 47.2961 81.1367 47.2719 81.2094 47.2154C82.1947 46.4085 83.1477 45.6015 84.0442 44.8187C84.1977 44.6816 84.2138 44.4475 84.0765 44.2942C83.9392 44.1328 83.705 44.1167 83.5516 44.2539Z" fill="#110239"/>
<path d="M59.4189 61.1759C58.3447 61.7973 57.2706 62.4025 56.2045 62.9835C56.0268 63.0803 55.9622 63.3063 56.0591 63.4838C56.1237 63.6048 56.2448 63.6694 56.366 63.6775C56.4306 63.6775 56.4952 63.6694 56.5598 63.6291C57.634 63.04 58.7082 62.4348 59.7904 61.8134C59.9681 61.7085 60.0246 61.4825 59.9277 61.3131C59.8227 61.1355 59.5966 61.071 59.4189 61.1759Z" fill="#110239"/>
<path d="M77.8576 48.9343C76.9046 49.6686 75.9192 50.411 74.9097 51.1534C74.7482 51.2745 74.7078 51.5085 74.8289 51.6699C74.9016 51.7667 75.0066 51.8151 75.1116 51.8232C75.1924 51.8232 75.2731 51.807 75.3458 51.7506C76.3635 51.0082 77.3569 50.2657 78.3099 49.5233C78.4714 49.4023 78.5037 49.1683 78.3745 49.0069C78.2453 48.8374 78.0191 48.8051 77.8576 48.9343Z" fill="#110239"/>
</svg>
