<svg width="170" height="145" viewBox="0 0 170 145" fill="none" xmlns="http://www.w3.org/2000/svg">
<g clip-path="url(#clip0)">
<path d="M84.8796 63.3601H74.6232V106.06H84.8796V63.3601Z" fill="white"/>
<path d="M121.441 84.8583C123.38 84.2171 124.905 83.3108 125.998 82.1394C127.097 80.968 127.801 79.6548 128.11 78.1998C128.264 77.4415 128.381 76.7756 128.462 76.1899C128.542 75.6104 128.579 75.1049 128.579 74.6795C128.579 73.2861 128.388 71.9113 127.999 70.5611C127.61 69.2109 126.85 67.8792 125.726 66.5599C125.183 65.8817 124.59 65.333 123.948 64.9137C123.306 64.4945 122.571 64.1739 121.731 63.9396C120.898 63.7054 119.94 63.5512 118.86 63.4772C117.779 63.3971 116.575 63.3601 115.235 63.3601H89.4551V106.06H115.822C118.656 106.06 120.91 105.82 122.583 105.333C124.25 104.871 125.72 103.687 126.98 101.782C128.221 99.8213 128.845 97.7374 128.845 95.5303C128.764 92.5833 128.017 90.2158 126.603 88.4341C125.177 86.6523 123.46 85.4563 121.441 84.8583ZM118.378 76.2146C118.378 77.4723 117.816 78.4033 116.686 79.0074C115.562 79.6055 113.803 79.9076 111.413 79.9076H110.042H104.577V89.3342H109.258H110.629C113.482 89.1986 115.507 89.5007 116.705 90.2343C117.897 90.9742 118.458 91.9606 118.378 93.1998C118.378 93.8595 118.162 94.5562 117.724 95.296C117.285 96.0358 116.649 96.4982 115.816 96.6893C114.939 96.9051 113.63 97.0099 111.882 97.0099H110.511H99.6437V94.4822V72.3983H110.629H111.709C114.173 72.3182 115.921 72.6511 116.952 73.3848C117.983 74.1308 118.458 75.074 118.378 76.2146Z" fill="white"/>
<path d="M148.938 80.1419V89.2479H159.744V96.8989H154.847C153.451 96.8989 152.198 96.8435 151.105 96.7386C150.006 96.6338 149.012 96.4242 148.116 96.116C147.221 95.8077 146.431 95.37 145.745 94.8089C145.054 94.2479 144.411 93.4896 143.806 92.5401C142.639 90.6782 142.059 88.1936 142.059 85.0925C142.059 83.5821 142.201 82.1702 142.479 80.8632C142.763 79.5562 143.337 78.0827 144.214 76.4551C144.702 75.6227 145.276 74.9446 145.949 74.4329C146.622 73.9211 147.425 73.5327 148.369 73.2676C149.314 73.0087 150.401 72.8299 151.63 72.7313C152.865 72.6326 154.254 72.5833 155.81 72.5833H169.969V63.3601H151.617C147.771 63.3601 144.411 63.7978 141.54 64.6671C138.644 65.4994 136.52 67.1887 135.161 69.7288C133.766 72.2319 132.809 74.6733 132.29 77.0592C131.778 79.4452 131.518 81.9668 131.518 84.624C131.518 87.3983 131.778 89.9877 132.29 92.3922C132.803 94.7966 133.803 97.2319 135.279 99.6918C136.755 102.152 138.842 103.835 141.54 104.723C144.239 105.617 147.48 106.06 151.272 106.06H170V80.148H148.938V80.1419Z" fill="white"/>
<path d="M95.2904 110.894C83.0827 114.069 57.3274 116.017 23.9831 92.1579L49.7014 121.751C65.3917 125.105 82.2244 122.331 96.2969 113.157C97.4825 112.392 96.655 110.543 95.2904 110.894Z" fill="#004977"/>
<path d="M45.6137 116.591C44.3355 114.686 42.9955 112.657 41.8408 110.543C41.2233 110.271 40.6614 109.864 40.2045 109.31C38.0618 106.689 36.0241 103.434 34.536 99.9384C30.757 100.099 28.3796 97.8299 26.1505 94.9445C25.0329 93.5019 23.9955 91.9976 22.9396 90.5056C22.8161 90.3329 21.9887 89.1801 22.8099 90.3145C22.6432 90.0802 22.4765 89.8459 22.3098 89.6116C22.0257 89.2232 21.7417 88.8348 21.4391 88.4587C21.0501 87.9778 20.7413 87.4538 20.519 86.8989C18.506 86.6831 16.6536 85.6474 15.1531 84.217C12.1336 81.3379 10.0218 76.64 9.65747 72.3243C5.76731 68.021 5.89081 60.5241 10.028 56.418C9.92299 49.926 11.8928 44.8582 16.3078 38.3601C18.6172 34.963 20.6178 30.8878 19.8151 26.6831C19.2532 23.7423 16.8882 22.6326 14.1466 23.8471C-2.87749 45.7337 -3.45792 77.1579 14.5541 99.8397C24.1005 111.862 37.2406 119.359 51.2328 122.035C49.1333 120.721 47.2315 118.995 45.6137 116.591Z" fill="url(#paint0_linear)"/>
<path d="M31.887 103.397C31.1336 102.269 30.3432 101.079 29.664 99.8273C29.2997 99.667 28.9663 99.4266 28.7007 99.0998C27.4349 97.5524 26.2308 95.6288 25.3601 93.5696C23.131 93.6683 21.7293 92.3243 20.4141 90.6227C19.7534 89.7719 19.1421 88.8841 18.5184 88.0024C18.4443 87.8976 17.9565 87.2194 18.4381 87.8915C18.3393 87.7558 18.2405 87.614 18.1417 87.4722C17.975 87.2441 17.8083 87.0098 17.6292 86.794C17.4007 86.5104 17.2155 86.2022 17.0858 85.8754C15.9003 85.7521 14.8011 85.1356 13.9181 84.291C12.1336 82.5955 10.8924 79.8212 10.6763 77.2749C8.37928 74.7349 8.45338 70.3144 10.8924 67.8915C10.8307 64.0628 11.9916 61.0727 14.5974 57.2379C15.962 55.2342 17.1414 52.8236 16.6659 50.3452C16.3325 48.6066 14.937 47.9531 13.3192 48.6744C3.27267 61.5844 2.92688 80.1294 13.5538 93.5141C19.1853 100.61 26.9409 105.037 35.2029 106.615C33.9617 105.838 32.8379 104.821 31.887 103.397Z" fill="url(#paint1_linear)"/>
<path d="M63.6813 123.126C63.6813 123.126 34.1531 124.741 15.5853 101.196C13.7144 98.8224 11.9422 96.3625 10.3182 93.8101C8.80534 91.4303 7.416 88.9642 6.19338 86.4241C5.03868 84.0259 4.03218 81.5536 3.21092 79.0197C2.41437 76.5783 1.79071 74.0813 1.35229 71.5474C0.913877 69.0382 0.660707 66.5043 0.592784 63.958C0.518686 61.3686 0.629833 58.7731 0.907702 56.196C1.19792 53.508 1.66103 50.8446 2.27852 48.2182C2.92688 45.4254 3.74196 42.6757 4.68054 39.9691C5.68704 37.0592 6.83557 34.2046 8.08906 31.3933C8.62627 30.1972 9.16349 29.0012 9.71305 27.8051C9.83037 27.5462 9.95387 27.2811 10.1576 27.0776C11.0098 26.2453 12.5411 27.3674 13.103 28.0517C14.196 29.3834 13.9737 31.6399 13.844 33.2305C13.5847 36.5228 12.8993 39.778 12.2633 43.0148C11.6705 46.0419 11.053 49.0628 10.5096 52.1023C8.26196 64.6301 16.3819 85.3514 20.2906 84.2047C24.1993 83.0579 21.0686 69.8705 20.5314 64.778C19.9942 59.6917 19.457 54.9013 22.6 55.0924C25.743 55.2836 30.0407 58.7731 34.0482 85.5733C38.0556 112.374 58.5562 122.805 63.6813 123.126Z" fill="url(#paint2_linear)"/>
<path d="M44.3972 81.4304C45.6322 80.7522 46.0706 79.1924 45.379 77.9408C44.6874 76.6893 43.1313 76.2269 41.8964 76.9051C41.0689 77.3613 40.612 78.2121 40.5996 79.0999C40.1118 79.1616 39.6364 79.2232 39.2226 79.2849C39.1856 79.0937 39.0992 78.9149 38.9633 78.7546C38.5558 78.2861 37.8518 78.2306 37.3949 78.6252C36.938 79.0198 36.9071 79.7226 37.3146 80.1912C37.7222 80.6597 38.4261 80.7152 38.883 80.3206C39.1177 80.1172 39.2412 79.8274 39.2473 79.5315C39.6611 79.5376 40.1427 79.55 40.6305 79.55C40.6799 79.8397 40.7664 80.1233 40.9146 80.3946C41.6061 81.64 43.1622 82.1085 44.3972 81.4304Z" fill="url(#paint3_linear)"/>
<path d="M38.7657 90.0678C38.3952 89.889 37.9506 90.0555 37.7654 90.4378C37.5801 90.82 37.7283 91.2762 38.0988 91.4612C38.1235 91.4735 38.1544 91.4735 38.1853 91.4797C38.1668 91.603 38.1544 91.7386 38.1482 91.8804C38.1482 92.0715 38.1544 92.275 38.1606 92.4846C38.1668 92.9717 38.1791 93.4526 38.1915 93.767C38.0741 93.7793 37.9568 93.8471 37.9012 93.9704C37.8148 94.1554 37.8827 94.3712 38.0618 94.4575C38.2409 94.5438 38.4508 94.4637 38.5372 94.2787C38.6237 94.0937 38.5558 93.878 38.3767 93.7916C38.3458 93.7732 38.3088 93.7731 38.2717 93.767C38.3088 93.4526 38.3582 92.9778 38.4014 92.4969C38.4199 92.2935 38.4508 92.09 38.4632 91.8989C38.4632 91.7633 38.4631 91.64 38.457 91.5228C38.7225 91.5105 38.9757 91.3564 39.1053 91.0913C39.2844 90.709 39.13 90.2466 38.7657 90.0678Z" fill="url(#paint4_linear)"/>
<path d="M18.5493 71.8125C18.1788 71.6337 17.7342 71.8002 17.5489 72.1824C17.3637 72.5647 17.5119 73.0209 17.8824 73.2059C17.9071 73.2182 17.9379 73.2182 17.9688 73.2244C17.9503 73.3477 17.9379 73.4833 17.9318 73.6251C17.9318 73.8162 17.9379 74.0197 17.9441 74.2293C17.9503 74.7164 17.9626 75.1972 17.975 75.5117C17.8577 75.524 17.7403 75.5918 17.6848 75.7151C17.5983 75.9001 17.6662 76.1159 17.8453 76.2022C18.0244 76.2885 18.2343 76.2083 18.3208 76.0234C18.4072 75.8384 18.3393 75.6226 18.1602 75.5363C18.1294 75.5178 18.0923 75.5178 18.0553 75.5117C18.0923 75.1972 18.1417 74.7225 18.1849 74.2416C18.2035 74.0382 18.2343 73.8347 18.2467 73.6436C18.2467 73.508 18.2467 73.3847 18.2405 73.2675C18.506 73.2552 18.7592 73.1011 18.8889 72.836C19.0679 72.4537 18.9197 71.9913 18.5493 71.8125Z" fill="url(#paint5_linear)"/>
<path d="M47.9107 87.1393C47.7316 87.1702 47.6019 87.3058 47.5464 87.4723C47.1697 87.3551 46.7498 87.2318 46.3114 87.1085C46.1817 87.0715 46.0521 87.0284 45.9224 86.9914C45.9347 86.8126 45.9347 86.6276 45.9039 86.4427C45.6939 85.2589 44.601 84.4636 43.4586 84.6671C42.3163 84.8705 41.5568 85.9926 41.7605 87.1702C41.9458 88.2429 42.8658 88.9889 43.8909 88.9704C43.8909 89.0074 43.8909 89.0382 43.897 89.0752C43.9341 89.3341 44.0082 89.6116 44.0576 89.8829C44.1255 90.2466 44.1934 90.6042 44.2613 90.9248C43.7859 91.0789 43.4833 91.566 43.5759 92.09C43.6747 92.6572 44.1996 93.0395 44.7492 92.9408C44.7924 92.9346 44.8294 92.9223 44.8665 92.91C44.9468 93.0579 45.0332 93.2121 45.132 93.3724C45.2802 93.582 45.4531 93.8039 45.6198 94.0197C46.0088 94.5499 46.3978 95.0617 46.6634 95.4007C46.5399 95.5117 46.4719 95.6782 46.5028 95.857C46.5522 96.1282 46.7992 96.3132 47.0647 96.2639C47.3241 96.2207 47.5031 95.9618 47.4537 95.6905C47.4043 95.4192 47.1574 95.2343 46.8918 95.2836C46.8424 95.2898 46.7992 95.3144 46.756 95.3391C46.546 94.9692 46.225 94.402 45.8915 93.8471C45.7557 93.6067 45.6198 93.36 45.484 93.1443C45.3852 92.9963 45.2864 92.8668 45.1876 92.7497C45.4716 92.5216 45.626 92.1455 45.5581 91.7571C45.4654 91.2454 45.0332 90.8878 44.5454 90.8939C44.5392 90.5672 44.5269 90.2096 44.5083 89.852C44.496 89.5684 44.5083 89.291 44.4836 89.0259C44.4775 88.9827 44.4713 88.9396 44.4589 88.8964C45.1135 88.6868 45.6075 88.1751 45.8112 87.5339C45.9409 87.5524 46.0706 87.5647 46.2064 87.5832C46.6695 87.6572 47.1265 87.7189 47.5278 87.7682C47.5896 88.021 47.8242 88.1874 48.0774 88.1443C48.3429 88.1011 48.5158 87.8422 48.4664 87.5709C48.4232 87.275 48.17 87.0962 47.9107 87.1393Z" fill="url(#paint6_linear)"/>
<path d="M41.8099 22.1208C40.7849 22.4044 40.0933 23.1196 40.26 23.7176C40.4267 24.3157 41.39 24.5684 42.4151 24.2848C43.4401 24.0012 44.1317 23.2861 43.9649 22.688C43.7982 22.09 42.8349 21.8372 41.8099 22.1208Z" fill="url(#paint7_linear)"/>
<path d="M108.344 30.6597C108.177 30.8138 108.103 31.0419 108.103 31.3132C107.424 30.9988 106.59 30.6227 105.751 30.2589C105.263 30.037 104.775 29.8027 104.312 29.6116C103.904 29.4636 103.521 29.3465 103.169 29.254C103.262 28.5758 102.713 27.9038 101.904 27.7312C101.576 27.6634 101.255 27.688 100.977 27.7805C100.607 27.1332 100.131 26.307 99.6375 25.4932C99.3843 25.0555 99.1435 24.6116 98.8903 24.2108C98.6186 23.8224 98.3531 23.471 98.0937 23.1874C98.0196 23.1073 97.9517 23.0333 97.8838 22.9593C98.1987 23.0333 98.4272 23.0333 98.4766 22.9285C98.563 22.7497 98.032 22.3243 97.291 21.979C96.55 21.6338 95.8831 21.5043 95.7967 21.6831C95.7102 21.8619 96.2413 22.2873 96.9823 22.6325C97.0749 22.6757 97.1613 22.7127 97.2478 22.7497C97.3281 22.9531 97.433 23.2182 97.5812 23.5265C97.7418 23.8718 97.9703 24.254 98.2234 24.6547C98.4951 25.0431 98.8162 25.4316 99.1249 25.8323C99.6807 26.5845 100.255 27.3181 100.706 27.9038C100.397 28.0764 100.175 28.3539 100.101 28.693C99.9462 29.402 100.514 30.1233 101.36 30.3021C101.978 30.4316 102.571 30.2404 102.904 29.852C103.231 30.0247 103.608 30.1973 104.022 30.3637C104.497 30.5302 105.01 30.6782 105.528 30.8385C106.467 31.1467 107.405 31.4427 108.153 31.6708C108.245 32.053 108.474 32.4661 108.819 32.8422C109.542 33.6251 110.493 33.9149 110.95 33.4957C111.407 33.0764 111.197 32.1023 110.474 31.3194C109.752 30.5364 108.801 30.2404 108.344 30.6597Z" fill="url(#paint8_linear)"/>
<path d="M57.0433 2.67573C60.8408 1.96673 64.2123 1.04194 66.5649 0.123324C58.7846 -0.369894 50.9179 0.591882 43.3969 3.05797C44.5763 4.05674 50.3065 3.92727 57.0433 2.67573Z" fill="url(#paint9_linear)"/>
<path d="M33.5048 41.0604C33.548 41.1344 33.5789 41.2146 33.6221 41.2886C34.0852 42.0654 34.7891 42.7682 35.3449 43.5635C35.9068 44.3588 36.481 45.1418 37.0306 45.8755C35.0793 47.4723 34.5113 50.2281 35.8142 52.349C37.2405 54.6733 40.3774 55.3515 42.8103 53.8656C45.2432 52.3736 46.0582 49.2787 44.6257 46.9544C43.3845 44.9322 40.8467 44.1554 38.6114 44.9692C38.2656 44.1246 37.8889 43.2306 37.4999 42.3428C37.1047 41.4612 36.8577 40.4932 36.4316 39.6979C36.3822 39.6116 36.3267 39.5315 36.2711 39.4452C37.4134 38.3662 38.0742 36.9852 38.1421 35.635C39.9204 35.3638 41.9581 35.0309 43.9835 34.6609C44.9221 34.4883 45.8792 34.3835 46.8054 34.2417C48.4356 37.5031 52.8568 38.9581 57.1112 37.4784C61.6621 35.9002 64.2926 31.5722 62.9897 27.8114C61.6806 24.0506 56.9322 22.2812 52.3813 23.8595C48.732 25.1233 46.3238 28.1566 46.1817 31.2516C45.2679 31.5783 44.3355 31.9606 43.3845 32.2627C41.4888 32.8792 39.6117 33.5265 37.963 34.1122C37.8642 33.804 37.7345 33.508 37.5616 33.2306C36.6848 31.8003 35.0238 31.0913 33.2269 31.1899C33.2207 30.7214 33.1898 30.2343 33.1157 29.7288C32.9675 28.8101 32.6341 27.8545 32.4242 26.8804C32.1957 25.8447 31.9549 24.8089 31.7202 23.8471C32.3686 23.5882 33.0293 23.2676 33.6715 22.873C37.2776 20.6844 39.1856 17.2442 37.9383 15.1911C36.691 13.1381 32.7514 13.2368 29.1453 15.4254C27.4966 16.4242 26.2061 17.6881 25.4033 18.9643C25.0637 19.0074 24.7241 19.0567 24.3783 19.0999C22.4394 19.3157 20.5067 19.5746 19.3952 19.7288C19.988 19.0136 20.2967 18.3909 20.1177 18.2121C19.883 17.984 18.9444 18.5635 18.012 19.5068C17.0796 20.4501 16.5177 21.3995 16.7462 21.6276C16.9747 21.8558 17.9194 21.2762 18.8518 20.3329C18.9691 20.2158 19.0741 20.0987 19.1791 19.9815C20.2535 19.9939 22.3468 20.0062 24.4339 19.9692C24.5821 19.9692 24.7241 19.9692 24.8723 19.9692C24.3845 21.1283 24.3474 22.2442 24.8723 23.1073C25.7491 24.55 27.9412 24.926 30.4173 24.2725C30.4605 25.1911 30.5099 26.1653 30.5779 27.1394C30.652 28.132 30.5964 29.1431 30.7137 30.0678C30.794 30.6412 30.9237 31.1838 31.0719 31.6893C30.7508 31.8249 30.4297 31.9852 30.1148 32.1764C27.8362 33.5697 26.7124 36.0173 27.2064 38.1011C27.1755 38.1196 27.1447 38.1381 27.1138 38.1628C26.4098 38.6498 25.7244 39.2602 24.9958 39.8151C24.5697 40.148 24.1437 40.4747 23.7238 40.7953C22.5629 39.9199 20.272 40.6104 18.4566 42.4291C16.5424 44.3403 15.8817 46.7756 16.9747 47.8607C18.0676 48.9519 20.5067 48.2861 22.4147 46.3749C23.9831 44.8027 24.7118 42.8854 24.3104 41.64C24.7612 41.3749 25.2181 41.1098 25.6812 40.8385C26.4222 40.3946 27.2002 40.0062 27.8918 39.5746C29.0897 41.1653 31.325 41.714 33.5048 41.0604Z" fill="url(#paint10_linear)"/>
<path d="M83.7002 10.1911C88.035 10.8508 92.0733 10.3699 94.9384 9.09371C87.4483 4.50062 79.1555 1.63379 70.6466 0.524048C70.2637 4.7349 76.0063 9.0259 83.7002 10.1911Z" fill="url(#paint11_linear)"/>
<path d="M58.0313 55.7954C55.4749 56.6831 54.1041 59.439 54.9809 61.9544C55.5675 63.6375 57.0124 64.7843 58.6673 65.0925C58.6241 66.0111 58.5932 66.9236 58.5747 67.6943C58.2104 67.7066 57.8399 67.7991 57.5064 68.0087C56.4999 68.6252 56.1727 69.9137 56.7716 70.8878C57.3706 71.8619 58.6735 72.1517 59.6738 71.5352C60.6803 70.9187 61.0076 69.6301 60.4086 68.656C60.0999 68.1505 59.5997 67.8361 59.0563 67.7312C59.2045 66.9729 59.3712 66.0728 59.5256 65.1727C60.0813 65.1788 60.6433 65.0925 61.199 64.9014C63.7554 64.0136 65.1262 61.2577 64.2494 58.7423C63.3726 56.2269 60.5877 54.9076 58.0313 55.7954Z" fill="url(#paint12_linear)"/>
<path d="M45.0703 60.9864C43.3166 62.0592 42.6374 64.1985 43.3845 65.9864C43.329 66.0111 43.2734 66.0358 43.2178 66.0666C42.7856 66.3132 42.3533 66.6276 41.9087 66.9112C41.3221 67.275 40.7417 67.651 40.223 67.9901C39.624 67.2626 38.5496 67.0715 37.6975 67.5956C36.7713 68.1628 36.4687 69.3526 37.0183 70.2466C37.0738 70.3391 37.1417 70.4131 37.2097 70.4932C37.1788 70.5302 37.1479 70.5672 37.1232 70.6103C36.938 70.8939 36.7589 71.2022 36.5737 71.5105C36.1229 72.2318 35.6845 72.9531 35.4004 73.4279C35.209 73.3354 34.9744 73.3292 34.7706 73.4464C34.468 73.6313 34.3631 74.0259 34.5483 74.3218C34.7274 74.6178 35.1226 74.7041 35.4313 74.5191C35.7339 74.3341 35.8389 73.9396 35.6536 73.6436C35.6166 73.5882 35.5733 73.545 35.5239 73.508C35.8697 73.0764 36.4008 72.4229 36.9195 71.7509C37.1417 71.4673 37.3764 71.196 37.574 70.9248C37.5925 70.9001 37.6049 70.8755 37.6234 70.8446C38.2285 71.2207 39.0313 71.2515 39.6981 70.8446C40.5317 70.3329 40.859 69.3157 40.507 68.4649C41.069 68.2244 41.6926 67.9531 42.3163 67.6757C42.8041 67.4599 43.3043 67.2811 43.7488 67.0592C43.8229 67.0222 43.8847 66.979 43.9526 66.9359C44.7739 67.947 46.0335 68.4648 47.3117 68.3847C47.3735 68.619 47.4352 68.8533 47.4908 69.0937C47.6884 69.9507 47.8922 70.8015 48.0774 71.5351C47.6761 71.8187 47.5464 72.3551 47.7996 72.7682C48.0651 73.1997 48.6393 73.323 49.0839 73.0518C49.5285 72.7805 49.6705 72.2133 49.4112 71.7817C49.2321 71.4858 48.9049 71.3378 48.5776 71.3563C48.5158 70.6227 48.4417 69.7842 48.3553 68.9457C48.3306 68.693 48.3121 68.4402 48.2935 68.1936C48.6146 68.0949 48.9357 67.9531 49.2383 67.7682C51.171 66.5845 51.807 64.106 50.6585 62.2318C49.51 60.3576 47.0092 59.8027 45.0703 60.9864Z" fill="url(#paint13_linear)"/>
<path d="M106.967 25.8138C107.233 25.6535 107.313 25.3145 107.158 25.0617C107.004 24.8089 106.664 24.7288 106.399 24.8952C106.133 25.0617 106.053 25.3946 106.208 25.6474C106.362 25.9001 106.702 25.9741 106.967 25.8138Z" fill="url(#paint14_linear)"/>
<path d="M112.932 37.3551C112.666 36.9235 112.092 36.8002 111.648 37.0715C111.203 37.3428 111.061 37.91 111.32 38.3416C111.58 38.7731 112.16 38.8964 112.599 38.6252C113.049 38.3539 113.197 37.7867 112.932 37.3551Z" fill="url(#paint15_linear)"/>
<path d="M31.8746 54.2726C31.2077 54.8274 31.0472 55.7276 31.5165 56.2824C31.9857 56.8373 32.8934 56.8435 33.5603 56.2886C34.2272 55.7337 34.3878 54.8336 33.9185 54.2787C33.4554 53.7239 32.5415 53.7239 31.8746 54.2726Z" fill="url(#paint16_linear)"/>
<path d="M91.4805 25.7521C91.2335 25.7768 91.005 25.8569 90.8074 25.9679C90.6407 25.783 90.4555 25.5857 90.2455 25.3699C89.8688 24.9815 89.4181 24.5561 88.9179 24.1307C90.8074 23.2922 92.0733 22.0222 92.3141 20.4624C92.839 16.9852 88.1214 13.3908 81.7613 12.4229C75.4073 11.4611 69.8253 13.4957 69.3004 16.9728C68.8126 20.1911 72.8201 23.5018 78.4577 24.7472C78.1366 25.6658 77.8094 26.6214 77.4697 27.5832C77.2968 28.0888 77.1054 28.5943 76.914 29.0875C75.7408 28.9519 74.5243 29.0629 73.3326 29.4759C69.4054 30.8384 67.1948 34.889 68.1148 38.7854C67.096 39.3341 66.0833 40.0123 65.0212 40.5857C63.1626 41.5968 61.3163 42.6449 59.7355 43.5696C58.4203 41.5413 55.8207 40.598 53.4001 41.4365C50.5597 42.4229 49.0469 45.4809 50.0163 48.2675C50.9858 51.0542 54.0732 52.5215 56.9136 51.5351C59.6861 50.5733 61.1866 47.6387 60.3592 44.9013C62.0882 44.3033 64.0826 43.582 66.0586 42.8298C67.1886 42.3921 68.368 42.0653 69.4486 41.6461C71.4616 44.3526 75.1109 45.561 78.5133 44.3773C82.6998 42.9285 84.9351 38.4155 83.5026 34.3033C82.7307 32.0777 81.0388 30.4315 78.9949 29.6177C79.0814 29.106 79.1616 28.582 79.2666 28.0703C79.4642 27.0345 79.6618 26.0049 79.8471 25.0185H79.8532C82.7739 25.4624 85.5279 25.2651 87.7076 24.5869C87.7756 24.6486 87.8497 24.7164 87.9176 24.7719C88.5413 25.2774 89.1526 25.7028 89.696 26.0481C89.9121 26.1837 90.1097 26.307 90.2949 26.418C90.1282 26.6584 90.0356 26.9359 90.0664 27.2318C90.1467 27.9531 90.9062 28.4587 91.7645 28.3662C92.6228 28.2737 93.2527 27.6079 93.1724 26.8865C93.1045 26.159 92.3388 25.6535 91.4805 25.7521Z" fill="url(#paint17_linear)"/>
<path d="M18.2467 53.2923C18.1108 53.3724 18.0182 53.4957 17.9688 53.619C17.8885 53.6067 17.8144 53.5944 17.7218 53.5882C17.2525 53.5265 16.6165 53.4957 15.9805 53.4772C15.3569 53.4587 14.7332 53.4402 14.2577 53.4217C14.3565 52.7436 14.1404 52.1517 13.739 52.0654C13.3068 51.9729 12.8252 52.497 12.6646 53.2429C12.5041 53.9828 12.7264 54.6609 13.1648 54.7534C13.1771 54.7534 13.1895 54.7534 13.208 54.7534C13.1216 55.3515 13.0475 56.0728 12.9857 56.8126C12.8993 57.799 12.8128 58.7855 12.7511 59.4452C12.5288 59.4822 12.3065 59.7534 12.22 60.1295C12.1274 60.5734 12.2571 60.9741 12.5164 61.0296C12.7758 61.0851 13.066 60.7707 13.1586 60.3268C13.2512 59.8829 13.1216 59.4822 12.8622 59.4267C12.8437 59.4205 12.8252 59.4328 12.8066 59.4328C12.8931 58.7793 13.0289 57.8052 13.1586 56.8249C13.2636 56.0789 13.3562 55.3391 13.3994 54.7349C13.7576 54.6363 14.1095 54.1801 14.2392 53.5759C14.2454 53.545 14.2454 53.5204 14.2516 53.4896C14.7208 53.5327 15.3507 53.5882 15.9743 53.6498C16.6042 53.7115 17.234 53.7608 17.7157 53.7547C17.8021 53.7547 17.87 53.7547 17.9441 53.7547C17.9318 53.8533 17.9441 53.9519 17.9935 54.0321C18.1417 54.2725 18.4875 54.3219 18.7716 54.1492C19.0556 53.9766 19.1667 53.6375 19.0185 53.4032C18.8827 53.169 18.5307 53.1196 18.2467 53.2923Z" fill="url(#paint18_linear)"/>
<path d="M22.8902 30.7953C23.2854 30.5487 23.4459 30.0863 23.2421 29.7472C23.0384 29.4143 22.5506 29.3403 22.1492 29.5869C21.754 29.8335 21.5935 30.2959 21.7972 30.635C22.0072 30.9618 22.495 31.0357 22.8902 30.7953Z" fill="url(#paint19_linear)"/>
<path d="M34.857 9.14927C35.0732 9.03214 35.2831 8.92116 35.4931 8.80402L44.9468 10.857C43.7241 12.3614 43.1931 13.989 43.613 15.481C44.5886 18.9397 50.2942 20.3577 56.3579 18.6561C57.4941 18.3355 58.5561 17.9286 59.5318 17.46C60.0134 18.0642 60.5074 18.6684 61.0014 19.2849C62.8538 21.6339 64.7372 23.9643 66.0277 25.5549C65.3794 26.1098 65.225 26.9976 65.6819 27.5463C66.1389 28.0889 67.0219 28.1012 67.6826 27.5833L67.769 27.5155L67.7629 27.5093C68.3927 26.9545 68.5409 26.0852 68.084 25.5426C67.6764 25.0556 66.9169 24.9939 66.2932 25.3577C65.1324 23.6684 63.4281 21.2023 61.6991 18.7547C61.2854 18.1567 60.8717 17.5525 60.4642 16.9668C64.1444 14.9076 66.2932 11.899 65.5584 9.29724C65.4967 9.06913 65.4041 8.84718 65.2991 8.63756C65.4102 8.5944 65.5152 8.55125 65.6264 8.50809C66.4044 8.23682 67.1701 7.94705 67.6949 7.7436C68.0531 7.85458 68.473 7.95322 68.9299 8.0272C70.239 8.23066 71.3443 8.13201 71.3937 7.81142C71.4431 7.49083 70.4242 7.06543 69.1152 6.86197C67.8061 6.65852 66.7008 6.75717 66.6514 7.07776C66.6267 7.23189 66.8613 7.41685 67.2565 7.58331C66.744 7.66962 66.108 7.78676 65.4658 7.91006C65.2806 7.94089 65.0891 7.97172 64.9039 8.00254C63.0206 5.50562 58.0498 4.64249 52.8074 6.11598C49.8434 6.94829 47.3488 8.37862 45.6816 10.0247L35.703 8.66839C38.6978 6.99761 40.859 5.43781 40.6552 5.05556C40.4329 4.63633 37.4628 5.78922 34.0296 7.62646C30.5964 9.4637 27.9968 11.2948 28.2191 11.7078C28.4414 12.1209 31.4238 10.9865 34.857 9.14927Z" fill="url(#paint20_linear)"/>
<path d="M98.3223 16.6153C99.3658 17.4353 100.372 17.8915 100.57 17.6388C100.774 17.386 100.088 16.5105 99.0509 15.6967C98.0135 14.8829 97.0009 14.4205 96.8033 14.6733C96.5995 14.9261 97.2787 15.7954 98.3223 16.6153Z" fill="url(#paint21_linear)"/>
<path d="M1.29672 139.612C1.49432 140.049 1.82158 140.413 2.27235 140.697C2.72929 140.987 3.26033 141.128 3.88399 141.128C4.2236 141.128 4.56322 141.091 4.89049 141.017C5.21776 140.943 5.50797 140.82 5.76114 140.66C6.01431 140.493 6.21191 140.284 6.36628 140.031C6.52065 139.772 6.59475 139.47 6.59475 139.118C6.59475 138.773 6.52065 138.453 6.37245 138.169C6.22426 137.885 6.02666 137.645 5.77349 137.448C5.52032 137.25 5.23628 137.102 4.90901 136.998C4.58174 136.893 4.24213 136.843 3.87781 136.843C3.37765 136.843 2.90836 136.776 2.47612 136.634C2.04388 136.492 1.67339 136.289 1.36464 136.017C1.0559 135.746 0.808906 135.425 0.629836 135.043C0.450765 134.661 0.358142 134.229 0.358142 133.749C0.358142 132.842 0.679235 132.139 1.32142 131.634C1.9636 131.128 2.81574 130.876 3.88399 130.876C3.90251 130.876 4.03218 130.882 4.273 130.9C4.50765 130.919 4.79169 130.974 5.11896 131.079C5.44622 131.184 5.77967 131.344 6.12546 131.566C6.47125 131.782 6.76147 132.096 7.00229 132.503C7.02699 132.559 7.05786 132.614 7.08256 132.682C7.10726 132.75 7.11961 132.818 7.11961 132.892C7.11961 133.027 7.06404 133.157 6.95289 133.298C6.84174 133.44 6.69355 133.502 6.5083 133.502C6.29836 133.502 6.14398 133.428 6.03284 133.286C5.89081 133.126 5.74879 132.972 5.61295 132.83C5.4771 132.688 5.32273 132.565 5.16218 132.46C4.99546 132.355 4.81021 132.275 4.60644 132.213C4.40267 132.158 4.15568 132.127 3.86546 132.127C3.45175 132.127 3.09978 132.176 2.80956 132.269C2.51934 132.361 2.2847 132.485 2.09945 132.626C1.92038 132.774 1.79071 132.947 1.71661 133.144C1.64251 133.342 1.60546 133.545 1.60546 133.755C1.60546 134.051 1.66721 134.31 1.78453 134.538C1.90186 134.766 2.06858 134.963 2.27235 135.117C2.47612 135.271 2.71694 135.395 2.99481 135.475C3.27267 135.555 3.56907 135.598 3.88399 135.598C4.4212 135.598 4.93371 135.678 5.41535 135.845C5.89699 136.011 6.31688 136.245 6.67502 136.548C7.03316 136.85 7.31721 137.22 7.52715 137.657C7.7371 138.095 7.84207 138.582 7.84207 139.112C7.84207 139.661 7.7371 140.142 7.52098 140.549C7.30486 140.956 7.01464 141.301 6.65032 141.572C6.28601 141.843 5.85994 142.047 5.37213 142.183C4.88431 142.312 4.36562 142.38 3.81606 142.38C3.71109 142.38 3.50114 142.361 3.1924 142.331C2.88366 142.3 2.53787 142.201 2.1612 142.041C1.77836 141.88 1.39552 141.634 1.01268 141.307C0.629836 140.98 0.308743 140.53 0.0617486 139.951C0.0185246 139.852 0 139.735 0 139.606C0 139.427 0.0555737 139.279 0.166721 139.162C0.277869 139.044 0.413715 138.983 0.580437 138.983C0.740983 138.983 0.883005 139.038 1.01268 139.155C1.13617 139.279 1.23497 139.427 1.29672 139.612Z" fill="white"/>
<path d="M8.67569 136.8C8.67569 136.393 8.74979 136.011 8.90416 135.654C9.05853 135.296 9.26848 134.982 9.54634 134.71C9.82421 134.439 10.1391 134.229 10.4911 134.081C10.8492 133.927 11.2321 133.853 11.652 133.853C12.0533 133.853 12.4362 133.927 12.8005 134.081C13.1648 134.236 13.4797 134.445 13.7452 134.71C14.0108 134.982 14.2269 135.296 14.3813 135.654C14.5418 136.011 14.6159 136.4 14.6159 136.8V139.162C14.6159 139.562 14.5418 139.945 14.3874 140.302C14.2331 140.66 14.0231 140.974 13.7514 141.245C13.4797 141.517 13.1586 141.726 12.8005 141.88C12.4362 142.035 12.0533 142.109 11.652 142.109C11.2444 142.109 10.8616 142.035 10.5034 141.88C10.1453 141.726 9.83039 141.517 9.55869 141.245C9.287 140.974 9.07706 140.66 8.91651 140.302C8.75596 139.945 8.68186 139.562 8.68186 139.162V136.8H8.67569ZM11.3247 131.295C11.4112 131.239 11.5099 131.208 11.6211 131.208C11.7508 131.208 11.8681 131.245 11.9792 131.326L13.0598 132.109C13.2451 132.238 13.3377 132.405 13.3377 132.614C13.3377 132.793 13.2698 132.941 13.1278 133.058C12.9857 133.175 12.8375 133.237 12.677 133.237C12.535 133.237 12.4177 133.2 12.3312 133.126L11.6087 132.614L10.9048 133.126C10.7937 133.2 10.6763 133.237 10.559 133.237C10.38 133.237 10.2318 133.175 10.0959 133.058C9.96006 132.941 9.89831 132.793 9.89831 132.614C9.89831 132.405 9.99093 132.238 10.17 132.109L11.3247 131.295ZM9.92919 139.155C9.92919 139.384 9.97241 139.599 10.065 139.809C10.1577 140.012 10.2812 140.197 10.4355 140.358C10.5899 140.518 10.7751 140.641 10.9913 140.728C11.2074 140.814 11.4235 140.857 11.6581 140.857C11.899 140.857 12.1213 140.814 12.3312 140.728C12.5411 140.641 12.7202 140.518 12.8808 140.358C13.0413 140.197 13.1586 140.012 13.2513 139.809C13.3439 139.606 13.3809 139.384 13.3809 139.155V136.794C13.3809 136.566 13.3315 136.344 13.2389 136.141C13.1463 135.931 13.0228 135.746 12.8684 135.586C12.714 135.425 12.535 135.302 12.3189 135.216C12.1027 135.13 11.8804 135.086 11.652 135.086C11.4112 135.086 11.1889 135.13 10.9789 135.216C10.769 135.302 10.5837 135.425 10.4232 135.586C10.2626 135.746 10.1391 135.931 10.0527 136.141C9.96624 136.35 9.92301 136.566 9.92301 136.794V139.155H9.92919ZM13.2636 129.445C13.3748 129.248 13.5538 129.149 13.7946 129.149C13.9799 129.149 14.1343 129.211 14.2454 129.328C14.3627 129.445 14.4183 129.593 14.4183 129.753C14.4183 129.895 14.3874 130.006 14.3319 130.08L13.6588 131.239C13.5415 131.437 13.3686 131.535 13.1401 131.535C12.9549 131.535 12.8005 131.474 12.677 131.356C12.5597 131.239 12.4979 131.091 12.4979 130.931C12.4979 130.832 12.5288 130.728 12.5967 130.61L13.2636 129.445Z" fill="white"/>
<path d="M15.6162 136.8C15.6162 136.393 15.6903 136.011 15.8447 135.654C15.9991 135.296 16.209 134.982 16.4869 134.71C16.7647 134.439 17.0797 134.229 17.4316 134.082C17.7898 133.927 18.1726 133.853 18.5925 133.853C18.9939 133.853 19.3767 133.927 19.741 134.082C20.1053 134.236 20.4202 134.445 20.6858 134.71C20.9513 134.982 21.1674 135.296 21.3218 135.654C21.4823 136.011 21.5564 136.4 21.5564 136.8V141.418C21.5564 141.597 21.4947 141.745 21.3712 141.862C21.2477 141.979 21.1057 142.041 20.9451 142.041C20.766 142.041 20.6178 141.979 20.5005 141.862C20.3832 141.745 20.3214 141.597 20.3214 141.418V136.8C20.3214 136.572 20.272 136.35 20.1794 136.147C20.0868 135.937 19.9633 135.752 19.8089 135.592C19.6546 135.432 19.4755 135.308 19.2594 135.222C19.0433 135.136 18.821 135.093 18.5925 135.093C18.3517 135.093 18.1294 135.136 17.9194 135.222C17.7095 135.308 17.5242 135.432 17.3637 135.592C17.2031 135.752 17.0797 135.937 16.9932 136.147C16.9068 136.356 16.8635 136.572 16.8635 136.8V141.418C16.8635 141.597 16.8018 141.745 16.6783 141.862C16.5548 141.979 16.4066 142.041 16.2399 142.041C16.0608 142.041 15.9126 141.979 15.7953 141.862C15.678 141.745 15.6162 141.597 15.6162 141.418V136.8Z" fill="white"/>
<path d="M22.3715 136.8C22.3715 136.393 22.4456 136.011 22.6 135.654C22.7543 135.296 22.9643 134.982 23.2421 134.71C23.52 134.439 23.8349 134.229 24.1869 134.082C24.545 133.927 24.9279 133.853 25.3478 133.853C25.7491 133.853 26.132 133.927 26.4963 134.082C26.8606 134.236 27.1755 134.445 27.441 134.71C27.7066 134.982 27.9227 135.296 28.0771 135.654C28.2314 136.011 28.3117 136.4 28.3117 136.8V141.979C28.3117 142.386 28.2314 142.768 28.0771 143.126C27.9165 143.483 27.7066 143.798 27.441 144.063C27.1755 144.328 26.8606 144.538 26.4963 144.692C26.132 144.846 25.7491 144.92 25.3478 144.92C25.1687 144.92 25.0205 144.858 24.9032 144.741C24.7859 144.618 24.7241 144.476 24.7241 144.303C24.7241 144.125 24.7859 143.977 24.9032 143.86C25.0205 143.742 25.1687 143.681 25.3478 143.681C25.5762 143.681 25.7985 143.638 26.0147 143.551C26.2308 143.465 26.4098 143.342 26.5642 143.181C26.7186 143.021 26.8421 142.842 26.9347 142.633C27.0273 142.423 27.0767 142.207 27.0767 141.979V141.572C26.558 141.93 25.9838 142.109 25.3539 142.109C24.9464 142.109 24.5636 142.035 24.2054 141.881C23.8473 141.726 23.5324 141.517 23.2607 141.245C22.989 140.974 22.779 140.66 22.6185 140.302C22.4579 139.945 22.3838 139.562 22.3838 139.162V136.8H22.3715ZM23.625 139.155C23.625 139.384 23.6682 139.599 23.7608 139.809C23.8535 140.012 23.977 140.197 24.1313 140.358C24.2857 140.518 24.4709 140.641 24.6871 140.728C24.9032 140.814 25.1255 140.857 25.3539 140.857C25.5824 140.857 25.8047 140.814 26.0085 140.734C26.2184 140.654 26.3975 140.536 26.5519 140.389C26.7062 140.241 26.8297 140.068 26.9224 139.871C27.015 139.673 27.0706 139.458 27.0767 139.229V136.788C27.0767 136.56 27.0273 136.338 26.9347 136.135C26.8421 135.925 26.7186 135.74 26.5642 135.58C26.4098 135.419 26.2308 135.296 26.0147 135.21C25.7985 135.123 25.5762 135.08 25.3478 135.08C25.107 135.08 24.8847 135.123 24.6747 135.21C24.4648 135.296 24.2795 135.419 24.119 135.58C23.9584 135.74 23.8349 135.925 23.7485 136.135C23.662 136.344 23.6188 136.56 23.6188 136.788V139.155H23.625Z" fill="white"/>
<path d="M46.7128 131.831C46.7128 131.652 46.7745 131.504 46.8919 131.387C47.0092 131.264 47.1574 131.208 47.3365 131.208C47.5032 131.208 47.6452 131.27 47.7749 131.387C47.8984 131.504 47.9601 131.652 47.9601 131.831V133.909H51.1402C51.3192 133.909 51.4674 133.971 51.5848 134.088C51.7021 134.211 51.7638 134.353 51.7638 134.532C51.7638 134.698 51.7021 134.84 51.5848 134.969C51.4674 135.093 51.3192 135.154 51.1402 135.154H47.9601V139.155C47.9601 139.384 48.0033 139.599 48.096 139.809C48.1886 140.012 48.3121 140.197 48.4665 140.358C48.6208 140.518 48.8061 140.641 49.0222 140.728C49.2383 140.814 49.4606 140.857 49.6891 140.857C50.0349 140.857 50.3498 140.765 50.64 140.58C50.9241 140.395 51.1402 140.136 51.276 139.803C51.3316 139.686 51.4119 139.593 51.5107 139.519C51.6095 139.445 51.7206 139.408 51.8565 139.408C52.0355 139.408 52.1837 139.47 52.301 139.599C52.4184 139.723 52.4801 139.871 52.4801 140.037C52.4801 140.111 52.4616 140.191 52.4307 140.271C52.2146 140.752 51.9491 141.116 51.6403 141.369C51.3316 141.622 51.0352 141.8 50.745 141.911C50.4548 142.022 50.2078 142.078 50.0102 142.09C49.8064 142.102 49.7014 142.109 49.6891 142.109C49.2815 142.109 48.8987 142.035 48.5406 141.881C48.1824 141.726 47.8675 141.517 47.5958 141.245C47.3241 140.974 47.1142 140.66 46.9536 140.302C46.7931 139.945 46.719 139.562 46.719 139.162V131.831H46.7128Z" fill="white"/>
<path d="M53.0791 131.652C53.0791 131.474 53.1409 131.326 53.2582 131.208C53.3755 131.091 53.5237 131.03 53.7028 131.03C53.8695 131.03 54.0115 131.091 54.1412 131.208C54.2647 131.332 54.3264 131.48 54.3264 131.652V132.127C54.3264 132.306 54.2647 132.454 54.1474 132.571C54.03 132.694 53.8818 132.75 53.7028 132.75C53.536 132.75 53.394 132.688 53.2644 132.571C53.1409 132.454 53.0791 132.306 53.0791 132.127V131.652ZM53.0791 134.532C53.0791 134.353 53.1409 134.205 53.2582 134.088C53.3755 133.97 53.5237 133.909 53.7028 133.909C53.8695 133.909 54.0115 133.97 54.1412 134.088C54.2647 134.211 54.3264 134.353 54.3264 134.532V141.412C54.3264 141.591 54.2647 141.739 54.1474 141.856C54.03 141.973 53.8818 142.035 53.7028 142.035C53.536 142.035 53.394 141.973 53.2644 141.856C53.1409 141.739 53.0791 141.591 53.0791 141.412V134.532Z" fill="white"/>
<path d="M55.3947 136.8C55.3947 136.393 55.4688 136.011 55.6231 135.654C55.7775 135.296 55.9874 134.982 56.2653 134.71C56.5432 134.439 56.8581 134.229 57.2101 134.081C57.5682 133.927 57.951 133.853 58.3709 133.853C58.7723 133.853 59.1551 133.927 59.5195 134.081C59.8838 134.236 60.1987 134.445 60.4642 134.71C60.7297 134.982 60.9458 135.296 61.1002 135.654C61.2608 136.011 61.3349 136.4 61.3349 136.8V137.978C61.3349 138.157 61.2731 138.305 61.1558 138.422C61.0385 138.539 60.8903 138.601 60.7174 138.601H56.6481V139.162C56.6481 139.39 56.6914 139.606 56.784 139.815C56.8766 140.019 57.0001 140.204 57.1545 140.364C57.3089 140.524 57.4941 140.647 57.7102 140.734C57.9263 140.82 58.1425 140.863 58.3771 140.863C58.7229 140.863 59.0378 140.771 59.3157 140.592C59.5936 140.413 59.8035 140.167 59.9455 139.864L59.964 139.809C60.0134 139.692 60.0875 139.599 60.1863 139.525C60.2851 139.451 60.4025 139.414 60.5383 139.414C60.7174 139.414 60.8656 139.476 60.9829 139.606C61.1002 139.729 61.162 139.877 61.162 140.043C61.162 140.117 61.1434 140.197 61.1126 140.278L61.0817 140.339C60.8532 140.863 60.4951 141.289 60.0134 141.615C59.5318 141.942 58.9822 142.109 58.3771 142.109C57.9696 142.109 57.5867 142.035 57.2286 141.881C56.8704 141.726 56.5555 141.517 56.2838 141.245C56.0121 140.974 55.8022 140.66 55.6416 140.302C55.4811 139.945 55.407 139.562 55.407 139.162V136.8H55.3947ZM58.0066 131.313C58.0931 131.252 58.1857 131.227 58.2968 131.227C58.4327 131.227 58.5562 131.27 58.6673 131.35L59.7479 132.133C59.9332 132.269 60.0258 132.435 60.0258 132.639C60.0258 132.818 59.9579 132.966 59.8158 133.083C59.6738 133.2 59.5256 133.262 59.3651 133.262C59.2231 133.262 59.1057 133.225 59.0193 133.151L58.2907 132.639L57.5867 133.151C57.4818 133.225 57.3644 133.262 57.2409 133.262C57.068 133.262 56.9198 133.2 56.7902 133.083C56.6605 132.959 56.5926 132.811 56.5926 132.639C56.5926 132.435 56.6852 132.269 56.8643 132.133L58.0066 131.313ZM56.642 137.349H60.0875V136.794C60.0875 136.566 60.0381 136.344 59.9455 136.141C59.8529 135.931 59.7294 135.746 59.575 135.586C59.4207 135.426 59.2416 135.302 59.0255 135.216C58.8093 135.13 58.5871 135.086 58.3586 135.086C58.1178 135.086 57.8955 135.13 57.6855 135.216C57.4756 135.302 57.2903 135.426 57.1298 135.586C56.9692 135.746 56.8457 135.931 56.7593 136.141C56.6728 136.35 56.6296 136.566 56.6296 136.794V137.349H56.642Z" fill="white"/>
<path d="M62.2796 134.532C62.2796 134.353 62.3414 134.205 62.4587 134.088C62.576 133.971 62.7242 133.909 62.9033 133.909C63.07 133.909 63.212 133.971 63.3417 134.088C63.4652 134.211 63.527 134.353 63.527 134.532V139.155C63.527 139.384 63.5702 139.599 63.6566 139.809C63.7431 140.019 63.8666 140.197 64.0271 140.358C64.1877 140.518 64.3729 140.641 64.5829 140.728C64.7928 140.814 65.0151 140.857 65.2559 140.857C65.4844 140.857 65.7067 140.814 65.9228 140.728C66.1389 140.641 66.318 140.518 66.4724 140.358C66.6267 140.197 66.7502 140.012 66.8429 139.809C66.9355 139.606 66.9849 139.384 66.9849 139.155V134.532C66.9849 134.353 67.0466 134.205 67.1639 134.088C67.2813 133.971 67.4295 133.909 67.6085 133.909C67.7691 133.909 67.9111 133.971 68.0346 134.088C68.1581 134.211 68.2198 134.353 68.2198 134.532V139.155C68.2198 139.556 68.1396 139.938 67.9852 140.296C67.8247 140.654 67.6147 140.968 67.3492 141.239C67.0837 141.511 66.7688 141.72 66.4044 141.874C66.0401 142.028 65.6573 142.102 65.2559 142.102C64.8422 142.102 64.4532 142.028 64.095 141.874C63.7369 141.72 63.422 141.511 63.1503 141.239C62.8786 140.968 62.6625 140.654 62.5081 140.296C62.3537 139.938 62.2796 139.556 62.2796 139.155V134.532Z" fill="white"/>
<path d="M77.9761 131.652C77.9761 131.474 78.0378 131.326 78.1552 131.208C78.2725 131.091 78.4207 131.03 78.5997 131.03C78.7603 131.03 78.9023 131.091 79.0258 131.208C79.1493 131.332 79.2111 131.48 79.2111 131.652V139.155C79.2111 139.556 79.1308 139.938 78.9764 140.296C78.8159 140.654 78.6059 140.968 78.3404 141.239C78.0749 141.511 77.76 141.72 77.3956 141.874C77.0313 142.028 76.6485 142.102 76.2471 142.102C75.8334 142.102 75.4444 142.028 75.0862 141.874C74.7281 141.72 74.4132 141.511 74.1415 141.239C73.8636 140.968 73.6537 140.654 73.4993 140.296C73.3449 139.938 73.2708 139.556 73.2708 139.155V136.794C73.2708 136.387 73.3511 136.005 73.5055 135.647C73.6599 135.29 73.876 134.975 74.1477 134.704C74.4194 134.433 74.7343 134.223 75.0924 134.075C75.4506 133.921 75.8334 133.847 76.2409 133.847C76.5559 133.847 76.8584 133.896 77.1487 133.995C77.4389 134.094 77.7106 134.229 77.9637 134.408V131.652H77.9761ZM74.5305 139.155C74.5305 139.384 74.5737 139.599 74.6602 139.809C74.7466 140.012 74.8701 140.197 75.0307 140.358C75.1912 140.518 75.3765 140.641 75.5864 140.728C75.7964 140.814 76.0187 140.857 76.2595 140.857C76.4879 140.857 76.7102 140.814 76.9264 140.728C77.1425 140.641 77.3215 140.518 77.4759 140.358C77.6303 140.197 77.7538 140.012 77.8464 139.809C77.939 139.605 77.9884 139.384 77.9884 139.155V136.794C77.9884 136.566 77.9452 136.344 77.8588 136.141C77.7723 135.931 77.6488 135.746 77.4883 135.586C77.3277 135.425 77.1486 135.302 76.9387 135.216C76.7288 135.13 76.5065 135.086 76.2656 135.086C76.0372 135.086 75.8149 135.13 75.5988 135.216C75.3826 135.302 75.2036 135.425 75.043 135.586C74.8887 135.746 74.7652 135.931 74.6725 136.141C74.5799 136.35 74.5367 136.566 74.5367 136.794V139.155H74.5305Z" fill="white"/>
<path d="M80.2979 134.532C80.2979 134.353 80.3596 134.205 80.4769 134.088C80.5942 133.971 80.7424 133.909 80.9215 133.909C81.0882 133.909 81.2303 133.971 81.3599 134.088C81.4834 134.211 81.5452 134.353 81.5452 134.532V139.155C81.5452 139.384 81.5884 139.599 81.6749 139.809C81.7613 140.019 81.8848 140.197 82.0453 140.358C82.2059 140.518 82.3911 140.641 82.6011 140.728C82.811 140.814 83.0333 140.857 83.2741 140.857C83.5026 140.857 83.7249 140.814 83.941 140.728C84.1571 140.641 84.3362 140.518 84.4906 140.358C84.645 140.197 84.7684 140.012 84.8611 139.809C84.9537 139.606 85.0031 139.384 85.0031 139.155V134.532C85.0031 134.353 85.0648 134.205 85.1822 134.088C85.2995 133.971 85.4477 133.909 85.6268 133.909C85.7873 133.909 85.9293 133.971 86.0528 134.088C86.1763 134.211 86.2381 134.353 86.2381 134.532V139.155C86.2381 139.556 86.1578 139.938 86.0034 140.296C85.8429 140.654 85.6329 140.968 85.3674 141.239C85.1019 141.511 84.787 141.72 84.4227 141.874C84.0583 142.028 83.6755 142.102 83.2741 142.102C82.8604 142.102 82.4714 142.028 82.1133 141.874C81.7551 141.72 81.4402 141.511 81.1685 141.239C80.8968 140.968 80.6807 140.654 80.5263 140.296C80.372 139.938 80.2979 139.556 80.2979 139.155V134.532ZM82.0392 131.437C81.9774 131.338 81.9404 131.233 81.9404 131.11C81.9404 130.943 82.0021 130.802 82.1194 130.684C82.2368 130.567 82.3911 130.506 82.5826 130.506C82.811 130.506 82.9839 130.604 83.1012 130.802L83.7743 131.961C83.8299 132.059 83.8546 132.17 83.8546 132.287C83.8546 132.454 83.799 132.596 83.6817 132.713C83.5644 132.83 83.4162 132.892 83.2371 132.892C82.9963 132.892 82.8234 132.793 82.7061 132.596L82.0392 131.437Z" fill="white"/>
<path d="M87.2878 136.8C87.2878 136.393 87.3619 136.011 87.5162 135.654C87.6706 135.296 87.8806 134.982 88.1584 134.71C88.4363 134.439 88.7512 134.229 89.1032 134.082C89.4613 133.927 89.8442 133.853 90.2641 133.853C90.6654 133.853 91.0483 133.927 91.4126 134.082C91.7769 134.236 92.0918 134.445 92.3574 134.71C92.6229 134.982 92.839 135.296 92.9934 135.654C93.1539 136.011 93.228 136.4 93.228 136.8V141.418C93.228 141.597 93.1663 141.745 93.0428 141.862C92.9193 141.979 92.7772 142.041 92.6167 142.041C92.4376 142.041 92.2894 141.979 92.1721 141.862C92.0548 141.745 91.993 141.597 91.993 141.418V136.8C91.993 136.572 91.9436 136.35 91.851 136.147C91.7584 135.937 91.6349 135.752 91.4805 135.592C91.3261 135.432 91.1471 135.308 90.931 135.222C90.7148 135.136 90.4925 135.093 90.2641 135.093C90.0232 135.093 89.801 135.136 89.591 135.222C89.3811 135.308 89.1958 135.432 89.0353 135.592C88.8747 135.752 88.7512 135.937 88.6648 136.147C88.5783 136.356 88.5351 136.572 88.5351 136.8V141.418C88.5351 141.597 88.4734 141.745 88.3499 141.862C88.2264 141.979 88.0782 142.041 87.9114 142.041C87.7324 142.041 87.5842 141.979 87.4668 141.862C87.3495 141.745 87.2878 141.597 87.2878 141.418V136.8Z" fill="white"/>
<path d="M94.0369 136.8C94.0369 136.393 94.111 136.011 94.2654 135.654C94.4198 135.296 94.6297 134.982 94.9076 134.71C95.1855 134.439 95.5004 134.229 95.8523 134.082C96.2105 133.927 96.5933 133.853 97.0132 133.853C97.4146 133.853 97.7974 133.927 98.1617 134.082C98.5261 134.236 98.841 134.445 99.1065 134.71C99.372 134.982 99.5881 135.296 99.7425 135.654C99.8969 136.011 99.9771 136.4 99.9771 136.8V141.979C99.9771 142.386 99.8969 142.768 99.7425 143.126C99.582 143.483 99.372 143.798 99.1065 144.063C98.841 144.328 98.5261 144.538 98.1617 144.692C97.7974 144.846 97.4146 144.92 97.0132 144.92C96.8341 144.92 96.6859 144.858 96.5686 144.741C96.4513 144.618 96.3896 144.476 96.3896 144.303C96.3896 144.125 96.4513 143.977 96.5686 143.86C96.6859 143.742 96.8341 143.681 97.0132 143.681C97.2417 143.681 97.464 143.638 97.6801 143.551C97.8962 143.465 98.0753 143.342 98.2297 143.181C98.384 143.021 98.5075 142.842 98.6001 142.633C98.6928 142.423 98.7422 142.207 98.7422 141.979V141.572C98.2235 141.93 97.6492 142.109 97.0194 142.109C96.6118 142.109 96.229 142.035 95.8709 141.881C95.5127 141.726 95.1978 141.517 94.9261 141.245C94.6544 140.974 94.4445 140.66 94.2839 140.302C94.1234 139.945 94.0493 139.562 94.0493 139.162V136.8H94.0369ZM95.2904 139.155C95.2904 139.384 95.3336 139.599 95.4263 139.809C95.5189 140.012 95.6424 140.197 95.7968 140.358C95.9511 140.518 96.1364 140.641 96.3525 140.728C96.5686 140.814 96.7909 140.857 97.0194 140.857C97.2479 140.857 97.4701 140.814 97.6739 140.734C97.8839 140.654 98.0629 140.536 98.2173 140.389C98.3717 140.241 98.4952 140.068 98.5878 139.871C98.6804 139.673 98.736 139.458 98.7422 139.229V136.788C98.7422 136.56 98.6928 136.338 98.6001 136.135C98.5075 135.925 98.384 135.74 98.2297 135.58C98.0753 135.419 97.8962 135.296 97.6801 135.21C97.464 135.123 97.2417 135.08 97.0132 135.08C96.7724 135.08 96.5501 135.123 96.3402 135.21C96.1302 135.296 95.945 135.419 95.7844 135.58C95.6239 135.74 95.5004 135.925 95.4139 136.135C95.3275 136.344 95.2843 136.56 95.2843 136.788V139.155H95.2904Z" fill="white"/>
<path d="M105.355 131.831C105.355 131.652 105.417 131.504 105.534 131.387C105.652 131.264 105.8 131.208 105.979 131.208C106.146 131.208 106.288 131.27 106.417 131.387C106.541 131.504 106.603 131.652 106.603 131.831V133.909H109.783C109.962 133.909 110.11 133.971 110.227 134.088C110.345 134.211 110.406 134.353 110.406 134.532C110.406 134.698 110.345 134.84 110.227 134.969C110.11 135.093 109.962 135.154 109.783 135.154H106.603V139.155C106.603 139.384 106.646 139.599 106.739 139.809C106.831 140.012 106.955 140.197 107.109 140.358C107.263 140.518 107.449 140.641 107.665 140.728C107.881 140.814 108.103 140.857 108.332 140.857C108.677 140.857 108.992 140.765 109.283 140.58C109.567 140.395 109.783 140.136 109.919 139.803C109.974 139.686 110.054 139.593 110.153 139.519C110.252 139.445 110.363 139.408 110.499 139.408C110.678 139.408 110.826 139.47 110.944 139.599C111.061 139.723 111.123 139.871 111.123 140.037C111.123 140.111 111.104 140.191 111.073 140.271C110.857 140.752 110.592 141.116 110.283 141.369C109.974 141.622 109.678 141.8 109.388 141.911C109.097 142.022 108.85 142.078 108.653 142.09C108.449 142.102 108.344 142.109 108.332 142.109C107.924 142.109 107.541 142.035 107.183 141.881C106.825 141.726 106.51 141.517 106.238 141.245C105.967 140.974 105.757 140.66 105.596 140.302C105.436 139.945 105.362 139.562 105.362 139.162V131.831H105.355Z" fill="white"/>
<path d="M111.746 131.652C111.746 131.474 111.808 131.326 111.925 131.208C112.043 131.091 112.191 131.03 112.37 131.03C112.537 131.03 112.679 131.091 112.809 131.208C112.932 131.332 112.994 131.48 112.994 131.652V134.402C113.235 134.223 113.5 134.088 113.796 133.989C114.093 133.89 114.395 133.841 114.717 133.841C115.118 133.841 115.501 133.915 115.865 134.069C116.229 134.223 116.544 134.433 116.81 134.698C117.075 134.969 117.291 135.284 117.446 135.641C117.6 135.999 117.68 136.387 117.68 136.788V141.406C117.68 141.585 117.619 141.733 117.495 141.85C117.372 141.967 117.23 142.028 117.069 142.028C116.89 142.028 116.742 141.967 116.625 141.85C116.507 141.733 116.445 141.585 116.445 141.406V136.788C116.445 136.56 116.396 136.338 116.303 136.134C116.211 135.925 116.087 135.74 115.933 135.58C115.779 135.419 115.6 135.296 115.383 135.21C115.167 135.123 114.945 135.08 114.717 135.08C114.476 135.08 114.253 135.123 114.05 135.21C113.846 135.296 113.667 135.413 113.506 135.561C113.346 135.709 113.222 135.882 113.136 136.079C113.049 136.276 113 136.486 112.994 136.714V141.4C112.994 141.578 112.932 141.726 112.809 141.843C112.685 141.961 112.537 142.022 112.37 142.022C112.191 142.022 112.043 141.961 111.925 141.843C111.808 141.726 111.746 141.578 111.746 141.4V136.665V131.652Z" fill="white"/>
<path d="M118.391 136.8C118.391 136.393 118.465 136.011 118.619 135.654C118.773 135.296 118.983 134.982 119.261 134.71C119.539 134.439 119.854 134.229 120.206 134.081C120.564 133.927 120.947 133.853 121.367 133.853C121.768 133.853 122.151 133.927 122.515 134.081C122.88 134.236 123.195 134.445 123.46 134.71C123.726 134.982 123.942 135.296 124.096 135.654C124.257 136.011 124.331 136.4 124.331 136.8V139.162C124.331 139.562 124.257 139.945 124.102 140.302C123.948 140.66 123.738 140.974 123.466 141.245C123.195 141.517 122.874 141.726 122.515 141.881C122.151 142.035 121.768 142.109 121.367 142.109C120.959 142.109 120.576 142.035 120.218 141.881C119.86 141.726 119.545 141.517 119.274 141.245C119.002 140.974 118.792 140.66 118.631 140.302C118.471 139.945 118.397 139.562 118.397 139.162V136.8H118.391ZM121.033 131.295C121.12 131.239 121.219 131.208 121.33 131.208C121.459 131.208 121.577 131.245 121.688 131.326L122.769 132.109C122.954 132.238 123.046 132.405 123.046 132.614C123.046 132.793 122.978 132.941 122.836 133.058C122.694 133.175 122.546 133.237 122.386 133.237C122.244 133.237 122.126 133.2 122.04 133.126L121.317 132.614L120.614 133.126C120.502 133.2 120.385 133.237 120.268 133.237C120.089 133.237 119.94 133.175 119.805 133.058C119.669 132.941 119.607 132.793 119.607 132.614C119.607 132.405 119.7 132.238 119.879 132.109L121.033 131.295ZM119.644 139.155C119.644 139.384 119.687 139.599 119.78 139.809C119.873 140.012 119.996 140.197 120.15 140.358C120.305 140.518 120.49 140.641 120.706 140.728C120.922 140.814 121.138 140.857 121.373 140.857C121.614 140.857 121.836 140.814 122.046 140.728C122.256 140.641 122.435 140.518 122.596 140.358C122.756 140.197 122.874 140.012 122.966 139.809C123.059 139.606 123.096 139.384 123.096 139.155V136.794C123.096 136.566 123.046 136.344 122.954 136.141C122.861 135.931 122.738 135.746 122.583 135.586C122.429 135.426 122.25 135.302 122.034 135.216C121.818 135.13 121.595 135.086 121.367 135.086C121.126 135.086 120.904 135.13 120.694 135.216C120.484 135.302 120.299 135.426 120.138 135.586C119.978 135.746 119.854 135.931 119.768 136.141C119.681 136.35 119.638 136.566 119.638 136.794V139.155H119.644Z" fill="white"/>
<path d="M125.331 136.8C125.331 136.393 125.405 136.011 125.56 135.654C125.714 135.296 125.924 134.982 126.202 134.71C126.48 134.439 126.795 134.229 127.147 134.082C127.505 133.927 127.887 133.853 128.307 133.853C128.709 133.853 129.092 133.927 129.456 134.082C129.82 134.236 130.135 134.445 130.401 134.71C130.666 134.982 130.882 135.296 131.037 135.654C131.197 136.011 131.271 136.4 131.271 136.8V141.418C131.271 141.597 131.21 141.745 131.086 141.862C130.963 141.979 130.821 142.041 130.66 142.041C130.481 142.041 130.333 141.979 130.215 141.862C130.098 141.745 130.036 141.597 130.036 141.418V136.8C130.036 136.572 129.987 136.35 129.894 136.147C129.802 135.937 129.678 135.752 129.524 135.592C129.369 135.432 129.19 135.308 128.974 135.222C128.758 135.136 128.536 135.093 128.307 135.093C128.067 135.093 127.844 135.136 127.634 135.222C127.424 135.308 127.239 135.432 127.079 135.592C126.918 135.752 126.795 135.937 126.708 136.147C126.622 136.356 126.578 136.572 126.578 136.8V141.418C126.578 141.597 126.517 141.745 126.393 141.862C126.27 141.979 126.121 142.041 125.955 142.041C125.776 142.041 125.628 141.979 125.51 141.862C125.393 141.745 125.331 141.597 125.331 141.418V136.8Z" fill="white"/>
<path d="M132.086 136.8C132.086 136.393 132.16 136.011 132.315 135.654C132.469 135.296 132.679 134.982 132.957 134.71C133.235 134.439 133.55 134.229 133.902 134.082C134.26 133.927 134.643 133.853 135.063 133.853C135.464 133.853 135.847 133.927 136.211 134.082C136.575 134.236 136.89 134.445 137.156 134.71C137.421 134.982 137.638 135.296 137.792 135.654C137.946 136.011 138.027 136.4 138.027 136.8V141.979C138.027 142.386 137.946 142.768 137.792 143.126C137.631 143.483 137.421 143.798 137.156 144.063C136.89 144.328 136.575 144.538 136.211 144.692C135.847 144.846 135.464 144.92 135.063 144.92C134.884 144.92 134.735 144.858 134.618 144.741C134.501 144.618 134.439 144.476 134.439 144.303C134.439 144.125 134.501 143.977 134.618 143.86C134.735 143.742 134.884 143.681 135.063 143.681C135.291 143.681 135.513 143.638 135.73 143.551C135.946 143.465 136.125 143.342 136.279 143.181C136.433 143.021 136.557 142.842 136.65 142.633C136.742 142.423 136.792 142.207 136.792 141.979V141.572C136.273 141.93 135.699 142.109 135.069 142.109C134.661 142.109 134.278 142.035 133.92 141.881C133.562 141.726 133.247 141.517 132.976 141.245C132.704 140.974 132.494 140.66 132.333 140.302C132.173 139.945 132.099 139.562 132.099 139.162V136.8H132.086ZM133.334 139.155C133.334 139.384 133.377 139.599 133.47 139.809C133.562 140.012 133.686 140.197 133.84 140.358C133.994 140.518 134.18 140.641 134.396 140.728C134.612 140.814 134.834 140.857 135.063 140.857C135.291 140.857 135.513 140.814 135.717 140.734C135.927 140.654 136.106 140.536 136.261 140.389C136.415 140.241 136.538 140.068 136.631 139.871C136.724 139.673 136.779 139.458 136.785 139.229V136.788C136.785 136.56 136.736 136.338 136.643 136.135C136.551 135.925 136.427 135.74 136.273 135.58C136.119 135.419 135.939 135.296 135.723 135.21C135.507 135.123 135.285 135.08 135.056 135.08C134.816 135.08 134.593 135.123 134.383 135.21C134.173 135.296 133.988 135.419 133.828 135.58C133.667 135.74 133.544 135.925 133.457 136.135C133.371 136.344 133.328 136.56 133.328 136.788V139.155H133.334Z" fill="white"/>
<path d="M143.43 136.8C143.43 136.393 143.497 136.011 143.633 135.654C143.769 135.296 143.961 134.982 144.214 134.71C144.467 134.439 144.757 134.229 145.097 134.082C145.436 133.927 145.813 133.853 146.233 133.853C146.69 133.853 147.11 133.952 147.48 134.149C147.851 134.347 148.166 134.606 148.419 134.92C148.672 134.606 148.981 134.347 149.351 134.149C149.722 133.952 150.135 133.853 150.599 133.853C151.006 133.853 151.383 133.927 151.722 134.082C152.068 134.236 152.365 134.445 152.605 134.71C152.852 134.982 153.044 135.296 153.186 135.654C153.328 136.011 153.396 136.4 153.396 136.8V141.418C153.396 141.597 153.334 141.745 153.211 141.862C153.087 141.979 152.939 142.041 152.772 142.041C152.599 142.041 152.457 141.979 152.334 141.862C152.21 141.745 152.155 141.597 152.155 141.418V136.8C152.155 136.332 152.013 135.931 151.729 135.598C151.445 135.265 151.068 135.099 150.592 135.099C150.098 135.099 149.716 135.265 149.444 135.598C149.166 135.931 149.03 136.332 149.03 136.8V141.418C149.03 141.597 148.968 141.745 148.845 141.862C148.721 141.979 148.579 142.041 148.419 142.041C148.24 142.041 148.092 141.979 147.974 141.862C147.857 141.745 147.795 141.597 147.795 141.418V136.8C147.795 136.332 147.653 135.931 147.369 135.598C147.085 135.265 146.708 135.099 146.233 135.099C145.739 135.099 145.362 135.265 145.084 135.598C144.813 135.931 144.677 136.332 144.677 136.8V141.418C144.677 141.597 144.615 141.745 144.492 141.862C144.368 141.979 144.22 142.041 144.053 142.041C143.874 142.041 143.726 141.979 143.609 141.862C143.491 141.745 143.43 141.597 143.43 141.418V136.8Z" fill="white"/>
<path d="M154.52 131.652C154.52 131.474 154.581 131.326 154.699 131.208C154.816 131.091 154.964 131.03 155.143 131.03C155.31 131.03 155.452 131.091 155.582 131.208C155.705 131.332 155.767 131.48 155.767 131.652V132.127C155.767 132.306 155.705 132.454 155.588 132.571C155.471 132.694 155.322 132.75 155.143 132.75C154.977 132.75 154.835 132.688 154.705 132.571C154.581 132.454 154.52 132.306 154.52 132.127V131.652ZM154.52 134.532C154.52 134.353 154.581 134.205 154.699 134.088C154.816 133.97 154.964 133.909 155.143 133.909C155.31 133.909 155.452 133.97 155.582 134.088C155.705 134.211 155.767 134.353 155.767 134.532V141.412C155.767 141.591 155.705 141.739 155.588 141.856C155.471 141.973 155.322 142.035 155.143 142.035C154.977 142.035 154.835 141.973 154.705 141.856C154.581 141.739 154.52 141.591 154.52 141.412V134.532Z" fill="white"/>
<path d="M156.903 136.8C156.903 136.393 156.977 136.011 157.132 135.654C157.286 135.296 157.496 134.982 157.774 134.71C158.052 134.439 158.367 134.229 158.719 134.082C159.077 133.927 159.46 133.853 159.879 133.853C160.281 133.853 160.664 133.927 161.028 134.082C161.392 134.236 161.707 134.445 161.973 134.71C162.238 134.982 162.454 135.296 162.609 135.654C162.769 136.011 162.843 136.4 162.843 136.8V141.418C162.843 141.597 162.782 141.745 162.658 141.862C162.535 141.979 162.393 142.041 162.232 142.041C162.053 142.041 161.905 141.979 161.787 141.862C161.67 141.745 161.608 141.597 161.608 141.418V136.8C161.608 136.572 161.559 136.35 161.466 136.147C161.374 135.937 161.25 135.752 161.096 135.592C160.942 135.432 160.762 135.308 160.546 135.222C160.33 135.136 160.108 135.093 159.879 135.093C159.639 135.093 159.416 135.136 159.206 135.222C158.996 135.308 158.811 135.432 158.651 135.592C158.49 135.752 158.367 135.937 158.28 136.147C158.194 136.356 158.15 136.572 158.15 136.8V141.418C158.15 141.597 158.089 141.745 157.965 141.862C157.842 141.979 157.694 142.041 157.527 142.041C157.348 142.041 157.2 141.979 157.082 141.862C156.965 141.745 156.903 141.597 156.903 141.418V136.8Z" fill="white"/>
<path d="M163.955 131.652C163.955 131.474 164.017 131.326 164.134 131.208C164.251 131.091 164.399 131.03 164.578 131.03C164.745 131.03 164.887 131.091 165.017 131.208C165.14 131.332 165.202 131.48 165.202 131.652V134.402C165.443 134.223 165.708 134.088 166.005 133.989C166.301 133.89 166.604 133.841 166.925 133.841C167.326 133.841 167.709 133.915 168.073 134.069C168.438 134.223 168.753 134.433 169.018 134.698C169.284 134.969 169.5 135.284 169.654 135.641C169.809 135.999 169.889 136.387 169.889 136.788V141.406C169.889 141.585 169.827 141.733 169.704 141.85C169.58 141.967 169.438 142.028 169.278 142.028C169.098 142.028 168.95 141.967 168.833 141.85C168.716 141.733 168.654 141.585 168.654 141.406V136.788C168.654 136.56 168.604 136.338 168.512 136.134C168.419 135.925 168.296 135.74 168.141 135.58C167.987 135.419 167.808 135.296 167.592 135.21C167.376 135.123 167.153 135.08 166.925 135.08C166.684 135.08 166.462 135.123 166.258 135.21C166.054 135.296 165.875 135.413 165.715 135.561C165.554 135.709 165.431 135.882 165.344 136.079C165.258 136.276 165.208 136.486 165.202 136.714V141.4C165.202 141.578 165.14 141.726 165.017 141.843C164.893 141.961 164.745 142.022 164.578 142.022C164.399 142.022 164.251 141.961 164.134 141.843C164.017 141.726 163.955 141.578 163.955 141.4V136.665V131.652Z" fill="white"/>
<path d="M41.0381 139.92L42.7177 141.961H41.2172L40.328 140.888C39.9699 141.307 39.6055 141.609 39.2412 141.8C38.7781 142.047 38.2347 142.17 37.6049 142.17C36.586 142.17 35.8327 141.85 35.3387 141.196C34.9991 140.746 34.8262 140.241 34.8262 139.679C34.8262 139.014 34.9682 138.477 35.2523 138.064C35.5363 137.651 36.1044 137.207 36.9504 136.72C36.586 136.264 36.3329 135.913 36.2032 135.672C36.0365 135.358 35.9562 135.019 35.9562 134.649C35.9562 134.063 36.1414 133.582 36.5181 133.2C36.938 132.774 37.4937 132.559 38.1792 132.559C38.8769 132.559 39.4203 132.762 39.8031 133.175C40.1366 133.527 40.3033 133.964 40.3033 134.501C40.3033 135.086 40.1119 135.598 39.729 136.042C39.5129 136.301 39.1363 136.603 38.6052 136.961L40.3342 139.001C40.4391 138.718 40.5132 138.483 40.5565 138.311C40.5997 138.138 40.6491 137.879 40.7047 137.54H41.8038C41.8038 137.855 41.7359 138.218 41.6062 138.619C41.4703 139.02 41.2789 139.451 41.0381 139.92ZM39.729 140.099L37.6049 137.509C37.0059 137.892 36.6046 138.194 36.4131 138.409C36.1229 138.736 35.9809 139.131 35.9809 139.599C35.9809 140.123 36.2032 140.53 36.6416 140.82C36.9689 141.036 37.3147 141.147 37.6852 141.147C38.5373 141.147 39.2165 140.795 39.729 140.099ZM38.0001 136.196C38.3644 135.956 38.6237 135.746 38.7658 135.567C39.0375 135.259 39.1733 134.926 39.1733 134.569C39.1733 134.192 39.056 133.921 38.8213 133.742C38.6484 133.613 38.4323 133.545 38.173 133.545C37.7531 133.545 37.4505 133.675 37.2591 133.94C37.1356 134.112 37.0739 134.322 37.0739 134.569C37.0739 134.827 37.185 135.13 37.4011 135.469C37.5617 135.721 37.7593 135.962 38.0001 136.196Z" fill="white"/>
</g>
<defs>
<linearGradient id="paint0_linear" x1="-6.38061" y1="53.3466" x2="62.4688" y2="88.6677" gradientUnits="userSpaceOnUse">
<stop stop-color="#12C3F4"/>
<stop offset="1" stop-color="#00346F"/>
</linearGradient>
<linearGradient id="paint1_linear" x1="1.2029" y1="66.0776" x2="41.8325" y2="86.9214" gradientUnits="userSpaceOnUse">
<stop stop-color="#12C3F4"/>
<stop offset="1" stop-color="#00346F"/>
</linearGradient>
<linearGradient id="paint2_linear" x1="50.5259" y1="71.5586" x2="4.20518" y2="83.3766" gradientUnits="userSpaceOnUse">
<stop stop-color="#52CAF5"/>
<stop offset="1" stop-color="#00346F"/>
</linearGradient>
<linearGradient id="paint3_linear" x1="263.767" y1="14.4564" x2="-43.047" y2="104.728" gradientUnits="userSpaceOnUse">
<stop stop-color="white"/>
<stop offset="0.1728" stop-color="#FBFDFF"/>
<stop offset="0.2717" stop-color="#F1FAFE"/>
<stop offset="0.352" stop-color="#E2F4FD"/>
<stop offset="0.4223" stop-color="#CEEDFC"/>
<stop offset="0.4861" stop-color="#B2E3FA"/>
<stop offset="0.5451" stop-color="#8ED8F8"/>
<stop offset="0.6005" stop-color="#5CCCF5"/>
<stop offset="0.6517" stop-color="#00BFF3"/>
<stop offset="0.6751" stop-color="#00B9F2"/>
<stop offset="0.7211" stop-color="#00B6ED"/>
<stop offset="0.7646" stop-color="#00AFE4"/>
<stop offset="0.8071" stop-color="#00A5D6"/>
<stop offset="0.849" stop-color="#0096C3"/>
<stop offset="0.8905" stop-color="#0082A9"/>
<stop offset="0.9316" stop-color="#00698A"/>
<stop offset="0.9717" stop-color="#004C66"/>
<stop offset="1" stop-color="#003044"/>
</linearGradient>
<linearGradient id="paint4_linear" x1="266.925" y1="25.1872" x2="-39.8899" y2="115.459" gradientUnits="userSpaceOnUse">
<stop stop-color="white"/>
<stop offset="0.1728" stop-color="#FBFDFF"/>
<stop offset="0.2717" stop-color="#F1FAFE"/>
<stop offset="0.352" stop-color="#E2F4FD"/>
<stop offset="0.4223" stop-color="#CEEDFC"/>
<stop offset="0.4861" stop-color="#B2E3FA"/>
<stop offset="0.5451" stop-color="#8ED8F8"/>
<stop offset="0.6005" stop-color="#5CCCF5"/>
<stop offset="0.6517" stop-color="#00BFF3"/>
<stop offset="0.6751" stop-color="#00B9F2"/>
<stop offset="0.7211" stop-color="#00B6ED"/>
<stop offset="0.7646" stop-color="#00AFE4"/>
<stop offset="0.8071" stop-color="#00A5D6"/>
<stop offset="0.849" stop-color="#0096C3"/>
<stop offset="0.8905" stop-color="#0082A9"/>
<stop offset="0.9316" stop-color="#00698A"/>
<stop offset="0.9717" stop-color="#004C66"/>
<stop offset="1" stop-color="#003044"/>
</linearGradient>
<linearGradient id="paint5_linear" x1="260.374" y1="2.92449" x2="-46.4398" y2="93.1955" gradientUnits="userSpaceOnUse">
<stop stop-color="white"/>
<stop offset="0.1728" stop-color="#FBFDFF"/>
<stop offset="0.2717" stop-color="#F1FAFE"/>
<stop offset="0.352" stop-color="#E2F4FD"/>
<stop offset="0.4223" stop-color="#CEEDFC"/>
<stop offset="0.4861" stop-color="#B2E3FA"/>
<stop offset="0.5451" stop-color="#8ED8F8"/>
<stop offset="0.6005" stop-color="#5CCCF5"/>
<stop offset="0.6517" stop-color="#00BFF3"/>
<stop offset="0.6751" stop-color="#00B9F2"/>
<stop offset="0.7211" stop-color="#00B6ED"/>
<stop offset="0.7646" stop-color="#00AFE4"/>
<stop offset="0.8071" stop-color="#00A5D6"/>
<stop offset="0.849" stop-color="#0096C3"/>
<stop offset="0.8905" stop-color="#0082A9"/>
<stop offset="0.9316" stop-color="#00698A"/>
<stop offset="0.9717" stop-color="#004C66"/>
<stop offset="1" stop-color="#003044"/>
</linearGradient>
<linearGradient id="paint6_linear" x1="266.993" y1="25.4207" x2="-39.8209" y2="115.692" gradientUnits="userSpaceOnUse">
<stop stop-color="white"/>
<stop offset="0.1728" stop-color="#FBFDFF"/>
<stop offset="0.2717" stop-color="#F1FAFE"/>
<stop offset="0.352" stop-color="#E2F4FD"/>
<stop offset="0.4223" stop-color="#CEEDFC"/>
<stop offset="0.4861" stop-color="#B2E3FA"/>
<stop offset="0.5451" stop-color="#8ED8F8"/>
<stop offset="0.6005" stop-color="#5CCCF5"/>
<stop offset="0.6517" stop-color="#00BFF3"/>
<stop offset="0.6751" stop-color="#00B9F2"/>
<stop offset="0.7211" stop-color="#00B6ED"/>
<stop offset="0.7646" stop-color="#00AFE4"/>
<stop offset="0.8071" stop-color="#00A5D6"/>
<stop offset="0.849" stop-color="#0096C3"/>
<stop offset="0.8905" stop-color="#0082A9"/>
<stop offset="0.9316" stop-color="#00698A"/>
<stop offset="0.9717" stop-color="#004C66"/>
<stop offset="1" stop-color="#003044"/>
</linearGradient>
<linearGradient id="paint7_linear" x1="248.528" y1="-37.3394" x2="-58.2864" y2="52.9324" gradientUnits="userSpaceOnUse">
<stop stop-color="white"/>
<stop offset="0.1728" stop-color="#FBFDFF"/>
<stop offset="0.2717" stop-color="#F1FAFE"/>
<stop offset="0.352" stop-color="#E2F4FD"/>
<stop offset="0.4223" stop-color="#CEEDFC"/>
<stop offset="0.4861" stop-color="#B2E3FA"/>
<stop offset="0.5451" stop-color="#8ED8F8"/>
<stop offset="0.6005" stop-color="#5CCCF5"/>
<stop offset="0.6517" stop-color="#00BFF3"/>
<stop offset="0.6751" stop-color="#00B9F2"/>
<stop offset="0.7211" stop-color="#00B6ED"/>
<stop offset="0.7646" stop-color="#00AFE4"/>
<stop offset="0.8071" stop-color="#00A5D6"/>
<stop offset="0.849" stop-color="#0096C3"/>
<stop offset="0.8905" stop-color="#0082A9"/>
<stop offset="0.9316" stop-color="#00698A"/>
<stop offset="0.9717" stop-color="#004C66"/>
<stop offset="1" stop-color="#003044"/>
</linearGradient>
<linearGradient id="paint8_linear" x1="254.586" y1="-16.7495" x2="-52.2284" y2="73.5218" gradientUnits="userSpaceOnUse">
<stop stop-color="white"/>
<stop offset="0.1728" stop-color="#FBFDFF"/>
<stop offset="0.2717" stop-color="#F1FAFE"/>
<stop offset="0.352" stop-color="#E2F4FD"/>
<stop offset="0.4223" stop-color="#CEEDFC"/>
<stop offset="0.4861" stop-color="#B2E3FA"/>
<stop offset="0.5451" stop-color="#8ED8F8"/>
<stop offset="0.6005" stop-color="#5CCCF5"/>
<stop offset="0.6517" stop-color="#00BFF3"/>
<stop offset="0.6751" stop-color="#00B9F2"/>
<stop offset="0.7211" stop-color="#00B6ED"/>
<stop offset="0.7646" stop-color="#00AFE4"/>
<stop offset="0.8071" stop-color="#00A5D6"/>
<stop offset="0.849" stop-color="#0096C3"/>
<stop offset="0.8905" stop-color="#0082A9"/>
<stop offset="0.9316" stop-color="#00698A"/>
<stop offset="0.9717" stop-color="#004C66"/>
<stop offset="1" stop-color="#003044"/>
</linearGradient>
<linearGradient id="paint9_linear" x1="243.71" y1="-53.7137" x2="-63.104" y2="36.5575" gradientUnits="userSpaceOnUse">
<stop stop-color="white"/>
<stop offset="0.1728" stop-color="#FBFDFF"/>
<stop offset="0.2717" stop-color="#F1FAFE"/>
<stop offset="0.352" stop-color="#E2F4FD"/>
<stop offset="0.4223" stop-color="#CEEDFC"/>
<stop offset="0.4861" stop-color="#B2E3FA"/>
<stop offset="0.5451" stop-color="#8ED8F8"/>
<stop offset="0.6005" stop-color="#5CCCF5"/>
<stop offset="0.6517" stop-color="#00BFF3"/>
<stop offset="0.6751" stop-color="#00B9F2"/>
<stop offset="0.7211" stop-color="#00B6ED"/>
<stop offset="0.7646" stop-color="#00AFE4"/>
<stop offset="0.8071" stop-color="#00A5D6"/>
<stop offset="0.849" stop-color="#0096C3"/>
<stop offset="0.8905" stop-color="#0082A9"/>
<stop offset="0.9316" stop-color="#00698A"/>
<stop offset="0.9717" stop-color="#004C66"/>
<stop offset="1" stop-color="#003044"/>
</linearGradient>
<linearGradient id="paint10_linear" x1="251.106" y1="-28.5761" x2="-55.708" y2="61.6952" gradientUnits="userSpaceOnUse">
<stop stop-color="white"/>
<stop offset="0.1728" stop-color="#FBFDFF"/>
<stop offset="0.2717" stop-color="#F1FAFE"/>
<stop offset="0.352" stop-color="#E2F4FD"/>
<stop offset="0.4223" stop-color="#CEEDFC"/>
<stop offset="0.4861" stop-color="#B2E3FA"/>
<stop offset="0.5451" stop-color="#8ED8F8"/>
<stop offset="0.6005" stop-color="#5CCCF5"/>
<stop offset="0.6517" stop-color="#00BFF3"/>
<stop offset="0.6751" stop-color="#00B9F2"/>
<stop offset="0.7211" stop-color="#00B6ED"/>
<stop offset="0.7646" stop-color="#00AFE4"/>
<stop offset="0.8071" stop-color="#00A5D6"/>
<stop offset="0.849" stop-color="#0096C3"/>
<stop offset="0.8905" stop-color="#0082A9"/>
<stop offset="0.9316" stop-color="#00698A"/>
<stop offset="0.9717" stop-color="#004C66"/>
<stop offset="1" stop-color="#003044"/>
</linearGradient>
<linearGradient id="paint11_linear" x1="246.794" y1="-43.232" x2="-60.02" y2="47.0393" gradientUnits="userSpaceOnUse">
<stop stop-color="white"/>
<stop offset="0.1728" stop-color="#FBFDFF"/>
<stop offset="0.2717" stop-color="#F1FAFE"/>
<stop offset="0.352" stop-color="#E2F4FD"/>
<stop offset="0.4223" stop-color="#CEEDFC"/>
<stop offset="0.4861" stop-color="#B2E3FA"/>
<stop offset="0.5451" stop-color="#8ED8F8"/>
<stop offset="0.6005" stop-color="#5CCCF5"/>
<stop offset="0.6517" stop-color="#00BFF3"/>
<stop offset="0.6751" stop-color="#00B9F2"/>
<stop offset="0.7211" stop-color="#00B6ED"/>
<stop offset="0.7646" stop-color="#00AFE4"/>
<stop offset="0.8071" stop-color="#00A5D6"/>
<stop offset="0.849" stop-color="#0096C3"/>
<stop offset="0.8905" stop-color="#0082A9"/>
<stop offset="0.9316" stop-color="#00698A"/>
<stop offset="0.9717" stop-color="#004C66"/>
<stop offset="1" stop-color="#003044"/>
</linearGradient>
<linearGradient id="paint12_linear" x1="260.827" y1="4.46064" x2="-45.9879" y2="94.7321" gradientUnits="userSpaceOnUse">
<stop stop-color="white"/>
<stop offset="0.1728" stop-color="#FBFDFF"/>
<stop offset="0.2717" stop-color="#F1FAFE"/>
<stop offset="0.352" stop-color="#E2F4FD"/>
<stop offset="0.4223" stop-color="#CEEDFC"/>
<stop offset="0.4861" stop-color="#B2E3FA"/>
<stop offset="0.5451" stop-color="#8ED8F8"/>
<stop offset="0.6005" stop-color="#5CCCF5"/>
<stop offset="0.6517" stop-color="#00BFF3"/>
<stop offset="0.6751" stop-color="#00B9F2"/>
<stop offset="0.7211" stop-color="#00B6ED"/>
<stop offset="0.7646" stop-color="#00AFE4"/>
<stop offset="0.8071" stop-color="#00A5D6"/>
<stop offset="0.849" stop-color="#0096C3"/>
<stop offset="0.8905" stop-color="#0082A9"/>
<stop offset="0.9316" stop-color="#00698A"/>
<stop offset="0.9717" stop-color="#004C66"/>
<stop offset="1" stop-color="#003044"/>
</linearGradient>
<linearGradient id="paint13_linear" x1="260.774" y1="4.28097" x2="-46.0407" y2="94.5522" gradientUnits="userSpaceOnUse">
<stop stop-color="white"/>
<stop offset="0.1728" stop-color="#FBFDFF"/>
<stop offset="0.2717" stop-color="#F1FAFE"/>
<stop offset="0.352" stop-color="#E2F4FD"/>
<stop offset="0.4223" stop-color="#CEEDFC"/>
<stop offset="0.4861" stop-color="#B2E3FA"/>
<stop offset="0.5451" stop-color="#8ED8F8"/>
<stop offset="0.6005" stop-color="#5CCCF5"/>
<stop offset="0.6517" stop-color="#00BFF3"/>
<stop offset="0.6751" stop-color="#00B9F2"/>
<stop offset="0.7211" stop-color="#00B6ED"/>
<stop offset="0.7646" stop-color="#00AFE4"/>
<stop offset="0.8071" stop-color="#00A5D6"/>
<stop offset="0.849" stop-color="#0096C3"/>
<stop offset="0.8905" stop-color="#0082A9"/>
<stop offset="0.9316" stop-color="#00698A"/>
<stop offset="0.9717" stop-color="#004C66"/>
<stop offset="1" stop-color="#003044"/>
</linearGradient>
<linearGradient id="paint14_linear" x1="254.241" y1="-17.9256" x2="-52.5748" y2="72.3469" gradientUnits="userSpaceOnUse">
<stop stop-color="white"/>
<stop offset="0.1728" stop-color="#FBFDFF"/>
<stop offset="0.2717" stop-color="#F1FAFE"/>
<stop offset="0.352" stop-color="#E2F4FD"/>
<stop offset="0.4223" stop-color="#CEEDFC"/>
<stop offset="0.4861" stop-color="#B2E3FA"/>
<stop offset="0.5451" stop-color="#8ED8F8"/>
<stop offset="0.6005" stop-color="#5CCCF5"/>
<stop offset="0.6517" stop-color="#00BFF3"/>
<stop offset="0.6751" stop-color="#00B9F2"/>
<stop offset="0.7211" stop-color="#00B6ED"/>
<stop offset="0.7646" stop-color="#00AFE4"/>
<stop offset="0.8071" stop-color="#00A5D6"/>
<stop offset="0.849" stop-color="#0096C3"/>
<stop offset="0.8905" stop-color="#0082A9"/>
<stop offset="0.9316" stop-color="#00698A"/>
<stop offset="0.9717" stop-color="#004C66"/>
<stop offset="1" stop-color="#003044"/>
</linearGradient>
<linearGradient id="paint15_linear" x1="258.057" y1="-4.95195" x2="-48.7572" y2="85.3189" gradientUnits="userSpaceOnUse">
<stop stop-color="white"/>
<stop offset="0.1728" stop-color="#FBFDFF"/>
<stop offset="0.2717" stop-color="#F1FAFE"/>
<stop offset="0.352" stop-color="#E2F4FD"/>
<stop offset="0.4223" stop-color="#CEEDFC"/>
<stop offset="0.4861" stop-color="#B2E3FA"/>
<stop offset="0.5451" stop-color="#8ED8F8"/>
<stop offset="0.6005" stop-color="#5CCCF5"/>
<stop offset="0.6517" stop-color="#00BFF3"/>
<stop offset="0.6751" stop-color="#00B9F2"/>
<stop offset="0.7211" stop-color="#00B6ED"/>
<stop offset="0.7646" stop-color="#00AFE4"/>
<stop offset="0.8071" stop-color="#00A5D6"/>
<stop offset="0.849" stop-color="#0096C3"/>
<stop offset="0.8905" stop-color="#0082A9"/>
<stop offset="0.9316" stop-color="#00698A"/>
<stop offset="0.9717" stop-color="#004C66"/>
<stop offset="1" stop-color="#003044"/>
</linearGradient>
<linearGradient id="paint16_linear" x1="256.471" y1="-10.3438" x2="-50.3436" y2="79.9275" gradientUnits="userSpaceOnUse">
<stop stop-color="white"/>
<stop offset="0.1728" stop-color="#FBFDFF"/>
<stop offset="0.2717" stop-color="#F1FAFE"/>
<stop offset="0.352" stop-color="#E2F4FD"/>
<stop offset="0.4223" stop-color="#CEEDFC"/>
<stop offset="0.4861" stop-color="#B2E3FA"/>
<stop offset="0.5451" stop-color="#8ED8F8"/>
<stop offset="0.6005" stop-color="#5CCCF5"/>
<stop offset="0.6517" stop-color="#00BFF3"/>
<stop offset="0.6751" stop-color="#00B9F2"/>
<stop offset="0.7211" stop-color="#00B6ED"/>
<stop offset="0.7646" stop-color="#00AFE4"/>
<stop offset="0.8071" stop-color="#00A5D6"/>
<stop offset="0.849" stop-color="#0096C3"/>
<stop offset="0.8905" stop-color="#0082A9"/>
<stop offset="0.9316" stop-color="#00698A"/>
<stop offset="0.9717" stop-color="#004C66"/>
<stop offset="1" stop-color="#003044"/>
</linearGradient>
<linearGradient id="paint17_linear" x1="252.814" y1="-22.7727" x2="-54.0004" y2="67.4987" gradientUnits="userSpaceOnUse">
<stop stop-color="white"/>
<stop offset="0.1728" stop-color="#FBFDFF"/>
<stop offset="0.2717" stop-color="#F1FAFE"/>
<stop offset="0.352" stop-color="#E2F4FD"/>
<stop offset="0.4223" stop-color="#CEEDFC"/>
<stop offset="0.4861" stop-color="#B2E3FA"/>
<stop offset="0.5451" stop-color="#8ED8F8"/>
<stop offset="0.6005" stop-color="#5CCCF5"/>
<stop offset="0.6517" stop-color="#00BFF3"/>
<stop offset="0.6751" stop-color="#00B9F2"/>
<stop offset="0.7211" stop-color="#00B6ED"/>
<stop offset="0.7646" stop-color="#00AFE4"/>
<stop offset="0.8071" stop-color="#00A5D6"/>
<stop offset="0.849" stop-color="#0096C3"/>
<stop offset="0.8905" stop-color="#0082A9"/>
<stop offset="0.9316" stop-color="#00698A"/>
<stop offset="0.9717" stop-color="#004C66"/>
<stop offset="1" stop-color="#003044"/>
</linearGradient>
<linearGradient id="paint18_linear" x1="255.255" y1="-14.4757" x2="-51.5593" y2="75.7956" gradientUnits="userSpaceOnUse">
<stop stop-color="white"/>
<stop offset="0.1728" stop-color="#FBFDFF"/>
<stop offset="0.2717" stop-color="#F1FAFE"/>
<stop offset="0.352" stop-color="#E2F4FD"/>
<stop offset="0.4223" stop-color="#CEEDFC"/>
<stop offset="0.4861" stop-color="#B2E3FA"/>
<stop offset="0.5451" stop-color="#8ED8F8"/>
<stop offset="0.6005" stop-color="#5CCCF5"/>
<stop offset="0.6517" stop-color="#00BFF3"/>
<stop offset="0.6751" stop-color="#00B9F2"/>
<stop offset="0.7211" stop-color="#00B6ED"/>
<stop offset="0.7646" stop-color="#00AFE4"/>
<stop offset="0.8071" stop-color="#00A5D6"/>
<stop offset="0.849" stop-color="#0096C3"/>
<stop offset="0.8905" stop-color="#0082A9"/>
<stop offset="0.9316" stop-color="#00698A"/>
<stop offset="0.9717" stop-color="#004C66"/>
<stop offset="1" stop-color="#003044"/>
</linearGradient>
<linearGradient id="paint19_linear" x1="248.863" y1="-36.1991" x2="-57.9509" y2="54.0721" gradientUnits="userSpaceOnUse">
<stop stop-color="white"/>
<stop offset="0.1728" stop-color="#FBFDFF"/>
<stop offset="0.2717" stop-color="#F1FAFE"/>
<stop offset="0.352" stop-color="#E2F4FD"/>
<stop offset="0.4223" stop-color="#CEEDFC"/>
<stop offset="0.4861" stop-color="#B2E3FA"/>
<stop offset="0.5451" stop-color="#8ED8F8"/>
<stop offset="0.6005" stop-color="#5CCCF5"/>
<stop offset="0.6517" stop-color="#00BFF3"/>
<stop offset="0.6751" stop-color="#00B9F2"/>
<stop offset="0.7211" stop-color="#00B6ED"/>
<stop offset="0.7646" stop-color="#00AFE4"/>
<stop offset="0.8071" stop-color="#00A5D6"/>
<stop offset="0.849" stop-color="#0096C3"/>
<stop offset="0.8905" stop-color="#0082A9"/>
<stop offset="0.9316" stop-color="#00698A"/>
<stop offset="0.9717" stop-color="#004C66"/>
<stop offset="1" stop-color="#003044"/>
</linearGradient>
<linearGradient id="paint20_linear" x1="247.609" y1="-40.4613" x2="-59.2049" y2="49.8101" gradientUnits="userSpaceOnUse">
<stop stop-color="white"/>
<stop offset="0.1728" stop-color="#FBFDFF"/>
<stop offset="0.2717" stop-color="#F1FAFE"/>
<stop offset="0.352" stop-color="#E2F4FD"/>
<stop offset="0.4223" stop-color="#CEEDFC"/>
<stop offset="0.4861" stop-color="#B2E3FA"/>
<stop offset="0.5451" stop-color="#8ED8F8"/>
<stop offset="0.6005" stop-color="#5CCCF5"/>
<stop offset="0.6517" stop-color="#00BFF3"/>
<stop offset="0.6751" stop-color="#00B9F2"/>
<stop offset="0.7211" stop-color="#00B6ED"/>
<stop offset="0.7646" stop-color="#00AFE4"/>
<stop offset="0.8071" stop-color="#00A5D6"/>
<stop offset="0.849" stop-color="#0096C3"/>
<stop offset="0.8905" stop-color="#0082A9"/>
<stop offset="0.9316" stop-color="#00698A"/>
<stop offset="0.9717" stop-color="#004C66"/>
<stop offset="1" stop-color="#003044"/>
</linearGradient>
<linearGradient id="paint21_linear" x1="251.113" y1="-28.5524" x2="-55.701" y2="61.7187" gradientUnits="userSpaceOnUse">
<stop stop-color="white"/>
<stop offset="0.1728" stop-color="#FBFDFF"/>
<stop offset="0.2717" stop-color="#F1FAFE"/>
<stop offset="0.352" stop-color="#E2F4FD"/>
<stop offset="0.4223" stop-color="#CEEDFC"/>
<stop offset="0.4861" stop-color="#B2E3FA"/>
<stop offset="0.5451" stop-color="#8ED8F8"/>
<stop offset="0.6005" stop-color="#5CCCF5"/>
<stop offset="0.6517" stop-color="#00BFF3"/>
<stop offset="0.6751" stop-color="#00B9F2"/>
<stop offset="0.7211" stop-color="#00B6ED"/>
<stop offset="0.7646" stop-color="#00AFE4"/>
<stop offset="0.8071" stop-color="#00A5D6"/>
<stop offset="0.849" stop-color="#0096C3"/>
<stop offset="0.8905" stop-color="#0082A9"/>
<stop offset="0.9316" stop-color="#00698A"/>
<stop offset="0.9717" stop-color="#004C66"/>
<stop offset="1" stop-color="#003044"/>
</linearGradient>
<clipPath id="clip0">
<rect width="170" height="145" fill="white"/>
</clipPath>
</defs>
</svg>
