<svg width="170" height="143" viewBox="0 0 170 143" fill="none" xmlns="http://www.w3.org/2000/svg">
<g clip-path="url(#clip0)">
<path d="M0.554932 130.562C0.554932 130.392 0.609814 130.252 0.725676 130.143C0.841538 130.027 0.981792 129.972 1.15254 129.972C1.31108 129.972 1.45134 130.027 1.5672 130.143C1.68916 130.258 1.74404 130.398 1.74404 130.562V139.663C1.74404 139.833 1.68916 139.973 1.5733 140.088C1.45744 140.204 1.31718 140.258 1.14644 140.258C0.98789 140.258 0.847636 140.204 0.731774 140.088C0.609814 139.973 0.554932 139.833 0.554932 139.663V130.562Z" fill="#0C4978"/>
<path d="M2.85388 135.273C2.85388 134.89 2.92706 134.526 3.07341 134.179C3.21976 133.839 3.421 133.535 3.68321 133.279C3.94542 133.024 4.24423 132.823 4.58571 132.678C4.9211 132.532 5.29308 132.459 5.68945 132.459C6.07362 132.459 6.43341 132.532 6.78099 132.678C7.12858 132.823 7.42738 133.024 7.6835 133.279C7.93961 133.535 8.14085 133.833 8.2933 134.179C8.44575 134.52 8.51892 134.884 8.51892 135.273V139.663C8.51892 139.833 8.45794 139.973 8.34208 140.088C8.22012 140.204 8.08596 140.258 7.93351 140.258C7.76277 140.258 7.62252 140.204 7.50665 140.088C7.39079 139.973 7.33591 139.833 7.33591 139.663V135.273C7.33591 135.055 7.29322 134.848 7.20175 134.647C7.11028 134.447 6.99442 134.276 6.84807 134.124C6.70172 133.972 6.53097 133.857 6.32364 133.772C6.12241 133.693 5.90898 133.65 5.68945 133.65C5.45773 133.65 5.2443 133.693 5.04916 133.772C4.84793 133.851 4.67718 133.972 4.52473 134.124C4.37228 134.276 4.25642 134.453 4.17105 134.647C4.08568 134.842 4.04909 135.055 4.04909 135.273V139.663C4.04909 139.833 3.98811 139.973 3.87225 140.088C3.75029 140.204 3.61613 140.258 3.45758 140.258C3.28684 140.258 3.14659 140.204 3.03072 140.088C2.91486 139.973 2.85998 139.833 2.85998 139.663V135.273H2.85388Z" fill="#0C4978"/>
<path d="M9.51289 130.55C9.51289 130.38 9.56777 130.24 9.68364 130.124C9.7995 130.009 9.93975 129.954 10.1044 129.954C10.2629 129.954 10.4032 130.009 10.5191 130.124C10.6349 130.24 10.6959 130.38 10.6959 130.55V132.526H13.7266C13.8974 132.526 14.0376 132.58 14.1535 132.696C14.2693 132.811 14.3242 132.951 14.3242 133.115C14.3242 133.273 14.2693 133.413 14.1535 133.529C14.0376 133.644 13.8974 133.705 13.7266 133.705H10.6959V137.511C10.6959 137.729 10.7386 137.936 10.824 138.131C10.9093 138.325 11.0252 138.502 11.1776 138.653C11.324 138.805 11.5008 138.921 11.7021 139.006C11.9033 139.091 12.1167 139.134 12.3363 139.134C12.6656 139.134 12.9705 139.043 13.2388 138.866C13.5132 138.69 13.7144 138.441 13.8486 138.131C13.9035 138.021 13.9766 137.93 14.0681 137.863C14.1596 137.796 14.2693 137.76 14.3974 137.76C14.5681 137.76 14.7084 137.821 14.8182 137.936C14.9279 138.052 14.9889 138.191 14.9889 138.35C14.9889 138.422 14.9706 138.495 14.9401 138.568C14.7328 139.024 14.4828 139.371 14.1901 139.608C13.8974 139.845 13.6107 140.015 13.3363 140.119C13.0619 140.222 12.8302 140.283 12.6351 140.289C12.4399 140.295 12.3424 140.307 12.3302 140.307C11.946 140.307 11.5801 140.234 11.2325 140.088C10.891 139.942 10.5861 139.742 10.33 139.486C10.0739 139.231 9.87267 138.933 9.72022 138.587C9.56777 138.246 9.4946 137.881 9.4946 137.505V130.55H9.51289Z" fill="#0C4978"/>
<path d="M15.4828 135.273C15.4828 134.89 15.556 134.526 15.7024 134.179C15.8487 133.833 16.05 133.535 16.3122 133.279C16.5744 133.024 16.8732 132.823 17.2147 132.678C17.5562 132.532 17.922 132.459 18.3184 132.459C18.7026 132.459 19.0624 132.532 19.41 132.678C19.7575 132.823 20.0563 133.024 20.3125 133.279C20.5686 133.535 20.7698 133.833 20.9223 134.179C21.0747 134.526 21.1479 134.884 21.1479 135.273V136.392C21.1479 136.562 21.093 136.702 20.9771 136.817C20.8613 136.933 20.721 136.988 20.5625 136.988H16.6842V137.523C16.6842 137.742 16.7268 137.948 16.8122 138.143C16.8976 138.337 17.0134 138.514 17.1659 138.666C17.3122 138.818 17.4891 138.933 17.6903 139.018C17.8916 139.103 18.105 139.146 18.3245 139.146C18.6538 139.146 18.9526 139.061 19.2209 138.884C19.4892 138.714 19.6905 138.483 19.8185 138.191L19.8368 138.137C19.8795 138.027 19.9527 137.936 20.0503 137.869C20.1478 137.802 20.2576 137.766 20.3856 137.766C20.5564 137.766 20.6966 137.827 20.8064 137.942C20.9162 138.058 20.9771 138.197 20.9771 138.356C20.9771 138.428 20.9589 138.501 20.9284 138.574L20.8979 138.635C20.6783 139.134 20.3369 139.535 19.8795 139.851C19.4161 140.161 18.8977 140.319 18.3184 140.319C17.9342 140.319 17.5684 140.246 17.2208 140.1C16.8793 139.954 16.5744 139.754 16.3183 139.498C16.0622 139.243 15.8609 138.945 15.7085 138.599C15.556 138.258 15.4828 137.894 15.4828 137.517V135.273ZM16.672 135.802H19.9527V135.279C19.9527 135.061 19.91 134.854 19.8185 134.653C19.7271 134.453 19.6112 134.282 19.4648 134.131C19.3185 133.979 19.1477 133.863 18.9404 133.778C18.7331 133.693 18.5258 133.656 18.3062 133.656C18.0745 133.656 17.8611 133.699 17.6659 133.778C17.4647 133.857 17.294 133.979 17.1415 134.131C16.9891 134.282 16.8732 134.459 16.7878 134.653C16.7085 134.854 16.6659 135.061 16.6659 135.279V135.802H16.672Z" fill="#0C4978"/>
<path d="M22.1052 130.562C22.1052 130.392 22.1601 130.252 22.276 130.143C22.3919 130.027 22.5321 129.972 22.6968 129.972C22.8553 129.972 22.9956 130.027 23.1114 130.143C23.2334 130.258 23.2883 130.398 23.2883 130.562V139.663C23.2883 139.833 23.2334 139.973 23.1175 140.088C23.0017 140.204 22.8614 140.258 22.6907 140.258C22.5321 140.258 22.3919 140.204 22.276 140.088C22.154 139.973 22.0992 139.833 22.0992 139.663V130.562H22.1052Z" fill="#0C4978"/>
<path d="M24.4652 130.562C24.4652 130.392 24.5201 130.252 24.6359 130.143C24.7518 130.027 24.892 129.972 25.0628 129.972C25.2213 129.972 25.3616 130.027 25.4774 130.143C25.5994 130.258 25.6543 130.398 25.6543 130.562V139.663C25.6543 139.833 25.5994 139.973 25.4835 140.088C25.3677 140.204 25.2274 140.258 25.0628 140.258C24.9042 140.258 24.764 140.204 24.6481 140.088C24.5262 139.973 24.4713 139.833 24.4713 139.663V130.562H24.4652Z" fill="#0C4978"/>
<path d="M26.7885 130.38C26.7885 130.209 26.8434 130.07 26.9593 129.954C27.0751 129.839 27.2154 129.784 27.3861 129.784C27.5447 129.784 27.6849 129.839 27.8008 129.954C27.9166 130.07 27.9776 130.209 27.9776 130.38V130.83C27.9776 131 27.9227 131.14 27.8069 131.255C27.691 131.371 27.5508 131.425 27.38 131.425C27.2215 131.425 27.0812 131.371 26.9654 131.255C26.8434 131.14 26.7885 131 26.7885 130.83V130.38ZM26.7885 133.121C26.7885 132.951 26.8434 132.811 26.9593 132.702C27.0751 132.586 27.2154 132.532 27.3861 132.532C27.5447 132.532 27.6849 132.586 27.8008 132.702C27.9227 132.817 27.9776 132.957 27.9776 133.121V139.669C27.9776 139.839 27.9227 139.979 27.8069 140.094C27.691 140.21 27.5508 140.264 27.38 140.264C27.2215 140.264 27.0812 140.21 26.9654 140.094C26.8434 139.979 26.7885 139.839 26.7885 139.669V133.121Z" fill="#0C4978"/>
<path d="M28.8374 135.273C28.8374 134.89 28.9106 134.526 29.057 134.179C29.2033 133.839 29.4045 133.535 29.6668 133.279C29.929 133.024 30.2278 132.823 30.5693 132.678C30.9108 132.532 31.2766 132.459 31.673 132.459C32.0572 132.459 32.417 132.532 32.7645 132.678C33.1121 132.823 33.4109 133.024 33.667 133.279C33.9232 133.535 34.1244 133.833 34.2768 134.179C34.4293 134.526 34.5025 134.884 34.5025 135.273V140.197C34.5025 140.58 34.4293 140.945 34.2768 141.292C34.1244 141.638 33.9232 141.93 33.667 142.185C33.4109 142.441 33.1121 142.635 32.7645 142.781C32.417 142.927 32.0572 143 31.673 143C31.5023 143 31.362 142.945 31.2522 142.83C31.1425 142.714 31.0815 142.574 31.0815 142.416C31.0815 142.246 31.1364 142.106 31.2522 141.997C31.3681 141.881 31.5084 141.827 31.673 141.827C31.8925 141.827 32.106 141.784 32.3072 141.699C32.5084 141.614 32.6853 141.498 32.8316 141.346C32.978 141.194 33.0938 141.024 33.1853 140.824C33.2768 140.623 33.3195 140.416 33.3195 140.197V139.808C32.8255 140.149 32.2767 140.319 31.6791 140.319C31.2949 140.319 30.929 140.246 30.5815 140.1C30.24 139.954 29.9351 139.754 29.679 139.498C29.4228 139.243 29.2155 138.945 29.0692 138.599C28.9167 138.258 28.8435 137.893 28.8435 137.517V135.273H28.8374ZM30.0265 137.523C30.0265 137.742 30.0692 137.948 30.1546 138.143C30.24 138.337 30.3558 138.514 30.5083 138.666C30.6546 138.818 30.8315 138.933 31.0327 139.018C31.2339 139.103 31.4474 139.146 31.6669 139.146C31.8864 139.146 32.0938 139.109 32.295 139.03C32.4962 138.951 32.667 138.842 32.8072 138.702C32.9536 138.562 33.0694 138.398 33.1609 138.21C33.2524 138.021 33.3012 137.821 33.3073 137.602V135.279C33.3073 135.061 33.2646 134.854 33.1731 134.653C33.0816 134.453 32.9658 134.282 32.8194 134.131C32.6731 133.979 32.5023 133.863 32.295 133.778C32.0938 133.699 31.8803 133.656 31.6608 133.656C31.4291 133.656 31.2157 133.699 31.0205 133.778C30.8193 133.857 30.6485 133.979 30.4961 134.131C30.3436 134.282 30.2278 134.459 30.1424 134.653C30.057 134.848 30.0204 135.061 30.0204 135.279V137.523H30.0265Z" fill="#0C4978"/>
<path d="M35.4172 135.273C35.4172 134.89 35.4904 134.526 35.6367 134.179C35.7831 133.839 35.9843 133.535 36.2465 133.279C36.5087 133.024 36.8075 132.823 37.149 132.678C37.4844 132.532 37.8564 132.459 38.2528 132.459C38.6369 132.459 38.9967 132.532 39.3443 132.678C39.6919 132.823 39.9907 133.024 40.2468 133.279C40.5029 133.535 40.7042 133.833 40.8566 134.179C41.0091 134.52 41.0822 134.884 41.0822 135.273V136.392C41.0822 136.562 41.0274 136.702 40.9115 136.817C40.7956 136.933 40.6554 136.988 40.4968 136.988H36.6185V137.523C36.6185 137.742 36.6612 137.948 36.7466 138.143C36.8319 138.337 36.9478 138.514 37.1002 138.666C37.2466 138.818 37.4234 138.933 37.6247 139.018C37.8259 139.103 38.0393 139.146 38.2589 139.146C38.5882 139.146 38.887 139.061 39.1553 138.884C39.4236 138.714 39.6248 138.483 39.7529 138.191L39.7651 138.137C39.8139 138.027 39.8809 137.936 39.9785 137.869C40.0761 137.802 40.1858 137.766 40.3139 137.766C40.4846 137.766 40.6249 137.827 40.7347 137.942C40.8505 138.064 40.9054 138.197 40.9054 138.356C40.9054 138.428 40.8871 138.501 40.8566 138.574L40.8261 138.635C40.6066 139.134 40.2651 139.535 39.8078 139.851C39.3443 140.161 38.826 140.319 38.2467 140.319C37.8625 140.319 37.4966 140.246 37.149 140.1C36.8075 139.954 36.5026 139.754 36.2465 139.498C35.9904 139.243 35.7831 138.945 35.6367 138.599C35.4843 138.258 35.4111 137.894 35.4111 137.517V135.273H35.4172ZM36.6124 135.802H39.8931V135.279C39.8931 135.061 39.8504 134.854 39.759 134.653C39.6675 134.453 39.5516 134.282 39.4053 134.131C39.2589 133.979 39.0882 133.863 38.8809 133.778C38.6735 133.693 38.4662 133.656 38.2467 133.656C38.0149 133.656 37.8015 133.699 37.6064 133.778C37.4112 133.857 37.2344 133.979 37.082 134.131C36.9295 134.282 36.8136 134.459 36.7283 134.653C36.649 134.854 36.6063 135.061 36.6063 135.279V135.802H36.6124Z" fill="#0C4978"/>
<path d="M41.9786 135.273C41.9786 134.89 42.0518 134.526 42.1982 134.179C42.3445 133.833 42.5458 133.535 42.808 133.279C43.0702 133.024 43.369 132.823 43.7105 132.678C44.052 132.532 44.4178 132.459 44.8142 132.459C45.1984 132.459 45.5582 132.532 45.9057 132.678C46.2533 132.823 46.5521 133.024 46.8083 133.279C47.0644 133.535 47.2656 133.833 47.4181 134.179C47.5705 134.526 47.6437 134.884 47.6437 135.273V139.663C47.6437 139.833 47.5827 139.973 47.4668 140.088C47.3449 140.204 47.2107 140.258 47.0583 140.258C46.8875 140.258 46.7473 140.204 46.6314 140.088C46.5155 139.973 46.4607 139.833 46.4607 139.663V135.273C46.4607 135.055 46.418 134.848 46.3265 134.647C46.235 134.447 46.1192 134.276 45.9728 134.124C45.8265 133.972 45.6557 133.857 45.4484 133.772C45.2411 133.687 45.0337 133.65 44.8142 133.65C44.5825 133.65 44.3691 133.693 44.1739 133.772C43.9727 133.851 43.8019 133.972 43.6495 134.124C43.497 134.276 43.3812 134.453 43.2958 134.647C43.2165 134.848 43.1738 135.055 43.1738 135.273V139.663C43.1738 139.833 43.1129 139.973 42.997 140.088C42.875 140.204 42.7409 140.258 42.5823 140.258C42.4116 140.258 42.2713 140.204 42.1616 140.088C42.0457 139.973 41.9908 139.833 41.9908 139.663V135.273H41.9786Z" fill="#0C4978"/>
<path d="M48.6315 130.55C48.6315 130.38 48.6864 130.24 48.8023 130.124C48.9181 130.009 49.0584 129.954 49.2291 129.954C49.3877 129.954 49.5279 130.009 49.6438 130.124C49.7597 130.24 49.8206 130.38 49.8206 130.55V132.526H52.8513C53.0221 132.526 53.1623 132.58 53.2782 132.696C53.3941 132.811 53.449 132.951 53.449 133.115C53.449 133.273 53.3941 133.413 53.2782 133.529C53.1623 133.65 53.0221 133.705 52.8513 133.705H49.8206V137.511C49.8206 137.729 49.8633 137.936 49.9487 138.131C50.0341 138.325 50.1499 138.502 50.3024 138.653C50.4487 138.805 50.6256 138.921 50.8268 139.006C51.028 139.091 51.2415 139.134 51.461 139.134C51.7903 139.134 52.0952 139.043 52.3635 138.866C52.6379 138.69 52.8392 138.441 52.9733 138.131C53.0282 138.021 53.1014 137.93 53.1928 137.863C53.2843 137.796 53.3941 137.76 53.5221 137.76C53.6929 137.76 53.8331 137.821 53.949 137.936C54.0649 138.052 54.1197 138.191 54.1197 138.35C54.1197 138.422 54.1014 138.495 54.0709 138.568C53.8636 139.024 53.6136 139.371 53.3209 139.608C53.0282 139.845 52.7416 140.015 52.4672 140.119C52.1928 140.222 51.961 140.283 51.7659 140.289C51.5708 140.301 51.4732 140.307 51.461 140.307C51.0768 140.307 50.7109 140.234 50.3634 140.088C50.0219 139.942 49.717 139.742 49.4609 139.486C49.2047 139.231 48.9974 138.933 48.8511 138.587C48.6986 138.246 48.6254 137.881 48.6254 137.505V130.55H48.6315Z" fill="#0C4978"/>
<path d="M58.864 130.562C58.864 130.392 58.9189 130.252 59.0347 130.143C59.1506 130.027 59.2908 129.972 59.4616 129.972H62.5838C62.8765 129.972 63.1509 130.027 63.407 130.137C63.6631 130.246 63.8887 130.392 64.0778 130.58C64.2729 130.769 64.4254 130.988 64.5351 131.237C64.6449 131.486 64.6998 131.76 64.6998 132.051C64.6998 132.289 64.6632 132.52 64.5839 132.738C64.5046 132.957 64.401 133.152 64.2668 133.334C64.8766 133.632 65.3767 134.07 65.7547 134.647C66.1328 135.225 66.3279 135.875 66.3279 136.605C66.3279 137.109 66.2304 137.59 66.0291 138.027C65.8279 138.471 65.5657 138.854 65.2303 139.188C64.8949 139.523 64.5046 139.784 64.0534 139.979C63.6021 140.173 63.1143 140.271 62.6021 140.271H59.4616C59.303 140.271 59.1628 140.216 59.0469 140.1C58.925 139.985 58.8701 139.845 58.8701 139.675V130.562H58.864ZM60.0531 131.158V132.933H62.596C62.8521 132.933 63.0655 132.848 63.2423 132.678C63.4192 132.507 63.5046 132.301 63.5046 132.051C63.5046 131.802 63.4131 131.596 63.2363 131.419C63.0533 131.249 62.8399 131.158 62.5838 131.158H60.0531ZM60.0531 134.118V139.073H62.596C62.9496 139.073 63.285 139.006 63.5899 138.878C63.9009 138.751 64.1692 138.574 64.3949 138.349C64.6205 138.125 64.8034 137.863 64.9315 137.559C65.0596 137.255 65.1266 136.939 65.1266 136.599C65.1266 136.264 65.0596 135.948 64.9315 135.65C64.8034 135.352 64.6205 135.091 64.3949 134.872C64.1692 134.653 63.8948 134.471 63.5899 134.337C63.285 134.204 62.9496 134.131 62.596 134.118H60.0531Z" fill="#0C4978"/>
<path d="M67.1329 133.121C67.1329 132.951 67.1878 132.811 67.3036 132.702C67.4195 132.586 67.5598 132.532 67.7305 132.532C67.889 132.532 68.0293 132.586 68.1452 132.702C68.2671 132.817 68.322 132.957 68.322 133.121V137.523C68.322 137.742 68.3647 137.948 68.444 138.143C68.5232 138.337 68.6452 138.514 68.7977 138.666C68.9501 138.818 69.1269 138.933 69.3221 139.018C69.5233 139.103 69.7367 139.146 69.9624 139.146C70.1819 139.146 70.3953 139.103 70.5966 139.018C70.7978 138.933 70.9746 138.818 71.121 138.666C71.2673 138.514 71.3832 138.337 71.4747 138.143C71.5661 137.948 71.6088 137.742 71.6088 137.523V133.121C71.6088 132.951 71.6637 132.811 71.7796 132.702C71.8954 132.586 72.0357 132.532 72.2064 132.532C72.3589 132.532 72.493 132.586 72.615 132.702C72.737 132.817 72.7918 132.957 72.7918 133.121V137.523C72.7918 137.906 72.7187 138.264 72.5662 138.605C72.4138 138.945 72.2125 139.249 71.9564 139.505C71.7003 139.76 71.4015 139.96 71.0539 140.106C70.7063 140.252 70.3404 140.325 69.9624 140.325C69.566 140.325 69.2001 140.252 68.8586 140.106C68.5171 139.96 68.2183 139.76 67.9561 139.505C67.6939 139.249 67.4927 138.951 67.3463 138.605C67.2 138.264 67.1268 137.9 67.1268 137.523V133.121H67.1329Z" fill="#0C4978"/>
<path d="M73.8224 134.653C73.8224 134.331 73.8895 134.033 74.0297 133.766C74.17 133.498 74.3529 133.267 74.5846 133.073C74.8164 132.878 75.0969 132.732 75.4262 132.629C75.7555 132.526 76.1091 132.471 76.4994 132.471C76.8104 132.483 77.1092 132.526 77.4019 132.605C77.658 132.684 77.9141 132.799 78.1703 132.957C78.4325 133.115 78.6459 133.346 78.8288 133.638C78.902 133.778 78.9386 133.906 78.9386 134.009C78.9386 134.161 78.8837 134.295 78.774 134.41C78.6642 134.526 78.53 134.586 78.3715 134.586C78.1886 134.586 78.03 134.501 77.8898 134.337C77.6885 134.1 77.4934 133.924 77.2921 133.814C77.0909 133.705 76.8287 133.65 76.4994 133.65C76.0543 133.65 75.6884 133.748 75.4201 133.936C75.1456 134.124 75.0115 134.362 75.0115 134.647C75.0115 135.018 75.1396 135.28 75.4018 135.425C75.664 135.571 76.0299 135.644 76.4994 135.644C76.8836 135.644 77.2434 135.693 77.5909 135.79C77.9385 135.887 78.2373 136.039 78.4935 136.234C78.7496 136.435 78.9508 136.678 79.1033 136.963C79.2557 137.255 79.3289 137.59 79.3289 137.979C79.3289 138.374 79.2557 138.72 79.1033 139.012C78.9508 139.304 78.7435 139.547 78.4752 139.742C78.2069 139.936 77.9019 140.082 77.5544 140.173C77.2068 140.264 76.8409 140.313 76.4506 140.313C76.3714 140.313 76.2189 140.301 75.9933 140.277C75.7676 140.252 75.5237 140.179 75.2554 140.07C74.9871 139.96 74.7127 139.784 74.4322 139.547C74.1517 139.31 73.92 138.988 73.7309 138.574C73.7004 138.495 73.6821 138.422 73.6821 138.356C73.6821 138.198 73.737 138.058 73.8468 137.942C73.9565 137.821 74.1029 137.766 74.2797 137.766C74.4017 137.766 74.5115 137.802 74.6029 137.869C74.6944 137.936 74.7737 138.027 74.8286 138.137C74.9627 138.453 75.1883 138.696 75.5115 138.872C75.8347 139.049 76.164 139.14 76.4994 139.14C76.7189 139.14 76.9324 139.122 77.1336 139.085C77.3348 139.049 77.5117 138.982 77.658 138.897C77.8044 138.805 77.9202 138.69 78.0117 138.538C78.1032 138.386 78.1459 138.204 78.1459 137.985C78.1459 137.541 77.9873 137.231 77.6702 137.073C77.3531 136.909 76.9629 136.83 76.5055 136.83C76.1213 136.83 75.7615 136.793 75.4323 136.72C75.103 136.647 74.8225 136.526 74.5907 136.356C74.359 136.185 74.17 135.96 74.0358 135.687C73.8895 135.413 73.8224 135.067 73.8224 134.653Z" fill="#0C4978"/>
<path d="M80.2253 130.38C80.2253 130.209 80.2802 130.07 80.396 129.954C80.5119 129.839 80.6521 129.784 80.8168 129.784C80.9753 129.784 81.1156 129.839 81.2314 129.954C81.3473 130.07 81.4083 130.209 81.4083 130.38V130.83C81.4083 131 81.3534 131.14 81.2375 131.255C81.1217 131.371 80.9814 131.425 80.8107 131.425C80.6521 131.425 80.5119 131.371 80.396 131.255C80.2741 131.14 80.2192 131 80.2192 130.83V130.38H80.2253ZM80.2253 133.121C80.2253 132.951 80.2802 132.811 80.396 132.702C80.5119 132.586 80.6521 132.532 80.8168 132.532C80.9753 132.532 81.1156 132.586 81.2314 132.702C81.3534 132.817 81.4083 132.957 81.4083 133.121V139.669C81.4083 139.839 81.3534 139.979 81.2375 140.094C81.1217 140.21 80.9814 140.264 80.8107 140.264C80.6521 140.264 80.5119 140.21 80.396 140.094C80.2741 139.979 80.2192 139.839 80.2192 139.669V133.121H80.2253Z" fill="#0C4978"/>
<path d="M82.4937 135.273C82.4937 134.89 82.5669 134.526 82.7133 134.179C82.8596 133.839 83.0609 133.535 83.3231 133.279C83.5853 133.024 83.8841 132.823 84.2256 132.678C84.5671 132.532 84.9329 132.459 85.3293 132.459C85.7135 132.459 86.0733 132.532 86.4209 132.678C86.7684 132.823 87.0672 133.024 87.3234 133.279C87.5795 133.535 87.7807 133.833 87.9332 134.179C88.0856 134.526 88.1588 134.884 88.1588 135.273V139.663C88.1588 139.833 88.0978 139.973 87.9819 140.088C87.86 140.204 87.7258 140.258 87.5734 140.258C87.4026 140.258 87.2624 140.204 87.1526 140.088C87.0367 139.973 86.9819 139.833 86.9819 139.663V135.273C86.9819 135.055 86.9392 134.848 86.8477 134.647C86.7562 134.447 86.6404 134.276 86.494 134.124C86.3477 133.972 86.1769 133.857 85.9696 133.772C85.7623 133.687 85.5549 133.65 85.3354 133.65C85.1037 133.65 84.8903 133.693 84.6951 133.772C84.4939 133.851 84.3231 133.972 84.1707 134.124C84.0182 134.276 83.9024 134.453 83.817 134.647C83.7377 134.848 83.695 135.055 83.695 135.273V139.663C83.695 139.833 83.6341 139.973 83.5182 140.088C83.3963 140.204 83.2621 140.258 83.1035 140.258C82.9328 140.258 82.7925 140.204 82.6828 140.088C82.5669 139.973 82.512 139.833 82.512 139.663V135.273H82.4937Z" fill="#0C4978"/>
<path d="M89.0918 135.273C89.0918 134.89 89.1649 134.526 89.3113 134.179C89.4576 133.839 89.6589 133.535 89.9211 133.279C90.1833 133.024 90.4821 132.823 90.8236 132.678C91.1651 132.532 91.531 132.459 91.9273 132.459C92.3115 132.459 92.6713 132.532 93.0189 132.678C93.3665 132.823 93.6653 133.024 93.9214 133.279C94.1775 133.535 94.3787 133.833 94.5312 134.179C94.6836 134.526 94.7568 134.884 94.7568 135.273V136.392C94.7568 136.562 94.7019 136.702 94.5861 136.817C94.4702 136.933 94.3299 136.988 94.1714 136.988H90.2931V137.523C90.2931 137.742 90.3358 137.948 90.4211 138.143C90.5065 138.337 90.6224 138.514 90.7748 138.666C90.9212 138.818 91.098 138.933 91.2992 139.018C91.5005 139.103 91.7139 139.146 91.9334 139.146C92.2627 139.146 92.5615 139.061 92.8298 138.884C93.0981 138.714 93.2994 138.483 93.4274 138.191L93.4396 138.137C93.4884 138.027 93.5555 137.936 93.6531 137.869C93.7506 137.802 93.8604 137.766 93.9885 137.766C94.1592 137.766 94.2995 137.827 94.4092 137.942C94.519 138.058 94.58 138.197 94.58 138.356C94.58 138.428 94.5617 138.501 94.5312 138.574L94.5007 138.635C94.2812 139.134 93.9397 139.535 93.4823 139.851C93.0189 140.161 92.5005 140.319 91.9212 140.319C91.5371 140.319 91.1712 140.246 90.8236 140.1C90.4821 139.954 90.1772 139.754 89.9211 139.498C89.665 139.243 89.4637 138.945 89.3113 138.599C89.1588 138.258 89.0857 137.894 89.0857 137.517V135.273H89.0918ZM90.2809 135.802H93.5616V135.279C93.5616 135.061 93.5189 134.854 93.4274 134.653C93.336 134.453 93.2201 134.282 93.0738 134.131C92.9274 133.979 92.7567 133.863 92.5493 133.778C92.342 133.693 92.1347 133.656 91.9151 133.656C91.6834 133.656 91.47 133.699 91.2748 133.778C91.0797 133.857 90.9029 133.979 90.7504 134.131C90.598 134.282 90.4821 134.459 90.3967 134.653C90.3175 134.854 90.2748 135.061 90.2748 135.279V135.802H90.2809Z" fill="#0C4978"/>
<path d="M95.6776 134.653C95.6776 134.331 95.7447 134.033 95.8849 133.766C96.0191 133.498 96.2081 133.267 96.4399 133.073C96.6716 132.878 96.9521 132.732 97.2814 132.629C97.6107 132.526 97.9705 132.471 98.3546 132.471C98.6656 132.483 98.9644 132.526 99.2571 132.605C99.5133 132.684 99.7694 132.799 100.032 132.957C100.294 133.115 100.507 133.346 100.69 133.638C100.763 133.778 100.8 133.906 100.8 134.009C100.8 134.161 100.745 134.295 100.635 134.41C100.526 134.526 100.391 134.586 100.233 134.586C100.05 134.586 99.8913 134.501 99.7511 134.337C99.5498 134.1 99.3547 133.924 99.1535 133.814C98.9522 133.705 98.69 133.65 98.3607 133.65C97.9156 133.65 97.5497 133.748 97.2814 133.936C97.007 134.124 96.8728 134.362 96.8728 134.647C96.8728 135.018 97.0009 135.28 97.2631 135.425C97.5253 135.571 97.8912 135.644 98.3607 135.644C98.7449 135.644 99.1047 135.693 99.4523 135.79C99.7999 135.887 100.099 136.039 100.355 136.234C100.611 136.435 100.812 136.678 100.965 136.963C101.117 137.255 101.19 137.59 101.19 137.979C101.19 138.374 101.117 138.72 100.965 139.012C100.812 139.304 100.605 139.547 100.336 139.742C100.068 139.936 99.7633 140.082 99.4096 140.173C99.062 140.264 98.6961 140.313 98.3059 140.313C98.2266 140.313 98.0741 140.301 97.8485 140.277C97.6229 140.252 97.379 140.179 97.1106 140.07C96.8423 139.96 96.5679 139.784 96.2874 139.547C96.0069 139.31 95.7752 138.988 95.5861 138.574C95.5556 138.495 95.5374 138.422 95.5374 138.356C95.5374 138.198 95.5922 138.058 95.702 137.942C95.8118 137.827 95.9581 137.766 96.135 137.766C96.2569 137.766 96.3667 137.802 96.4581 137.869C96.5496 137.936 96.6289 138.027 96.6838 138.137C96.8179 138.453 97.0436 138.696 97.3668 138.872C97.6899 139.049 98.0192 139.14 98.3546 139.14C98.5742 139.14 98.7876 139.122 98.9888 139.085C99.1901 139.049 99.3669 138.982 99.5133 138.897C99.6596 138.805 99.7755 138.69 99.8669 138.538C99.9584 138.386 100.001 138.204 100.001 137.985C100.001 137.541 99.8425 137.231 99.5254 137.073C99.2084 136.909 98.8181 136.83 98.3607 136.83C97.9766 136.83 97.6168 136.793 97.2875 136.72C96.9582 136.647 96.6777 136.526 96.446 136.356C96.2142 136.185 96.0252 135.96 95.891 135.687C95.7508 135.413 95.6776 135.067 95.6776 134.653Z" fill="#0C4978"/>
<path d="M102.087 134.653C102.087 134.331 102.154 134.033 102.294 133.766C102.434 133.498 102.617 133.267 102.849 133.073C103.081 132.878 103.367 132.732 103.69 132.629C104.02 132.526 104.379 132.471 104.764 132.471C105.075 132.483 105.373 132.526 105.666 132.605C105.922 132.684 106.178 132.799 106.434 132.957C106.697 133.115 106.916 133.346 107.093 133.638C107.166 133.778 107.197 133.906 107.197 134.009C107.197 134.161 107.142 134.295 107.032 134.41C106.922 134.526 106.788 134.586 106.63 134.586C106.447 134.586 106.288 134.501 106.148 134.337C105.947 134.1 105.751 133.924 105.55 133.814C105.349 133.705 105.087 133.65 104.758 133.65C104.312 133.65 103.953 133.748 103.678 133.936C103.404 134.124 103.27 134.362 103.27 134.647C103.27 135.018 103.398 135.28 103.66 135.425C103.922 135.571 104.288 135.644 104.758 135.644C105.142 135.644 105.501 135.693 105.849 135.79C106.197 135.887 106.495 136.039 106.752 136.234C107.008 136.435 107.209 136.678 107.361 136.963C107.514 137.255 107.587 137.59 107.587 137.979C107.587 138.374 107.514 138.72 107.361 139.012C107.209 139.304 107.002 139.547 106.733 139.742C106.465 139.936 106.16 140.082 105.806 140.173C105.459 140.264 105.093 140.313 104.703 140.313C104.623 140.313 104.471 140.301 104.245 140.277C104.02 140.252 103.776 140.179 103.507 140.07C103.239 139.96 102.965 139.784 102.684 139.547C102.404 139.31 102.172 138.988 101.983 138.574C101.952 138.495 101.94 138.422 101.94 138.356C101.94 138.198 101.995 138.058 102.105 137.942C102.215 137.827 102.361 137.766 102.538 137.766C102.66 137.766 102.77 137.802 102.861 137.869C102.953 137.936 103.032 138.027 103.087 138.137C103.221 138.453 103.446 138.696 103.77 138.872C104.093 139.049 104.422 139.14 104.758 139.14C104.977 139.14 105.19 139.122 105.392 139.085C105.593 139.049 105.77 138.982 105.916 138.897C106.063 138.805 106.178 138.69 106.27 138.538C106.361 138.386 106.404 138.204 106.404 137.985C106.404 137.541 106.245 137.231 105.928 137.073C105.611 136.909 105.221 136.83 104.764 136.83C104.379 136.83 104.02 136.793 103.69 136.72C103.361 136.647 103.081 136.526 102.849 136.356C102.617 136.185 102.428 135.96 102.294 135.687C102.154 135.413 102.087 135.067 102.087 134.653Z" fill="#0C4978"/>
<path d="M108.398 135.273C108.398 134.89 108.471 134.526 108.618 134.179C108.764 133.839 108.965 133.535 109.227 133.279C109.49 133.024 109.788 132.823 110.13 132.678C110.465 132.532 110.837 132.459 111.234 132.459C111.618 132.459 111.978 132.532 112.325 132.678C112.673 132.823 112.972 133.024 113.228 133.279C113.484 133.535 113.685 133.833 113.837 134.179C113.99 134.526 114.063 134.884 114.063 135.273V136.392C114.063 136.562 114.008 136.702 113.892 136.817C113.776 136.933 113.636 136.988 113.478 136.988H109.599V137.523C109.599 137.742 109.642 137.948 109.727 138.143C109.813 138.337 109.929 138.514 110.081 138.666C110.227 138.818 110.404 138.933 110.606 139.018C110.807 139.103 111.02 139.146 111.24 139.146C111.569 139.146 111.868 139.061 112.136 138.884C112.404 138.714 112.606 138.483 112.734 138.191L112.752 138.137C112.801 138.027 112.868 137.936 112.965 137.869C113.063 137.802 113.173 137.766 113.301 137.766C113.472 137.766 113.612 137.827 113.728 137.942C113.844 138.064 113.898 138.197 113.898 138.356C113.898 138.428 113.886 138.501 113.85 138.574L113.819 138.635C113.6 139.134 113.258 139.535 112.801 139.851C112.337 140.161 111.819 140.319 111.24 140.319C110.856 140.319 110.49 140.246 110.142 140.1C109.801 139.954 109.496 139.754 109.24 139.498C108.983 139.243 108.776 138.945 108.63 138.599C108.477 138.258 108.404 137.894 108.404 137.517V135.273H108.398ZM109.593 135.802H112.874V135.279C112.874 135.061 112.831 134.854 112.74 134.653C112.648 134.453 112.532 134.282 112.386 134.131C112.24 133.979 112.069 133.863 111.862 133.778C111.654 133.693 111.447 133.656 111.228 133.656C110.996 133.656 110.782 133.699 110.587 133.778C110.386 133.857 110.215 133.979 110.063 134.131C109.91 134.282 109.794 134.459 109.709 134.653C109.63 134.854 109.587 135.061 109.587 135.279V135.802H109.593Z" fill="#0C4978"/>
<path d="M114.99 134.653C114.99 134.331 115.057 134.033 115.197 133.766C115.331 133.498 115.521 133.267 115.752 133.073C115.984 132.878 116.264 132.732 116.594 132.629C116.923 132.526 117.283 132.471 117.667 132.471C117.978 132.483 118.277 132.526 118.569 132.605C118.826 132.684 119.082 132.799 119.338 132.957C119.6 133.115 119.813 133.346 119.996 133.638C120.07 133.778 120.1 133.906 120.1 134.009C120.1 134.161 120.045 134.295 119.935 134.41C119.826 134.526 119.692 134.586 119.533 134.586C119.35 134.586 119.191 134.501 119.051 134.337C118.85 134.1 118.655 133.924 118.454 133.814C118.252 133.705 117.99 133.65 117.661 133.65C117.21 133.65 116.85 133.748 116.582 133.936C116.307 134.124 116.173 134.362 116.173 134.647C116.173 135.018 116.301 135.28 116.563 135.425C116.825 135.571 117.191 135.644 117.661 135.644C118.045 135.644 118.405 135.693 118.752 135.79C119.1 135.887 119.399 136.039 119.655 136.234C119.911 136.435 120.112 136.678 120.265 136.963C120.417 137.255 120.49 137.59 120.49 137.979C120.49 138.374 120.417 138.72 120.265 139.012C120.112 139.304 119.905 139.547 119.637 139.742C119.368 139.936 119.063 140.082 118.71 140.173C118.362 140.264 117.996 140.313 117.606 140.313C117.527 140.313 117.374 140.301 117.149 140.277C116.923 140.252 116.679 140.179 116.411 140.07C116.142 139.96 115.868 139.784 115.588 139.547C115.307 139.316 115.075 138.988 114.886 138.574C114.856 138.495 114.838 138.422 114.838 138.356C114.838 138.198 114.892 138.058 115.002 137.942C115.112 137.827 115.258 137.766 115.435 137.766C115.557 137.766 115.667 137.802 115.758 137.869C115.85 137.936 115.929 138.027 115.984 138.137C116.118 138.453 116.344 138.696 116.667 138.872C116.99 139.049 117.319 139.14 117.655 139.14C117.874 139.14 118.088 139.122 118.289 139.085C118.49 139.049 118.667 138.982 118.813 138.897C118.96 138.805 119.076 138.69 119.167 138.538C119.259 138.386 119.301 138.204 119.301 137.985C119.301 137.541 119.143 137.231 118.826 137.073C118.509 136.909 118.118 136.83 117.661 136.83C117.277 136.83 116.917 136.793 116.588 136.72C116.258 136.647 115.978 136.526 115.746 136.356C115.514 136.185 115.325 135.96 115.191 135.687C115.057 135.413 114.99 135.067 114.99 134.653Z" fill="#0C4978"/>
<path d="M125.533 130.38C125.533 130.209 125.588 130.07 125.704 129.954C125.82 129.839 125.96 129.784 126.131 129.784C126.29 129.784 126.43 129.839 126.546 129.954C126.668 130.07 126.723 130.209 126.723 130.38V130.83C126.723 131 126.668 131.14 126.552 131.255C126.436 131.371 126.296 131.425 126.131 131.425C125.972 131.425 125.832 131.371 125.716 131.255C125.594 131.14 125.54 131 125.54 130.83V130.38H125.533ZM125.533 133.121C125.533 132.951 125.588 132.811 125.704 132.702C125.82 132.586 125.96 132.532 126.131 132.532C126.29 132.532 126.43 132.586 126.546 132.702C126.668 132.817 126.723 132.957 126.723 133.121V139.669C126.723 139.839 126.668 139.979 126.552 140.094C126.436 140.21 126.296 140.264 126.131 140.264C125.972 140.264 125.832 140.21 125.716 140.094C125.594 139.979 125.54 139.839 125.54 139.669V133.121H125.533Z" fill="#0C4978"/>
<path d="M127.802 135.273C127.802 134.89 127.875 134.526 128.021 134.179C128.168 133.833 128.369 133.535 128.631 133.279C128.893 133.024 129.192 132.823 129.534 132.678C129.875 132.532 130.241 132.459 130.637 132.459C131.022 132.459 131.381 132.532 131.729 132.678C132.077 132.823 132.375 133.024 132.631 133.279C132.888 133.535 133.089 133.833 133.241 134.179C133.394 134.526 133.467 134.884 133.467 135.273V139.663C133.467 139.833 133.406 139.973 133.29 140.088C133.168 140.204 133.034 140.258 132.881 140.258C132.711 140.258 132.57 140.204 132.455 140.088C132.339 139.973 132.284 139.833 132.284 139.663V135.273C132.284 135.055 132.241 134.848 132.15 134.647C132.058 134.447 131.942 134.276 131.796 134.124C131.65 133.972 131.479 133.857 131.272 133.772C131.064 133.687 130.857 133.65 130.637 133.65C130.406 133.65 130.192 133.693 129.997 133.772C129.796 133.851 129.625 133.972 129.473 134.124C129.32 134.276 129.204 134.453 129.119 134.647C129.04 134.848 128.997 135.055 128.997 135.273V139.663C128.997 139.833 128.936 139.973 128.82 140.088C128.698 140.204 128.564 140.258 128.406 140.258C128.235 140.258 128.095 140.204 127.985 140.088C127.869 139.973 127.814 139.833 127.814 139.663V135.273H127.802Z" fill="#0C4978"/>
<path d="M138.553 133.34C138.553 132.83 138.65 132.349 138.851 131.9C139.053 131.456 139.315 131.061 139.65 130.726C139.986 130.392 140.376 130.124 140.827 129.93C141.278 129.735 141.766 129.638 142.285 129.638C142.669 129.638 143.041 129.693 143.401 129.808C143.754 129.924 144.084 130.082 144.376 130.282C144.669 130.483 144.937 130.726 145.169 131.012C145.401 131.292 145.59 131.602 145.724 131.942C145.754 132.027 145.767 132.112 145.767 132.191C145.767 132.337 145.718 132.471 145.608 132.599C145.504 132.72 145.358 132.787 145.169 132.787C145.065 132.787 144.968 132.757 144.87 132.702C144.773 132.641 144.693 132.556 144.645 132.447C144.443 131.979 144.138 131.596 143.712 131.286C143.291 130.982 142.809 130.823 142.279 130.823C141.925 130.823 141.596 130.89 141.285 131.024C140.974 131.158 140.699 131.34 140.474 131.559C140.248 131.778 140.065 132.045 139.937 132.355C139.809 132.665 139.742 132.988 139.742 133.334V136.89C139.742 137.231 139.809 137.553 139.943 137.863C140.077 138.173 140.26 138.435 140.492 138.66C140.724 138.884 140.992 139.061 141.303 139.195C141.614 139.328 141.943 139.395 142.285 139.395C142.638 139.395 142.974 139.328 143.279 139.195C143.583 139.061 143.852 138.878 144.084 138.66C144.315 138.441 144.492 138.173 144.62 137.863C144.748 137.553 144.815 137.231 144.815 136.89V136.125H143.614C143.443 136.125 143.303 136.07 143.193 135.954C143.077 135.839 143.022 135.699 143.022 135.529C143.022 135.377 143.077 135.243 143.193 135.121C143.309 135 143.449 134.945 143.614 134.945H145.407C145.578 134.945 145.718 135 145.834 135.115C145.949 135.231 146.004 135.371 146.004 135.529V136.89C146.004 137.395 145.907 137.875 145.706 138.319C145.504 138.763 145.242 139.158 144.907 139.492C144.571 139.833 144.181 140.094 143.73 140.289C143.279 140.483 142.791 140.581 142.279 140.581C141.772 140.581 141.291 140.483 140.833 140.289C140.382 140.094 139.986 139.833 139.644 139.492C139.303 139.158 139.034 138.763 138.839 138.319C138.638 137.875 138.54 137.395 138.54 136.89V133.34H138.553Z" fill="#0C4978"/>
<path d="M146.937 130.562C146.937 130.392 146.992 130.252 147.108 130.143C147.224 130.027 147.364 129.972 147.529 129.972C147.687 129.972 147.828 130.027 147.944 130.143C148.065 130.258 148.12 130.398 148.12 130.562V139.663C148.12 139.833 148.065 139.973 147.95 140.088C147.834 140.204 147.694 140.258 147.523 140.258C147.364 140.258 147.224 140.204 147.108 140.088C146.986 139.973 146.931 139.833 146.931 139.663V130.562H146.937Z" fill="#0C4978"/>
<path d="M149.175 135.273C149.175 134.89 149.249 134.526 149.395 134.179C149.541 133.833 149.742 133.535 150.005 133.279C150.267 133.024 150.566 132.823 150.907 132.678C151.243 132.532 151.615 132.459 152.011 132.459C152.395 132.459 152.755 132.532 153.102 132.678C153.45 132.823 153.749 133.024 154.005 133.279C154.261 133.535 154.462 133.833 154.615 134.179C154.767 134.52 154.84 134.884 154.84 135.273V137.517C154.84 137.9 154.767 138.258 154.621 138.599C154.475 138.939 154.273 139.243 154.011 139.498C153.749 139.754 153.45 139.954 153.102 140.1C152.755 140.246 152.389 140.319 152.011 140.319C151.627 140.319 151.261 140.246 150.913 140.1C150.572 139.954 150.267 139.754 150.011 139.498C149.755 139.243 149.547 138.945 149.401 138.599C149.249 138.258 149.175 137.894 149.175 137.517V135.273ZM150.371 137.523C150.371 137.742 150.413 137.948 150.499 138.143C150.584 138.337 150.7 138.514 150.852 138.666C150.999 138.818 151.176 138.933 151.377 139.018C151.578 139.103 151.791 139.146 152.011 139.146C152.243 139.146 152.456 139.103 152.651 139.018C152.852 138.933 153.023 138.818 153.176 138.666C153.328 138.514 153.444 138.337 153.529 138.143C153.615 137.948 153.657 137.742 153.657 137.523V135.279C153.657 135.061 153.615 134.854 153.523 134.653C153.432 134.453 153.316 134.282 153.17 134.131C153.023 133.979 152.852 133.863 152.645 133.778C152.444 133.699 152.23 133.656 152.011 133.656C151.779 133.656 151.566 133.699 151.371 133.778C151.169 133.857 150.999 133.979 150.846 134.131C150.694 134.282 150.578 134.459 150.493 134.653C150.413 134.854 150.371 135.061 150.371 135.279V137.523Z" fill="#0C4978"/>
<path d="M155.804 130.38C155.804 130.209 155.859 130.07 155.975 129.954C156.091 129.839 156.231 129.784 156.395 129.784C156.554 129.784 156.694 129.839 156.81 129.954C156.932 130.07 156.987 130.209 156.987 130.38V133C157.219 132.83 157.469 132.702 157.749 132.611C158.03 132.52 158.322 132.471 158.627 132.471C159.011 132.471 159.371 132.544 159.719 132.69C160.066 132.836 160.365 133.036 160.627 133.292C160.89 133.547 161.091 133.845 161.237 134.191C161.384 134.538 161.457 134.896 161.457 135.286V137.529C161.457 137.912 161.384 138.27 161.231 138.611C161.079 138.951 160.877 139.255 160.621 139.511C160.365 139.766 160.066 139.967 159.719 140.112C159.371 140.258 159.005 140.331 158.627 140.331C158.231 140.331 157.865 140.258 157.524 140.112C157.182 139.967 156.883 139.766 156.621 139.511C156.359 139.255 156.158 138.957 156.011 138.611C155.865 138.27 155.792 137.906 155.792 137.529V130.38H155.804ZM156.993 137.523C156.993 137.742 157.036 137.948 157.115 138.143C157.194 138.337 157.316 138.514 157.469 138.666C157.621 138.818 157.798 138.933 157.993 139.018C158.194 139.103 158.408 139.146 158.633 139.146C158.853 139.146 159.066 139.103 159.268 139.018C159.469 138.933 159.646 138.818 159.792 138.666C159.938 138.514 160.054 138.337 160.146 138.143C160.237 137.948 160.28 137.742 160.28 137.523V135.279C160.28 135.061 160.237 134.854 160.152 134.653C160.066 134.453 159.951 134.283 159.798 134.131C159.646 133.979 159.475 133.863 159.274 133.778C159.072 133.699 158.859 133.656 158.633 133.656C158.414 133.656 158.206 133.699 158.005 133.778C157.804 133.857 157.633 133.972 157.493 134.112C157.347 134.252 157.231 134.416 157.139 134.605C157.048 134.793 156.999 134.994 156.993 135.213V137.523Z" fill="#0C4978"/>
<path d="M162.085 135.273C162.085 134.89 162.158 134.526 162.304 134.179C162.451 133.833 162.652 133.535 162.914 133.279C163.176 133.024 163.475 132.823 163.817 132.678C164.158 132.532 164.524 132.459 164.92 132.459C165.305 132.459 165.664 132.532 166.012 132.678C166.36 132.823 166.658 133.024 166.914 133.279C167.171 133.535 167.372 133.833 167.524 134.179C167.677 134.526 167.75 134.884 167.75 135.273V139.663C167.75 139.833 167.689 139.973 167.573 140.088C167.451 140.204 167.317 140.258 167.164 140.258C167.018 140.258 166.89 140.216 166.78 140.125C166.671 140.033 166.603 139.924 166.585 139.796C166.109 140.149 165.555 140.319 164.926 140.319C164.542 140.319 164.176 140.246 163.829 140.1C163.487 139.954 163.182 139.754 162.926 139.498C162.67 139.243 162.469 138.945 162.317 138.599C162.164 138.258 162.091 137.894 162.091 137.517V135.273H162.085ZM163.28 137.523C163.28 137.742 163.323 137.948 163.408 138.143C163.493 138.337 163.609 138.514 163.762 138.666C163.908 138.818 164.085 138.933 164.286 139.018C164.487 139.103 164.701 139.146 164.92 139.146C165.14 139.146 165.347 139.109 165.548 139.03C165.75 138.951 165.92 138.842 166.067 138.702C166.213 138.562 166.329 138.398 166.42 138.21C166.512 138.021 166.561 137.821 166.567 137.602V135.279C166.567 135.061 166.524 134.854 166.433 134.653C166.341 134.453 166.225 134.282 166.079 134.131C165.933 133.979 165.762 133.863 165.555 133.778C165.347 133.693 165.14 133.656 164.92 133.656C164.689 133.656 164.475 133.699 164.28 133.778C164.079 133.857 163.908 133.979 163.756 134.131C163.603 134.282 163.487 134.459 163.402 134.653C163.323 134.854 163.28 135.061 163.28 135.279V137.523Z" fill="#0C4978"/>
<path d="M168.805 130.562C168.805 130.392 168.86 130.252 168.976 130.143C169.091 130.027 169.232 129.972 169.396 129.972C169.555 129.972 169.695 130.027 169.811 130.143C169.933 130.258 169.988 130.398 169.988 130.562V139.663C169.988 139.833 169.933 139.973 169.817 140.088C169.701 140.204 169.561 140.258 169.396 140.258C169.238 140.258 169.097 140.204 168.982 140.088C168.86 139.973 168.805 139.833 168.805 139.663V130.562Z" fill="#0C4978"/>
<path d="M83.2682 62.4756H73.1394V104.58H83.2682V62.4756Z" fill="#0C4978"/>
<path d="M119.368 83.6736C121.283 83.0414 122.789 82.1477 123.869 80.9927C124.954 79.8377 125.649 78.5428 125.954 77.1081C126.107 76.3604 126.222 75.7038 126.302 75.1263C126.381 74.5549 126.418 74.0564 126.418 73.6369C126.418 72.263 126.229 70.9074 125.844 69.576C125.46 68.2447 124.71 66.9316 123.6 65.6307C123.064 64.962 122.478 64.4209 121.844 64.0075C121.21 63.5942 120.484 63.278 119.655 63.047C118.832 62.816 117.886 62.664 116.819 62.5911C115.752 62.5121 114.563 62.4756 113.24 62.4756H87.7807V104.58H113.819C116.618 104.58 118.844 104.343 120.496 103.862C122.143 103.407 123.594 102.239 124.838 100.361C126.064 98.4277 126.68 96.373 126.68 94.1966C126.601 91.2908 125.863 88.9564 124.466 87.1995C123.064 85.4426 121.362 84.2633 119.368 83.6736ZM116.35 75.1506C116.35 76.3908 115.795 77.3087 114.679 77.9045C113.569 78.4942 111.831 78.792 109.471 78.792H108.117H102.721V88.0871H107.343H108.697C111.514 87.9533 113.514 88.2512 114.697 88.9746C115.874 89.7041 116.429 90.6768 116.35 91.8987C116.35 92.5492 116.136 93.2361 115.703 93.9656C115.27 94.6951 114.642 95.1511 113.819 95.3395C112.953 95.5523 111.66 95.6556 109.935 95.6556H108.581H97.8485V93.1632V71.3876H108.697H109.764C112.197 71.3086 113.923 71.6369 114.941 72.3603C115.953 73.0959 116.423 74.026 116.35 75.1506Z" fill="#0C4978"/>
<path d="M146.529 79.0231V88.002H157.2V95.5462H152.365C150.986 95.5462 149.749 95.4915 148.669 95.3881C147.584 95.2848 146.602 95.0781 145.718 94.7741C144.834 94.4702 144.053 94.0386 143.376 93.4854C142.693 92.9322 142.059 92.1844 141.461 91.2482C140.309 89.4123 139.736 86.9624 139.736 83.9046C139.736 82.4152 139.876 81.0231 140.15 79.7343C140.431 78.4455 140.998 76.9926 141.864 75.3877C142.346 74.567 142.913 73.8983 143.577 73.3938C144.242 72.8892 145.035 72.5062 145.968 72.2448C146.901 71.9895 147.974 71.8132 149.188 71.7159C150.407 71.6186 151.779 71.57 153.316 71.57H167.299V62.4756H149.175C145.376 62.4756 142.059 62.9072 139.223 63.7644C136.363 64.5851 134.266 66.2507 132.924 68.7554C131.546 71.2235 130.601 73.6308 130.089 75.9835C129.582 78.3361 129.326 80.8225 129.326 83.4426C129.326 86.1782 129.582 88.7315 130.089 91.1023C130.595 93.4732 131.583 95.8745 133.04 98.3001C134.497 100.726 136.559 102.385 139.223 103.261C141.888 104.142 145.09 104.58 148.834 104.58H167.329V79.0291H146.529V79.0231Z" fill="#0C4978"/>
<path d="M93.5433 109.346C81.4875 112.477 56.0528 114.398 23.1236 90.8712L48.5218 120.051C64.0168 123.358 80.6399 120.623 94.5373 111.577C95.7081 110.823 94.8909 108.999 93.5433 109.346Z" fill="#004977"/>
<path d="M44.491 114.963C43.2287 113.084 41.9054 111.084 40.7651 108.999C40.1553 108.732 39.6004 108.331 39.1491 107.783C37.0331 105.2 35.0208 101.99 33.5512 98.5431C29.8192 98.7012 27.4715 96.464 25.2701 93.619C24.1664 92.1965 23.1419 90.7132 22.0991 89.242C21.9772 89.0718 21.16 87.935 21.9711 89.0536C21.8064 88.8225 21.6418 88.5915 21.4771 88.3605C21.1966 87.9775 20.9161 87.5946 20.6173 87.2237C20.2332 86.7496 19.9283 86.2328 19.7087 85.6857C17.7208 85.4729 15.8914 84.4516 14.4096 83.0413C11.4276 80.2023 9.34213 75.57 8.98235 71.3146C5.14061 67.0713 5.26257 59.6791 9.34823 55.6304C9.24456 49.229 11.1898 44.2319 15.5499 37.8245C17.8305 34.4749 19.8063 30.4566 19.0136 26.3106C18.4586 23.4108 16.1231 22.3166 13.4156 23.5142C-3.40269 45.0891 -3.9759 76.0746 13.8059 98.4398C23.2334 110.294 36.2099 117.686 50.028 120.325C47.9608 119.036 46.0887 117.334 44.491 114.963Z" fill="url(#paint0_linear)"/>
<path d="M30.9291 101.953C30.1851 100.841 29.4046 99.6677 28.7338 98.4336C28.374 98.2756 28.0447 98.0385 27.7825 97.7163C26.5324 96.1904 25.3433 94.2937 24.4835 92.2633C22.2821 92.3605 20.8979 91.0353 19.599 89.3574C18.9465 88.5185 18.3428 87.6431 17.7269 86.7738C17.6537 86.6705 17.172 86.0017 17.6476 86.6644C17.5501 86.5306 17.4525 86.3908 17.3549 86.251C17.1903 86.0261 17.0256 85.7951 16.8488 85.5823C16.6232 85.3026 16.4402 84.9987 16.3122 84.6765C15.1413 84.5549 14.0559 83.947 13.1839 83.1141C11.4216 81.4424 10.1959 78.7068 9.98244 76.1961C7.71399 73.6915 7.78716 69.3327 10.1959 66.9436C10.1349 63.1684 11.2813 60.22 13.8547 56.4388C15.2023 54.4631 16.367 52.0861 15.8975 49.6423C15.5682 47.928 14.1901 47.2836 12.5924 47.9949C2.67094 60.7246 2.32945 79.0107 12.8241 92.2086C18.3855 99.2057 26.0446 103.57 34.2037 105.127C32.978 104.361 31.8743 103.358 30.9291 101.953Z" fill="url(#paint1_linear)"/>
<path d="M62.3276 121.407C62.3276 121.407 33.167 123 14.8303 99.7832C12.9826 97.4428 11.2325 95.0172 9.62874 92.5004C8.13473 90.1539 6.76268 87.7222 5.55527 85.2176C4.41495 82.8528 3.42098 80.415 2.60994 77.9165C1.8233 75.5092 1.2074 73.0471 0.774444 70.5486C0.341486 68.0744 0.0914682 65.5758 0.0243902 63.0651C-0.0487858 60.5119 0.0609782 57.9526 0.335388 55.4115C0.621994 52.761 1.07934 50.1348 1.68914 47.545C2.32943 44.7912 3.13437 42.0799 4.06126 39.4111C5.05524 36.5418 6.18947 33.7271 7.42736 30.955C7.95789 29.7757 8.48841 28.5963 9.03113 27.417C9.147 27.1616 9.26896 26.9002 9.47019 26.6996C10.3117 25.8789 11.824 26.9853 12.3789 27.6601C13.4583 28.9732 13.2388 31.1982 13.1107 32.7666C12.8546 36.0129 12.1777 39.2227 11.5496 42.4142C10.9642 45.3991 10.3544 48.3779 9.81778 51.3749C7.5981 63.7278 15.617 84.1598 19.477 83.0291C23.337 81.8984 20.2454 68.895 19.7148 63.8737C19.1843 58.8523 18.6538 54.1349 21.7577 54.3233C24.8615 54.5118 29.1057 57.9526 33.0633 84.3787C37.0209 110.805 57.2724 121.091 62.3276 121.407Z" fill="url(#paint2_linear)"/>
<path d="M43.2836 80.2935C44.5032 79.6248 44.9362 78.0868 44.2532 76.8527C43.5702 75.6187 42.0335 75.1627 40.8139 75.8314C39.9968 76.2813 39.5455 77.1202 39.5333 77.9956C39.0516 78.0564 38.5821 78.1172 38.1735 78.178C38.1369 77.9895 38.0515 77.8132 37.9174 77.6552C37.5149 77.1932 36.8197 77.1385 36.3685 77.5275C35.9172 77.9166 35.8867 78.6096 36.2892 79.0716C36.6917 79.5337 37.3869 79.5884 37.8381 79.1993C38.0698 78.9987 38.1918 78.713 38.1979 78.4212C38.6065 78.4272 39.0821 78.4394 39.5638 78.4394C39.6126 78.7251 39.698 79.0048 39.8443 79.2722C40.5273 80.5002 42.064 80.9623 43.2836 80.2935Z" fill="url(#paint3_linear)"/>
<path d="M37.7222 88.8104C37.3563 88.6341 36.9173 88.7982 36.7343 89.1751C36.5514 89.552 36.6977 90.0019 37.0636 90.1843C37.088 90.1964 37.1185 90.1964 37.149 90.2025C37.1307 90.3241 37.1185 90.4578 37.1124 90.5976C37.1124 90.7861 37.1185 90.9867 37.1246 91.1934C37.1307 91.6736 37.1429 92.1478 37.1551 92.4579C37.0392 92.47 36.9234 92.5369 36.8685 92.6585C36.7831 92.8408 36.8502 93.0536 37.027 93.1387C37.2039 93.2238 37.4112 93.1448 37.4966 92.9624C37.582 92.7801 37.5149 92.5673 37.338 92.4822C37.3075 92.4639 37.271 92.4639 37.2344 92.4579C37.271 92.1478 37.3197 91.6797 37.3624 91.2056C37.3807 91.0049 37.4112 90.8043 37.4234 90.6159C37.4234 90.4821 37.4234 90.3606 37.4173 90.245C37.6795 90.2329 37.9295 90.0809 38.0576 89.8195C38.2344 89.4426 38.0881 88.9867 37.7222 88.8104Z" fill="url(#paint4_linear)"/>
<path d="M17.7574 70.81C17.3915 70.6337 16.9524 70.7978 16.7695 71.1748C16.5866 71.5517 16.7329 72.0015 17.0988 72.1839C17.1232 72.196 17.1537 72.196 17.1842 72.2021C17.1659 72.3237 17.1537 72.4574 17.1476 72.5973C17.1476 72.7857 17.1537 72.9863 17.1598 73.193C17.1659 73.6733 17.1781 74.1475 17.1903 74.4575C17.0744 74.4696 16.9585 74.5365 16.9036 74.6581C16.8183 74.8405 16.8854 75.0532 17.0622 75.1384C17.239 75.2235 17.4464 75.1444 17.5317 74.9621C17.6171 74.7797 17.55 74.5669 17.3732 74.4818C17.3427 74.4636 17.3061 74.4636 17.2695 74.4575C17.3061 74.1475 17.3549 73.6794 17.3976 73.2052C17.4159 73.0046 17.4464 72.804 17.4586 72.6155C17.4586 72.4818 17.4586 72.3602 17.4525 72.2447C17.7147 72.2325 17.9647 72.0805 18.0928 71.8191C18.2696 71.4422 18.1233 70.9863 17.7574 70.81Z" fill="url(#paint5_linear)"/>
<path d="M46.7534 85.9228C46.5765 85.9532 46.4485 86.0869 46.3936 86.2511C46.0216 86.1356 45.607 86.014 45.174 85.8924C45.0459 85.8559 44.9179 85.8134 44.7898 85.7769C44.802 85.6006 44.802 85.4182 44.7715 85.2359C44.5642 84.0687 43.4848 83.2844 42.3567 83.4851C41.2286 83.6857 40.4785 84.7921 40.6798 85.9532C40.8627 87.011 41.7713 87.7465 42.7836 87.7283C42.7836 87.7648 42.7836 87.7952 42.7897 87.8316C42.8263 88.087 42.8994 88.3605 42.9482 88.628C43.0153 88.9867 43.0824 89.3393 43.1495 89.6554C42.6799 89.8074 42.3811 90.2876 42.4726 90.8044C42.5701 91.3636 43.0885 91.7405 43.6312 91.6433C43.6739 91.6372 43.7105 91.625 43.7471 91.6129C43.8263 91.7588 43.9117 91.9108 44.0093 92.0688C44.1556 92.2755 44.3264 92.4944 44.491 92.7071C44.8752 93.2299 45.2594 93.7345 45.5216 94.0689C45.3996 94.1783 45.3325 94.3424 45.363 94.5187C45.4118 94.7862 45.6557 94.9686 45.9179 94.9199C46.1741 94.8774 46.3509 94.6221 46.3021 94.3546C46.2533 94.0871 46.0094 93.9047 45.7472 93.9534C45.6984 93.9594 45.6557 93.9838 45.613 94.0081C45.4057 93.6433 45.0886 93.084 44.7593 92.5369C44.6252 92.2998 44.491 92.0567 44.3569 91.8439C44.2593 91.698 44.1617 91.5703 44.0642 91.4548C44.3447 91.2299 44.4971 90.8591 44.43 90.4761C44.3386 89.9715 43.9117 89.6189 43.43 89.625C43.4239 89.3028 43.4117 88.9502 43.3934 88.5976C43.3812 88.318 43.3934 88.0444 43.369 87.783C43.3629 87.7405 43.3568 87.6979 43.3446 87.6554C43.991 87.4487 44.4788 86.9441 44.6801 86.3119C44.8081 86.3301 44.9362 86.3423 45.0703 86.3605C45.5277 86.4334 45.9789 86.4942 46.3753 86.5429C46.4363 86.7921 46.668 86.9563 46.918 86.9137C47.1802 86.8711 47.351 86.6158 47.3022 86.3483C47.2595 86.0565 47.0156 85.8802 46.7534 85.9228Z" fill="url(#paint6_linear)"/>
<path d="M40.7346 21.812C39.7224 22.0917 39.0394 22.7969 39.204 23.3865C39.3687 23.9762 40.32 24.2255 41.3322 23.9458C42.3445 23.6662 43.0275 22.961 42.8628 22.3713C42.6982 21.7816 41.7408 21.5324 40.7346 21.812Z" fill="url(#paint7_linear)"/>
<path d="M106.434 30.2316C106.27 30.3836 106.197 30.6085 106.197 30.876C105.526 30.566 104.703 30.1951 103.873 29.8365C103.392 29.6176 102.91 29.3866 102.452 29.1981C102.05 29.0522 101.672 28.9367 101.324 28.8456C101.416 28.1768 100.873 27.5142 100.074 27.344C99.7511 27.2771 99.434 27.3014 99.1595 27.3926C98.7937 26.7543 98.3241 25.9397 97.8363 25.1373C97.5863 24.7056 97.3484 24.2679 97.0984 23.8728C96.8301 23.4898 96.5679 23.1433 96.3118 22.8637C96.2386 22.7846 96.1715 22.7117 96.1045 22.6387C96.4155 22.7117 96.6411 22.7117 96.6899 22.6083C96.7752 22.432 96.2508 22.0126 95.519 21.6721C94.7873 21.3317 94.1287 21.204 94.0433 21.3803C93.958 21.5566 94.4824 21.9761 95.2141 22.3165C95.3056 22.3591 95.391 22.3956 95.4764 22.432C95.5556 22.6326 95.6593 22.8941 95.8057 23.198C95.9642 23.5384 96.1898 23.9154 96.4398 24.3105C96.7082 24.6935 97.0253 25.0765 97.3302 25.4716C97.879 26.2133 98.4461 26.9367 98.8912 27.5142C98.5863 27.6844 98.3668 27.958 98.2936 28.2923C98.1412 28.9915 98.7022 29.7027 99.5376 29.879C100.147 30.0067 100.733 29.8182 101.062 29.4352C101.385 29.6054 101.757 29.7757 102.166 29.9398C102.635 30.1039 103.142 30.2498 103.654 30.4079C104.581 30.7119 105.508 31.0037 106.245 31.2286C106.337 31.6055 106.563 32.0128 106.904 32.3836C107.617 33.1557 108.557 33.4414 109.008 33.028C109.459 32.6146 109.252 31.6541 108.538 30.8821C107.825 30.11 106.886 29.8182 106.434 30.2316Z" fill="url(#paint8_linear)"/>
<path d="M55.7723 2.63835C59.5226 1.93924 62.8521 1.02737 65.1754 0.121577C57.4919 -0.364756 49.7231 0.583593 42.2957 3.01526C43.4604 4.00008 49.1194 3.87242 55.7723 2.63835Z" fill="url(#paint9_linear)"/>
<path d="M32.5328 40.4872C32.5755 40.5601 32.606 40.6392 32.6487 40.7121C33.106 41.4781 33.8012 42.1711 34.35 42.9553C34.9049 43.7395 35.4721 44.5116 36.0148 45.235C34.0817 46.8095 33.5268 49.533 34.8135 51.6242C36.2221 53.916 39.3199 54.5847 41.7225 53.1197C44.1251 51.6485 44.9301 48.5968 43.5153 46.3049C42.2896 44.311 39.7833 43.545 37.5759 44.3474C37.2344 43.5146 36.8624 42.6331 36.4782 41.7577C36.088 40.8884 35.844 39.934 35.4233 39.1498C35.3745 39.0647 35.3196 38.9856 35.2647 38.9005C36.3929 37.8367 37.0453 36.4749 37.1124 35.1436C38.8686 34.8761 40.881 34.5478 42.8811 34.1831C43.808 34.0129 44.7532 33.9095 45.6679 33.7697C47.2778 36.9856 51.644 38.4203 55.8455 36.9613C60.3397 35.405 62.9374 31.1374 61.6508 27.4292C60.358 23.7209 55.6686 21.9761 51.1744 23.5324C47.5705 24.7786 45.1923 27.7696 45.052 30.8213C44.1495 31.1435 43.2287 31.5204 42.2896 31.8183C40.4175 32.4262 38.5637 33.0645 36.9356 33.6421C36.838 33.3381 36.71 33.0463 36.5392 32.7727C35.6733 31.3624 34.0329 30.6633 32.2584 30.7605C32.2523 30.2985 32.2218 29.8183 32.1487 29.3198C32.0023 28.414 31.673 27.4717 31.4657 26.5112C31.24 25.4899 31.0022 24.4686 30.7705 23.5203C31.4108 23.2649 32.0633 22.9488 32.6975 22.5597C36.2587 20.4016 38.143 17.0095 36.9112 14.9851C35.6794 12.9608 31.7889 13.058 28.2276 15.2161C26.5995 16.201 25.325 17.4472 24.5323 18.7056C24.1969 18.7481 23.8615 18.7968 23.52 18.8393C21.6052 19.0521 19.6965 19.3074 18.5989 19.4594C19.1843 18.7542 19.4892 18.1402 19.3124 17.9639C19.0806 17.739 18.1537 18.3104 17.233 19.2405C16.3122 20.1706 15.7572 21.1068 15.9829 21.3318C16.2085 21.5567 17.1415 20.9852 18.0623 20.0551C18.1781 19.9396 18.2818 19.8241 18.3855 19.7086C19.4465 19.7208 21.5137 19.7329 23.5749 19.6965C23.7212 19.6965 23.8615 19.6965 24.0078 19.6965C23.5261 20.8393 23.4895 21.9397 24.0078 22.7908C24.8737 24.2133 27.0385 24.5841 29.4838 23.9397C29.5265 24.8455 29.5753 25.806 29.6424 26.7665C29.7156 27.7453 29.6607 28.7423 29.7765 29.6541C29.8558 30.2195 29.9839 30.7545 30.1302 31.2529C29.8131 31.3867 29.496 31.5447 29.185 31.7332C26.9349 33.1071 25.825 35.5205 26.3129 37.5753C26.2824 37.5935 26.2519 37.6117 26.2214 37.6361C25.5262 38.1163 24.8493 38.7181 24.1298 39.2653C23.709 39.5935 23.2883 39.9157 22.8736 40.2319C21.7272 39.3686 19.4648 40.0495 17.672 41.8428C15.7816 43.7274 15.1291 46.1286 16.2085 47.1986C17.2878 48.2746 19.6965 47.618 21.5808 45.7335C23.1297 44.1833 23.8493 42.2927 23.4529 41.0647C23.8981 40.8033 24.3493 40.5419 24.8067 40.2744C25.5384 39.8367 26.3068 39.4537 26.9897 39.0282C28.1667 40.5905 30.3802 41.1316 32.5328 40.4872Z" fill="url(#paint10_linear)"/>
<path d="M82.1035 10.0488C86.3843 10.6993 90.3724 10.2251 93.2018 8.96675C85.805 4.43778 77.6153 1.61097 69.2123 0.516724C68.8342 4.66879 74.5054 8.89988 82.1035 10.0488Z" fill="url(#paint11_linear)"/>
<path d="M56.748 55.0163C54.2234 55.8917 52.8697 58.6091 53.7356 61.0894C54.3149 62.749 55.7418 63.8798 57.3761 64.1837C57.3334 65.0895 57.3029 65.9892 57.2846 66.7491C56.9248 66.7613 56.5589 66.8525 56.2297 67.0592C55.2357 67.6671 54.9125 68.9376 55.504 69.8981C56.0955 70.8586 57.3822 71.1443 58.3701 70.5364C59.364 69.9285 59.6872 68.658 59.0957 67.6975C58.7908 67.199 58.2969 66.8889 57.7603 66.7856C57.9066 66.0379 58.0712 65.1503 58.2237 64.2627C58.7725 64.2688 59.3274 64.1837 59.8763 63.9953C62.4008 63.1199 63.7546 60.4025 62.8887 57.9222C62.0227 55.4419 59.2726 54.1409 56.748 55.0163Z" fill="url(#paint12_linear)"/>
<path d="M43.9544 60.135C42.2225 61.1928 41.5517 63.3023 42.2896 65.0652C42.2347 65.0895 42.1798 65.1139 42.125 65.1443C41.6981 65.3874 41.2712 65.6975 40.8322 65.9771C40.2529 66.3358 39.6797 66.7066 39.1674 67.041C38.5759 66.3236 37.5149 66.1352 36.6733 66.6519C35.7586 67.2112 35.4598 68.3844 36.0026 69.2659C36.0575 69.3571 36.1245 69.4301 36.1916 69.5091C36.1611 69.5456 36.1306 69.582 36.1062 69.6246C35.9233 69.9042 35.7465 70.2082 35.5635 70.5121C35.1184 71.2234 34.6854 71.9347 34.4049 72.4028C34.2159 72.3116 33.9841 72.3055 33.7829 72.421C33.4841 72.6034 33.3804 72.9925 33.5634 73.2843C33.7402 73.576 34.1305 73.6612 34.4354 73.4788C34.7342 73.2964 34.8379 72.9073 34.6549 72.6155C34.6183 72.5608 34.5756 72.5183 34.5269 72.4818C34.8683 72.0563 35.3928 71.4119 35.905 70.7492C36.1245 70.4696 36.3563 70.2021 36.5514 69.9346C36.5697 69.9103 36.5819 69.886 36.6002 69.8556C37.1978 70.2264 37.9905 70.2568 38.6491 69.8556C39.4723 69.351 39.7955 68.348 39.4479 67.509C40.0029 67.272 40.6188 67.0045 41.2347 66.7309C41.7164 66.5181 42.2103 66.3418 42.6494 66.123C42.7226 66.0865 42.7835 66.044 42.8506 66.0014C43.6617 66.9984 44.9056 67.509 46.1679 67.43C46.2289 67.661 46.2899 67.892 46.3448 68.1291C46.5399 68.9741 46.7411 69.813 46.9241 70.5365C46.5277 70.8161 46.3997 71.345 46.6497 71.7523C46.9119 72.1778 47.479 72.2994 47.9181 72.0319C48.3571 71.7645 48.4974 71.2052 48.2412 70.7796C48.0644 70.4878 47.7412 70.3419 47.418 70.3602C47.357 69.6368 47.2839 68.81 47.1985 67.9832C47.1741 67.734 47.1558 67.4847 47.1375 67.2416C47.4546 67.1443 47.7717 67.0045 48.0705 66.8221C49.9792 65.6549 50.6073 63.2111 49.473 61.363C48.3327 59.515 45.863 58.9678 43.9544 60.135Z" fill="url(#paint13_linear)"/>
<path d="M105.075 25.4535C105.337 25.2954 105.416 24.9611 105.264 24.7118C105.111 24.4626 104.776 24.3835 104.514 24.5477C104.251 24.7118 104.172 25.0401 104.325 25.2893C104.483 25.5386 104.818 25.6115 105.075 25.4535Z" fill="url(#paint14_linear)"/>
<path d="M110.965 36.8336C110.703 36.408 110.136 36.2865 109.697 36.5539C109.258 36.8214 109.118 37.3807 109.374 37.8062C109.63 38.2318 110.203 38.3534 110.636 38.0859C111.081 37.8184 111.228 37.2591 110.965 36.8336Z" fill="url(#paint15_linear)"/>
<path d="M30.9229 53.5148C30.2644 54.0619 30.1058 54.9494 30.5693 55.4966C31.0327 56.0437 31.9291 56.0498 32.5877 55.5027C33.2463 54.9555 33.4048 54.068 32.9414 53.5208C32.484 52.9737 31.5754 52.9737 30.9229 53.5148Z" fill="url(#paint16_linear)"/>
<path d="M89.7869 25.3926C89.543 25.4169 89.3174 25.496 89.1223 25.6054C88.9576 25.423 88.7747 25.2285 88.5673 25.0157C88.1954 24.6327 87.7502 24.2133 87.2563 23.7938C89.1223 22.967 90.3723 21.7147 90.6102 20.1767C91.1285 16.7481 86.4696 13.2039 80.1887 12.2495C73.9139 11.3011 68.4013 13.3072 67.8829 16.7359C67.4012 19.9092 71.3588 23.1737 76.9263 24.4017C76.6092 25.3075 76.286 26.2498 75.9506 27.1981C75.7798 27.6966 75.5908 28.1951 75.4018 28.6814C74.2431 28.5477 73.0418 28.6571 71.8649 29.0644C67.9866 30.4079 65.8035 34.4019 66.7121 38.2439C65.7059 38.785 64.7059 39.4537 63.657 40.0191C61.8215 41.016 59.9982 42.0495 58.4371 42.9614C57.1383 40.9613 54.571 40.0312 52.1806 40.858C49.3755 41.8307 47.8815 44.8459 48.8389 47.5937C49.7963 50.3415 52.8453 51.7883 55.6503 50.8156C58.3883 49.8673 59.8702 46.9736 59.053 44.2745C60.7605 43.6848 62.7301 42.9735 64.6815 42.2319C65.7974 41.8003 66.9621 41.4781 68.0293 41.0647C70.0172 43.7334 73.6211 44.9249 76.9811 43.7577C81.1156 42.3291 83.3231 37.8792 81.9083 33.8244C81.1461 31.6298 79.4752 30.0067 77.4568 29.2042C77.5422 28.6997 77.6214 28.1829 77.7251 27.6784C77.9202 26.6571 78.1154 25.6419 78.2983 24.6692H78.3044C81.1888 25.1069 83.9085 24.9124 86.0611 24.2437C86.1281 24.3044 86.2013 24.3713 86.2684 24.426C86.8843 24.9245 87.488 25.344 88.0246 25.6844C88.2381 25.8182 88.4332 25.9397 88.6161 26.0492C88.4515 26.2862 88.36 26.5598 88.3905 26.8516C88.4698 27.5629 89.2198 28.0614 90.0675 27.9702C90.9151 27.879 91.5371 27.2224 91.4578 26.5112C91.3846 25.7938 90.6346 25.2953 89.7869 25.3926Z" fill="url(#paint17_linear)"/>
<path d="M17.4647 52.5482C17.3305 52.6272 17.239 52.7488 17.1903 52.8704C17.111 52.8582 17.0378 52.8461 16.9463 52.84C16.4829 52.7792 15.8548 52.7488 15.2267 52.7306C14.6108 52.7123 13.9949 52.6941 13.5254 52.6758C13.6229 52.0071 13.4095 51.4235 13.0131 51.3384C12.5863 51.2472 12.1106 51.764 11.9521 52.4996C11.7935 53.2291 12.0131 53.8978 12.446 53.9889C12.4582 53.9889 12.4704 53.9889 12.4887 53.9889C12.4033 54.5786 12.3302 55.2899 12.2692 56.0194C12.1838 56.9921 12.0984 57.9647 12.0374 58.6152C11.8179 58.6517 11.5984 58.9191 11.513 59.29C11.4216 59.7277 11.5496 60.1228 11.8057 60.1775C12.0618 60.2322 12.3484 59.9222 12.4399 59.4845C12.5314 59.0468 12.4033 58.6517 12.1472 58.5969C12.1289 58.5909 12.1106 58.603 12.0923 58.603C12.1777 57.9586 12.3119 56.9981 12.4399 56.0315C12.5436 55.296 12.6351 54.5665 12.6777 53.9707C13.0314 53.8734 13.379 53.4236 13.5071 52.8278C13.5132 52.7974 13.5132 52.7731 13.5193 52.7427C13.9827 52.7853 14.6047 52.84 15.2206 52.9008C15.8426 52.9616 16.4646 53.0102 16.9402 53.0041C17.0256 53.0041 17.0927 53.0041 17.1659 53.0041C17.1537 53.1014 17.1659 53.1987 17.2147 53.2777C17.361 53.5148 17.7025 53.5634 17.983 53.3932C18.2635 53.223 18.3733 52.8886 18.2269 52.6576C18.0867 52.4266 17.7452 52.378 17.4647 52.5482Z" fill="url(#paint18_linear)"/>
<path d="M22.0504 30.3654C22.4406 30.1222 22.5992 29.6663 22.398 29.3319C22.1967 29.0036 21.715 28.9307 21.3186 29.1739C20.9283 29.417 20.7698 29.873 20.971 30.2073C21.1723 30.5295 21.654 30.6025 22.0504 30.3654Z" fill="url(#paint19_linear)"/>
<path d="M33.8683 9.02146C34.0817 8.90596 34.289 8.79653 34.4964 8.68103L43.8324 10.7054C42.625 12.1887 42.1006 13.7936 42.5152 15.2648C43.4787 18.6752 49.1133 20.0734 55.1015 18.3955C56.2235 18.0794 57.2724 17.6782 58.2359 17.2162C58.7115 17.8119 59.1994 18.4077 59.6872 19.0156C61.5166 21.3318 63.3765 23.6297 64.651 25.1981C64.0107 25.7452 63.8582 26.6206 64.3095 27.1617C64.7607 27.6966 65.6327 27.7088 66.2852 27.1981L66.3706 27.1313L66.3645 27.1252C66.9865 26.5781 67.1329 25.7209 66.6816 25.1859C66.2791 24.7057 65.5291 24.6449 64.9132 25.0036C63.7668 23.3379 62.0837 20.9062 60.3763 18.4928C59.9677 17.9031 59.5591 17.3074 59.1567 16.7298C62.7911 14.6994 64.9132 11.7328 64.1875 9.16736C64.1265 8.94243 64.0351 8.72358 63.9314 8.51689C64.0412 8.47434 64.1448 8.43178 64.2546 8.38923C65.023 8.12175 65.7791 7.83603 66.2974 7.63542C66.6511 7.74484 67.0658 7.84211 67.517 7.91506C68.8098 8.11567 69.9013 8.0184 69.9501 7.70229C69.9989 7.38617 68.9927 6.96671 67.7 6.7661C66.4072 6.56548 65.3157 6.66275 65.2669 6.97887C65.2425 7.13084 65.4742 7.31322 65.8645 7.47736C65.3583 7.56247 64.7302 7.67797 64.0961 7.79955C63.9131 7.82995 63.7241 7.86034 63.5411 7.89074C61.6812 5.42868 56.7724 4.5776 51.5952 6.03052C48.6681 6.8512 46.2045 8.26157 44.5581 9.8847L34.7037 8.54729C37.6612 6.89984 39.7955 5.36181 39.5943 4.9849C39.3748 4.57152 36.4416 5.70832 33.0511 7.51991C29.6607 9.3315 27.0934 11.137 27.3129 11.5443C27.5325 11.9516 30.4778 10.8331 33.8683 9.02146Z" fill="url(#paint20_linear)"/>
<path d="M96.5374 16.3833C97.568 17.1918 98.562 17.6417 98.7571 17.3924C98.9583 17.1432 98.2815 16.2799 97.257 15.4775C96.2325 14.675 95.2325 14.2191 95.0373 14.4683C94.8422 14.7176 95.513 15.5748 96.5374 16.3833Z" fill="url(#paint21_linear)"/>
</g>
<defs>
<linearGradient id="paint0_linear" x1="-6.85962" y1="52.6019" x2="61.0893" y2="87.5146" gradientUnits="userSpaceOnUse">
<stop stop-color="#12C3F4"/>
<stop offset="1" stop-color="#00346F"/>
</linearGradient>
<linearGradient id="paint1_linear" x1="0.629515" y1="65.1551" x2="40.7276" y2="85.7579" gradientUnits="userSpaceOnUse">
<stop stop-color="#12C3F4"/>
<stop offset="1" stop-color="#00346F"/>
</linearGradient>
<linearGradient id="paint2_linear" x1="49.3411" y1="70.5611" x2="3.60546" y2="82.2479" gradientUnits="userSpaceOnUse">
<stop stop-color="#52CAF5"/>
<stop offset="1" stop-color="#00346F"/>
</linearGradient>
<linearGradient id="paint3_linear" x1="259.926" y1="14.2548" x2="-42.995" y2="103.517" gradientUnits="userSpaceOnUse">
<stop stop-color="white"/>
<stop offset="0.1728" stop-color="#FBFDFF"/>
<stop offset="0.2717" stop-color="#F1FAFE"/>
<stop offset="0.352" stop-color="#E2F4FD"/>
<stop offset="0.4223" stop-color="#CEEDFC"/>
<stop offset="0.4861" stop-color="#B2E3FA"/>
<stop offset="0.5451" stop-color="#8ED8F8"/>
<stop offset="0.6005" stop-color="#5CCCF5"/>
<stop offset="0.6517" stop-color="#00BFF3"/>
<stop offset="0.6751" stop-color="#00B9F2"/>
<stop offset="0.7211" stop-color="#00B6ED"/>
<stop offset="0.7646" stop-color="#00AFE4"/>
<stop offset="0.8071" stop-color="#00A5D6"/>
<stop offset="0.849" stop-color="#0096C3"/>
<stop offset="0.8905" stop-color="#0082A9"/>
<stop offset="0.9316" stop-color="#00698A"/>
<stop offset="0.9717" stop-color="#004C66"/>
<stop offset="1" stop-color="#003044"/>
</linearGradient>
<linearGradient id="paint4_linear" x1="263.044" y1="24.8356" x2="-39.8772" y2="114.099" gradientUnits="userSpaceOnUse">
<stop stop-color="white"/>
<stop offset="0.1728" stop-color="#FBFDFF"/>
<stop offset="0.2717" stop-color="#F1FAFE"/>
<stop offset="0.352" stop-color="#E2F4FD"/>
<stop offset="0.4223" stop-color="#CEEDFC"/>
<stop offset="0.4861" stop-color="#B2E3FA"/>
<stop offset="0.5451" stop-color="#8ED8F8"/>
<stop offset="0.6005" stop-color="#5CCCF5"/>
<stop offset="0.6517" stop-color="#00BFF3"/>
<stop offset="0.6751" stop-color="#00B9F2"/>
<stop offset="0.7211" stop-color="#00B6ED"/>
<stop offset="0.7646" stop-color="#00AFE4"/>
<stop offset="0.8071" stop-color="#00A5D6"/>
<stop offset="0.849" stop-color="#0096C3"/>
<stop offset="0.8905" stop-color="#0082A9"/>
<stop offset="0.9316" stop-color="#00698A"/>
<stop offset="0.9717" stop-color="#004C66"/>
<stop offset="1" stop-color="#003044"/>
</linearGradient>
<linearGradient id="paint5_linear" x1="256.576" y1="2.88388" x2="-46.3457" y2="92.147" gradientUnits="userSpaceOnUse">
<stop stop-color="white"/>
<stop offset="0.1728" stop-color="#FBFDFF"/>
<stop offset="0.2717" stop-color="#F1FAFE"/>
<stop offset="0.352" stop-color="#E2F4FD"/>
<stop offset="0.4223" stop-color="#CEEDFC"/>
<stop offset="0.4861" stop-color="#B2E3FA"/>
<stop offset="0.5451" stop-color="#8ED8F8"/>
<stop offset="0.6005" stop-color="#5CCCF5"/>
<stop offset="0.6517" stop-color="#00BFF3"/>
<stop offset="0.6751" stop-color="#00B9F2"/>
<stop offset="0.7211" stop-color="#00B6ED"/>
<stop offset="0.7646" stop-color="#00AFE4"/>
<stop offset="0.8071" stop-color="#00A5D6"/>
<stop offset="0.849" stop-color="#0096C3"/>
<stop offset="0.8905" stop-color="#0082A9"/>
<stop offset="0.9316" stop-color="#00698A"/>
<stop offset="0.9717" stop-color="#004C66"/>
<stop offset="1" stop-color="#003044"/>
</linearGradient>
<linearGradient id="paint6_linear" x1="263.112" y1="25.0658" x2="-39.8093" y2="114.329" gradientUnits="userSpaceOnUse">
<stop stop-color="white"/>
<stop offset="0.1728" stop-color="#FBFDFF"/>
<stop offset="0.2717" stop-color="#F1FAFE"/>
<stop offset="0.352" stop-color="#E2F4FD"/>
<stop offset="0.4223" stop-color="#CEEDFC"/>
<stop offset="0.4861" stop-color="#B2E3FA"/>
<stop offset="0.5451" stop-color="#8ED8F8"/>
<stop offset="0.6005" stop-color="#5CCCF5"/>
<stop offset="0.6517" stop-color="#00BFF3"/>
<stop offset="0.6751" stop-color="#00B9F2"/>
<stop offset="0.7211" stop-color="#00B6ED"/>
<stop offset="0.7646" stop-color="#00AFE4"/>
<stop offset="0.8071" stop-color="#00A5D6"/>
<stop offset="0.849" stop-color="#0096C3"/>
<stop offset="0.8905" stop-color="#0082A9"/>
<stop offset="0.9316" stop-color="#00698A"/>
<stop offset="0.9717" stop-color="#004C66"/>
<stop offset="1" stop-color="#003044"/>
</linearGradient>
<linearGradient id="paint7_linear" x1="244.876" y1="-36.8181" x2="-58.0448" y2="52.4446" gradientUnits="userSpaceOnUse">
<stop stop-color="white"/>
<stop offset="0.1728" stop-color="#FBFDFF"/>
<stop offset="0.2717" stop-color="#F1FAFE"/>
<stop offset="0.352" stop-color="#E2F4FD"/>
<stop offset="0.4223" stop-color="#CEEDFC"/>
<stop offset="0.4861" stop-color="#B2E3FA"/>
<stop offset="0.5451" stop-color="#8ED8F8"/>
<stop offset="0.6005" stop-color="#5CCCF5"/>
<stop offset="0.6517" stop-color="#00BFF3"/>
<stop offset="0.6751" stop-color="#00B9F2"/>
<stop offset="0.7211" stop-color="#00B6ED"/>
<stop offset="0.7646" stop-color="#00AFE4"/>
<stop offset="0.8071" stop-color="#00A5D6"/>
<stop offset="0.849" stop-color="#0096C3"/>
<stop offset="0.8905" stop-color="#0082A9"/>
<stop offset="0.9316" stop-color="#00698A"/>
<stop offset="0.9717" stop-color="#004C66"/>
<stop offset="1" stop-color="#003044"/>
</linearGradient>
<linearGradient id="paint8_linear" x1="250.859" y1="-16.5157" x2="-52.0622" y2="72.7468" gradientUnits="userSpaceOnUse">
<stop stop-color="white"/>
<stop offset="0.1728" stop-color="#FBFDFF"/>
<stop offset="0.2717" stop-color="#F1FAFE"/>
<stop offset="0.352" stop-color="#E2F4FD"/>
<stop offset="0.4223" stop-color="#CEEDFC"/>
<stop offset="0.4861" stop-color="#B2E3FA"/>
<stop offset="0.5451" stop-color="#8ED8F8"/>
<stop offset="0.6005" stop-color="#5CCCF5"/>
<stop offset="0.6517" stop-color="#00BFF3"/>
<stop offset="0.6751" stop-color="#00B9F2"/>
<stop offset="0.7211" stop-color="#00B6ED"/>
<stop offset="0.7646" stop-color="#00AFE4"/>
<stop offset="0.8071" stop-color="#00A5D6"/>
<stop offset="0.849" stop-color="#0096C3"/>
<stop offset="0.8905" stop-color="#0082A9"/>
<stop offset="0.9316" stop-color="#00698A"/>
<stop offset="0.9717" stop-color="#004C66"/>
<stop offset="1" stop-color="#003044"/>
</linearGradient>
<linearGradient id="paint9_linear" x1="240.119" y1="-52.9639" x2="-62.8026" y2="36.2988" gradientUnits="userSpaceOnUse">
<stop stop-color="white"/>
<stop offset="0.1728" stop-color="#FBFDFF"/>
<stop offset="0.2717" stop-color="#F1FAFE"/>
<stop offset="0.352" stop-color="#E2F4FD"/>
<stop offset="0.4223" stop-color="#CEEDFC"/>
<stop offset="0.4861" stop-color="#B2E3FA"/>
<stop offset="0.5451" stop-color="#8ED8F8"/>
<stop offset="0.6005" stop-color="#5CCCF5"/>
<stop offset="0.6517" stop-color="#00BFF3"/>
<stop offset="0.6751" stop-color="#00B9F2"/>
<stop offset="0.7211" stop-color="#00B6ED"/>
<stop offset="0.7646" stop-color="#00AFE4"/>
<stop offset="0.8071" stop-color="#00A5D6"/>
<stop offset="0.849" stop-color="#0096C3"/>
<stop offset="0.8905" stop-color="#0082A9"/>
<stop offset="0.9316" stop-color="#00698A"/>
<stop offset="0.9717" stop-color="#004C66"/>
<stop offset="1" stop-color="#003044"/>
</linearGradient>
<linearGradient id="paint10_linear" x1="247.422" y1="-28.1772" x2="-55.4986" y2="61.0855" gradientUnits="userSpaceOnUse">
<stop stop-color="white"/>
<stop offset="0.1728" stop-color="#FBFDFF"/>
<stop offset="0.2717" stop-color="#F1FAFE"/>
<stop offset="0.352" stop-color="#E2F4FD"/>
<stop offset="0.4223" stop-color="#CEEDFC"/>
<stop offset="0.4861" stop-color="#B2E3FA"/>
<stop offset="0.5451" stop-color="#8ED8F8"/>
<stop offset="0.6005" stop-color="#5CCCF5"/>
<stop offset="0.6517" stop-color="#00BFF3"/>
<stop offset="0.6751" stop-color="#00B9F2"/>
<stop offset="0.7211" stop-color="#00B6ED"/>
<stop offset="0.7646" stop-color="#00AFE4"/>
<stop offset="0.8071" stop-color="#00A5D6"/>
<stop offset="0.849" stop-color="#0096C3"/>
<stop offset="0.8905" stop-color="#0082A9"/>
<stop offset="0.9316" stop-color="#00698A"/>
<stop offset="0.9717" stop-color="#004C66"/>
<stop offset="1" stop-color="#003044"/>
</linearGradient>
<linearGradient id="paint11_linear" x1="243.164" y1="-42.6285" x2="-59.757" y2="46.6342" gradientUnits="userSpaceOnUse">
<stop stop-color="white"/>
<stop offset="0.1728" stop-color="#FBFDFF"/>
<stop offset="0.2717" stop-color="#F1FAFE"/>
<stop offset="0.352" stop-color="#E2F4FD"/>
<stop offset="0.4223" stop-color="#CEEDFC"/>
<stop offset="0.4861" stop-color="#B2E3FA"/>
<stop offset="0.5451" stop-color="#8ED8F8"/>
<stop offset="0.6005" stop-color="#5CCCF5"/>
<stop offset="0.6517" stop-color="#00BFF3"/>
<stop offset="0.6751" stop-color="#00B9F2"/>
<stop offset="0.7211" stop-color="#00B6ED"/>
<stop offset="0.7646" stop-color="#00AFE4"/>
<stop offset="0.8071" stop-color="#00A5D6"/>
<stop offset="0.849" stop-color="#0096C3"/>
<stop offset="0.8905" stop-color="#0082A9"/>
<stop offset="0.9316" stop-color="#00698A"/>
<stop offset="0.9717" stop-color="#004C66"/>
<stop offset="1" stop-color="#003044"/>
</linearGradient>
<linearGradient id="paint12_linear" x1="257.021" y1="4.39833" x2="-45.8994" y2="93.6609" gradientUnits="userSpaceOnUse">
<stop stop-color="white"/>
<stop offset="0.1728" stop-color="#FBFDFF"/>
<stop offset="0.2717" stop-color="#F1FAFE"/>
<stop offset="0.352" stop-color="#E2F4FD"/>
<stop offset="0.4223" stop-color="#CEEDFC"/>
<stop offset="0.4861" stop-color="#B2E3FA"/>
<stop offset="0.5451" stop-color="#8ED8F8"/>
<stop offset="0.6005" stop-color="#5CCCF5"/>
<stop offset="0.6517" stop-color="#00BFF3"/>
<stop offset="0.6751" stop-color="#00B9F2"/>
<stop offset="0.7211" stop-color="#00B6ED"/>
<stop offset="0.7646" stop-color="#00AFE4"/>
<stop offset="0.8071" stop-color="#00A5D6"/>
<stop offset="0.849" stop-color="#0096C3"/>
<stop offset="0.8905" stop-color="#0082A9"/>
<stop offset="0.9316" stop-color="#00698A"/>
<stop offset="0.9717" stop-color="#004C66"/>
<stop offset="1" stop-color="#003044"/>
</linearGradient>
<linearGradient id="paint13_linear" x1="256.969" y1="4.22123" x2="-45.9517" y2="93.4838" gradientUnits="userSpaceOnUse">
<stop stop-color="white"/>
<stop offset="0.1728" stop-color="#FBFDFF"/>
<stop offset="0.2717" stop-color="#F1FAFE"/>
<stop offset="0.352" stop-color="#E2F4FD"/>
<stop offset="0.4223" stop-color="#CEEDFC"/>
<stop offset="0.4861" stop-color="#B2E3FA"/>
<stop offset="0.5451" stop-color="#8ED8F8"/>
<stop offset="0.6005" stop-color="#5CCCF5"/>
<stop offset="0.6517" stop-color="#00BFF3"/>
<stop offset="0.6751" stop-color="#00B9F2"/>
<stop offset="0.7211" stop-color="#00B6ED"/>
<stop offset="0.7646" stop-color="#00AFE4"/>
<stop offset="0.8071" stop-color="#00A5D6"/>
<stop offset="0.849" stop-color="#0096C3"/>
<stop offset="0.8905" stop-color="#0082A9"/>
<stop offset="0.9316" stop-color="#00698A"/>
<stop offset="0.9717" stop-color="#004C66"/>
<stop offset="1" stop-color="#003044"/>
</linearGradient>
<linearGradient id="paint14_linear" x1="250.517" y1="-17.6753" x2="-52.4037" y2="71.5873" gradientUnits="userSpaceOnUse">
<stop stop-color="white"/>
<stop offset="0.1728" stop-color="#FBFDFF"/>
<stop offset="0.2717" stop-color="#F1FAFE"/>
<stop offset="0.352" stop-color="#E2F4FD"/>
<stop offset="0.4223" stop-color="#CEEDFC"/>
<stop offset="0.4861" stop-color="#B2E3FA"/>
<stop offset="0.5451" stop-color="#8ED8F8"/>
<stop offset="0.6005" stop-color="#5CCCF5"/>
<stop offset="0.6517" stop-color="#00BFF3"/>
<stop offset="0.6751" stop-color="#00B9F2"/>
<stop offset="0.7211" stop-color="#00B6ED"/>
<stop offset="0.7646" stop-color="#00AFE4"/>
<stop offset="0.8071" stop-color="#00A5D6"/>
<stop offset="0.849" stop-color="#0096C3"/>
<stop offset="0.8905" stop-color="#0082A9"/>
<stop offset="0.9316" stop-color="#00698A"/>
<stop offset="0.9717" stop-color="#004C66"/>
<stop offset="1" stop-color="#003044"/>
</linearGradient>
<linearGradient id="paint15_linear" x1="254.287" y1="-4.88258" x2="-48.6346" y2="84.3809" gradientUnits="userSpaceOnUse">
<stop stop-color="white"/>
<stop offset="0.1728" stop-color="#FBFDFF"/>
<stop offset="0.2717" stop-color="#F1FAFE"/>
<stop offset="0.352" stop-color="#E2F4FD"/>
<stop offset="0.4223" stop-color="#CEEDFC"/>
<stop offset="0.4861" stop-color="#B2E3FA"/>
<stop offset="0.5451" stop-color="#8ED8F8"/>
<stop offset="0.6005" stop-color="#5CCCF5"/>
<stop offset="0.6517" stop-color="#00BFF3"/>
<stop offset="0.6751" stop-color="#00B9F2"/>
<stop offset="0.7211" stop-color="#00B6ED"/>
<stop offset="0.7646" stop-color="#00AFE4"/>
<stop offset="0.8071" stop-color="#00A5D6"/>
<stop offset="0.849" stop-color="#0096C3"/>
<stop offset="0.8905" stop-color="#0082A9"/>
<stop offset="0.9316" stop-color="#00698A"/>
<stop offset="0.9717" stop-color="#004C66"/>
<stop offset="1" stop-color="#003044"/>
</linearGradient>
<linearGradient id="paint16_linear" x1="252.72" y1="-10.1995" x2="-50.2011" y2="79.0633" gradientUnits="userSpaceOnUse">
<stop stop-color="white"/>
<stop offset="0.1728" stop-color="#FBFDFF"/>
<stop offset="0.2717" stop-color="#F1FAFE"/>
<stop offset="0.352" stop-color="#E2F4FD"/>
<stop offset="0.4223" stop-color="#CEEDFC"/>
<stop offset="0.4861" stop-color="#B2E3FA"/>
<stop offset="0.5451" stop-color="#8ED8F8"/>
<stop offset="0.6005" stop-color="#5CCCF5"/>
<stop offset="0.6517" stop-color="#00BFF3"/>
<stop offset="0.6751" stop-color="#00B9F2"/>
<stop offset="0.7211" stop-color="#00B6ED"/>
<stop offset="0.7646" stop-color="#00AFE4"/>
<stop offset="0.8071" stop-color="#00A5D6"/>
<stop offset="0.849" stop-color="#0096C3"/>
<stop offset="0.8905" stop-color="#0082A9"/>
<stop offset="0.9316" stop-color="#00698A"/>
<stop offset="0.9717" stop-color="#004C66"/>
<stop offset="1" stop-color="#003044"/>
</linearGradient>
<linearGradient id="paint17_linear" x1="249.109" y1="-22.4547" x2="-53.8123" y2="66.808" gradientUnits="userSpaceOnUse">
<stop stop-color="white"/>
<stop offset="0.1728" stop-color="#FBFDFF"/>
<stop offset="0.2717" stop-color="#F1FAFE"/>
<stop offset="0.352" stop-color="#E2F4FD"/>
<stop offset="0.4223" stop-color="#CEEDFC"/>
<stop offset="0.4861" stop-color="#B2E3FA"/>
<stop offset="0.5451" stop-color="#8ED8F8"/>
<stop offset="0.6005" stop-color="#5CCCF5"/>
<stop offset="0.6517" stop-color="#00BFF3"/>
<stop offset="0.6751" stop-color="#00B9F2"/>
<stop offset="0.7211" stop-color="#00B6ED"/>
<stop offset="0.7646" stop-color="#00AFE4"/>
<stop offset="0.8071" stop-color="#00A5D6"/>
<stop offset="0.849" stop-color="#0096C3"/>
<stop offset="0.8905" stop-color="#0082A9"/>
<stop offset="0.9316" stop-color="#00698A"/>
<stop offset="0.9717" stop-color="#004C66"/>
<stop offset="1" stop-color="#003044"/>
</linearGradient>
<linearGradient id="paint18_linear" x1="251.52" y1="-14.2737" x2="-51.4016" y2="74.989" gradientUnits="userSpaceOnUse">
<stop stop-color="white"/>
<stop offset="0.1728" stop-color="#FBFDFF"/>
<stop offset="0.2717" stop-color="#F1FAFE"/>
<stop offset="0.352" stop-color="#E2F4FD"/>
<stop offset="0.4223" stop-color="#CEEDFC"/>
<stop offset="0.4861" stop-color="#B2E3FA"/>
<stop offset="0.5451" stop-color="#8ED8F8"/>
<stop offset="0.6005" stop-color="#5CCCF5"/>
<stop offset="0.6517" stop-color="#00BFF3"/>
<stop offset="0.6751" stop-color="#00B9F2"/>
<stop offset="0.7211" stop-color="#00B6ED"/>
<stop offset="0.7646" stop-color="#00AFE4"/>
<stop offset="0.8071" stop-color="#00A5D6"/>
<stop offset="0.849" stop-color="#0096C3"/>
<stop offset="0.8905" stop-color="#0082A9"/>
<stop offset="0.9316" stop-color="#00698A"/>
<stop offset="0.9717" stop-color="#004C66"/>
<stop offset="1" stop-color="#003044"/>
</linearGradient>
<linearGradient id="paint19_linear" x1="245.208" y1="-35.6937" x2="-57.7137" y2="53.5694" gradientUnits="userSpaceOnUse">
<stop stop-color="white"/>
<stop offset="0.1728" stop-color="#FBFDFF"/>
<stop offset="0.2717" stop-color="#F1FAFE"/>
<stop offset="0.352" stop-color="#E2F4FD"/>
<stop offset="0.4223" stop-color="#CEEDFC"/>
<stop offset="0.4861" stop-color="#B2E3FA"/>
<stop offset="0.5451" stop-color="#8ED8F8"/>
<stop offset="0.6005" stop-color="#5CCCF5"/>
<stop offset="0.6517" stop-color="#00BFF3"/>
<stop offset="0.6751" stop-color="#00B9F2"/>
<stop offset="0.7211" stop-color="#00B6ED"/>
<stop offset="0.7646" stop-color="#00AFE4"/>
<stop offset="0.8071" stop-color="#00A5D6"/>
<stop offset="0.849" stop-color="#0096C3"/>
<stop offset="0.8905" stop-color="#0082A9"/>
<stop offset="0.9316" stop-color="#00698A"/>
<stop offset="0.9717" stop-color="#004C66"/>
<stop offset="1" stop-color="#003044"/>
</linearGradient>
<linearGradient id="paint20_linear" x1="243.969" y1="-39.8965" x2="-58.952" y2="49.3662" gradientUnits="userSpaceOnUse">
<stop stop-color="white"/>
<stop offset="0.1728" stop-color="#FBFDFF"/>
<stop offset="0.2717" stop-color="#F1FAFE"/>
<stop offset="0.352" stop-color="#E2F4FD"/>
<stop offset="0.4223" stop-color="#CEEDFC"/>
<stop offset="0.4861" stop-color="#B2E3FA"/>
<stop offset="0.5451" stop-color="#8ED8F8"/>
<stop offset="0.6005" stop-color="#5CCCF5"/>
<stop offset="0.6517" stop-color="#00BFF3"/>
<stop offset="0.6751" stop-color="#00B9F2"/>
<stop offset="0.7211" stop-color="#00B6ED"/>
<stop offset="0.7646" stop-color="#00AFE4"/>
<stop offset="0.8071" stop-color="#00A5D6"/>
<stop offset="0.849" stop-color="#0096C3"/>
<stop offset="0.8905" stop-color="#0082A9"/>
<stop offset="0.9316" stop-color="#00698A"/>
<stop offset="0.9717" stop-color="#004C66"/>
<stop offset="1" stop-color="#003044"/>
</linearGradient>
<linearGradient id="paint21_linear" x1="247.429" y1="-28.1539" x2="-55.4915" y2="61.1085" gradientUnits="userSpaceOnUse">
<stop stop-color="white"/>
<stop offset="0.1728" stop-color="#FBFDFF"/>
<stop offset="0.2717" stop-color="#F1FAFE"/>
<stop offset="0.352" stop-color="#E2F4FD"/>
<stop offset="0.4223" stop-color="#CEEDFC"/>
<stop offset="0.4861" stop-color="#B2E3FA"/>
<stop offset="0.5451" stop-color="#8ED8F8"/>
<stop offset="0.6005" stop-color="#5CCCF5"/>
<stop offset="0.6517" stop-color="#00BFF3"/>
<stop offset="0.6751" stop-color="#00B9F2"/>
<stop offset="0.7211" stop-color="#00B6ED"/>
<stop offset="0.7646" stop-color="#00AFE4"/>
<stop offset="0.8071" stop-color="#00A5D6"/>
<stop offset="0.849" stop-color="#0096C3"/>
<stop offset="0.8905" stop-color="#0082A9"/>
<stop offset="0.9316" stop-color="#00698A"/>
<stop offset="0.9717" stop-color="#004C66"/>
<stop offset="1" stop-color="#003044"/>
</linearGradient>
<clipPath id="clip0">
<rect width="170" height="143" fill="white"/>
</clipPath>
</defs>
</svg>
